Header format=1 ntrks=4 division=960
Track start
Time=0  Meta event, sequencer-specific, type=0x08 leng=13533792
Time=0  Meta event, sequencer-specific, type=0x0d leng=13533792
Time=0  Meta Text, type=0x03 (Sequence/Track Name)  leng=7
     Text = <Track 0>
Time=0  Tempo, microseconds-per-MIDI-quarter-note=857143
Time=0  Meta event, end of track
Track end
Track start
Time=0  Program, chan=1 program=0
Time=0  Meta event, sequencer-specific, type=0x05 leng=13533792
Time=0  Meta Text, type=0x02 (Copyright Notice)  leng=20
     Text = <2006 by forelise.com>
Time=0  Meta Text, type=0x04 (Instrument Name)  leng=5
     Text = <Piano>
Time=0  Meta Text, type=0x03 (Sequence/Track Name)  leng=9
     Text = <F\0xfcr Elise>
Time=0  Meta event, sequencer-specific, type=0x0f leng=13533792
Time=0  Time signature=3/8  MIDI-clocks/click=12  32nd-notes/24-MIDI-clocks=8
Time=0  Meta event, unrecognized, type=0x20 leng=1
Time=960  Note on, chan=1 pitch=76 vol=71
Time=1200  Note off, chan=1 pitch=76 vol=0
Time=1200  Note on, chan=1 pitch=75 vol=38
Time=1440  Note off, chan=1 pitch=75 vol=0
Time=1440  Note on, chan=1 pitch=76 vol=57
Time=1680  Note off, chan=1 pitch=76 vol=0
Time=1680  Note on, chan=1 pitch=75 vol=70
Time=1920  Note off, chan=1 pitch=75 vol=0
Time=1920  Note on, chan=1 pitch=76 vol=76
Time=2160  Note off, chan=1 pitch=76 vol=0
Time=2160  Note on, chan=1 pitch=71 vol=76
Time=2400  Note off, chan=1 pitch=71 vol=0
Time=2400  Note on, chan=1 pitch=74 vol=76
Time=2640  Note off, chan=1 pitch=74 vol=0
Time=2640  Note on, chan=1 pitch=72 vol=83
Time=2880  Note off, chan=1 pitch=72 vol=0
Time=2880  Note on, chan=1 pitch=69 vol=89
Time=2880  Meta event, sequencer-specific, type=0x04 leng=13533792
Time=2880  Note on, chan=1 pitch=45 vol=64
Time=3120  Note off, chan=1 pitch=45 vol=0
Time=3120  Note on, chan=1 pitch=52 vol=64
Time=3360  Note off, chan=1 pitch=52 vol=0
Time=3360  Note on, chan=1 pitch=57 vol=70
Time=3600  Note off, chan=1 pitch=69 vol=0
Time=3600  Note off, chan=1 pitch=57 vol=0
Time=3600  Note on, chan=1 pitch=60 vol=76
Time=3840  Note off, chan=1 pitch=60 vol=0
Time=3840  Note on, chan=1 pitch=64 vol=76
Time=4080  Note off, chan=1 pitch=64 vol=0
Time=4080  Note on, chan=1 pitch=69 vol=76
Time=4320  Note off, chan=1 pitch=69 vol=0
Time=4320  Note on, chan=1 pitch=71 vol=83
Time=4320  Meta event, sequencer-specific, type=0x04 leng=13533792
Time=4320  Note on, chan=1 pitch=40 vol=64
Time=4560  Note off, chan=1 pitch=40 vol=0
Time=4560  Note on, chan=1 pitch=52 vol=64
Time=4800  Note off, chan=1 pitch=52 vol=0
Time=4800  Note on, chan=1 pitch=56 vol=70
Time=5040  Note off, chan=1 pitch=71 vol=0
Time=5040  Note off, chan=1 pitch=56 vol=0
Time=5040  Note on, chan=1 pitch=64 vol=76
Time=5280  Note off, chan=1 pitch=64 vol=0
Time=5280  Note on, chan=1 pitch=68 vol=76
Time=5520  Note off, chan=1 pitch=68 vol=0
Time=5520  Note on, chan=1 pitch=71 vol=76
Time=5760  Note off, chan=1 pitch=71 vol=0
Time=5760  Note on, chan=1 pitch=72 vol=83
Time=5760  Note on, chan=1 pitch=45 vol=64
Time=6000  Note off, chan=1 pitch=45 vol=0
Time=6000  Note on, chan=1 pitch=52 vol=70
Time=6240  Note off, chan=1 pitch=52 vol=0
Time=6240  Note on, chan=1 pitch=57 vol=76
Time=6480  Note off, chan=1 pitch=72 vol=0
Time=6480  Note off, chan=1 pitch=57 vol=0
Time=6480  Note on, chan=1 pitch=64 vol=76
Time=6720  Note off, chan=1 pitch=64 vol=0
Time=6720  Note on, chan=1 pitch=76 vol=76
Time=6960  Note off, chan=1 pitch=76 vol=0
Time=6960  Note on, chan=1 pitch=75 vol=64
Time=7200  Note off, chan=1 pitch=75 vol=0
Time=7200  Note on, chan=1 pitch=76 vol=76
Time=7440  Note off, chan=1 pitch=76 vol=0
Time=7440  Note on, chan=1 pitch=75 vol=70
Time=7680  Note off, chan=1 pitch=75 vol=0
Time=7680  Note on, chan=1 pitch=76 vol=76
Time=7920  Note off, chan=1 pitch=76 vol=0
Time=7920  Note on, chan=1 pitch=71 vol=76
Time=8160  Note off, chan=1 pitch=71 vol=0
Time=8160  Note on, chan=1 pitch=74 vol=76
Time=8400  Note off, chan=1 pitch=74 vol=0
Time=8400  Note on, chan=1 pitch=72 vol=76
Time=8640  Note off, chan=1 pitch=72 vol=0
Time=8640  Note on, chan=1 pitch=69 vol=83
Time=8640  Meta event, sequencer-specific, type=0x04 leng=13533792
Time=8640  Note on, chan=1 pitch=45 vol=57
Time=8880  Note off, chan=1 pitch=45 vol=0
Time=8880  Note on, chan=1 pitch=52 vol=64
Time=9120  Note off, chan=1 pitch=52 vol=0
Time=9120  Note on, chan=1 pitch=57 vol=70
Time=9360  Note off, chan=1 pitch=69 vol=0
Time=9360  Note off, chan=1 pitch=57 vol=0
Time=9360  Note on, chan=1 pitch=60 vol=76
Time=9600  Note off, chan=1 pitch=60 vol=0
Time=9600  Note on, chan=1 pitch=64 vol=76
Time=9840  Note off, chan=1 pitch=64 vol=0
Time=9840  Note on, chan=1 pitch=69 vol=76
Time=10080  Note off, chan=1 pitch=69 vol=0
Time=10080  Note on, chan=1 pitch=71 vol=83
Time=10080  Meta event, sequencer-specific, type=0x04 leng=13533792
Time=10080  Note on, chan=1 pitch=40 vol=64
Time=10320  Note off, chan=1 pitch=40 vol=0
Time=10320  Note on, chan=1 pitch=52 vol=70
Time=10560  Note off, chan=1 pitch=52 vol=0
Time=10560  Note on, chan=1 pitch=56 vol=76
Time=10800  Note off, chan=1 pitch=71 vol=0
Time=10800  Note off, chan=1 pitch=56 vol=0
Time=10800  Note on, chan=1 pitch=64 vol=76
Time=11040  Note off, chan=1 pitch=64 vol=0
Time=11040  Note on, chan=1 pitch=72 vol=76
Time=11280  Note off, chan=1 pitch=72 vol=0
Time=11280  Note on, chan=1 pitch=71 vol=76
Time=11520  Note off, chan=1 pitch=71 vol=0
Time=11520  Note on, chan=1 pitch=69 vol=83
Time=11520  Note on, chan=1 pitch=45 vol=64
Time=11760  Note off, chan=1 pitch=45 vol=0
Time=11760  Note on, chan=1 pitch=52 vol=70
Time=12000  Note off, chan=1 pitch=52 vol=0
Time=12000  Note on, chan=1 pitch=57 vol=70
Time=12240  Note off, chan=1 pitch=69 vol=0
Time=12240  Note off, chan=1 pitch=57 vol=0
Time=12480  Note on, chan=1 pitch=76 vol=64
Time=12720  Note off, chan=1 pitch=76 vol=0
Time=12720  Note on, chan=1 pitch=75 vol=70
Time=12960  Note off, chan=1 pitch=75 vol=0
Time=12960  Note on, chan=1 pitch=76 vol=70
Time=13200  Note off, chan=1 pitch=76 vol=0
Time=13200  Note on, chan=1 pitch=75 vol=64
Time=13440  Note off, chan=1 pitch=75 vol=0
Time=13440  Note on, chan=1 pitch=76 vol=76
Time=13680  Note off, chan=1 pitch=76 vol=0
Time=13680  Note on, chan=1 pitch=71 vol=76
Time=13920  Note off, chan=1 pitch=71 vol=0
Time=13920  Note on, chan=1 pitch=74 vol=76
Time=14160  Note off, chan=1 pitch=74 vol=0
Time=14160  Note on, chan=1 pitch=72 vol=76
Time=14400  Note off, chan=1 pitch=72 vol=0
Time=14400  Note on, chan=1 pitch=69 vol=76
Time=14400  Note on, chan=1 pitch=45 vol=76
Time=14640  Note off, chan=1 pitch=45 vol=0
Time=14640  Note on, chan=1 pitch=52 vol=76
Time=14880  Note off, chan=1 pitch=52 vol=0
Time=14880  Note on, chan=1 pitch=57 vol=76
Time=15120  Note off, chan=1 pitch=57 vol=0
Time=15120  Note off, chan=1 pitch=69 vol=0
Time=15120  Note on, chan=1 pitch=60 vol=76
Time=15360  Note off, chan=1 pitch=60 vol=0
Time=15360  Note on, chan=1 pitch=64 vol=76
Time=15600  Note off, chan=1 pitch=64 vol=0
Time=15600  Note on, chan=1 pitch=69 vol=76
Time=15840  Note off, chan=1 pitch=69 vol=0
Time=15840  Note on, chan=1 pitch=71 vol=83
Time=15840  Note on, chan=1 pitch=40 vol=64
Time=16080  Note off, chan=1 pitch=40 vol=0
Time=16080  Note on, chan=1 pitch=52 vol=70
Time=16320  Note off, chan=1 pitch=52 vol=0
Time=16320  Note on, chan=1 pitch=56 vol=76
Time=16560  Note off, chan=1 pitch=71 vol=0
Time=16560  Note off, chan=1 pitch=56 vol=0
Time=16560  Note on, chan=1 pitch=64 vol=76
Time=16800  Note off, chan=1 pitch=64 vol=0
Time=16800  Note on, chan=1 pitch=68 vol=76
Time=17040  Note off, chan=1 pitch=68 vol=0
Time=17040  Note on, chan=1 pitch=71 vol=76
Time=17280  Note off, chan=1 pitch=71 vol=0
Time=17280  Note on, chan=1 pitch=72 vol=76
Time=17280  Note on, chan=1 pitch=45 vol=64
Time=17520  Note off, chan=1 pitch=45 vol=0
Time=17520  Note on, chan=1 pitch=52 vol=76
Time=17760  Note off, chan=1 pitch=52 vol=0
Time=17760  Note off, chan=1 pitch=72 vol=0
Time=17760  Note on, chan=1 pitch=57 vol=76
Time=18000  Note off, chan=1 pitch=57 vol=0
Time=18000  Note on, chan=1 pitch=64 vol=76
Time=18240  Note off, chan=1 pitch=64 vol=0
Time=18240  Note on, chan=1 pitch=76 vol=76
Time=18480  Note off, chan=1 pitch=76 vol=0
Time=18480  Note on, chan=1 pitch=75 vol=70
Time=18720  Note off, chan=1 pitch=75 vol=0
Time=18720  Note on, chan=1 pitch=76 vol=76
Time=18960  Note off, chan=1 pitch=76 vol=0
Time=18960  Note on, chan=1 pitch=75 vol=70
Time=19200  Note off, chan=1 pitch=75 vol=0
Time=19200  Note on, chan=1 pitch=76 vol=76
Time=19440  Note off, chan=1 pitch=76 vol=0
Time=19440  Note on, chan=1 pitch=71 vol=76
Time=19680  Note off, chan=1 pitch=71 vol=0
Time=19680  Note on, chan=1 pitch=74 vol=76
Time=19920  Note off, chan=1 pitch=74 vol=0
Time=19920  Note on, chan=1 pitch=72 vol=76
Time=20160  Note off, chan=1 pitch=72 vol=0
Time=20160  Note on, chan=1 pitch=69 vol=76
Time=20160  Note on, chan=1 pitch=45 vol=70
Time=20400  Note off, chan=1 pitch=45 vol=0
Time=20400  Note on, chan=1 pitch=52 vol=76
Time=20640  Note off, chan=1 pitch=52 vol=0
Time=20640  Note off, chan=1 pitch=69 vol=0
Time=20640  Note on, chan=1 pitch=57 vol=76
Time=20880  Note off, chan=1 pitch=57 vol=0
Time=20880  Note on, chan=1 pitch=60 vol=76
Time=21120  Note off, chan=1 pitch=60 vol=0
Time=21120  Note on, chan=1 pitch=64 vol=76
Time=21360  Note off, chan=1 pitch=64 vol=0
Time=21360  Note on, chan=1 pitch=69 vol=76
Time=21600  Note off, chan=1 pitch=69 vol=0
Time=21600  Note on, chan=1 pitch=71 vol=76
Time=21600  Note on, chan=1 pitch=40 vol=64
Time=21840  Note off, chan=1 pitch=40 vol=0
Time=21840  Note on, chan=1 pitch=52 vol=76
Time=22080  Note off, chan=1 pitch=52 vol=0
Time=22080  Note off, chan=1 pitch=71 vol=0
Time=22080  Note on, chan=1 pitch=56 vol=76
Time=22320  Note off, chan=1 pitch=56 vol=0
Time=22320  Note on, chan=1 pitch=64 vol=76
Time=22560  Note off, chan=1 pitch=64 vol=0
Time=22560  Note on, chan=1 pitch=72 vol=76
Time=22800  Note off, chan=1 pitch=72 vol=0
Time=22800  Note on, chan=1 pitch=71 vol=76
Time=23040  Note off, chan=1 pitch=71 vol=0
Time=23040  Note on, chan=1 pitch=69 vol=83
Time=23040  Note on, chan=1 pitch=45 vol=76
Time=23280  Note off, chan=1 pitch=45 vol=0
Time=23280  Note on, chan=1 pitch=52 vol=76
Time=23520  Note off, chan=1 pitch=69 vol=0
Time=23520  Note off, chan=1 pitch=52 vol=0
Time=23520  Note on, chan=1 pitch=57 vol=76
Time=23760  Note off, chan=1 pitch=57 vol=0
Time=23760  Note on, chan=1 pitch=71 vol=76
Time=24000  Note off, chan=1 pitch=71 vol=0
Time=24000  Note on, chan=1 pitch=72 vol=76
Time=24240  Note off, chan=1 pitch=72 vol=0
Time=24240  Note on, chan=1 pitch=74 vol=76
Time=24480  Note off, chan=1 pitch=74 vol=0
Time=24480  Note on, chan=1 pitch=76 vol=76
Time=24480  Meta event, sequencer-specific, type=0x04 leng=13533792
Time=24480  Note on, chan=1 pitch=48 vol=70
Time=24720  Note off, chan=1 pitch=48 vol=0
Time=24720  Note on, chan=1 pitch=55 vol=76
Time=24960  Note off, chan=1 pitch=55 vol=0
Time=24960  Note on, chan=1 pitch=60 vol=76
Time=24960  Meta event, sequencer-specific, type=0x04 leng=13533792
Time=25200  Note off, chan=1 pitch=76 vol=0
Time=25200  Note off, chan=1 pitch=60 vol=0
Time=25200  Note on, chan=1 pitch=67 vol=76
Time=25440  Note off, chan=1 pitch=67 vol=0
Time=25440  Note on, chan=1 pitch=77 vol=76
Time=25680  Note off, chan=1 pitch=77 vol=0
Time=25680  Note on, chan=1 pitch=76 vol=76
Time=25920  Note off, chan=1 pitch=76 vol=0
Time=25920  Note on, chan=1 pitch=74 vol=76
Time=25920  Meta event, sequencer-specific, type=0x04 leng=13533792
Time=25920  Note on, chan=1 pitch=43 vol=64
Time=26160  Note off, chan=1 pitch=43 vol=0
Time=26160  Note on, chan=1 pitch=55 vol=76
Time=26400  Note off, chan=1 pitch=55 vol=0
Time=26400  Note on, chan=1 pitch=59 vol=76
Time=26640  Note off, chan=1 pitch=74 vol=0
Time=26640  Note off, chan=1 pitch=59 vol=0
Time=26640  Note on, chan=1 pitch=65 vol=76
Time=26880  Note off, chan=1 pitch=65 vol=0
Time=26880  Note on, chan=1 pitch=76 vol=76
Time=27120  Note off, chan=1 pitch=76 vol=0
Time=27120  Note on, chan=1 pitch=74 vol=76
Time=27360  Note off, chan=1 pitch=74 vol=0
Time=27360  Note on, chan=1 pitch=72 vol=76
Time=27360  Note on, chan=1 pitch=45 vol=64
Time=27600  Note off, chan=1 pitch=45 vol=0
Time=27600  Note on, chan=1 pitch=52 vol=76
Time=27840  Note off, chan=1 pitch=52 vol=0
Time=27840  Note on, chan=1 pitch=57 vol=76
Time=28080  Note off, chan=1 pitch=57 vol=0
Time=28080  Note off, chan=1 pitch=72 vol=0
Time=28080  Note on, chan=1 pitch=64 vol=76
Time=28320  Note off, chan=1 pitch=64 vol=0
Time=28320  Note on, chan=1 pitch=74 vol=76
Time=28560  Note off, chan=1 pitch=74 vol=0
Time=28560  Note on, chan=1 pitch=72 vol=76
Time=28800  Note off, chan=1 pitch=72 vol=0
Time=28800  Note on, chan=1 pitch=71 vol=76
Time=28800  Note on, chan=1 pitch=40 vol=64
Time=29040  Note off, chan=1 pitch=40 vol=0
Time=29040  Note on, chan=1 pitch=52 vol=76
Time=29280  Note off, chan=1 pitch=52 vol=0
Time=29280  Note off, chan=1 pitch=71 vol=0
Time=29280  Note on, chan=1 pitch=64 vol=76
Time=29280  Meta event, sequencer-specific, type=0x04 leng=13533792
Time=29520  Note off, chan=1 pitch=64 vol=0
Time=29520  Note on, chan=1 pitch=64 vol=76
Time=29760  Note off, chan=1 pitch=64 vol=0
Time=29760  Note on, chan=1 pitch=76 vol=76
Time=30000  Note off, chan=1 pitch=76 vol=0
Time=30000  Note on, chan=1 pitch=64 vol=76
Time=30240  Note off, chan=1 pitch=64 vol=0
Time=30240  Note on, chan=1 pitch=76 vol=76
Time=30480  Note off, chan=1 pitch=76 vol=0
Time=30480  Note on, chan=1 pitch=76 vol=70
Time=30720  Note off, chan=1 pitch=76 vol=0
Time=30720  Note on, chan=1 pitch=88 vol=64
Time=30960  Note off, chan=1 pitch=88 vol=0
Time=30960  Note on, chan=1 pitch=75 vol=70
Time=31200  Note off, chan=1 pitch=75 vol=0
Time=31200  Note on, chan=1 pitch=76 vol=76
Time=31440  Note off, chan=1 pitch=76 vol=0
Time=31440  Note on, chan=1 pitch=75 vol=76
Time=31680  Note off, chan=1 pitch=75 vol=0
Time=31680  Note on, chan=1 pitch=76 vol=76
Time=31920  Note off, chan=1 pitch=76 vol=0
Time=31920  Note on, chan=1 pitch=75 vol=76
Time=32160  Note off, chan=1 pitch=75 vol=0
Time=32160  Note on, chan=1 pitch=76 vol=76
Time=32400  Note off, chan=1 pitch=76 vol=0
Time=32400  Note on, chan=1 pitch=71 vol=76
Time=32640  Note off, chan=1 pitch=71 vol=0
Time=32640  Note on, chan=1 pitch=74 vol=70
Time=32880  Note off, chan=1 pitch=74 vol=0
Time=32880  Note on, chan=1 pitch=72 vol=76
Time=33120  Note off, chan=1 pitch=72 vol=0
Time=33120  Note on, chan=1 pitch=69 vol=76
Time=33120  Note on, chan=1 pitch=45 vol=64
Time=33360  Note off, chan=1 pitch=45 vol=0
Time=33360  Note on, chan=1 pitch=52 vol=70
Time=33600  Note off, chan=1 pitch=52 vol=0
Time=33600  Note off, chan=1 pitch=69 vol=0
Time=33600  Note on, chan=1 pitch=57 vol=76
Time=33840  Note off, chan=1 pitch=57 vol=0
Time=33840  Note on, chan=1 pitch=60 vol=76
Time=34080  Note off, chan=1 pitch=60 vol=0
Time=34080  Note on, chan=1 pitch=64 vol=76
Time=34320  Note off, chan=1 pitch=64 vol=0
Time=34320  Note on, chan=1 pitch=69 vol=76
Time=34560  Note off, chan=1 pitch=69 vol=0
Time=34560  Note on, chan=1 pitch=71 vol=76
Time=34560  Note on, chan=1 pitch=40 vol=64
Time=34800  Note off, chan=1 pitch=40 vol=0
Time=34800  Note on, chan=1 pitch=52 vol=70
Time=35040  Note off, chan=1 pitch=52 vol=0
Time=35040  Note off, chan=1 pitch=71 vol=0
Time=35040  Note on, chan=1 pitch=56 vol=76
Time=35280  Note off, chan=1 pitch=56 vol=0
Time=35280  Note on, chan=1 pitch=64 vol=76
Time=35520  Note off, chan=1 pitch=64 vol=0
Time=35520  Note on, chan=1 pitch=68 vol=76
Time=35760  Note off, chan=1 pitch=68 vol=0
Time=35760  Note on, chan=1 pitch=71 vol=76
Time=36000  Note off, chan=1 pitch=71 vol=0
Time=36000  Note on, chan=1 pitch=72 vol=76
Time=36000  Note on, chan=1 pitch=45 vol=70
Time=36240  Note off, chan=1 pitch=45 vol=0
Time=36240  Note on, chan=1 pitch=52 vol=76
Time=36480  Note off, chan=1 pitch=52 vol=0
Time=36480  Note off, chan=1 pitch=72 vol=0
Time=36480  Note on, chan=1 pitch=57 vol=76
Time=36720  Note off, chan=1 pitch=57 vol=0
Time=36720  Note on, chan=1 pitch=64 vol=76
Time=36960  Note off, chan=1 pitch=64 vol=0
Time=36960  Note on, chan=1 pitch=76 vol=76
Time=37200  Note off, chan=1 pitch=76 vol=0
Time=37200  Note on, chan=1 pitch=75 vol=76
Time=37440  Note off, chan=1 pitch=75 vol=0
Time=37440  Note on, chan=1 pitch=76 vol=76
Time=37680  Note off, chan=1 pitch=76 vol=0
Time=37680  Note on, chan=1 pitch=75 vol=70
Time=37920  Note off, chan=1 pitch=75 vol=0
Time=37920  Note on, chan=1 pitch=76 vol=76
Time=38160  Note off, chan=1 pitch=76 vol=0
Time=38160  Note on, chan=1 pitch=71 vol=70
Time=38400  Note off, chan=1 pitch=71 vol=0
Time=38400  Note on, chan=1 pitch=74 vol=76
Time=38640  Note off, chan=1 pitch=74 vol=0
Time=38640  Note on, chan=1 pitch=72 vol=76
Time=38880  Note off, chan=1 pitch=72 vol=0
Time=38880  Note on, chan=1 pitch=69 vol=83
Time=38880  Note on, chan=1 pitch=45 vol=64
Time=39120  Note off, chan=1 pitch=45 vol=0
Time=39120  Note on, chan=1 pitch=52 vol=76
Time=39360  Note off, chan=1 pitch=52 vol=0
Time=39360  Note off, chan=1 pitch=69 vol=0
Time=39360  Note on, chan=1 pitch=57 vol=76
Time=39600  Note off, chan=1 pitch=57 vol=0
Time=39600  Note on, chan=1 pitch=60 vol=76
Time=39840  Note off, chan=1 pitch=60 vol=0
Time=39840  Note on, chan=1 pitch=64 vol=76
Time=40080  Note off, chan=1 pitch=64 vol=0
Time=40080  Note on, chan=1 pitch=69 vol=76
Time=40320  Note off, chan=1 pitch=69 vol=0
Time=40320  Note on, chan=1 pitch=71 vol=76
Time=40320  Note on, chan=1 pitch=40 vol=64
Time=40560  Note off, chan=1 pitch=40 vol=0
Time=40560  Note on, chan=1 pitch=52 vol=70
Time=40800  Note off, chan=1 pitch=52 vol=0
Time=40800  Note off, chan=1 pitch=71 vol=0
Time=40800  Note on, chan=1 pitch=56 vol=76
Time=41040  Note off, chan=1 pitch=56 vol=0
Time=41040  Note on, chan=1 pitch=64 vol=76
Time=41280  Note off, chan=1 pitch=64 vol=0
Time=41280  Note on, chan=1 pitch=72 vol=76
Time=41520  Note off, chan=1 pitch=72 vol=0
Time=41520  Note on, chan=1 pitch=71 vol=76
Time=41760  Note off, chan=1 pitch=71 vol=0
Time=41760  Note on, chan=1 pitch=69 vol=76
Time=41760  Note on, chan=1 pitch=45 vol=70
Time=42000  Note off, chan=1 pitch=45 vol=0
Time=42000  Note on, chan=1 pitch=52 vol=76
Time=42240  Note off, chan=1 pitch=52 vol=0
Time=42240  Note off, chan=1 pitch=69 vol=0
Time=42240  Note on, chan=1 pitch=57 vol=76
Time=42480  Note off, chan=1 pitch=57 vol=0
Time=42480  Note on, chan=1 pitch=71 vol=76
Time=42720  Note off, chan=1 pitch=71 vol=0
Time=42720  Note on, chan=1 pitch=72 vol=76
Time=42960  Note off, chan=1 pitch=72 vol=0
Time=42960  Note on, chan=1 pitch=74 vol=76
Time=43200  Note off, chan=1 pitch=74 vol=0
Time=43200  Note on, chan=1 pitch=76 vol=76
Time=43200  Meta event, sequencer-specific, type=0x04 leng=13533792
Time=43200  Note on, chan=1 pitch=48 vol=64
Time=43440  Note off, chan=1 pitch=48 vol=0
Time=43440  Note on, chan=1 pitch=55 vol=70
Time=43680  Note off, chan=1 pitch=55 vol=0
Time=43680  Note on, chan=1 pitch=60 vol=76
Time=43680  Meta event, sequencer-specific, type=0x04 leng=13533792
Time=43920  Note off, chan=1 pitch=76 vol=0
Time=43920  Note off, chan=1 pitch=60 vol=0
Time=43920  Note on, chan=1 pitch=67 vol=76
Time=44160  Note off, chan=1 pitch=67 vol=0
Time=44160  Note on, chan=1 pitch=77 vol=76
Time=44400  Note off, chan=1 pitch=77 vol=0
Time=44400  Note on, chan=1 pitch=76 vol=76
Time=44640  Note off, chan=1 pitch=76 vol=0
Time=44640  Note on, chan=1 pitch=74 vol=76
Time=44640  Meta event, sequencer-specific, type=0x04 leng=13533792
Time=44640  Note on, chan=1 pitch=43 vol=64
Time=44880  Note off, chan=1 pitch=43 vol=0
Time=44880  Note on, chan=1 pitch=55 vol=70
Time=45120  Note off, chan=1 pitch=55 vol=0
Time=45120  Note on, chan=1 pitch=59 vol=76
Time=45360  Note off, chan=1 pitch=74 vol=0
Time=45360  Note off, chan=1 pitch=59 vol=0
Time=45360  Note on, chan=1 pitch=65 vol=76
Time=45600  Note off, chan=1 pitch=65 vol=0
Time=45600  Note on, chan=1 pitch=76 vol=76
Time=45840  Note off, chan=1 pitch=76 vol=0
Time=45840  Note on, chan=1 pitch=74 vol=76
Time=46080  Note off, chan=1 pitch=74 vol=0
Time=46080  Note on, chan=1 pitch=72 vol=83
Time=46080  Note on, chan=1 pitch=45 vol=70
Time=46320  Note off, chan=1 pitch=45 vol=0
Time=46320  Note on, chan=1 pitch=52 vol=70
Time=46560  Note off, chan=1 pitch=52 vol=0
Time=46560  Note on, chan=1 pitch=57 vol=76
Time=46800  Note off, chan=1 pitch=72 vol=0
Time=46800  Note off, chan=1 pitch=57 vol=0
Time=46800  Note on, chan=1 pitch=64 vol=76
Time=47040  Note off, chan=1 pitch=64 vol=0
Time=47040  Note on, chan=1 pitch=74 vol=76
Time=47280  Note off, chan=1 pitch=74 vol=0
Time=47280  Note on, chan=1 pitch=72 vol=76
Time=47520  Note off, chan=1 pitch=72 vol=0
Time=47520  Note on, chan=1 pitch=71 vol=83
Time=47520  Note on, chan=1 pitch=40 vol=64
Time=47760  Note off, chan=1 pitch=40 vol=0
Time=47760  Note on, chan=1 pitch=52 vol=70
Time=48000  Note off, chan=1 pitch=52 vol=0
Time=48000  Note off, chan=1 pitch=71 vol=0
Time=48000  Note on, chan=1 pitch=64 vol=76
Time=48000  Meta event, sequencer-specific, type=0x04 leng=13533792
Time=48240  Note off, chan=1 pitch=64 vol=0
Time=48240  Note on, chan=1 pitch=64 vol=76
Time=48480  Note off, chan=1 pitch=64 vol=0
Time=48480  Note on, chan=1 pitch=76 vol=83
Time=48720  Note off, chan=1 pitch=76 vol=0
Time=48720  Note on, chan=1 pitch=64 vol=76
Time=48960  Note off, chan=1 pitch=64 vol=0
Time=48960  Note on, chan=1 pitch=76 vol=76
Time=49200  Note off, chan=1 pitch=76 vol=0
Time=49200  Note on, chan=1 pitch=76 vol=70
Time=49440  Note off, chan=1 pitch=76 vol=0
Time=49440  Note on, chan=1 pitch=88 vol=64
Time=49680  Note off, chan=1 pitch=88 vol=0
Time=49680  Note on, chan=1 pitch=75 vol=76
Time=49920  Note off, chan=1 pitch=75 vol=0
Time=49920  Note on, chan=1 pitch=76 vol=70
Time=50160  Note off, chan=1 pitch=76 vol=0
Time=50160  Note on, chan=1 pitch=75 vol=76
Time=50400  Note off, chan=1 pitch=75 vol=0
Time=50400  Note on, chan=1 pitch=76 vol=76
Time=50640  Note off, chan=1 pitch=76 vol=0
Time=50640  Note on, chan=1 pitch=75 vol=76
Time=50880  Note off, chan=1 pitch=75 vol=0
Time=50880  Note on, chan=1 pitch=76 vol=76
Time=51120  Note off, chan=1 pitch=76 vol=0
Time=51120  Note on, chan=1 pitch=71 vol=76
Time=51360  Note off, chan=1 pitch=71 vol=0
Time=51360  Note on, chan=1 pitch=74 vol=76
Time=51600  Note off, chan=1 pitch=74 vol=0
Time=51600  Note on, chan=1 pitch=72 vol=76
Time=51840  Note off, chan=1 pitch=72 vol=0
Time=51840  Note on, chan=1 pitch=69 vol=83
Time=51840  Note on, chan=1 pitch=45 vol=64
Time=52080  Note off, chan=1 pitch=45 vol=0
Time=52080  Note on, chan=1 pitch=52 vol=70
Time=52320  Note off, chan=1 pitch=52 vol=0
Time=52320  Note off, chan=1 pitch=69 vol=0
Time=52320  Note on, chan=1 pitch=57 vol=76
Time=52560  Note off, chan=1 pitch=57 vol=0
Time=52560  Note on, chan=1 pitch=60 vol=70
Time=52800  Note off, chan=1 pitch=60 vol=0
Time=52800  Note on, chan=1 pitch=64 vol=76
Time=53040  Note off, chan=1 pitch=64 vol=0
Time=53040  Note on, chan=1 pitch=69 vol=76
Time=53280  Note off, chan=1 pitch=69 vol=0
Time=53280  Note on, chan=1 pitch=71 vol=76
Time=53280  Note on, chan=1 pitch=40 vol=64
Time=53520  Note off, chan=1 pitch=40 vol=0
Time=53520  Note on, chan=1 pitch=52 vol=76
Time=53760  Note off, chan=1 pitch=52 vol=0
Time=53760  Note off, chan=1 pitch=71 vol=0
Time=53760  Note on, chan=1 pitch=56 vol=76
Time=54000  Note off, chan=1 pitch=56 vol=0
Time=54000  Note on, chan=1 pitch=64 vol=76
Time=54240  Note off, chan=1 pitch=64 vol=0
Time=54240  Note on, chan=1 pitch=68 vol=76
Time=54480  Note off, chan=1 pitch=68 vol=0
Time=54480  Note on, chan=1 pitch=71 vol=76
Time=54720  Note off, chan=1 pitch=71 vol=0
Time=54720  Note on, chan=1 pitch=72 vol=76
Time=54720  Note on, chan=1 pitch=45 vol=76
Time=54960  Note off, chan=1 pitch=45 vol=0
Time=54960  Note on, chan=1 pitch=52 vol=76
Time=55200  Note off, chan=1 pitch=52 vol=0
Time=55200  Note off, chan=1 pitch=72 vol=0
Time=55200  Note on, chan=1 pitch=57 vol=76
Time=55440  Note off, chan=1 pitch=57 vol=0
Time=55440  Note on, chan=1 pitch=64 vol=76
Time=55680  Note off, chan=1 pitch=64 vol=0
Time=55680  Note on, chan=1 pitch=76 vol=76
Time=55920  Note off, chan=1 pitch=76 vol=0
Time=55920  Note on, chan=1 pitch=75 vol=76
Time=56160  Note off, chan=1 pitch=75 vol=0
Time=56160  Note on, chan=1 pitch=76 vol=76
Time=56400  Note off, chan=1 pitch=76 vol=0
Time=56400  Note on, chan=1 pitch=75 vol=70
Time=56640  Note off, chan=1 pitch=75 vol=0
Time=56640  Note on, chan=1 pitch=76 vol=76
Time=56880  Note off, chan=1 pitch=76 vol=0
Time=56880  Note on, chan=1 pitch=71 vol=76
Time=57120  Note off, chan=1 pitch=71 vol=0
Time=57120  Note on, chan=1 pitch=74 vol=76
Time=57360  Note off, chan=1 pitch=74 vol=0
Time=57360  Note on, chan=1 pitch=72 vol=70
Time=57600  Note off, chan=1 pitch=72 vol=0
Time=57600  Note on, chan=1 pitch=69 vol=76
Time=57600  Note on, chan=1 pitch=45 vol=64
Time=57840  Note off, chan=1 pitch=45 vol=0
Time=57840  Note on, chan=1 pitch=52 vol=70
Time=58080  Note off, chan=1 pitch=52 vol=0
Time=58080  Note off, chan=1 pitch=69 vol=0
Time=58080  Note on, chan=1 pitch=57 vol=76
Time=58320  Note off, chan=1 pitch=57 vol=0
Time=58320  Note on, chan=1 pitch=60 vol=76
Time=58560  Note off, chan=1 pitch=60 vol=0
Time=58560  Note on, chan=1 pitch=64 vol=76
Time=58800  Note off, chan=1 pitch=64 vol=0
Time=58800  Note on, chan=1 pitch=69 vol=76
Time=59040  Note off, chan=1 pitch=69 vol=0
Time=59040  Note on, chan=1 pitch=71 vol=76
Time=59040  Note on, chan=1 pitch=40 vol=64
Time=59280  Note off, chan=1 pitch=40 vol=0
Time=59280  Note on, chan=1 pitch=52 vol=64
Time=59520  Note off, chan=1 pitch=52 vol=0
Time=59520  Note off, chan=1 pitch=71 vol=0
Time=59520  Note on, chan=1 pitch=56 vol=70
Time=59760  Note off, chan=1 pitch=56 vol=0
Time=59760  Note on, chan=1 pitch=64 vol=76
Time=60000  Note off, chan=1 pitch=64 vol=0
Time=60000  Note on, chan=1 pitch=72 vol=76
Time=60240  Note off, chan=1 pitch=72 vol=0
Time=60240  Note on, chan=1 pitch=71 vol=76
Time=60480  Note off, chan=1 pitch=71 vol=0
Time=60480  Note on, chan=1 pitch=69 vol=89
Time=60480  Note on, chan=1 pitch=45 vol=70
Time=60720  Note off, chan=1 pitch=45 vol=0
Time=60720  Note on, chan=1 pitch=52 vol=76
Time=60960  Note off, chan=1 pitch=52 vol=0
Time=60960  Note off, chan=1 pitch=69 vol=0
Time=60960  Note on, chan=1 pitch=57 vol=83
Time=61200  Note off, chan=1 pitch=57 vol=0
Time=61200  Note on, chan=1 pitch=58 vol=51
Time=61200  Meta event, sequencer-specific, type=0x03 leng=13533792
Time=61200  Note on, chan=1 pitch=60 vol=51
Time=61200  Meta event, sequencer-specific, type=0x03 leng=13533792
Time=61200  Note on, chan=1 pitch=64 vol=51
Time=61200  Meta event, sequencer-specific, type=0x03 leng=13533792
Time=61200  Note on, chan=1 pitch=72 vol=51
Time=61200  Meta event, sequencer-specific, type=0x03 leng=13533792
Time=61320  Note off, chan=1 pitch=72 vol=0
Time=61320  Note off, chan=1 pitch=64 vol=0
Time=61320  Note off, chan=1 pitch=58 vol=0
Time=61320  Note off, chan=1 pitch=60 vol=0
Time=61440  Note on, chan=1 pitch=60 vol=64
Time=61440  Meta event, sequencer-specific, type=0x03 leng=13533792
Time=61440  Note on, chan=1 pitch=57 vol=64
Time=61440  Meta event, sequencer-specific, type=0x03 leng=13533792
Time=61440  Note on, chan=1 pitch=65 vol=64
Time=61440  Meta event, sequencer-specific, type=0x03 leng=13533792
Time=61440  Note on, chan=1 pitch=72 vol=64
Time=61440  Meta event, sequencer-specific, type=0x03 leng=13533792
Time=61560  Note off, chan=1 pitch=72 vol=0
Time=61560  Note off, chan=1 pitch=65 vol=0
Time=61560  Note off, chan=1 pitch=57 vol=0
Time=61560  Note off, chan=1 pitch=60 vol=0
Time=61680  Note on, chan=1 pitch=58 vol=78
Time=61680  Meta event, sequencer-specific, type=0x03 leng=13533792
Time=61680  Note on, chan=1 pitch=60 vol=78
Time=61680  Meta event, sequencer-specific, type=0x03 leng=13533792
Time=61680  Note on, chan=1 pitch=55 vol=78
Time=61680  Meta event, sequencer-specific, type=0x03 leng=13533792
Time=61680  Note on, chan=1 pitch=64 vol=70
Time=61680  Meta event, sequencer-specific, type=0x03 leng=13533792
Time=61680  Note on, chan=1 pitch=72 vol=83
Time=61680  Meta event, sequencer-specific, type=0x03 leng=13533792
Time=61680  Note on, chan=1 pitch=67 vol=70
Time=61680  Meta event, sequencer-specific, type=0x03 leng=13533792
Time=61800  Note off, chan=1 pitch=67 vol=0
Time=61800  Note off, chan=1 pitch=72 vol=0
Time=61800  Note off, chan=1 pitch=64 vol=0
Time=61800  Note off, chan=1 pitch=55 vol=0
Time=61800  Note off, chan=1 pitch=58 vol=0
Time=61800  Note off, chan=1 pitch=60 vol=0
Time=61920  Note on, chan=1 pitch=72 vol=95
Time=61920  Note on, chan=1 pitch=53 vol=76
Time=62160  Note off, chan=1 pitch=53 vol=0
Time=62160  Note on, chan=1 pitch=57 vol=76
Time=62400  Note off, chan=1 pitch=57 vol=0
Time=62400  Note on, chan=1 pitch=60 vol=76
Time=62400  Meta event, sequencer-specific, type=0x04 leng=13533792
Time=62640  Note off, chan=1 pitch=60 vol=0
Time=62640  Note on, chan=1 pitch=57 vol=76
Time=62880  Note off, chan=1 pitch=57 vol=0
Time=62880  Note off, chan=1 pitch=72 vol=0
Time=62880  Note on, chan=1 pitch=60 vol=76
Time=62880  Meta event, sequencer-specific, type=0x04 leng=13533792
Time=62880  Note on, chan=1 pitch=77 vol=76
Time=63120  Note off, chan=1 pitch=60 vol=0
Time=63120  Note on, chan=1 pitch=57 vol=76
Time=63240  Note off, chan=1 pitch=77 vol=0
Time=63240  Note on, chan=1 pitch=76 vol=76
Time=63360  Note off, chan=1 pitch=76 vol=0
Time=63360  Note off, chan=1 pitch=57 vol=0
Time=63360  Note on, chan=1 pitch=76 vol=76
Time=63360  Note on, chan=1 pitch=53 vol=76
Time=63600  Note off, chan=1 pitch=53 vol=0
Time=63600  Note on, chan=1 pitch=58 vol=76
Time=63840  Note off, chan=1 pitch=58 vol=0
Time=63840  Note off, chan=1 pitch=76 vol=0
Time=63840  Note on, chan=1 pitch=74 vol=76
Time=63840  Note on, chan=1 pitch=62 vol=76
Time=63840  Meta event, sequencer-specific, type=0x04 leng=13533792
Time=64080  Note off, chan=1 pitch=62 vol=0
Time=64080  Note on, chan=1 pitch=58 vol=76
Time=64320  Note off, chan=1 pitch=58 vol=0
Time=64320  Note off, chan=1 pitch=74 vol=0
Time=64320  Note on, chan=1 pitch=62 vol=76
Time=64320  Meta event, sequencer-specific, type=0x04 leng=13533792
Time=64320  Note on, chan=1 pitch=82 vol=76
Time=64560  Note off, chan=1 pitch=62 vol=0
Time=64560  Note on, chan=1 pitch=58 vol=76
Time=64680  Note off, chan=1 pitch=82 vol=0
Time=64680  Note on, chan=1 pitch=81 vol=76
Time=64800  Note off, chan=1 pitch=81 vol=0
Time=64800  Note off, chan=1 pitch=58 vol=0
Time=64800  Note on, chan=1 pitch=81 vol=76
Time=64800  Note on, chan=1 pitch=53 vol=76
Time=65040  Note off, chan=1 pitch=53 vol=0
Time=65040  Note off, chan=1 pitch=81 vol=0
Time=65040  Note on, chan=1 pitch=79 vol=76
Time=65040  Note on, chan=1 pitch=64 vol=76
Time=65040  Meta event, sequencer-specific, type=0x04 leng=13533792
Time=65280  Note off, chan=1 pitch=64 vol=0
Time=65280  Note off, chan=1 pitch=79 vol=0
Time=65280  Note on, chan=1 pitch=77 vol=76
Time=65280  Note on, chan=1 pitch=58 vol=64
Time=65280  Note on, chan=1 pitch=55 vol=70
Time=65280  Note on, chan=1 pitch=53 vol=76
Time=65520  Note off, chan=1 pitch=53 vol=0
Time=65520  Note off, chan=1 pitch=55 vol=0
Time=65520  Note off, chan=1 pitch=58 vol=0
Time=65520  Note off, chan=1 pitch=77 vol=0
Time=65520  Note on, chan=1 pitch=76 vol=76
Time=65520  Note on, chan=1 pitch=64 vol=76
Time=65520  Meta event, sequencer-specific, type=0x04 leng=13533792
Time=65760  Note off, chan=1 pitch=64 vol=0
Time=65760  Note off, chan=1 pitch=76 vol=0
Time=65760  Note on, chan=1 pitch=74 vol=76
Time=65760  Note on, chan=1 pitch=58 vol=64
Time=65760  Note on, chan=1 pitch=55 vol=70
Time=65760  Note on, chan=1 pitch=53 vol=76
Time=66000  Note off, chan=1 pitch=53 vol=0
Time=66000  Note off, chan=1 pitch=55 vol=0
Time=66000  Note off, chan=1 pitch=58 vol=0
Time=66000  Note off, chan=1 pitch=74 vol=0
Time=66000  Note on, chan=1 pitch=72 vol=76
Time=66000  Note on, chan=1 pitch=64 vol=76
Time=66000  Meta event, sequencer-specific, type=0x04 leng=13533792
Time=66240  Note off, chan=1 pitch=64 vol=0
Time=66240  Note off, chan=1 pitch=72 vol=0
Time=66240  Note on, chan=1 pitch=70 vol=76
Time=66240  Note on, chan=1 pitch=53 vol=78
Time=66480  Note off, chan=1 pitch=53 vol=0
Time=66480  Note on, chan=1 pitch=57 vol=78
Time=66720  Note off, chan=1 pitch=57 vol=0
Time=66720  Note off, chan=1 pitch=70 vol=0
Time=66720  Note on, chan=1 pitch=69 vol=76
Time=66720  Note on, chan=1 pitch=60 vol=78
Time=66720  Meta event, sequencer-specific, type=0x04 leng=13533792
Time=66960  Note off, chan=1 pitch=60 vol=0
Time=66960  Note on, chan=1 pitch=57 vol=78
Time=67200  Note off, chan=1 pitch=57 vol=0
Time=67200  Note off, chan=1 pitch=69 vol=0
Time=67200  Note on, chan=1 pitch=69 vol=83
Time=67200  Note on, chan=1 pitch=60 vol=78
Time=67200  Meta event, sequencer-specific, type=0x04 leng=13533792
Time=67320  Note off, chan=1 pitch=69 vol=0
Time=67320  Note on, chan=1 pitch=67 vol=76
Time=67440  Note off, chan=1 pitch=60 vol=0
Time=67440  Note off, chan=1 pitch=67 vol=0
Time=67440  Note on, chan=1 pitch=69 vol=83
Time=67440  Note on, chan=1 pitch=57 vol=78
Time=67560  Note off, chan=1 pitch=69 vol=0
Time=67560  Note on, chan=1 pitch=70 vol=89
Time=67680  Note off, chan=1 pitch=57 vol=0
Time=67680  Note off, chan=1 pitch=70 vol=0
Time=67680  Note on, chan=1 pitch=72 vol=95
Time=67680  Note on, chan=1 pitch=53 vol=76
Time=67920  Note off, chan=1 pitch=53 vol=0
Time=67920  Note on, chan=1 pitch=57 vol=76
Time=68160  Note off, chan=1 pitch=57 vol=0
Time=68160  Note on, chan=1 pitch=60 vol=76
Time=68160  Meta event, sequencer-specific, type=0x04 leng=13533792
Time=68400  Note off, chan=1 pitch=60 vol=0
Time=68400  Note on, chan=1 pitch=57 vol=76
Time=68640  Note off, chan=1 pitch=57 vol=0
Time=68640  Note off, chan=1 pitch=72 vol=0
Time=68640  Note on, chan=1 pitch=74 vol=90
Time=68640  Note on, chan=1 pitch=60 vol=76
Time=68880  Note off, chan=1 pitch=60 vol=0
Time=68880  Note off, chan=1 pitch=74 vol=0
Time=68880  Note on, chan=1 pitch=75 vol=90
Time=68880  Note on, chan=1 pitch=57 vol=76
Time=69120  Note off, chan=1 pitch=57 vol=0
Time=69120  Note off, chan=1 pitch=75 vol=0
Time=69120  Note on, chan=1 pitch=76 vol=78
Time=69120  Note on, chan=1 pitch=52 vol=76
Time=69360  Note off, chan=1 pitch=52 vol=0
Time=69360  Note on, chan=1 pitch=57 vol=76
Time=69600  Note off, chan=1 pitch=57 vol=0
Time=69600  Note on, chan=1 pitch=60 vol=76
Time=69600  Meta event, sequencer-specific, type=0x04 leng=13533792
Time=69840  Note off, chan=1 pitch=60 vol=0
Time=69840  Note off, chan=1 pitch=76 vol=0
Time=69840  Note on, chan=1 pitch=76 vol=90
Time=69840  Note on, chan=1 pitch=57 vol=76
Time=70080  Note off, chan=1 pitch=57 vol=0
Time=70080  Note off, chan=1 pitch=76 vol=0
Time=70080  Note on, chan=1 pitch=77 vol=90
Time=70080  Note on, chan=1 pitch=62 vol=76
Time=70080  Meta event, sequencer-specific, type=0x04 leng=13533792
Time=70080  Note on, chan=1 pitch=50 vol=76
Time=70320  Note off, chan=1 pitch=50 vol=0
Time=70320  Note off, chan=1 pitch=62 vol=0
Time=70320  Note off, chan=1 pitch=77 vol=0
Time=70320  Note on, chan=1 pitch=69 vol=90
Time=70320  Note on, chan=1 pitch=53 vol=76
Time=70560  Note off, chan=1 pitch=53 vol=0
Time=70560  Note off, chan=1 pitch=69 vol=0
Time=70560  Note on, chan=1 pitch=72 vol=90
Time=70560  Note on, chan=1 pitch=55 vol=76
Time=70800  Note off, chan=1 pitch=55 vol=0
Time=70800  Note on, chan=1 pitch=64 vol=76
Time=70800  Meta event, sequencer-specific, type=0x04 leng=13533792
Time=71040  Note off, chan=1 pitch=64 vol=0
Time=71040  Note on, chan=1 pitch=55 vol=76
Time=71280  Note off, chan=1 pitch=55 vol=0
Time=71280  Note on, chan=1 pitch=64 vol=76
Time=71280  Meta event, sequencer-specific, type=0x04 leng=13533792
Time=71520  Note off, chan=1 pitch=64 vol=0
Time=71520  Note off, chan=1 pitch=72 vol=0
Time=71520  Note on, chan=1 pitch=74 vol=90
Time=71520  Note on, chan=1 pitch=55 vol=76
Time=71760  Note off, chan=1 pitch=55 vol=0
Time=71760  Note on, chan=1 pitch=65 vol=76
Time=71760  Meta event, sequencer-specific, type=0x04 leng=13533792
Time=71880  Note off, chan=1 pitch=74 vol=0
Time=71880  Note on, chan=1 pitch=71 vol=90
Time=72000  Note off, chan=1 pitch=65 vol=0
Time=72000  Note off, chan=1 pitch=71 vol=0
Time=72000  Note on, chan=1 pitch=72 vol=90
Time=72000  Note on, chan=1 pitch=60 vol=76
Time=72000  Note on, chan=1 pitch=64 vol=76
Time=72000  Meta event, sequencer-specific, type=0x04 leng=13533792
Time=72120  Note off, chan=1 pitch=72 vol=0
Time=72120  Note on, chan=1 pitch=79 vol=90
Time=72240  Note off, chan=1 pitch=79 vol=0
Time=72240  Note on, chan=1 pitch=67 vol=90
Time=72360  Note off, chan=1 pitch=67 vol=0
Time=72360  Note on, chan=1 pitch=79 vol=90
Time=72480  Note off, chan=1 pitch=64 vol=0
Time=72480  Note off, chan=1 pitch=60 vol=0
Time=72480  Note off, chan=1 pitch=79 vol=0
Time=72480  Note on, chan=1 pitch=69 vol=90
Time=72600  Note off, chan=1 pitch=69 vol=0
Time=72600  Note on, chan=1 pitch=79 vol=90
Time=72720  Note off, chan=1 pitch=79 vol=0
Time=72720  Note on, chan=1 pitch=71 vol=90
Time=72720  Note on, chan=1 pitch=67 vol=76
Time=72720  Meta event, sequencer-specific, type=0x04 leng=13533792
Time=72720  Note on, chan=1 pitch=65 vol=76
Time=72720  Meta event, sequencer-specific, type=0x04 leng=13533792
Time=72840  Note off, chan=1 pitch=65 vol=0
Time=72840  Note off, chan=1 pitch=67 vol=0
Time=72840  Note off, chan=1 pitch=71 vol=0
Time=72840  Note on, chan=1 pitch=79 vol=90
Time=72960  Note off, chan=1 pitch=79 vol=0
Time=72960  Note on, chan=1 pitch=72 vol=90
Time=72960  Note on, chan=1 pitch=67 vol=76
Time=72960  Meta event, sequencer-specific, type=0x04 leng=13533792
Time=72960  Note on, chan=1 pitch=64 vol=76
Time=72960  Meta event, sequencer-specific, type=0x04 leng=13533792
Time=73080  Note off, chan=1 pitch=64 vol=0
Time=73080  Note off, chan=1 pitch=67 vol=0
Time=73080  Note off, chan=1 pitch=72 vol=0
Time=73080  Note on, chan=1 pitch=79 vol=90
Time=73200  Note off, chan=1 pitch=79 vol=0
Time=73200  Note on, chan=1 pitch=74 vol=90
Time=73200  Note on, chan=1 pitch=67 vol=76
Time=73200  Meta event, sequencer-specific, type=0x04 leng=13533792
Time=73200  Note on, chan=1 pitch=65 vol=76
Time=73200  Meta event, sequencer-specific, type=0x04 leng=13533792
Time=73200  Note on, chan=1 pitch=62 vol=76
Time=73200  Meta event, sequencer-specific, type=0x04 leng=13533792
Time=73320  Note off, chan=1 pitch=62 vol=0
Time=73320  Note off, chan=1 pitch=65 vol=0
Time=73320  Note off, chan=1 pitch=67 vol=0
Time=73320  Note off, chan=1 pitch=74 vol=0
Time=73320  Note on, chan=1 pitch=79 vol=90
Time=73440  Note off, chan=1 pitch=79 vol=0
Time=73440  Note on, chan=1 pitch=76 vol=90
Time=73440  Note on, chan=1 pitch=60 vol=76
Time=73440  Meta event, sequencer-specific, type=0x03 leng=13533792
Time=73440  Note on, chan=1 pitch=64 vol=76
Time=73440  Meta event, sequencer-specific, type=0x04 leng=13533792
Time=73440  Note on, chan=1 pitch=67 vol=76
Time=73440  Meta event, sequencer-specific, type=0x04 leng=13533792
Time=73560  Note off, chan=1 pitch=76 vol=0
Time=73560  Note on, chan=1 pitch=79 vol=90
Time=73680  Note off, chan=1 pitch=67 vol=0
Time=73680  Note off, chan=1 pitch=64 vol=0
Time=73680  Note off, chan=1 pitch=60 vol=0
Time=73680  Note off, chan=1 pitch=79 vol=0
Time=73680  Note on, chan=1 pitch=84 vol=90
Time=73800  Note off, chan=1 pitch=84 vol=0
Time=73800  Note on, chan=1 pitch=83 vol=90
Time=73920  Note off, chan=1 pitch=83 vol=0
Time=73920  Note on, chan=1 pitch=81 vol=90
Time=73920  Note on, chan=1 pitch=53 vol=76
Time=73920  Meta event, sequencer-specific, type=0x03 leng=13533792
Time=73920  Note on, chan=1 pitch=57 vol=76
Time=73920  Meta event, sequencer-specific, type=0x03 leng=13533792
Time=74040  Note off, chan=1 pitch=81 vol=0
Time=74040  Note on, chan=1 pitch=79 vol=90
Time=74160  Note off, chan=1 pitch=57 vol=0
Time=74160  Note off, chan=1 pitch=53 vol=0
Time=74160  Note off, chan=1 pitch=79 vol=0
Time=74160  Note on, chan=1 pitch=77 vol=90
Time=74280  Note off, chan=1 pitch=77 vol=0
Time=74280  Note on, chan=1 pitch=74 vol=90
Time=74400  Note off, chan=1 pitch=74 vol=0
Time=74400  Note on, chan=1 pitch=72 vol=90
Time=74400  Note on, chan=1 pitch=55 vol=76
Time=74400  Meta event, sequencer-specific, type=0x03 leng=13533792
Time=74400  Note on, chan=1 pitch=59 vol=76
Time=74400  Meta event, sequencer-specific, type=0x03 leng=13533792
Time=74520  Note off, chan=1 pitch=72 vol=0
Time=74520  Note on, chan=1 pitch=79 vol=90
Time=74640  Note off, chan=1 pitch=59 vol=0
Time=74640  Note off, chan=1 pitch=55 vol=0
Time=74640  Note off, chan=1 pitch=79 vol=0
Time=74640  Note on, chan=1 pitch=77 vol=90
Time=74760  Note off, chan=1 pitch=77 vol=0
Time=74760  Note on, chan=1 pitch=74 vol=90
Time=74880  Note off, chan=1 pitch=74 vol=0
Time=74880  Note on, chan=1 pitch=72 vol=90
Time=74880  Note on, chan=1 pitch=60 vol=76
Time=74880  Meta event, sequencer-specific, type=0x04 leng=13533792
Time=75000  Note off, chan=1 pitch=72 vol=0
Time=75000  Note on, chan=1 pitch=79 vol=90
Time=75120  Note off, chan=1 pitch=60 vol=0
Time=75120  Note off, chan=1 pitch=79 vol=0
Time=75120  Note on, chan=1 pitch=67 vol=90
Time=75240  Note off, chan=1 pitch=67 vol=0
Time=75240  Note on, chan=1 pitch=79 vol=90
Time=75360  Note off, chan=1 pitch=79 vol=0
Time=75360  Note on, chan=1 pitch=69 vol=90
Time=75480  Note off, chan=1 pitch=69 vol=0
Time=75480  Note on, chan=1 pitch=79 vol=90
Time=75600  Note off, chan=1 pitch=79 vol=0
Time=75600  Note on, chan=1 pitch=71 vol=90
Time=75600  Note on, chan=1 pitch=67 vol=76
Time=75600  Meta event, sequencer-specific, type=0x04 leng=13533792
Time=75600  Note on, chan=1 pitch=65 vol=76
Time=75600  Meta event, sequencer-specific, type=0x04 leng=13533792
Time=75720  Note off, chan=1 pitch=65 vol=0
Time=75720  Note off, chan=1 pitch=67 vol=0
Time=75720  Note off, chan=1 pitch=71 vol=0
Time=75720  Note on, chan=1 pitch=79 vol=90
Time=75840  Note off, chan=1 pitch=79 vol=0
Time=75840  Note on, chan=1 pitch=72 vol=90
Time=75840  Note on, chan=1 pitch=67 vol=76
Time=75840  Meta event, sequencer-specific, type=0x04 leng=13533792
Time=75840  Note on, chan=1 pitch=64 vol=76
Time=75840  Meta event, sequencer-specific, type=0x04 leng=13533792
Time=75960  Note off, chan=1 pitch=64 vol=0
Time=75960  Note off, chan=1 pitch=67 vol=0
Time=75960  Note off, chan=1 pitch=72 vol=0
Time=75960  Note on, chan=1 pitch=79 vol=90
Time=76080  Note off, chan=1 pitch=79 vol=0
Time=76080  Note on, chan=1 pitch=74 vol=90
Time=76080  Note on, chan=1 pitch=67 vol=76
Time=76080  Meta event, sequencer-specific, type=0x04 leng=13533792
Time=76080  Note on, chan=1 pitch=65 vol=76
Time=76080  Meta event, sequencer-specific, type=0x04 leng=13533792
Time=76080  Note on, chan=1 pitch=62 vol=76
Time=76080  Meta event, sequencer-specific, type=0x04 leng=13533792
Time=76200  Note off, chan=1 pitch=62 vol=0
Time=76200  Note off, chan=1 pitch=65 vol=0
Time=76200  Note off, chan=1 pitch=67 vol=0
Time=76200  Note off, chan=1 pitch=74 vol=0
Time=76200  Note on, chan=1 pitch=79 vol=90
Time=76320  Note off, chan=1 pitch=79 vol=0
Time=76320  Note on, chan=1 pitch=76 vol=90
Time=76320  Note on, chan=1 pitch=60 vol=76
Time=76320  Meta event, sequencer-specific, type=0x03 leng=13533792
Time=76320  Note on, chan=1 pitch=64 vol=76
Time=76320  Meta event, sequencer-specific, type=0x04 leng=13533792
Time=76320  Note on, chan=1 pitch=67 vol=76
Time=76320  Meta event, sequencer-specific, type=0x04 leng=13533792
Time=76440  Note off, chan=1 pitch=76 vol=0
Time=76440  Note on, chan=1 pitch=79 vol=90
Time=76560  Note off, chan=1 pitch=67 vol=0
Time=76560  Note off, chan=1 pitch=64 vol=0
Time=76560  Note off, chan=1 pitch=60 vol=0
Time=76560  Note off, chan=1 pitch=79 vol=0
Time=76560  Note on, chan=1 pitch=84 vol=90
Time=76680  Note off, chan=1 pitch=84 vol=0
Time=76680  Note on, chan=1 pitch=83 vol=90
Time=76800  Note off, chan=1 pitch=83 vol=0
Time=76800  Note on, chan=1 pitch=81 vol=90
Time=76800  Note on, chan=1 pitch=53 vol=76
Time=76800  Meta event, sequencer-specific, type=0x03 leng=13533792
Time=76800  Note on, chan=1 pitch=57 vol=76
Time=76800  Meta event, sequencer-specific, type=0x03 leng=13533792
Time=76920  Note off, chan=1 pitch=81 vol=0
Time=76920  Note on, chan=1 pitch=79 vol=90
Time=77040  Note off, chan=1 pitch=57 vol=0
Time=77040  Note off, chan=1 pitch=53 vol=0
Time=77040  Note off, chan=1 pitch=79 vol=0
Time=77040  Note on, chan=1 pitch=77 vol=90
Time=77160  Note off, chan=1 pitch=77 vol=0
Time=77160  Note on, chan=1 pitch=76 vol=90
Time=77280  Note off, chan=1 pitch=76 vol=0
Time=77280  Note on, chan=1 pitch=74 vol=90
Time=77280  Note on, chan=1 pitch=55 vol=76
Time=77280  Meta event, sequencer-specific, type=0x03 leng=13533792
Time=77280  Note on, chan=1 pitch=59 vol=76
Time=77280  Meta event, sequencer-specific, type=0x03 leng=13533792
Time=77400  Note off, chan=1 pitch=74 vol=0
Time=77400  Note on, chan=1 pitch=79 vol=90
Time=77520  Note off, chan=1 pitch=59 vol=0
Time=77520  Note off, chan=1 pitch=55 vol=0
Time=77520  Note off, chan=1 pitch=79 vol=0
Time=77520  Note on, chan=1 pitch=77 vol=90
Time=77640  Note off, chan=1 pitch=77 vol=0
Time=77640  Note on, chan=1 pitch=74 vol=90
Time=77760  Note off, chan=1 pitch=74 vol=0
Time=77760  Note on, chan=1 pitch=76 vol=90
Time=77760  Note on, chan=1 pitch=56 vol=76
Time=77760  Meta event, sequencer-specific, type=0x03 leng=13533792
Time=77760  Note on, chan=1 pitch=59 vol=76
Time=77760  Meta event, sequencer-specific, type=0x03 leng=13533792
Time=77880  Note off, chan=1 pitch=76 vol=0
Time=77880  Note on, chan=1 pitch=77 vol=90
Time=78000  Note off, chan=1 pitch=59 vol=0
Time=78000  Note off, chan=1 pitch=56 vol=0
Time=78000  Note off, chan=1 pitch=77 vol=0
Time=78000  Note on, chan=1 pitch=76 vol=90
Time=78120  Note off, chan=1 pitch=76 vol=0
Time=78120  Note on, chan=1 pitch=75 vol=90
Time=78240  Note off, chan=1 pitch=75 vol=0
Time=78240  Note on, chan=1 pitch=76 vol=90
Time=78360  Note off, chan=1 pitch=76 vol=0
Time=78360  Note on, chan=1 pitch=71 vol=90
Time=78480  Note off, chan=1 pitch=71 vol=0
Time=78480  Note on, chan=1 pitch=76 vol=90
Time=78600  Note off, chan=1 pitch=76 vol=0
Time=78600  Note on, chan=1 pitch=75 vol=90
Time=78720  Note off, chan=1 pitch=75 vol=0
Time=78720  Note on, chan=1 pitch=76 vol=90
Time=78840  Note off, chan=1 pitch=76 vol=0
Time=78840  Note on, chan=1 pitch=71 vol=90
Time=78960  Note off, chan=1 pitch=71 vol=0
Time=78960  Note on, chan=1 pitch=76 vol=90
Time=79080  Note off, chan=1 pitch=76 vol=0
Time=79080  Note on, chan=1 pitch=75 vol=90
Time=79200  Note off, chan=1 pitch=75 vol=0
Time=79200  Note on, chan=1 pitch=76 vol=83
Time=79920  Note off, chan=1 pitch=76 vol=0
Time=79920  Note on, chan=1 pitch=71 vol=83
Time=80160  Note off, chan=1 pitch=71 vol=0
Time=80160  Note on, chan=1 pitch=76 vol=83
Time=80400  Note off, chan=1 pitch=76 vol=0
Time=80400  Note on, chan=1 pitch=75 vol=83
Time=80640  Note off, chan=1 pitch=75 vol=0
Time=80640  Note on, chan=1 pitch=76 vol=70
Time=81360  Note off, chan=1 pitch=76 vol=0
Time=81360  Note on, chan=1 pitch=71 vol=70
Time=81600  Note off, chan=1 pitch=71 vol=0
Time=81600  Note on, chan=1 pitch=76 vol=64
Time=81840  Note off, chan=1 pitch=76 vol=0
Time=81840  Note on, chan=1 pitch=75 vol=70
Time=82080  Note off, chan=1 pitch=75 vol=0
Time=82080  Note on, chan=1 pitch=76 vol=76
Time=82320  Note off, chan=1 pitch=76 vol=0
Time=82320  Note on, chan=1 pitch=75 vol=70
Time=82560  Note off, chan=1 pitch=75 vol=0
Time=82560  Note on, chan=1 pitch=76 vol=76
Time=82800  Note off, chan=1 pitch=76 vol=0
Time=82800  Note on, chan=1 pitch=75 vol=70
Time=83040  Note off, chan=1 pitch=75 vol=0
Time=83040  Note on, chan=1 pitch=76 vol=76
Time=83280  Note off, chan=1 pitch=76 vol=0
Time=83280  Note on, chan=1 pitch=75 vol=76
Time=83520  Note off, chan=1 pitch=75 vol=0
Time=83520  Note on, chan=1 pitch=76 vol=57
Time=83760  Note off, chan=1 pitch=76 vol=0
Time=83760  Note on, chan=1 pitch=75 vol=64
Time=84000  Note off, chan=1 pitch=75 vol=0
Time=84000  Note on, chan=1 pitch=76 vol=76
Time=84240  Note off, chan=1 pitch=76 vol=0
Time=84240  Note on, chan=1 pitch=71 vol=76
Time=84480  Note off, chan=1 pitch=71 vol=0
Time=84480  Note on, chan=1 pitch=74 vol=76
Time=84720  Note off, chan=1 pitch=74 vol=0
Time=84720  Note on, chan=1 pitch=72 vol=76
Time=84960  Note off, chan=1 pitch=72 vol=0
Time=84960  Note on, chan=1 pitch=69 vol=76
Time=84960  Meta event, sequencer-specific, type=0x04 leng=13533792
Time=84960  Note on, chan=1 pitch=45 vol=64
Time=85200  Note off, chan=1 pitch=45 vol=0
Time=85200  Note on, chan=1 pitch=52 vol=70
Time=85440  Note off, chan=1 pitch=52 vol=0
Time=85440  Note on, chan=1 pitch=57 vol=76
Time=85680  Note off, chan=1 pitch=69 vol=0
Time=85680  Note off, chan=1 pitch=57 vol=0
Time=85680  Note on, chan=1 pitch=60 vol=76
Time=85920  Note off, chan=1 pitch=60 vol=0
Time=85920  Note on, chan=1 pitch=64 vol=76
Time=86160  Note off, chan=1 pitch=64 vol=0
Time=86160  Note on, chan=1 pitch=69 vol=76
Time=86400  Note off, chan=1 pitch=69 vol=0
Time=86400  Note on, chan=1 pitch=71 vol=76
Time=86400  Meta event, sequencer-specific, type=0x04 leng=13533792
Time=86400  Note on, chan=1 pitch=40 vol=64
Time=86640  Note off, chan=1 pitch=40 vol=0
Time=86640  Note on, chan=1 pitch=52 vol=70
Time=86880  Note off, chan=1 pitch=52 vol=0
Time=86880  Note on, chan=1 pitch=56 vol=76
Time=87120  Note off, chan=1 pitch=71 vol=0
Time=87120  Note off, chan=1 pitch=56 vol=0
Time=87120  Note on, chan=1 pitch=64 vol=76
Time=87360  Note off, chan=1 pitch=64 vol=0
Time=87360  Note on, chan=1 pitch=68 vol=76
Time=87600  Note off, chan=1 pitch=68 vol=0
Time=87600  Note on, chan=1 pitch=71 vol=76
Time=87840  Note off, chan=1 pitch=71 vol=0
Time=87840  Note on, chan=1 pitch=72 vol=76
Time=87840  Note on, chan=1 pitch=45 vol=70
Time=88080  Note off, chan=1 pitch=45 vol=0
Time=88080  Note on, chan=1 pitch=52 vol=70
Time=88320  Note off, chan=1 pitch=52 vol=0
Time=88320  Note on, chan=1 pitch=57 vol=76
Time=88560  Note off, chan=1 pitch=72 vol=0
Time=88560  Note off, chan=1 pitch=57 vol=0
Time=88560  Note on, chan=1 pitch=64 vol=76
Time=88800  Note off, chan=1 pitch=64 vol=0
Time=88800  Note on, chan=1 pitch=76 vol=76
Time=89040  Note off, chan=1 pitch=76 vol=0
Time=89040  Note on, chan=1 pitch=75 vol=70
Time=89280  Note off, chan=1 pitch=75 vol=0
Time=89280  Note on, chan=1 pitch=76 vol=76
Time=89520  Note off, chan=1 pitch=76 vol=0
Time=89520  Note on, chan=1 pitch=75 vol=70
Time=89760  Note off, chan=1 pitch=75 vol=0
Time=89760  Note on, chan=1 pitch=76 vol=76
Time=90000  Note off, chan=1 pitch=76 vol=0
Time=90000  Note on, chan=1 pitch=71 vol=76
Time=90240  Note off, chan=1 pitch=71 vol=0
Time=90240  Note on, chan=1 pitch=74 vol=76
Time=90480  Note off, chan=1 pitch=74 vol=0
Time=90480  Note on, chan=1 pitch=72 vol=76
Time=90720  Note off, chan=1 pitch=72 vol=0
Time=90720  Note on, chan=1 pitch=69 vol=76
Time=90720  Meta event, sequencer-specific, type=0x04 leng=13533792
Time=90720  Note on, chan=1 pitch=45 vol=70
Time=90960  Note off, chan=1 pitch=45 vol=0
Time=90960  Note on, chan=1 pitch=52 vol=76
Time=91200  Note off, chan=1 pitch=52 vol=0
Time=91200  Note on, chan=1 pitch=57 vol=76
Time=91440  Note off, chan=1 pitch=69 vol=0
Time=91440  Note off, chan=1 pitch=57 vol=0
Time=91440  Note on, chan=1 pitch=60 vol=76
Time=91680  Note off, chan=1 pitch=60 vol=0
Time=91680  Note on, chan=1 pitch=64 vol=76
Time=91920  Note off, chan=1 pitch=64 vol=0
Time=91920  Note on, chan=1 pitch=69 vol=76
Time=92160  Note off, chan=1 pitch=69 vol=0
Time=92160  Note on, chan=1 pitch=71 vol=76
Time=92160  Meta event, sequencer-specific, type=0x04 leng=13533792
Time=92160  Note on, chan=1 pitch=40 vol=70
Time=92400  Note off, chan=1 pitch=40 vol=0
Time=92400  Note on, chan=1 pitch=52 vol=70
Time=92640  Note off, chan=1 pitch=52 vol=0
Time=92640  Note on, chan=1 pitch=56 vol=76
Time=92880  Note off, chan=1 pitch=71 vol=0
Time=92880  Note off, chan=1 pitch=56 vol=0
Time=92880  Note on, chan=1 pitch=64 vol=76
Time=93120  Note off, chan=1 pitch=64 vol=0
Time=93120  Note on, chan=1 pitch=72 vol=76
Time=93360  Note off, chan=1 pitch=72 vol=0
Time=93360  Note on, chan=1 pitch=71 vol=76
Time=93600  Note off, chan=1 pitch=71 vol=0
Time=93600  Note on, chan=1 pitch=69 vol=76
Time=93600  Note on, chan=1 pitch=45 vol=64
Time=93840  Note off, chan=1 pitch=45 vol=0
Time=93840  Note on, chan=1 pitch=52 vol=70
Time=94080  Note off, chan=1 pitch=52 vol=0
Time=94080  Note on, chan=1 pitch=57 vol=76
Time=94320  Note off, chan=1 pitch=69 vol=0
Time=94320  Note off, chan=1 pitch=57 vol=0
Time=94560  Note on, chan=1 pitch=76 vol=64
Time=94800  Note off, chan=1 pitch=76 vol=0
Time=94800  Note on, chan=1 pitch=75 vol=70
Time=95040  Note off, chan=1 pitch=75 vol=0
Time=95040  Note on, chan=1 pitch=76 vol=76
Time=95280  Note off, chan=1 pitch=76 vol=0
Time=95280  Note on, chan=1 pitch=75 vol=64
Time=95520  Note off, chan=1 pitch=75 vol=0
Time=95520  Note on, chan=1 pitch=76 vol=76
Time=95760  Note off, chan=1 pitch=76 vol=0
Time=95760  Note on, chan=1 pitch=71 vol=76
Time=96000  Note off, chan=1 pitch=71 vol=0
Time=96000  Note on, chan=1 pitch=74 vol=76
Time=96240  Note off, chan=1 pitch=74 vol=0
Time=96240  Note on, chan=1 pitch=72 vol=76
Time=96480  Note off, chan=1 pitch=72 vol=0
Time=96480  Note on, chan=1 pitch=69 vol=76
Time=96480  Note on, chan=1 pitch=45 vol=64
Time=96720  Note off, chan=1 pitch=45 vol=0
Time=96720  Note on, chan=1 pitch=52 vol=70
Time=96960  Note off, chan=1 pitch=52 vol=0
Time=96960  Note on, chan=1 pitch=57 vol=70
Time=97200  Note off, chan=1 pitch=57 vol=0
Time=97200  Note off, chan=1 pitch=69 vol=0
Time=97200  Note on, chan=1 pitch=60 vol=76
Time=97440  Note off, chan=1 pitch=60 vol=0
Time=97440  Note on, chan=1 pitch=64 vol=76
Time=97680  Note off, chan=1 pitch=64 vol=0
Time=97680  Note on, chan=1 pitch=69 vol=76
Time=97920  Note off, chan=1 pitch=69 vol=0
Time=97920  Note on, chan=1 pitch=71 vol=76
Time=97920  Note on, chan=1 pitch=40 vol=64
Time=98160  Note off, chan=1 pitch=40 vol=0
Time=98160  Note on, chan=1 pitch=52 vol=70
Time=98400  Note off, chan=1 pitch=52 vol=0
Time=98400  Note on, chan=1 pitch=56 vol=70
Time=98640  Note off, chan=1 pitch=56 vol=0
Time=98640  Note off, chan=1 pitch=71 vol=0
Time=98640  Note on, chan=1 pitch=64 vol=70
Time=98880  Note off, chan=1 pitch=64 vol=0
Time=98880  Note on, chan=1 pitch=68 vol=76
Time=99120  Note off, chan=1 pitch=68 vol=0
Time=99120  Note on, chan=1 pitch=71 vol=76
Time=99360  Note off, chan=1 pitch=71 vol=0
Time=99360  Note on, chan=1 pitch=72 vol=83
Time=99360  Note on, chan=1 pitch=45 vol=70
Time=99600  Note off, chan=1 pitch=45 vol=0
Time=99600  Note on, chan=1 pitch=52 vol=70
Time=99840  Note off, chan=1 pitch=52 vol=0
Time=99840  Note off, chan=1 pitch=72 vol=0
Time=99840  Note on, chan=1 pitch=57 vol=76
Time=100080  Note off, chan=1 pitch=57 vol=0
Time=100080  Note on, chan=1 pitch=64 vol=76
Time=100320  Note off, chan=1 pitch=64 vol=0
Time=100320  Note on, chan=1 pitch=76 vol=76
Time=100560  Note off, chan=1 pitch=76 vol=0
Time=100560  Note on, chan=1 pitch=75 vol=76
Time=100800  Note off, chan=1 pitch=75 vol=0
Time=100800  Note on, chan=1 pitch=76 vol=76
Time=101040  Note off, chan=1 pitch=76 vol=0
Time=101040  Note on, chan=1 pitch=75 vol=76
Time=101280  Note off, chan=1 pitch=75 vol=0
Time=101280  Note on, chan=1 pitch=76 vol=76
Time=101520  Note off, chan=1 pitch=76 vol=0
Time=101520  Note on, chan=1 pitch=71 vol=76
Time=101760  Note off, chan=1 pitch=71 vol=0
Time=101760  Note on, chan=1 pitch=74 vol=76
Time=102000  Note off, chan=1 pitch=74 vol=0
Time=102000  Note on, chan=1 pitch=72 vol=76
Time=102240  Note off, chan=1 pitch=72 vol=0
Time=102240  Note on, chan=1 pitch=69 vol=76
Time=102240  Note on, chan=1 pitch=45 vol=70
Time=102480  Note off, chan=1 pitch=45 vol=0
Time=102480  Note on, chan=1 pitch=52 vol=70
Time=102720  Note off, chan=1 pitch=52 vol=0
Time=102720  Note off, chan=1 pitch=69 vol=0
Time=102720  Note on, chan=1 pitch=57 vol=70
Time=102960  Note off, chan=1 pitch=57 vol=0
Time=102960  Note on, chan=1 pitch=60 vol=76
Time=103200  Note off, chan=1 pitch=60 vol=0
Time=103200  Note on, chan=1 pitch=64 vol=83
Time=103440  Note off, chan=1 pitch=64 vol=0
Time=103440  Note on, chan=1 pitch=69 vol=83
Time=103680  Note off, chan=1 pitch=69 vol=0
Time=103680  Note on, chan=1 pitch=71 vol=83
Time=103680  Note on, chan=1 pitch=40 vol=70
Time=103920  Note off, chan=1 pitch=40 vol=0
Time=103920  Note on, chan=1 pitch=52 vol=70
Time=104160  Note off, chan=1 pitch=52 vol=0
Time=104160  Note off, chan=1 pitch=71 vol=0
Time=104160  Note on, chan=1 pitch=56 vol=70
Time=104400  Note off, chan=1 pitch=56 vol=0
Time=104400  Note on, chan=1 pitch=64 vol=76
Time=104640  Note off, chan=1 pitch=64 vol=0
Time=104640  Note on, chan=1 pitch=72 vol=76
Time=104880  Note off, chan=1 pitch=72 vol=0
Time=104880  Note on, chan=1 pitch=71 vol=76
Time=105120  Note off, chan=1 pitch=71 vol=0
Time=105120  Note on, chan=1 pitch=69 vol=83
Time=105120  Note on, chan=1 pitch=45 vol=64
Time=105360  Note off, chan=1 pitch=45 vol=0
Time=105360  Note on, chan=1 pitch=52 vol=70
Time=105600  Note off, chan=1 pitch=69 vol=0
Time=105600  Note off, chan=1 pitch=52 vol=0
Time=105600  Note on, chan=1 pitch=57 vol=76
Time=105840  Note off, chan=1 pitch=57 vol=0
Time=105840  Note on, chan=1 pitch=71 vol=83
Time=106080  Note off, chan=1 pitch=71 vol=0
Time=106080  Note on, chan=1 pitch=72 vol=76
Time=106320  Note off, chan=1 pitch=72 vol=0
Time=106320  Note on, chan=1 pitch=74 vol=76
Time=106560  Note off, chan=1 pitch=74 vol=0
Time=106560  Note on, chan=1 pitch=76 vol=83
Time=106560  Meta event, sequencer-specific, type=0x04 leng=13533792
Time=106560  Note on, chan=1 pitch=48 vol=64
Time=106800  Note off, chan=1 pitch=48 vol=0
Time=106800  Note on, chan=1 pitch=55 vol=70
Time=107040  Note off, chan=1 pitch=55 vol=0
Time=107040  Note on, chan=1 pitch=60 vol=76
Time=107040  Meta event, sequencer-specific, type=0x04 leng=13533792
Time=107280  Note off, chan=1 pitch=76 vol=0
Time=107280  Note off, chan=1 pitch=60 vol=0
Time=107280  Note on, chan=1 pitch=67 vol=76
Time=107520  Note off, chan=1 pitch=67 vol=0
Time=107520  Note on, chan=1 pitch=77 vol=76
Time=107760  Note off, chan=1 pitch=77 vol=0
Time=107760  Note on, chan=1 pitch=76 vol=76
Time=108000  Note off, chan=1 pitch=76 vol=0
Time=108000  Note on, chan=1 pitch=74 vol=76
Time=108000  Meta event, sequencer-specific, type=0x04 leng=13533792
Time=108000  Note on, chan=1 pitch=43 vol=70
Time=108240  Note off, chan=1 pitch=43 vol=0
Time=108240  Note on, chan=1 pitch=55 vol=76
Time=108480  Note off, chan=1 pitch=55 vol=0
Time=108480  Note on, chan=1 pitch=59 vol=76
Time=108720  Note off, chan=1 pitch=74 vol=0
Time=108720  Note off, chan=1 pitch=59 vol=0
Time=108720  Note on, chan=1 pitch=65 vol=76
Time=108960  Note off, chan=1 pitch=65 vol=0
Time=108960  Note on, chan=1 pitch=76 vol=76
Time=109200  Note off, chan=1 pitch=76 vol=0
Time=109200  Note on, chan=1 pitch=74 vol=76
Time=109440  Note off, chan=1 pitch=74 vol=0
Time=109440  Note on, chan=1 pitch=72 vol=76
Time=109440  Note on, chan=1 pitch=45 vol=70
Time=109680  Note off, chan=1 pitch=45 vol=0
Time=109680  Note on, chan=1 pitch=52 vol=76
Time=109920  Note off, chan=1 pitch=52 vol=0
Time=109920  Note on, chan=1 pitch=57 vol=76
Time=110160  Note off, chan=1 pitch=57 vol=0
Time=110160  Note off, chan=1 pitch=72 vol=0
Time=110160  Note on, chan=1 pitch=64 vol=76
Time=110400  Note off, chan=1 pitch=64 vol=0
Time=110400  Note on, chan=1 pitch=74 vol=76
Time=110640  Note off, chan=1 pitch=74 vol=0
Time=110640  Note on, chan=1 pitch=72 vol=76
Time=110880  Note off, chan=1 pitch=72 vol=0
Time=110880  Note on, chan=1 pitch=71 vol=76
Time=110880  Note on, chan=1 pitch=40 vol=76
Time=111120  Note off, chan=1 pitch=40 vol=0
Time=111120  Note on, chan=1 pitch=52 vol=76
Time=111360  Note off, chan=1 pitch=52 vol=0
Time=111360  Note off, chan=1 pitch=71 vol=0
Time=111360  Note on, chan=1 pitch=64 vol=76
Time=111360  Meta event, sequencer-specific, type=0x04 leng=13533792
Time=111600  Note off, chan=1 pitch=64 vol=0
Time=111600  Note on, chan=1 pitch=64 vol=76
Time=111840  Note off, chan=1 pitch=64 vol=0
Time=111840  Note on, chan=1 pitch=76 vol=76
Time=112080  Note off, chan=1 pitch=76 vol=0
Time=112080  Note on, chan=1 pitch=64 vol=76
Time=112320  Note off, chan=1 pitch=64 vol=0
Time=112320  Note on, chan=1 pitch=76 vol=76
Time=112560  Note off, chan=1 pitch=76 vol=0
Time=112560  Note on, chan=1 pitch=76 vol=76
Time=112800  Note off, chan=1 pitch=76 vol=0
Time=112800  Note on, chan=1 pitch=88 vol=76
Time=113040  Note off, chan=1 pitch=88 vol=0
Time=113040  Note on, chan=1 pitch=75 vol=76
Time=113280  Note off, chan=1 pitch=75 vol=0
Time=113280  Note on, chan=1 pitch=76 vol=76
Time=113520  Note off, chan=1 pitch=76 vol=0
Time=113520  Note on, chan=1 pitch=75 vol=76
Time=113760  Note off, chan=1 pitch=75 vol=0
Time=113760  Note on, chan=1 pitch=76 vol=76
Time=114000  Note off, chan=1 pitch=76 vol=0
Time=114000  Note on, chan=1 pitch=75 vol=76
Time=114240  Note off, chan=1 pitch=75 vol=0
Time=114240  Note on, chan=1 pitch=76 vol=76
Time=114480  Note off, chan=1 pitch=76 vol=0
Time=114480  Note on, chan=1 pitch=71 vol=76
Time=114720  Note off, chan=1 pitch=71 vol=0
Time=114720  Note on, chan=1 pitch=74 vol=76
Time=114960  Note off, chan=1 pitch=74 vol=0
Time=114960  Note on, chan=1 pitch=72 vol=76
Time=115200  Note off, chan=1 pitch=72 vol=0
Time=115200  Note on, chan=1 pitch=69 vol=76
Time=115200  Note on, chan=1 pitch=45 vol=76
Time=115440  Note off, chan=1 pitch=45 vol=0
Time=115440  Note on, chan=1 pitch=52 vol=76
Time=115680  Note off, chan=1 pitch=52 vol=0
Time=115680  Note off, chan=1 pitch=69 vol=0
Time=115680  Note on, chan=1 pitch=57 vol=76
Time=115920  Note off, chan=1 pitch=57 vol=0
Time=115920  Note on, chan=1 pitch=60 vol=76
Time=116160  Note off, chan=1 pitch=60 vol=0
Time=116160  Note on, chan=1 pitch=64 vol=76
Time=116400  Note off, chan=1 pitch=64 vol=0
Time=116400  Note on, chan=1 pitch=69 vol=76
Time=116640  Note off, chan=1 pitch=69 vol=0
Time=116640  Note on, chan=1 pitch=71 vol=76
Time=116640  Note on, chan=1 pitch=40 vol=76
Time=116880  Note off, chan=1 pitch=40 vol=0
Time=116880  Note on, chan=1 pitch=52 vol=76
Time=117120  Note off, chan=1 pitch=52 vol=0
Time=117120  Note off, chan=1 pitch=71 vol=0
Time=117120  Note on, chan=1 pitch=56 vol=76
Time=117360  Note off, chan=1 pitch=56 vol=0
Time=117360  Note on, chan=1 pitch=64 vol=76
Time=117600  Note off, chan=1 pitch=64 vol=0
Time=117600  Note on, chan=1 pitch=68 vol=76
Time=117840  Note off, chan=1 pitch=68 vol=0
Time=117840  Note on, chan=1 pitch=71 vol=76
Time=118080  Note off, chan=1 pitch=71 vol=0
Time=118080  Note on, chan=1 pitch=72 vol=76
Time=118080  Note on, chan=1 pitch=45 vol=76
Time=118320  Note off, chan=1 pitch=45 vol=0
Time=118320  Note on, chan=1 pitch=52 vol=76
Time=118560  Note off, chan=1 pitch=52 vol=0
Time=118560  Note off, chan=1 pitch=72 vol=0
Time=118560  Note on, chan=1 pitch=57 vol=76
Time=118800  Note off, chan=1 pitch=57 vol=0
Time=118800  Note on, chan=1 pitch=64 vol=76
Time=119040  Note off, chan=1 pitch=64 vol=0
Time=119040  Note on, chan=1 pitch=76 vol=76
Time=119280  Note off, chan=1 pitch=76 vol=0
Time=119280  Note on, chan=1 pitch=75 vol=76
Time=119520  Note off, chan=1 pitch=75 vol=0
Time=119520  Note on, chan=1 pitch=76 vol=76
Time=119760  Note off, chan=1 pitch=76 vol=0
Time=119760  Note on, chan=1 pitch=75 vol=76
Time=120000  Note off, chan=1 pitch=75 vol=0
Time=120000  Note on, chan=1 pitch=76 vol=76
Time=120240  Note off, chan=1 pitch=76 vol=0
Time=120240  Note on, chan=1 pitch=71 vol=76
Time=120480  Note off, chan=1 pitch=71 vol=0
Time=120480  Note on, chan=1 pitch=74 vol=76
Time=120720  Note off, chan=1 pitch=74 vol=0
Time=120720  Note on, chan=1 pitch=72 vol=76
Time=120960  Note off, chan=1 pitch=72 vol=0
Time=120960  Note on, chan=1 pitch=69 vol=83
Time=120960  Note on, chan=1 pitch=45 vol=70
Time=121200  Note off, chan=1 pitch=45 vol=0
Time=121200  Note on, chan=1 pitch=52 vol=70
Time=121440  Note off, chan=1 pitch=52 vol=0
Time=121440  Note off, chan=1 pitch=69 vol=0
Time=121440  Note on, chan=1 pitch=57 vol=76
Time=121680  Note off, chan=1 pitch=57 vol=0
Time=121680  Note on, chan=1 pitch=60 vol=83
Time=121920  Note off, chan=1 pitch=60 vol=0
Time=121920  Note on, chan=1 pitch=64 vol=83
Time=122160  Note off, chan=1 pitch=64 vol=0
Time=122160  Note on, chan=1 pitch=69 vol=83
Time=122400  Note off, chan=1 pitch=69 vol=0
Time=122400  Note on, chan=1 pitch=71 vol=89
Time=122400  Note on, chan=1 pitch=40 vol=64
Time=122640  Note off, chan=1 pitch=40 vol=0
Time=122640  Note on, chan=1 pitch=52 vol=70
Time=122880  Note off, chan=1 pitch=52 vol=0
Time=122880  Note off, chan=1 pitch=71 vol=0
Time=122880  Note on, chan=1 pitch=56 vol=76
Time=123120  Note off, chan=1 pitch=56 vol=0
Time=123120  Note on, chan=1 pitch=64 vol=76
Time=123360  Note off, chan=1 pitch=64 vol=0
Time=123360  Note on, chan=1 pitch=72 vol=76
Time=123600  Note off, chan=1 pitch=72 vol=0
Time=123600  Note on, chan=1 pitch=71 vol=83
Time=123840  Note off, chan=1 pitch=71 vol=0
Time=123840  Note on, chan=1 pitch=45 vol=89
Time=123840  Meta event, sequencer-specific, type=0x03 leng=13533792
Time=123840  Note on, chan=1 pitch=69 vol=89
Time=123960  Note off, chan=1 pitch=45 vol=0
Time=124080  Note on, chan=1 pitch=45 vol=76
Time=124080  Meta event, sequencer-specific, type=0x03 leng=13533792
Time=124200  Note off, chan=1 pitch=45 vol=0
Time=124320  Note off, chan=1 pitch=69 vol=0
Time=124320  Note on, chan=1 pitch=45 vol=83
Time=124320  Meta event, sequencer-specific, type=0x03 leng=13533792
Time=124440  Note off, chan=1 pitch=45 vol=0
Time=124560  Note on, chan=1 pitch=45 vol=89
Time=124560  Meta event, sequencer-specific, type=0x03 leng=13533792
Time=124680  Note off, chan=1 pitch=45 vol=0
Time=124800  Note on, chan=1 pitch=45 vol=76
Time=124800  Meta event, sequencer-specific, type=0x03 leng=13533792
Time=124920  Note off, chan=1 pitch=45 vol=0
Time=125040  Note on, chan=1 pitch=45 vol=83
Time=125040  Meta event, sequencer-specific, type=0x03 leng=13533792
Time=125160  Note off, chan=1 pitch=45 vol=0
Time=125280  Note on, chan=1 pitch=45 vol=89
Time=125280  Meta event, sequencer-specific, type=0x03 leng=13533792
Time=125280  Note on, chan=1 pitch=64 vol=78
Time=125280  Note on, chan=1 pitch=67 vol=78
Time=125280  Note on, chan=1 pitch=70 vol=78
Time=125280  Note on, chan=1 pitch=73 vol=78
Time=125400  Note off, chan=1 pitch=45 vol=0
Time=125520  Note on, chan=1 pitch=45 vol=76
Time=125520  Meta event, sequencer-specific, type=0x03 leng=13533792
Time=125640  Note off, chan=1 pitch=45 vol=0
Time=125760  Note on, chan=1 pitch=45 vol=83
Time=125760  Meta event, sequencer-specific, type=0x03 leng=13533792
Time=125880  Note off, chan=1 pitch=45 vol=0
Time=126000  Note on, chan=1 pitch=45 vol=89
Time=126000  Meta event, sequencer-specific, type=0x03 leng=13533792
Time=126120  Note off, chan=1 pitch=45 vol=0
Time=126240  Note on, chan=1 pitch=45 vol=76
Time=126240  Meta event, sequencer-specific, type=0x03 leng=13533792
Time=126360  Note off, chan=1 pitch=45 vol=0
Time=126480  Note on, chan=1 pitch=45 vol=83
Time=126480  Meta event, sequencer-specific, type=0x03 leng=13533792
Time=126600  Note off, chan=1 pitch=45 vol=0
Time=126720  Note off, chan=1 pitch=64 vol=0
Time=126720  Note off, chan=1 pitch=67 vol=0
Time=126720  Note off, chan=1 pitch=70 vol=0
Time=126720  Note off, chan=1 pitch=73 vol=0
Time=126720  Note on, chan=1 pitch=45 vol=78
Time=126720  Meta event, sequencer-specific, type=0x03 leng=13533792
Time=126720  Note on, chan=1 pitch=74 vol=78
Time=126720  Note on, chan=1 pitch=65 vol=78
Time=126720  Note on, chan=1 pitch=69 vol=78
Time=126840  Note off, chan=1 pitch=45 vol=0
Time=126960  Note on, chan=1 pitch=45 vol=78
Time=126960  Meta event, sequencer-specific, type=0x03 leng=13533792
Time=127080  Note off, chan=1 pitch=45 vol=0
Time=127200  Note on, chan=1 pitch=45 vol=78
Time=127200  Meta event, sequencer-specific, type=0x03 leng=13533792
Time=127320  Note off, chan=1 pitch=45 vol=0
Time=127440  Note on, chan=1 pitch=45 vol=78
Time=127440  Meta event, sequencer-specific, type=0x03 leng=13533792
Time=127560  Note off, chan=1 pitch=45 vol=0
Time=127680  Note off, chan=1 pitch=69 vol=0
Time=127680  Note off, chan=1 pitch=65 vol=0
Time=127680  Note off, chan=1 pitch=74 vol=0
Time=127680  Note on, chan=1 pitch=45 vol=78
Time=127680  Meta event, sequencer-specific, type=0x03 leng=13533792
Time=127680  Note on, chan=1 pitch=73 vol=78
Time=127680  Note on, chan=1 pitch=76 vol=78
Time=127800  Note off, chan=1 pitch=45 vol=0
Time=127920  Note off, chan=1 pitch=76 vol=0
Time=127920  Note off, chan=1 pitch=73 vol=0
Time=127920  Note on, chan=1 pitch=45 vol=78
Time=127920  Meta event, sequencer-specific, type=0x03 leng=13533792
Time=127920  Note on, chan=1 pitch=74 vol=78
Time=127920  Note on, chan=1 pitch=77 vol=78
Time=128040  Note off, chan=1 pitch=45 vol=0
Time=128160  Note off, chan=1 pitch=77 vol=0
Time=128160  Note off, chan=1 pitch=74 vol=0
Time=128160  Note on, chan=1 pitch=45 vol=78
Time=128160  Meta event, sequencer-specific, type=0x03 leng=13533792
Time=128160  Note on, chan=1 pitch=77 vol=78
Time=128160  Note on, chan=1 pitch=74 vol=78
Time=128160  Note on, chan=1 pitch=68 vol=78
Time=128280  Note off, chan=1 pitch=45 vol=0
Time=128400  Note on, chan=1 pitch=45 vol=78
Time=128400  Meta event, sequencer-specific, type=0x03 leng=13533792
Time=128520  Note off, chan=1 pitch=45 vol=0
Time=128640  Note on, chan=1 pitch=45 vol=78
Time=128640  Meta event, sequencer-specific, type=0x03 leng=13533792
Time=128760  Note off, chan=1 pitch=45 vol=0
Time=128880  Note on, chan=1 pitch=45 vol=78
Time=128880  Meta event, sequencer-specific, type=0x03 leng=13533792
Time=129000  Note off, chan=1 pitch=45 vol=0
Time=129120  Note off, chan=1 pitch=68 vol=0
Time=129120  Note off, chan=1 pitch=74 vol=0
Time=129120  Note off, chan=1 pitch=77 vol=0
Time=129120  Note on, chan=1 pitch=45 vol=78
Time=129120  Meta event, sequencer-specific, type=0x03 leng=13533792
Time=129120  Note on, chan=1 pitch=77 vol=78
Time=129120  Note on, chan=1 pitch=74 vol=78
Time=129120  Note on, chan=1 pitch=68 vol=78
Time=129240  Note off, chan=1 pitch=45 vol=0
Time=129360  Note on, chan=1 pitch=45 vol=78
Time=129360  Meta event, sequencer-specific, type=0x03 leng=13533792
Time=129480  Note off, chan=1 pitch=45 vol=0
Time=129600  Note off, chan=1 pitch=68 vol=0
Time=129600  Note off, chan=1 pitch=74 vol=0
Time=129600  Note off, chan=1 pitch=77 vol=0
Time=129600  Note on, chan=1 pitch=45 vol=78
Time=129600  Meta event, sequencer-specific, type=0x03 leng=13533792
Time=129600  Note on, chan=1 pitch=69 vol=78
Time=129600  Note on, chan=1 pitch=72 vol=78
Time=129600  Note on, chan=1 pitch=76 vol=78
Time=129720  Note off, chan=1 pitch=45 vol=0
Time=129840  Note on, chan=1 pitch=45 vol=76
Time=129840  Meta event, sequencer-specific, type=0x03 leng=13533792
Time=129960  Note off, chan=1 pitch=45 vol=0
Time=130080  Note on, chan=1 pitch=45 vol=83
Time=130080  Meta event, sequencer-specific, type=0x03 leng=13533792
Time=130200  Note off, chan=1 pitch=45 vol=0
Time=130320  Note on, chan=1 pitch=45 vol=89
Time=130320  Meta event, sequencer-specific, type=0x03 leng=13533792
Time=130440  Note off, chan=1 pitch=45 vol=0
Time=130560  Note on, chan=1 pitch=45 vol=83
Time=130560  Meta event, sequencer-specific, type=0x03 leng=13533792
Time=130680  Note off, chan=1 pitch=45 vol=0
Time=130800  Note on, chan=1 pitch=45 vol=76
Time=130800  Meta event, sequencer-specific, type=0x03 leng=13533792
Time=130920  Note off, chan=1 pitch=45 vol=0
Time=131040  Note off, chan=1 pitch=76 vol=0
Time=131040  Note off, chan=1 pitch=72 vol=0
Time=131040  Note off, chan=1 pitch=69 vol=0
Time=131040  Note on, chan=1 pitch=45 vol=83
Time=131040  Meta event, sequencer-specific, type=0x03 leng=13533792
Time=131040  Note on, chan=1 pitch=38 vol=89
Time=131040  Meta event, sequencer-specific, type=0x03 leng=13533792
Time=131040  Note on, chan=1 pitch=74 vol=83
Time=131040  Note on, chan=1 pitch=65 vol=89
Time=131160  Note off, chan=1 pitch=38 vol=0
Time=131160  Note off, chan=1 pitch=45 vol=0
Time=131280  Note on, chan=1 pitch=45 vol=83
Time=131280  Meta event, sequencer-specific, type=0x03 leng=13533792
Time=131280  Note on, chan=1 pitch=38 vol=83
Time=131280  Meta event, sequencer-specific, type=0x03 leng=13533792
Time=131400  Note off, chan=1 pitch=38 vol=0
Time=131400  Note off, chan=1 pitch=45 vol=0
Time=131520  Note on, chan=1 pitch=45 vol=76
Time=131520  Meta event, sequencer-specific, type=0x03 leng=13533792
Time=131520  Note on, chan=1 pitch=38 vol=83
Time=131520  Meta event, sequencer-specific, type=0x03 leng=13533792
Time=131640  Note off, chan=1 pitch=38 vol=0
Time=131640  Note off, chan=1 pitch=45 vol=0
Time=131760  Note on, chan=1 pitch=45 vol=89
Time=131760  Meta event, sequencer-specific, type=0x03 leng=13533792
Time=131760  Note on, chan=1 pitch=38 vol=83
Time=131760  Meta event, sequencer-specific, type=0x03 leng=13533792
Time=131880  Note off, chan=1 pitch=38 vol=0
Time=131880  Note off, chan=1 pitch=45 vol=0
Time=132000  Note off, chan=1 pitch=65 vol=0
Time=132000  Note off, chan=1 pitch=74 vol=0
Time=132000  Note on, chan=1 pitch=45 vol=78
Time=132000  Meta event, sequencer-specific, type=0x03 leng=13533792
Time=132000  Note on, chan=1 pitch=38 vol=78
Time=132000  Meta event, sequencer-specific, type=0x03 leng=13533792
Time=132000  Note on, chan=1 pitch=72 vol=83
Time=132000  Note on, chan=1 pitch=64 vol=83
Time=132120  Note off, chan=1 pitch=38 vol=0
Time=132120  Note off, chan=1 pitch=45 vol=0
Time=132240  Note off, chan=1 pitch=64 vol=0
Time=132240  Note off, chan=1 pitch=72 vol=0
Time=132240  Note on, chan=1 pitch=45 vol=78
Time=132240  Meta event, sequencer-specific, type=0x03 leng=13533792
Time=132240  Note on, chan=1 pitch=38 vol=78
Time=132240  Meta event, sequencer-specific, type=0x03 leng=13533792
Time=132240  Note on, chan=1 pitch=71 vol=78
Time=132240  Note on, chan=1 pitch=62 vol=78
Time=132360  Note off, chan=1 pitch=38 vol=0
Time=132360  Note off, chan=1 pitch=45 vol=0
Time=132480  Note off, chan=1 pitch=62 vol=0
Time=132480  Note off, chan=1 pitch=71 vol=0
Time=132480  Note on, chan=1 pitch=39 vol=76
Time=132480  Meta event, sequencer-specific, type=0x03 leng=13533792
Time=132480  Note on, chan=1 pitch=45 vol=83
Time=132480  Meta event, sequencer-specific, type=0x03 leng=13533792
Time=132480  Note on, chan=1 pitch=60 vol=83
Time=132480  Note on, chan=1 pitch=66 vol=78
Time=132480  Note on, chan=1 pitch=69 vol=83
Time=132600  Note off, chan=1 pitch=45 vol=0
Time=132600  Note off, chan=1 pitch=39 vol=0
Time=132720  Note on, chan=1 pitch=45 vol=76
Time=132720  Meta event, sequencer-specific, type=0x03 leng=13533792
Time=132720  Note on, chan=1 pitch=39 vol=78
Time=132720  Meta event, sequencer-specific, type=0x03 leng=13533792
Time=132780  Note off, chan=1 pitch=39 vol=0
Time=132840  Note off, chan=1 pitch=45 vol=0
Time=132960  Note on, chan=1 pitch=45 vol=78
Time=132960  Meta event, sequencer-specific, type=0x03 leng=13533792
Time=132960  Note on, chan=1 pitch=39 vol=78
Time=132960  Meta event, sequencer-specific, type=0x03 leng=13533792
Time=133020  Note off, chan=1 pitch=39 vol=0
Time=133080  Note off, chan=1 pitch=45 vol=0
Time=133200  Note on, chan=1 pitch=45 vol=78
Time=133200  Meta event, sequencer-specific, type=0x03 leng=13533792
Time=133200  Note on, chan=1 pitch=39 vol=78
Time=133200  Meta event, sequencer-specific, type=0x03 leng=13533792
Time=133215  Note off, chan=1 pitch=39 vol=0
Time=133320  Note off, chan=1 pitch=45 vol=0
Time=133440  Note off, chan=1 pitch=69 vol=0
Time=133440  Note off, chan=1 pitch=66 vol=0
Time=133440  Note off, chan=1 pitch=60 vol=0
Time=133440  Note on, chan=1 pitch=45 vol=78
Time=133440  Meta event, sequencer-specific, type=0x03 leng=13533792
Time=133440  Note on, chan=1 pitch=60 vol=78
Time=133440  Note on, chan=1 pitch=69 vol=78
Time=133440  Note on, chan=1 pitch=39 vol=78
Time=133440  Meta event, sequencer-specific, type=0x03 leng=13533792
Time=133500  Note off, chan=1 pitch=39 vol=0
Time=133560  Note off, chan=1 pitch=45 vol=0
Time=133680  Note on, chan=1 pitch=45 vol=78
Time=133680  Meta event, sequencer-specific, type=0x03 leng=13533792
Time=133680  Note on, chan=1 pitch=39 vol=78
Time=133680  Meta event, sequencer-specific, type=0x03 leng=13533792
Time=133740  Note off, chan=1 pitch=39 vol=0
Time=133800  Note off, chan=1 pitch=45 vol=0
Time=133920  Note off, chan=1 pitch=69 vol=0
Time=133920  Note off, chan=1 pitch=60 vol=0
Time=133920  Note on, chan=1 pitch=45 vol=78
Time=133920  Meta event, sequencer-specific, type=0x03 leng=13533792
Time=133920  Note on, chan=1 pitch=40 vol=78
Time=133920  Meta event, sequencer-specific, type=0x03 leng=13533792
Time=133920  Note on, chan=1 pitch=69 vol=78
Time=133920  Note on, chan=1 pitch=60 vol=78
Time=134040  Note off, chan=1 pitch=40 vol=0
Time=134040  Note off, chan=1 pitch=45 vol=0
Time=134160  Note on, chan=1 pitch=45 vol=78
Time=134160  Meta event, sequencer-specific, type=0x03 leng=13533792
Time=134160  Note on, chan=1 pitch=40 vol=78
Time=134160  Meta event, sequencer-specific, type=0x03 leng=13533792
Time=134280  Note off, chan=1 pitch=40 vol=0
Time=134280  Note off, chan=1 pitch=45 vol=0
Time=134400  Note off, chan=1 pitch=60 vol=0
Time=134400  Note off, chan=1 pitch=69 vol=0
Time=134400  Note on, chan=1 pitch=45 vol=78
Time=134400  Meta event, sequencer-specific, type=0x03 leng=13533792
Time=134400  Note on, chan=1 pitch=40 vol=78
Time=134400  Meta event, sequencer-specific, type=0x03 leng=13533792
Time=134400  Note on, chan=1 pitch=72 vol=78
Time=134400  Note on, chan=1 pitch=64 vol=78
Time=134520  Note off, chan=1 pitch=40 vol=0
Time=134520  Note off, chan=1 pitch=45 vol=0
Time=134640  Note on, chan=1 pitch=45 vol=78
Time=134640  Meta event, sequencer-specific, type=0x03 leng=13533792
Time=134640  Note on, chan=1 pitch=40 vol=78
Time=134640  Meta event, sequencer-specific, type=0x03 leng=13533792
Time=134760  Note off, chan=1 pitch=40 vol=0
Time=134760  Note off, chan=1 pitch=45 vol=0
Time=134880  Note off, chan=1 pitch=64 vol=0
Time=134880  Note off, chan=1 pitch=72 vol=0
Time=134880  Note on, chan=1 pitch=44 vol=78
Time=134880  Meta event, sequencer-specific, type=0x03 leng=13533792
Time=134880  Note on, chan=1 pitch=40 vol=78
Time=134880  Meta event, sequencer-specific, type=0x03 leng=13533792
Time=134880  Note on, chan=1 pitch=71 vol=78
Time=134880  Note on, chan=1 pitch=62 vol=78
Time=135000  Note off, chan=1 pitch=40 vol=0
Time=135000  Note off, chan=1 pitch=44 vol=0
Time=135120  Note on, chan=1 pitch=44 vol=78
Time=135120  Meta event, sequencer-specific, type=0x03 leng=13533792
Time=135120  Note on, chan=1 pitch=40 vol=78
Time=135120  Meta event, sequencer-specific, type=0x03 leng=13533792
Time=135240  Note off, chan=1 pitch=40 vol=0
Time=135240  Note off, chan=1 pitch=44 vol=0
Time=135360  Note off, chan=1 pitch=62 vol=0
Time=135360  Note off, chan=1 pitch=71 vol=0
Time=135360  Note on, chan=1 pitch=45 vol=78
Time=135360  Meta event, sequencer-specific, type=0x03 leng=13533792
Time=135360  Note on, chan=1 pitch=33 vol=78
Time=135360  Meta event, sequencer-specific, type=0x03 leng=13533792
Time=135360  Note on, chan=1 pitch=69 vol=78
Time=135360  Note on, chan=1 pitch=60 vol=78
Time=135480  Note off, chan=1 pitch=33 vol=0
Time=135480  Note off, chan=1 pitch=45 vol=0
Time=135600  Note on, chan=1 pitch=45 vol=76
Time=135600  Meta event, sequencer-specific, type=0x03 leng=13533792
Time=135720  Note off, chan=1 pitch=45 vol=0
Time=135840  Note on, chan=1 pitch=45 vol=83
Time=135840  Meta event, sequencer-specific, type=0x03 leng=13533792
Time=135960  Note off, chan=1 pitch=45 vol=0
Time=136080  Note on, chan=1 pitch=45 vol=89
Time=136080  Meta event, sequencer-specific, type=0x03 leng=13533792
Time=136200  Note off, chan=1 pitch=45 vol=0
Time=136320  Note on, chan=1 pitch=45 vol=76
Time=136320  Meta event, sequencer-specific, type=0x03 leng=13533792
Time=136440  Note off, chan=1 pitch=45 vol=0
Time=136560  Note on, chan=1 pitch=45 vol=83
Time=136560  Meta event, sequencer-specific, type=0x03 leng=13533792
Time=136680  Note off, chan=1 pitch=45 vol=0
Time=136800  Note off, chan=1 pitch=60 vol=0
Time=136800  Note off, chan=1 pitch=69 vol=0
Time=136800  Note on, chan=1 pitch=45 vol=76
Time=136800  Meta event, sequencer-specific, type=0x03 leng=13533792
Time=136800  Note on, chan=1 pitch=64 vol=83
Time=136800  Note on, chan=1 pitch=67 vol=78
Time=136800  Note on, chan=1 pitch=70 vol=78
Time=136800  Note on, chan=1 pitch=73 vol=78
Time=136920  Note off, chan=1 pitch=45 vol=0
Time=137040  Note on, chan=1 pitch=45 vol=89
Time=137040  Meta event, sequencer-specific, type=0x03 leng=13533792
Time=137160  Note off, chan=1 pitch=45 vol=0
Time=137280  Note on, chan=1 pitch=45 vol=83
Time=137280  Meta event, sequencer-specific, type=0x03 leng=13533792
Time=137400  Note off, chan=1 pitch=45 vol=0
Time=137520  Note on, chan=1 pitch=45 vol=89
Time=137520  Meta event, sequencer-specific, type=0x03 leng=13533792
Time=137640  Note off, chan=1 pitch=45 vol=0
Time=137760  Note on, chan=1 pitch=45 vol=76
Time=137760  Meta event, sequencer-specific, type=0x03 leng=13533792
Time=137880  Note off, chan=1 pitch=45 vol=0
Time=138000  Note on, chan=1 pitch=45 vol=83
Time=138000  Meta event, sequencer-specific, type=0x03 leng=13533792
Time=138120  Note off, chan=1 pitch=45 vol=0
Time=138240  Note off, chan=1 pitch=64 vol=0
Time=138240  Note off, chan=1 pitch=73 vol=0
Time=138240  Note off, chan=1 pitch=70 vol=0
Time=138240  Note off, chan=1 pitch=67 vol=0
Time=138240  Note on, chan=1 pitch=45 vol=78
Time=138240  Meta event, sequencer-specific, type=0x03 leng=13533792
Time=138240  Note on, chan=1 pitch=74 vol=78
Time=138240  Note on, chan=1 pitch=69 vol=78
Time=138240  Note on, chan=1 pitch=65 vol=78
Time=138360  Note off, chan=1 pitch=45 vol=0
Time=138480  Note on, chan=1 pitch=45 vol=78
Time=138480  Meta event, sequencer-specific, type=0x03 leng=13533792
Time=138600  Note off, chan=1 pitch=45 vol=0
Time=138720  Note on, chan=1 pitch=45 vol=78
Time=138720  Meta event, sequencer-specific, type=0x03 leng=13533792
Time=138840  Note off, chan=1 pitch=45 vol=0
Time=138960  Note on, chan=1 pitch=45 vol=78
Time=138960  Meta event, sequencer-specific, type=0x03 leng=13533792
Time=139080  Note off, chan=1 pitch=45 vol=0
Time=139200  Note off, chan=1 pitch=65 vol=0
Time=139200  Note off, chan=1 pitch=69 vol=0
Time=139200  Note off, chan=1 pitch=74 vol=0
Time=139200  Note on, chan=1 pitch=45 vol=78
Time=139200  Meta event, sequencer-specific, type=0x03 leng=13533792
Time=139200  Note on, chan=1 pitch=73 vol=78
Time=139200  Note on, chan=1 pitch=76 vol=78
Time=139320  Note off, chan=1 pitch=45 vol=0
Time=139440  Note off, chan=1 pitch=76 vol=0
Time=139440  Note off, chan=1 pitch=73 vol=0
Time=139440  Note on, chan=1 pitch=45 vol=78
Time=139440  Meta event, sequencer-specific, type=0x03 leng=13533792
Time=139440  Note on, chan=1 pitch=74 vol=78
Time=139440  Note on, chan=1 pitch=77 vol=78
Time=139560  Note off, chan=1 pitch=45 vol=0
Time=139680  Note off, chan=1 pitch=77 vol=0
Time=139680  Note off, chan=1 pitch=74 vol=0
Time=139680  Note on, chan=1 pitch=45 vol=78
Time=139680  Meta event, sequencer-specific, type=0x03 leng=13533792
Time=139680  Note on, chan=1 pitch=74 vol=78
Time=139680  Note on, chan=1 pitch=77 vol=78
Time=139800  Note off, chan=1 pitch=45 vol=0
Time=139920  Note on, chan=1 pitch=45 vol=78
Time=139920  Meta event, sequencer-specific, type=0x03 leng=13533792
Time=140040  Note off, chan=1 pitch=45 vol=0
Time=140160  Note on, chan=1 pitch=45 vol=78
Time=140160  Meta event, sequencer-specific, type=0x03 leng=13533792
Time=140280  Note off, chan=1 pitch=45 vol=0
Time=140400  Note on, chan=1 pitch=45 vol=78
Time=140400  Meta event, sequencer-specific, type=0x03 leng=13533792
Time=140520  Note off, chan=1 pitch=45 vol=0
Time=140640  Note off, chan=1 pitch=77 vol=0
Time=140640  Note off, chan=1 pitch=74 vol=0
Time=140640  Note on, chan=1 pitch=45 vol=78
Time=140640  Meta event, sequencer-specific, type=0x03 leng=13533792
Time=140640  Note on, chan=1 pitch=74 vol=78
Time=140640  Note on, chan=1 pitch=77 vol=83
Time=140760  Note off, chan=1 pitch=45 vol=0
Time=140880  Note on, chan=1 pitch=45 vol=78
Time=140880  Meta event, sequencer-specific, type=0x03 leng=13533792
Time=141000  Note off, chan=1 pitch=45 vol=0
Time=141120  Note off, chan=1 pitch=77 vol=0
Time=141120  Note off, chan=1 pitch=74 vol=0
Time=141120  Note on, chan=1 pitch=46 vol=76
Time=141120  Meta event, sequencer-specific, type=0x03 leng=13533792
Time=141120  Note on, chan=1 pitch=77 vol=89
Time=141120  Note on, chan=1 pitch=74 vol=78
Time=141240  Note off, chan=1 pitch=46 vol=0
Time=141360  Note on, chan=1 pitch=46 vol=83
Time=141360  Meta event, sequencer-specific, type=0x03 leng=13533792
Time=141480  Note off, chan=1 pitch=46 vol=0
Time=141600  Note on, chan=1 pitch=46 vol=89
Time=141600  Meta event, sequencer-specific, type=0x03 leng=13533792
Time=141720  Note off, chan=1 pitch=46 vol=0
Time=141840  Note on, chan=1 pitch=46 vol=83
Time=141840  Meta event, sequencer-specific, type=0x03 leng=13533792
Time=141960  Note off, chan=1 pitch=46 vol=0
Time=142080  Note on, chan=1 pitch=46 vol=89
Time=142080  Meta event, sequencer-specific, type=0x03 leng=13533792
Time=142200  Note off, chan=1 pitch=46 vol=0
Time=142320  Note on, chan=1 pitch=46 vol=76
Time=142320  Meta event, sequencer-specific, type=0x03 leng=13533792
Time=142440  Note off, chan=1 pitch=46 vol=0
Time=142560  Note off, chan=1 pitch=77 vol=0
Time=142560  Note off, chan=1 pitch=74 vol=0
Time=142560  Note on, chan=1 pitch=46 vol=83
Time=142560  Meta event, sequencer-specific, type=0x03 leng=13533792
Time=142560  Note on, chan=1 pitch=75 vol=76
Time=142560  Note on, chan=1 pitch=67 vol=78
Time=142680  Note off, chan=1 pitch=46 vol=0
Time=142800  Note on, chan=1 pitch=46 vol=78
Time=142800  Meta event, sequencer-specific, type=0x03 leng=13533792
Time=142920  Note off, chan=1 pitch=46 vol=0
Time=143040  Note on, chan=1 pitch=46 vol=78
Time=143040  Meta event, sequencer-specific, type=0x03 leng=13533792
Time=143160  Note off, chan=1 pitch=46 vol=0
Time=143280  Note on, chan=1 pitch=46 vol=78
Time=143280  Meta event, sequencer-specific, type=0x03 leng=13533792
Time=143400  Note off, chan=1 pitch=46 vol=0
Time=143520  Note off, chan=1 pitch=67 vol=0
Time=143520  Note off, chan=1 pitch=75 vol=0
Time=143520  Note on, chan=1 pitch=46 vol=78
Time=143520  Meta event, sequencer-specific, type=0x03 leng=13533792
Time=143520  Note on, chan=1 pitch=74 vol=76
Time=143520  Note on, chan=1 pitch=65 vol=78
Time=143640  Note off, chan=1 pitch=46 vol=0
Time=143760  Note off, chan=1 pitch=65 vol=0
Time=143760  Note off, chan=1 pitch=74 vol=0
Time=143760  Note on, chan=1 pitch=46 vol=78
Time=143760  Meta event, sequencer-specific, type=0x03 leng=13533792
Time=143760  Note on, chan=1 pitch=72 vol=83
Time=143760  Note on, chan=1 pitch=63 vol=78
Time=143880  Note off, chan=1 pitch=46 vol=0
Time=144000  Note off, chan=1 pitch=63 vol=0
Time=144000  Note off, chan=1 pitch=72 vol=0
Time=144000  Note on, chan=1 pitch=46 vol=78
Time=144000  Meta event, sequencer-specific, type=0x03 leng=13533792
Time=144000  Note on, chan=1 pitch=70 vol=83
Time=144000  Note on, chan=1 pitch=65 vol=78
Time=144000  Note on, chan=1 pitch=62 vol=78
Time=144120  Note off, chan=1 pitch=46 vol=0
Time=144240  Note on, chan=1 pitch=46 vol=78
Time=144240  Meta event, sequencer-specific, type=0x03 leng=13533792
Time=144360  Note off, chan=1 pitch=46 vol=0
Time=144480  Note on, chan=1 pitch=46 vol=83
Time=144480  Meta event, sequencer-specific, type=0x03 leng=13533792
Time=144600  Note off, chan=1 pitch=46 vol=0
Time=144720  Note on, chan=1 pitch=46 vol=76
Time=144720  Meta event, sequencer-specific, type=0x03 leng=13533792
Time=144840  Note off, chan=1 pitch=46 vol=0
Time=144960  Note off, chan=1 pitch=62 vol=0
Time=144960  Note off, chan=1 pitch=65 vol=0
Time=144960  Note off, chan=1 pitch=70 vol=0
Time=144960  Note on, chan=1 pitch=46 vol=78
Time=144960  Meta event, sequencer-specific, type=0x03 leng=13533792
Time=144960  Note on, chan=1 pitch=62 vol=83
Time=144960  Note on, chan=1 pitch=65 vol=78
Time=144960  Note on, chan=1 pitch=69 vol=78
Time=145080  Note off, chan=1 pitch=46 vol=0
Time=145200  Note on, chan=1 pitch=46 vol=89
Time=145200  Meta event, sequencer-specific, type=0x03 leng=13533792
Time=145320  Note off, chan=1 pitch=46 vol=0
Time=145440  Note off, chan=1 pitch=69 vol=0
Time=145440  Note off, chan=1 pitch=65 vol=0
Time=145440  Note off, chan=1 pitch=62 vol=0
Time=145440  Note on, chan=1 pitch=47 vol=78
Time=145440  Note on, chan=1 pitch=62 vol=78
Time=145440  Note on, chan=1 pitch=65 vol=78
Time=145440  Note on, chan=1 pitch=68 vol=78
Time=145680  Note off, chan=1 pitch=47 vol=0
Time=145680  Note on, chan=1 pitch=47 vol=78
Time=145920  Note off, chan=1 pitch=47 vol=0
Time=145920  Note on, chan=1 pitch=47 vol=78
Time=146160  Note off, chan=1 pitch=47 vol=0
Time=146160  Note on, chan=1 pitch=47 vol=78
Time=146400  Note off, chan=1 pitch=68 vol=0
Time=146400  Note off, chan=1 pitch=65 vol=0
Time=146400  Note off, chan=1 pitch=62 vol=0
Time=146400  Note off, chan=1 pitch=47 vol=0
Time=146400  Note on, chan=1 pitch=47 vol=78
Time=146400  Note on, chan=1 pitch=62 vol=78
Time=146400  Note on, chan=1 pitch=65 vol=78
Time=146400  Note on, chan=1 pitch=68 vol=78
Time=146640  Note off, chan=1 pitch=47 vol=0
Time=146640  Note on, chan=1 pitch=47 vol=78
Time=146880  Note off, chan=1 pitch=68 vol=0
Time=146880  Note off, chan=1 pitch=65 vol=0
Time=146880  Note off, chan=1 pitch=62 vol=0
Time=146880  Note off, chan=1 pitch=47 vol=0
Time=146880  Note on, chan=1 pitch=60 vol=78
Time=146880  Note on, chan=1 pitch=64 vol=78
Time=146880  Note on, chan=1 pitch=69 vol=78
Time=146880  Note on, chan=1 pitch=48 vol=78
Time=147840  Note off, chan=1 pitch=48 vol=0
Time=147840  Note off, chan=1 pitch=69 vol=0
Time=147840  Note off, chan=1 pitch=64 vol=0
Time=147840  Note off, chan=1 pitch=60 vol=0
Time=148320  Note on, chan=1 pitch=71 vol=78
Time=148320  Meta event, sequencer-specific, type=0x03 leng=13533792
Time=148320  Note on, chan=1 pitch=64 vol=78
Time=148320  Meta event, sequencer-specific, type=0x03 leng=13533792
Time=148320  Note on, chan=1 pitch=65 vol=78
Time=148320  Meta event, sequencer-specific, type=0x03 leng=13533792
Time=148320  Note on, chan=1 pitch=52 vol=78
Time=148320  Meta event, sequencer-specific, type=0x03 leng=13533792
Time=148320  Note on, chan=1 pitch=56 vol=78
Time=148320  Meta event, sequencer-specific, type=0x03 leng=13533792
Time=148560  Note off, chan=1 pitch=56 vol=0
Time=148560  Note off, chan=1 pitch=52 vol=0
Time=148560  Note off, chan=1 pitch=65 vol=0
Time=148560  Note off, chan=1 pitch=64 vol=0
Time=148560  Note off, chan=1 pitch=71 vol=0
Time=149760  Note on, chan=1 pitch=60 vol=78
Time=149920  Note off, chan=1 pitch=60 vol=0
Time=149920  Note on, chan=1 pitch=60 vol=78
Time=150080  Note off, chan=1 pitch=60 vol=0
Time=150080  Note on, chan=1 pitch=64 vol=78
Time=150240  Note off, chan=1 pitch=64 vol=0
Time=150240  Note on, chan=1 pitch=69 vol=78
Time=150400  Note off, chan=1 pitch=69 vol=0
Time=150400  Note on, chan=1 pitch=72 vol=78
Time=150560  Note off, chan=1 pitch=72 vol=0
Time=150560  Note on, chan=1 pitch=76 vol=78
Time=150720  Note off, chan=1 pitch=76 vol=0
Time=150720  Note on, chan=1 pitch=74 vol=78
Time=150720  Note on, chan=1 pitch=57 vol=78
Time=150720  Note on, chan=1 pitch=60 vol=78
Time=150720  Note on, chan=1 pitch=64 vol=78
Time=150720  Meta event, sequencer-specific, type=0x04 leng=13533792
Time=150880  Note off, chan=1 pitch=74 vol=0
Time=150880  Note on, chan=1 pitch=72 vol=78
Time=151040  Note off, chan=1 pitch=72 vol=0
Time=151040  Note on, chan=1 pitch=71 vol=78
Time=151200  Note off, chan=1 pitch=64 vol=0
Time=151200  Note off, chan=1 pitch=60 vol=0
Time=151200  Note off, chan=1 pitch=57 vol=0
Time=151200  Note off, chan=1 pitch=71 vol=0
Time=151200  Note on, chan=1 pitch=69 vol=78
Time=151200  Note on, chan=1 pitch=64 vol=78
Time=151200  Meta event, sequencer-specific, type=0x04 leng=13533792
Time=151200  Note on, chan=1 pitch=60 vol=78
Time=151200  Note on, chan=1 pitch=57 vol=78
Time=151360  Note off, chan=1 pitch=69 vol=0
Time=151360  Note on, chan=1 pitch=72 vol=78
Time=151520  Note off, chan=1 pitch=72 vol=0
Time=151520  Note on, chan=1 pitch=76 vol=78
Time=151680  Note off, chan=1 pitch=57 vol=0
Time=151680  Note off, chan=1 pitch=60 vol=0
Time=151680  Note off, chan=1 pitch=64 vol=0
Time=151680  Note off, chan=1 pitch=76 vol=0
Time=151680  Note on, chan=1 pitch=81 vol=78
Time=151840  Note off, chan=1 pitch=81 vol=0
Time=151840  Note on, chan=1 pitch=84 vol=78
Time=152000  Note off, chan=1 pitch=84 vol=0
Time=152000  Note on, chan=1 pitch=88 vol=78
Time=152160  Note off, chan=1 pitch=88 vol=0
Time=152160  Note on, chan=1 pitch=86 vol=78
Time=152160  Note on, chan=1 pitch=64 vol=78
Time=152160  Meta event, sequencer-specific, type=0x04 leng=13533792
Time=152160  Note on, chan=1 pitch=60 vol=78
Time=152160  Note on, chan=1 pitch=57 vol=78
Time=152320  Note off, chan=1 pitch=86 vol=0
Time=152320  Note on, chan=1 pitch=84 vol=78
Time=152480  Note off, chan=1 pitch=84 vol=0
Time=152480  Note on, chan=1 pitch=83 vol=78
Time=152640  Note off, chan=1 pitch=57 vol=0
Time=152640  Note off, chan=1 pitch=60 vol=0
Time=152640  Note off, chan=1 pitch=64 vol=0
Time=152640  Note off, chan=1 pitch=83 vol=0
Time=152640  Note on, chan=1 pitch=81 vol=78
Time=152640  Note on, chan=1 pitch=64 vol=78
Time=152640  Meta event, sequencer-specific, type=0x04 leng=13533792
Time=152640  Note on, chan=1 pitch=60 vol=78
Time=152640  Note on, chan=1 pitch=57 vol=78
Time=152800  Note off, chan=1 pitch=81 vol=0
Time=152800  Note on, chan=1 pitch=84 vol=78
Time=152960  Note off, chan=1 pitch=84 vol=0
Time=152960  Note on, chan=1 pitch=88 vol=78
Time=153120  Note off, chan=1 pitch=57 vol=0
Time=153120  Note off, chan=1 pitch=60 vol=0
Time=153120  Note off, chan=1 pitch=64 vol=0
Time=153120  Note off, chan=1 pitch=88 vol=0
Time=153120  Note on, chan=1 pitch=93 vol=78
Time=153280  Note off, chan=1 pitch=93 vol=0
Time=153280  Note on, chan=1 pitch=96 vol=78
Time=153440  Note off, chan=1 pitch=96 vol=0
Time=153440  Note on, chan=1 pitch=100 vol=78
Time=153600  Note off, chan=1 pitch=100 vol=0
Time=153600  Note on, chan=1 pitch=98 vol=78
Time=153600  Note on, chan=1 pitch=57 vol=78
Time=153600  Note on, chan=1 pitch=60 vol=78
Time=153600  Note on, chan=1 pitch=64 vol=78
Time=153600  Meta event, sequencer-specific, type=0x04 leng=13533792
Time=153760  Note off, chan=1 pitch=98 vol=0
Time=153760  Note on, chan=1 pitch=96 vol=78
Time=153920  Note off, chan=1 pitch=96 vol=0
Time=153920  Note on, chan=1 pitch=95 vol=78
Time=154080  Note off, chan=1 pitch=64 vol=0
Time=154080  Note off, chan=1 pitch=60 vol=0
Time=154080  Note off, chan=1 pitch=57 vol=0
Time=154080  Note off, chan=1 pitch=95 vol=0
Time=154080  Note on, chan=1 pitch=94 vol=78
Time=154080  Note on, chan=1 pitch=64 vol=78
Time=154080  Meta event, sequencer-specific, type=0x04 leng=13533792
Time=154080  Note on, chan=1 pitch=60 vol=78
Time=154080  Note on, chan=1 pitch=57 vol=78
Time=154240  Note off, chan=1 pitch=94 vol=0
Time=154240  Note on, chan=1 pitch=93 vol=78
Time=154400  Note off, chan=1 pitch=93 vol=0
Time=154400  Note on, chan=1 pitch=92 vol=78
Time=154560  Note off, chan=1 pitch=57 vol=0
Time=154560  Note off, chan=1 pitch=60 vol=0
Time=154560  Note off, chan=1 pitch=64 vol=0
Time=154560  Note off, chan=1 pitch=92 vol=0
Time=154560  Note on, chan=1 pitch=91 vol=78
Time=154720  Note off, chan=1 pitch=91 vol=0
Time=154720  Note on, chan=1 pitch=90 vol=78
Time=154880  Note off, chan=1 pitch=90 vol=0
Time=154880  Note on, chan=1 pitch=89 vol=78
Time=155040  Note off, chan=1 pitch=89 vol=0
Time=155040  Note on, chan=1 pitch=88 vol=78
Time=155200  Note off, chan=1 pitch=88 vol=0
Time=155200  Note on, chan=1 pitch=87 vol=78
Time=155360  Note off, chan=1 pitch=87 vol=0
Time=155360  Note on, chan=1 pitch=86 vol=78
Time=155520  Note off, chan=1 pitch=86 vol=0
Time=155520  Note on, chan=1 pitch=85 vol=78
Time=155680  Note off, chan=1 pitch=85 vol=0
Time=155680  Note on, chan=1 pitch=84 vol=78
Time=155840  Note off, chan=1 pitch=84 vol=0
Time=155840  Note on, chan=1 pitch=83 vol=78
Time=156000  Note off, chan=1 pitch=83 vol=0
Time=156000  Note on, chan=1 pitch=82 vol=78
Time=156160  Note off, chan=1 pitch=82 vol=0
Time=156160  Note on, chan=1 pitch=81 vol=78
Time=156320  Note off, chan=1 pitch=81 vol=0
Time=156320  Note on, chan=1 pitch=80 vol=78
Time=156480  Note off, chan=1 pitch=80 vol=0
Time=156480  Note on, chan=1 pitch=79 vol=78
Time=156640  Note off, chan=1 pitch=79 vol=0
Time=156640  Note on, chan=1 pitch=78 vol=78
Time=156800  Note off, chan=1 pitch=78 vol=0
Time=156800  Note on, chan=1 pitch=77 vol=78
Time=156960  Note off, chan=1 pitch=77 vol=0
Time=156960  Note on, chan=1 pitch=76 vol=78
Time=157200  Note off, chan=1 pitch=76 vol=0
Time=157200  Note on, chan=1 pitch=75 vol=78
Time=157440  Note off, chan=1 pitch=75 vol=0
Time=157440  Note on, chan=1 pitch=76 vol=83
Time=157680  Note off, chan=1 pitch=76 vol=0
Time=157680  Note on, chan=1 pitch=71 vol=78
Time=157920  Note off, chan=1 pitch=71 vol=0
Time=157920  Note on, chan=1 pitch=74 vol=78
Time=158160  Note off, chan=1 pitch=74 vol=0
Time=158160  Note on, chan=1 pitch=72 vol=78
Time=158400  Note off, chan=1 pitch=72 vol=0
Time=158400  Note on, chan=1 pitch=69 vol=83
Time=158400  Note on, chan=1 pitch=45 vol=70
Time=158640  Note off, chan=1 pitch=45 vol=0
Time=158640  Note on, chan=1 pitch=52 vol=76
Time=158880  Note off, chan=1 pitch=52 vol=0
Time=158880  Note off, chan=1 pitch=69 vol=0
Time=158880  Note on, chan=1 pitch=57 vol=78
Time=159120  Note off, chan=1 pitch=57 vol=0
Time=159120  Note on, chan=1 pitch=60 vol=70
Time=159360  Note off, chan=1 pitch=60 vol=0
Time=159360  Note on, chan=1 pitch=64 vol=76
Time=159600  Note off, chan=1 pitch=64 vol=0
Time=159600  Note on, chan=1 pitch=69 vol=83
Time=159840  Note off, chan=1 pitch=69 vol=0
Time=159840  Note on, chan=1 pitch=71 vol=89
Time=159840  Note on, chan=1 pitch=40 vol=76
Time=160080  Note off, chan=1 pitch=40 vol=0
Time=160080  Note on, chan=1 pitch=52 vol=78
Time=160320  Note off, chan=1 pitch=52 vol=0
Time=160320  Note off, chan=1 pitch=71 vol=0
Time=160320  Note on, chan=1 pitch=56 vol=78
Time=160560  Note off, chan=1 pitch=56 vol=0
Time=160560  Note on, chan=1 pitch=64 vol=78
Time=160800  Note off, chan=1 pitch=64 vol=0
Time=160800  Note on, chan=1 pitch=68 vol=70
Time=161040  Note off, chan=1 pitch=68 vol=0
Time=161040  Note on, chan=1 pitch=71 vol=70
Time=161280  Note off, chan=1 pitch=71 vol=0
Time=161280  Note on, chan=1 pitch=72 vol=78
Time=161280  Note on, chan=1 pitch=45 vol=83
Time=161520  Note off, chan=1 pitch=45 vol=0
Time=161520  Note on, chan=1 pitch=52 vol=78
Time=161760  Note off, chan=1 pitch=52 vol=0
Time=161760  Note off, chan=1 pitch=72 vol=0
Time=161760  Note on, chan=1 pitch=57 vol=78
Time=162000  Note off, chan=1 pitch=57 vol=0
Time=162000  Note on, chan=1 pitch=64 vol=78
Time=162000  Meta event, sequencer-specific, type=0x04 leng=13533792
Time=162240  Note off, chan=1 pitch=64 vol=0
Time=162240  Note on, chan=1 pitch=76 vol=78
Time=162480  Note off, chan=1 pitch=76 vol=0
Time=162480  Note on, chan=1 pitch=75 vol=78
Time=162720  Note off, chan=1 pitch=75 vol=0
Time=162720  Note on, chan=1 pitch=76 vol=83
Time=162960  Note off, chan=1 pitch=76 vol=0
Time=162960  Note on, chan=1 pitch=75 vol=78
Time=163200  Note off, chan=1 pitch=75 vol=0
Time=163200  Note on, chan=1 pitch=76 vol=83
Time=163440  Note off, chan=1 pitch=76 vol=0
Time=163440  Note on, chan=1 pitch=71 vol=78
Time=163680  Note off, chan=1 pitch=71 vol=0
Time=163680  Note on, chan=1 pitch=74 vol=70
Time=163920  Note off, chan=1 pitch=74 vol=0
Time=163920  Note on, chan=1 pitch=72 vol=78
Time=164160  Note off, chan=1 pitch=72 vol=0
Time=164160  Note on, chan=1 pitch=69 vol=78
Time=164160  Note on, chan=1 pitch=45 vol=70
Time=164400  Note off, chan=1 pitch=45 vol=0
Time=164400  Note on, chan=1 pitch=52 vol=76
Time=164640  Note off, chan=1 pitch=52 vol=0
Time=164640  Note off, chan=1 pitch=69 vol=0
Time=164640  Note on, chan=1 pitch=57 vol=76
Time=164880  Note off, chan=1 pitch=57 vol=0
Time=164880  Note on, chan=1 pitch=60 vol=83
Time=165120  Note off, chan=1 pitch=60 vol=0
Time=165120  Note on, chan=1 pitch=64 vol=83
Time=165360  Note off, chan=1 pitch=64 vol=0
Time=165360  Note on, chan=1 pitch=69 vol=76
Time=165600  Note off, chan=1 pitch=69 vol=0
Time=165600  Note on, chan=1 pitch=71 vol=83
Time=165600  Note on, chan=1 pitch=40 vol=64
Time=165840  Note off, chan=1 pitch=40 vol=0
Time=165840  Note on, chan=1 pitch=52 vol=70
Time=166080  Note off, chan=1 pitch=52 vol=0
Time=166080  Note off, chan=1 pitch=71 vol=0
Time=166080  Note on, chan=1 pitch=56 vol=76
Time=166320  Note off, chan=1 pitch=56 vol=0
Time=166320  Note on, chan=1 pitch=64 vol=83
Time=166560  Note off, chan=1 pitch=64 vol=0
Time=166560  Note on, chan=1 pitch=72 vol=78
Time=166800  Note off, chan=1 pitch=72 vol=0
Time=166800  Note on, chan=1 pitch=71 vol=78
Time=167040  Note off, chan=1 pitch=71 vol=0
Time=167040  Note on, chan=1 pitch=69 vol=78
Time=167040  Note on, chan=1 pitch=45 vol=78
Time=167280  Note off, chan=1 pitch=45 vol=0
Time=167280  Note on, chan=1 pitch=52 vol=78
Time=167520  Note off, chan=1 pitch=52 vol=0
Time=167520  Note off, chan=1 pitch=69 vol=0
Time=167520  Note on, chan=1 pitch=57 vol=78
Time=167760  Note off, chan=1 pitch=57 vol=0
Time=167760  Note on, chan=1 pitch=71 vol=78
Time=168000  Note off, chan=1 pitch=71 vol=0
Time=168000  Note on, chan=1 pitch=72 vol=78
Time=168240  Note off, chan=1 pitch=72 vol=0
Time=168240  Note on, chan=1 pitch=74 vol=78
Time=168480  Note off, chan=1 pitch=74 vol=0
Time=168480  Note on, chan=1 pitch=76 vol=78
Time=168480  Meta event, sequencer-specific, type=0x04 leng=13533792
Time=168480  Note on, chan=1 pitch=48 vol=70
Time=168720  Note off, chan=1 pitch=48 vol=0
Time=168720  Note on, chan=1 pitch=55 vol=78
Time=168960  Note off, chan=1 pitch=55 vol=0
Time=168960  Note on, chan=1 pitch=60 vol=78
Time=168960  Meta event, sequencer-specific, type=0x04 leng=13533792
Time=169200  Note off, chan=1 pitch=76 vol=0
Time=169200  Note off, chan=1 pitch=60 vol=0
Time=169200  Note on, chan=1 pitch=67 vol=78
Time=169440  Note off, chan=1 pitch=67 vol=0
Time=169440  Note on, chan=1 pitch=77 vol=78
Time=169680  Note off, chan=1 pitch=77 vol=0
Time=169680  Note on, chan=1 pitch=76 vol=78
Time=169920  Note off, chan=1 pitch=76 vol=0
Time=169920  Note on, chan=1 pitch=74 vol=78
Time=169920  Meta event, sequencer-specific, type=0x04 leng=13533792
Time=169920  Note on, chan=1 pitch=43 vol=64
Time=170160  Note off, chan=1 pitch=43 vol=0
Time=170160  Note on, chan=1 pitch=55 vol=78
Time=170400  Note off, chan=1 pitch=55 vol=0
Time=170400  Note on, chan=1 pitch=59 vol=78
Time=170640  Note off, chan=1 pitch=74 vol=0
Time=170640  Note off, chan=1 pitch=59 vol=0
Time=170640  Note on, chan=1 pitch=65 vol=78
Time=170880  Note off, chan=1 pitch=65 vol=0
Time=170880  Note on, chan=1 pitch=76 vol=78
Time=171120  Note off, chan=1 pitch=76 vol=0
Time=171120  Note on, chan=1 pitch=74 vol=78
Time=171360  Note off, chan=1 pitch=74 vol=0
Time=171360  Note on, chan=1 pitch=72 vol=78
Time=171360  Note on, chan=1 pitch=45 vol=70
Time=171600  Note off, chan=1 pitch=45 vol=0
Time=171600  Note on, chan=1 pitch=52 vol=78
Time=171840  Note off, chan=1 pitch=52 vol=0
Time=171840  Note on, chan=1 pitch=57 vol=78
Time=172080  Note off, chan=1 pitch=72 vol=0
Time=172080  Note off, chan=1 pitch=57 vol=0
Time=172080  Note on, chan=1 pitch=64 vol=78
Time=172320  Note off, chan=1 pitch=64 vol=0
Time=172320  Note on, chan=1 pitch=74 vol=78
Time=172560  Note off, chan=1 pitch=74 vol=0
Time=172560  Note on, chan=1 pitch=72 vol=78
Time=172800  Note off, chan=1 pitch=72 vol=0
Time=172800  Note on, chan=1 pitch=71 vol=76
Time=172800  Note on, chan=1 pitch=40 vol=64
Time=173040  Note off, chan=1 pitch=40 vol=0
Time=173040  Note on, chan=1 pitch=52 vol=76
Time=173280  Note off, chan=1 pitch=52 vol=0
Time=173280  Note off, chan=1 pitch=71 vol=0
Time=173280  Note on, chan=1 pitch=64 vol=64
Time=173280  Meta event, sequencer-specific, type=0x04 leng=13533792
Time=173520  Note off, chan=1 pitch=64 vol=0
Time=173520  Note on, chan=1 pitch=64 vol=70
Time=173760  Note off, chan=1 pitch=64 vol=0
Time=173760  Note on, chan=1 pitch=76 vol=83
Time=174000  Note off, chan=1 pitch=76 vol=0
Time=174000  Note on, chan=1 pitch=64 vol=76
Time=174240  Note off, chan=1 pitch=64 vol=0
Time=174240  Note on, chan=1 pitch=76 vol=76
Time=174480  Note off, chan=1 pitch=76 vol=0
Time=174480  Note on, chan=1 pitch=76 vol=70
Time=174720  Note off, chan=1 pitch=76 vol=0
Time=174720  Note on, chan=1 pitch=88 vol=76
Time=174960  Note off, chan=1 pitch=88 vol=0
Time=174960  Note on, chan=1 pitch=75 vol=76
Time=175200  Note off, chan=1 pitch=75 vol=0
Time=175200  Note on, chan=1 pitch=76 vol=70
Time=175440  Note off, chan=1 pitch=76 vol=0
Time=175440  Note on, chan=1 pitch=75 vol=76
Time=175680  Note off, chan=1 pitch=75 vol=0
Time=175680  Note on, chan=1 pitch=76 vol=76
Time=175920  Note off, chan=1 pitch=76 vol=0
Time=175920  Note on, chan=1 pitch=75 vol=70
Time=176160  Note off, chan=1 pitch=75 vol=0
Time=176160  Note on, chan=1 pitch=76 vol=76
Time=176400  Note off, chan=1 pitch=76 vol=0
Time=176400  Note on, chan=1 pitch=71 vol=76
Time=176640  Note off, chan=1 pitch=71 vol=0
Time=176640  Note on, chan=1 pitch=74 vol=76
Time=176880  Note off, chan=1 pitch=74 vol=0
Time=176880  Note on, chan=1 pitch=72 vol=76
Time=177120  Note off, chan=1 pitch=72 vol=0
Time=177120  Note on, chan=1 pitch=69 vol=76
Time=177120  Note on, chan=1 pitch=45 vol=64
Time=177360  Note off, chan=1 pitch=45 vol=0
Time=177360  Note on, chan=1 pitch=52 vol=70
Time=177600  Note off, chan=1 pitch=52 vol=0
Time=177600  Note off, chan=1 pitch=69 vol=0
Time=177600  Note on, chan=1 pitch=57 vol=76
Time=177840  Note off, chan=1 pitch=57 vol=0
Time=177840  Note on, chan=1 pitch=60 vol=76
Time=178080  Note off, chan=1 pitch=60 vol=0
Time=178080  Note on, chan=1 pitch=64 vol=76
Time=178320  Note off, chan=1 pitch=64 vol=0
Time=178320  Note on, chan=1 pitch=69 vol=76
Time=178560  Note off, chan=1 pitch=69 vol=0
Time=178560  Note on, chan=1 pitch=71 vol=76
Time=178560  Note on, chan=1 pitch=40 vol=64
Time=178800  Note off, chan=1 pitch=40 vol=0
Time=178800  Note on, chan=1 pitch=52 vol=70
Time=179040  Note off, chan=1 pitch=52 vol=0
Time=179040  Note off, chan=1 pitch=71 vol=0
Time=179040  Note on, chan=1 pitch=56 vol=70
Time=179280  Note off, chan=1 pitch=56 vol=0
Time=179280  Note on, chan=1 pitch=64 vol=70
Time=179520  Note off, chan=1 pitch=64 vol=0
Time=179520  Note on, chan=1 pitch=68 vol=76
Time=179760  Note off, chan=1 pitch=68 vol=0
Time=179760  Note on, chan=1 pitch=71 vol=76
Time=180000  Note off, chan=1 pitch=71 vol=0
Time=180000  Note on, chan=1 pitch=72 vol=76
Time=180000  Note on, chan=1 pitch=45 vol=76
Time=180240  Note off, chan=1 pitch=45 vol=0
Time=180240  Note on, chan=1 pitch=52 vol=76
Time=180480  Note off, chan=1 pitch=52 vol=0
Time=180480  Note off, chan=1 pitch=72 vol=0
Time=180480  Note on, chan=1 pitch=57 vol=76
Time=180720  Note off, chan=1 pitch=57 vol=0
Time=180720  Note on, chan=1 pitch=64 vol=76
Time=180960  Note off, chan=1 pitch=64 vol=0
Time=180960  Note on, chan=1 pitch=76 vol=76
Time=181200  Note off, chan=1 pitch=76 vol=0
Time=181200  Note on, chan=1 pitch=75 vol=76
Time=181440  Note off, chan=1 pitch=75 vol=0
Time=181440  Note on, chan=1 pitch=76 vol=76
Time=181680  Note off, chan=1 pitch=76 vol=0
Time=181680  Note on, chan=1 pitch=75 vol=76
Time=181920  Note off, chan=1 pitch=75 vol=0
Time=181920  Note on, chan=1 pitch=76 vol=76
Time=182160  Note off, chan=1 pitch=76 vol=0
Time=182160  Note on, chan=1 pitch=71 vol=76
Time=182400  Note off, chan=1 pitch=71 vol=0
Time=182400  Note on, chan=1 pitch=74 vol=76
Time=182640  Note off, chan=1 pitch=74 vol=0
Time=182640  Note on, chan=1 pitch=72 vol=76
Time=182880  Note off, chan=1 pitch=72 vol=0
Time=182880  Note on, chan=1 pitch=69 vol=76
Time=182880  Note on, chan=1 pitch=45 vol=76
Time=183120  Note off, chan=1 pitch=45 vol=0
Time=183120  Note on, chan=1 pitch=52 vol=76
Time=183360  Note off, chan=1 pitch=52 vol=0
Time=183360  Note off, chan=1 pitch=69 vol=0
Time=183360  Note on, chan=1 pitch=57 vol=76
Time=183600  Note off, chan=1 pitch=57 vol=0
Time=183600  Note on, chan=1 pitch=60 vol=76
Time=183840  Note off, chan=1 pitch=60 vol=0
Time=183840  Note on, chan=1 pitch=64 vol=76
Time=184080  Note off, chan=1 pitch=64 vol=0
Time=184080  Note on, chan=1 pitch=69 vol=70
Time=184320  Note off, chan=1 pitch=69 vol=0
Time=184320  Note on, chan=1 pitch=71 vol=64
Time=184320  Note on, chan=1 pitch=40 vol=64
Time=184560  Note off, chan=1 pitch=40 vol=0
Time=184560  Note on, chan=1 pitch=52 vol=64
Time=184800  Note off, chan=1 pitch=52 vol=0
Time=184800  Note off, chan=1 pitch=71 vol=0
Time=184800  Note on, chan=1 pitch=56 vol=57
Time=185040  Note off, chan=1 pitch=56 vol=0
Time=185040  Note on, chan=1 pitch=64 vol=51
Time=185280  Note off, chan=1 pitch=64 vol=0
Time=185280  Note on, chan=1 pitch=72 vol=51
Time=185520  Note off, chan=1 pitch=72 vol=0
Time=185520  Note on, chan=1 pitch=71 vol=51
Time=185733  Parameter, chan=1 c1=64 c2=127
Time=185760  Note off, chan=1 pitch=71 vol=0
Time=185760  Meta event, sequencer-specific, type=0x03 leng=13533792
Time=185760  Note on, chan=1 pitch=60 vol=45
Time=185760  Note on, chan=1 pitch=69 vol=45
Time=185760  Note on, chan=1 pitch=45 vol=45
Time=185760  Note on, chan=1 pitch=33 vol=45
Time=187200  Note off, chan=1 pitch=45 vol=0
Time=187200  Note off, chan=1 pitch=33 vol=0
Time=187200  Note off, chan=1 pitch=60 vol=0
Time=187200  Note off, chan=1 pitch=69 vol=0
Time=190048  Parameter, chan=1 c1=64 c2=0
Time=190080  Meta event, sequencer-specific, type=0x03 leng=13533792
Time=190080  Meta event, end of track
Track end
Track start
Time=0  Meta event, sequencer-specific, type=0x05 leng=13533792
Time=0  Meta event, sequencer-specific, type=0x0f leng=13533792
Time=0  Meta Text, type=0x03 (Sequence/Track Name)  leng=24
     Text = <http://www.forelise.com/>
Time=0  Time signature=3/8  MIDI-clocks/click=12  32nd-notes/24-MIDI-clocks=8
Time=0  Program, chan=2 program=0
Time=0  Meta event, unrecognized, type=0x20 leng=1
Time=0  Meta event, end of track
Track end
Track start
Time=0  Meta event, sequencer-specific, type=0x05 leng=13533792
Time=0  Meta event, sequencer-specific, type=0x0f leng=13533792
Time=0  Meta Text, type=0x03 (Sequence/Track Name)  leng=32
     Text = <Composed by Ludwig van Beethoven>
Time=0  Time signature=3/8  MIDI-clocks/click=12  32nd-notes/24-MIDI-clocks=8
Time=0  Program, chan=3 program=0
Time=0  Meta event, unrecognized, type=0x20 leng=1
Time=0  Meta event, end of track
Track end
