Header format=1 ntrks=2 division=480
Track start
Time=0  Meta Text, type=0x02 (Copyright Notice)  leng=35
     Text = <Copyright (c) xxxx Copyright Holder>
Time=0  Meta Text, type=0x07 (Cue Point)  leng=21
     Text = <Created by Rosegarden>
Time=0  Meta Text, type=0x07 (Cue Point)  leng=31
     Text = <http://www.rosegardenmusic.com/>
Time=0  Tempo, microseconds-per-MIDI-quarter-note=500000
Time=0  Time signature=4/4  MIDI-clocks/click=24  32nd-notes/24-MIDI-clocks=8
Time=537998  Meta event, end of track
Track end
Track start
Time=0  Meta Text, type=0x03 (Sequence/Track Name)  leng=0
     Text = <>
Time=1439  Parameter, chan=1 c1=0 c2=0
Time=1439  Parameter, chan=1 c1=32 c2=0
Time=1439  Program, chan=1 program=0
Time=1919  Note on, chan=1 pitch=48 vol=64
Time=1932  Note on, chan=1 pitch=36 vol=49
Time=2196  Note on, chan=1 pitch=40 vol=47
Time=2207  Note off, chan=1 pitch=48 vol=64
Time=2209  Note off, chan=1 pitch=36 vol=64
Time=2221  Note on, chan=1 pitch=52 vol=41
Time=2475  Note on, chan=1 pitch=53 vol=48
Time=2480  Note on, chan=1 pitch=41 vol=50
Time=2484  Note off, chan=1 pitch=40 vol=64
Time=2513  Note off, chan=1 pitch=52 vol=64
Time=2710  Note off, chan=1 pitch=53 vol=64
Time=2721  Note off, chan=1 pitch=41 vol=64
Time=2733  Note on, chan=1 pitch=43 vol=36
Time=2738  Note on, chan=1 pitch=55 vol=46
Time=2959  Note off, chan=1 pitch=43 vol=64
Time=2962  Note off, chan=1 pitch=55 vol=64
Time=2966  Note on, chan=1 pitch=45 vol=50
Time=2981  Note on, chan=1 pitch=57 vol=54
Time=3199  Note on, chan=1 pitch=43 vol=32
Time=3211  Note off, chan=1 pitch=45 vol=64
Time=3222  Note on, chan=1 pitch=55 vol=46
Time=3242  Note off, chan=1 pitch=57 vol=64
Time=3431  Note off, chan=1 pitch=55 vol=64
Time=3444  Note on, chan=1 pitch=53 vol=51
Time=3447  Note off, chan=1 pitch=43 vol=64
Time=3458  Note on, chan=1 pitch=41 vol=51
Time=3662  Note on, chan=1 pitch=40 vol=55
Time=3668  Note off, chan=1 pitch=41 vol=64
Time=3670  Note on, chan=1 pitch=52 vol=44
Time=3683  Note off, chan=1 pitch=53 vol=64
Time=3843  Note off, chan=1 pitch=40 vol=64
Time=3856  Note off, chan=1 pitch=52 vol=64
Time=3863  Note on, chan=1 pitch=50 vol=57
Time=3897  Note on, chan=1 pitch=38 vol=51
Time=4104  Note off, chan=1 pitch=50 vol=64
Time=4134  Note on, chan=1 pitch=53 vol=45
Time=4149  Note on, chan=1 pitch=41 vol=57
Time=4157  Note off, chan=1 pitch=38 vol=64
Time=4380  Note off, chan=1 pitch=53 vol=64
Time=4382  Note on, chan=1 pitch=55 vol=47
Time=4392  Note on, chan=1 pitch=43 vol=51
Time=4406  Note off, chan=1 pitch=41 vol=64
Time=4583  Note off, chan=1 pitch=55 vol=64
Time=4624  Note on, chan=1 pitch=57 vol=46
Time=4631  Note on, chan=1 pitch=45 vol=47
Time=4634  Note off, chan=1 pitch=43 vol=64
Time=4835  Note off, chan=1 pitch=57 vol=64
Time=4853  Note off, chan=1 pitch=45 vol=64
Time=4867  Note on, chan=1 pitch=59 vol=50
Time=4870  Note on, chan=1 pitch=47 vol=45
Time=5106  Note on, chan=1 pitch=45 vol=38
Time=5108  Note on, chan=1 pitch=57 vol=51
Time=5116  Note off, chan=1 pitch=59 vol=64
Time=5122  Note off, chan=1 pitch=47 vol=64
Time=5302  Note off, chan=1 pitch=57 vol=64
Time=5321  Note on, chan=1 pitch=55 vol=58
Time=5340  Note off, chan=1 pitch=45 vol=64
Time=5345  Note on, chan=1 pitch=43 vol=60
Time=5544  Note on, chan=1 pitch=53 vol=43
Time=5546  Note off, chan=1 pitch=55 vol=64
Time=5574  Note on, chan=1 pitch=41 vol=54
Time=5576  Note off, chan=1 pitch=43 vol=64
Time=5730  Note off, chan=1 pitch=41 vol=64
Time=5748  Note off, chan=1 pitch=53 vol=64
Time=5762  Note on, chan=1 pitch=52 vol=56
Time=5778  Note on, chan=1 pitch=40 vol=52
Time=5945  Note off, chan=1 pitch=52 vol=64
Time=6005  Note on, chan=1 pitch=43 vol=57
Time=6017  Note on, chan=1 pitch=55 vol=43
Time=6025  Note off, chan=1 pitch=40 vol=64
Time=6224  Note off, chan=1 pitch=55 vol=64
Time=6243  Note on, chan=1 pitch=45 vol=58
Time=6245  Note on, chan=1 pitch=57 vol=44
Time=6264  Note off, chan=1 pitch=43 vol=64
Time=6447  Note off, chan=1 pitch=57 vol=64
Time=6473  Note on, chan=1 pitch=59 vol=44
Time=6481  Note on, chan=1 pitch=47 vol=47
Time=6492  Note off, chan=1 pitch=45 vol=64
Time=6671  Note off, chan=1 pitch=59 vol=64
Time=6713  Note off, chan=1 pitch=47 vol=64
Time=6729  Note on, chan=1 pitch=60 vol=49
Time=6734  Note on, chan=1 pitch=48 vol=47
Time=6962  Note on, chan=1 pitch=47 vol=40
Time=6975  Note off, chan=1 pitch=60 vol=64
Time=6984  Note on, chan=1 pitch=59 vol=54
Time=6992  Note off, chan=1 pitch=48 vol=64
Time=7178  Note off, chan=1 pitch=59 vol=64
Time=7186  Note off, chan=1 pitch=47 vol=64
Time=7199  Note on, chan=1 pitch=45 vol=43
Time=7204  Note on, chan=1 pitch=57 vol=51
Time=7431  Note on, chan=1 pitch=55 vol=39
Time=7438  Note on, chan=1 pitch=43 vol=46
Time=7442  Note off, chan=1 pitch=57 vol=64
Time=7445  Note off, chan=1 pitch=45 vol=64
Time=7617  Note off, chan=1 pitch=43 vol=64
Time=7635  Note off, chan=1 pitch=55 vol=64
Time=7644  Note on, chan=1 pitch=53 vol=47
Time=7679  Note on, chan=1 pitch=41 vol=46
Time=7868  Note off, chan=1 pitch=53 vol=64
Time=7929  Note on, chan=1 pitch=57 vol=44
Time=7935  Note on, chan=1 pitch=45 vol=49
Time=7957  Note off, chan=1 pitch=41 vol=64
Time=8155  Note off, chan=1 pitch=57 vol=64
Time=8170  Note on, chan=1 pitch=59 vol=42
Time=8172  Note on, chan=1 pitch=47 vol=40
Time=8195  Note off, chan=1 pitch=45 vol=64
Time=8405  Note off, chan=1 pitch=59 vol=64
Time=8423  Note off, chan=1 pitch=47 vol=64
Time=8424  Note on, chan=1 pitch=60 vol=43
Time=8430  Note on, chan=1 pitch=48 vol=39
Time=8619  Note off, chan=1 pitch=60 vol=64
Time=8648  Note off, chan=1 pitch=48 vol=64
Time=8667  Note on, chan=1 pitch=62 vol=41
Time=8669  Note on, chan=1 pitch=50 vol=36
Time=8892  Note off, chan=1 pitch=62 vol=64
Time=8895  Note on, chan=1 pitch=60 vol=39
Time=8916  Note off, chan=1 pitch=50 vol=64
Time=8918  Note on, chan=1 pitch=48 vol=31
Time=9122  Note off, chan=1 pitch=60 vol=64
Time=9153  Note on, chan=1 pitch=59 vol=42
Time=9159  Note off, chan=1 pitch=48 vol=64
Time=9168  Note on, chan=1 pitch=47 vol=45
Time=9408  Note on, chan=1 pitch=45 vol=42
Time=9410  Note on, chan=1 pitch=57 vol=32
Time=9421  Note off, chan=1 pitch=59 vol=64
Time=9474  Note off, chan=1 pitch=47 vol=64
Time=9609  Note off, chan=1 pitch=45 vol=64
Time=9622  Note off, chan=1 pitch=57 vol=64
Time=9634  Note on, chan=1 pitch=55 vol=35
Time=9656  Note on, chan=1 pitch=43 vol=43
Time=9843  Note off, chan=1 pitch=55 vol=64
Time=9899  Note on, chan=1 pitch=59 vol=40
Time=9916  Note on, chan=1 pitch=47 vol=44
Time=9920  Note off, chan=1 pitch=43 vol=64
Time=10100  Note off, chan=1 pitch=59 vol=64
Time=10131  Note on, chan=1 pitch=60 vol=37
Time=10157  Note on, chan=1 pitch=48 vol=39
Time=10162  Note off, chan=1 pitch=47 vol=64
Time=10308  Note off, chan=1 pitch=60 vol=64
Time=10364  Note on, chan=1 pitch=62 vol=34
Time=10366  Note off, chan=1 pitch=48 vol=64
Time=10381  Note on, chan=1 pitch=50 vol=40
Time=10556  Note off, chan=1 pitch=62 vol=64
Time=10587  Note off, chan=1 pitch=50 vol=64
Time=10597  Note on, chan=1 pitch=64 vol=42
Time=10620  Note on, chan=1 pitch=52 vol=34
Time=10802  Note off, chan=1 pitch=64 vol=64
Time=10830  Note on, chan=1 pitch=62 vol=32
Time=10851  Note off, chan=1 pitch=52 vol=64
Time=10865  Note on, chan=1 pitch=50 vol=33
Time=11035  Note off, chan=1 pitch=62 vol=64
Time=11062  Note on, chan=1 pitch=60 vol=39
Time=11075  Note off, chan=1 pitch=50 vol=64
Time=11085  Note on, chan=1 pitch=48 vol=51
Time=11304  Note off, chan=1 pitch=60 vol=64
Time=11313  Note on, chan=1 pitch=59 vol=33
Time=11323  Note on, chan=1 pitch=47 vol=44
Time=11340  Note off, chan=1 pitch=48 vol=64
Time=11490  Note off, chan=1 pitch=47 vol=64
Time=11510  Note off, chan=1 pitch=59 vol=64
Time=11532  Note on, chan=1 pitch=57 vol=44
Time=11552  Note on, chan=1 pitch=45 vol=45
Time=11709  Note off, chan=1 pitch=57 vol=64
Time=11784  Note off, chan=1 pitch=45 vol=64
Time=11796  Note on, chan=1 pitch=48 vol=45
Time=11798  Note on, chan=1 pitch=60 vol=37
Time=11992  Note off, chan=1 pitch=60 vol=64
Time=12028  Note on, chan=1 pitch=62 vol=31
Time=12035  Note on, chan=1 pitch=50 vol=43
Time=12043  Note off, chan=1 pitch=48 vol=64
Time=12195  Note off, chan=1 pitch=62 vol=64
Time=12251  Note off, chan=1 pitch=50 vol=64
Time=12261  Note on, chan=1 pitch=64 vol=34
Time=12274  Note on, chan=1 pitch=52 vol=37
Time=12466  Note off, chan=1 pitch=64 vol=64
Time=12500  Note off, chan=1 pitch=52 vol=64
Time=12511  Note on, chan=1 pitch=65 vol=45
Time=12530  Note on, chan=1 pitch=53 vol=33
Time=12713  Note off, chan=1 pitch=65 vol=64
Time=12731  Note on, chan=1 pitch=64 vol=29
Time=12734  Note on, chan=1 pitch=52 vol=30
Time=12738  Note off, chan=1 pitch=53 vol=64
Time=12938  Note off, chan=1 pitch=64 vol=64
Time=12974  Note on, chan=1 pitch=62 vol=39
Time=12982  Note off, chan=1 pitch=52 vol=64
Time=12987  Note on, chan=1 pitch=50 vol=43
Time=13192  Note off, chan=1 pitch=62 vol=64
Time=13209  Note on, chan=1 pitch=60 vol=34
Time=13229  Note on, chan=1 pitch=48 vol=43
Time=13345  Note off, chan=1 pitch=50 vol=64
Time=13406  Note off, chan=1 pitch=60 vol=64
Time=13415  Note off, chan=1 pitch=48 vol=64
Time=13443  Note on, chan=1 pitch=59 vol=39
Time=13455  Note on, chan=1 pitch=47 vol=44
Time=13610  Note off, chan=1 pitch=59 vol=64
Time=13701  Note on, chan=1 pitch=50 vol=45
Time=13704  Note on, chan=1 pitch=62 vol=32
Time=13708  Note off, chan=1 pitch=47 vol=64
Time=13899  Note off, chan=1 pitch=62 vol=64
Time=13932  Note on, chan=1 pitch=64 vol=36
Time=13945  Note on, chan=1 pitch=52 vol=45
Time=13952  Note off, chan=1 pitch=50 vol=64
Time=14108  Note off, chan=1 pitch=64 vol=64
Time=14158  Note off, chan=1 pitch=52 vol=64
Time=14159  Note on, chan=1 pitch=65 vol=39
Time=14168  Note on, chan=1 pitch=53 vol=41
Time=14345  Note off, chan=1 pitch=65 vol=64
Time=14402  Note off, chan=1 pitch=53 vol=64
Time=14415  Note on, chan=1 pitch=67 vol=39
Time=14426  Note on, chan=1 pitch=55 vol=38
Time=14643  Note off, chan=1 pitch=67 vol=64
Time=14648  Note off, chan=1 pitch=55 vol=64
Time=14651  Note on, chan=1 pitch=65 vol=35
Time=14655  Note on, chan=1 pitch=53 vol=25
Time=14868  Note off, chan=1 pitch=65 vol=64
Time=14883  Note off, chan=1 pitch=53 vol=64
Time=14891  Note on, chan=1 pitch=52 vol=51
Time=14897  Note on, chan=1 pitch=64 vol=33
Time=15122  Note off, chan=1 pitch=64 vol=64
Time=15135  Note on, chan=1 pitch=62 vol=32
Time=15150  Note off, chan=1 pitch=52 vol=64
Time=15152  Note on, chan=1 pitch=50 vol=39
Time=15329  Note off, chan=1 pitch=50 vol=64
Time=15331  Note off, chan=1 pitch=62 vol=64
Time=15360  Note on, chan=1 pitch=64 vol=21
Time=15368  Note on, chan=1 pitch=60 vol=36
Time=15389  Note on, chan=1 pitch=48 vol=44
Time=15472  Note off, chan=1 pitch=60 vol=64
Time=15586  Note off, chan=1 pitch=64 vol=64
Time=15611  Note off, chan=1 pitch=48 vol=64
Time=15624  Note on, chan=1 pitch=52 vol=41
Time=15828  Note on, chan=1 pitch=65 vol=31
Time=15879  Note off, chan=1 pitch=52 vol=64
Time=15882  Note on, chan=1 pitch=53 vol=42
Time=16010  Note off, chan=1 pitch=65 vol=64
Time=16059  Note on, chan=1 pitch=67 vol=39
Time=16086  Note off, chan=1 pitch=53 vol=64
Time=16097  Note on, chan=1 pitch=55 vol=40
Time=16273  Note off, chan=1 pitch=67 vol=64
Time=16311  Note on, chan=1 pitch=69 vol=45
Time=16313  Note off, chan=1 pitch=55 vol=64
Time=16337  Note on, chan=1 pitch=57 vol=41
Time=16542  Note off, chan=1 pitch=69 vol=64
Time=16559  Note on, chan=1 pitch=67 vol=40
Time=16581  Note on, chan=1 pitch=55 vol=35
Time=16586  Note off, chan=1 pitch=57 vol=64
Time=16763  Note off, chan=1 pitch=67 vol=64
Time=16795  Note on, chan=1 pitch=65 vol=37
Time=16800  Note on, chan=1 pitch=53 vol=49
Time=16811  Note off, chan=1 pitch=55 vol=64
Time=17033  Note off, chan=1 pitch=65 vol=64
Time=17037  Note on, chan=1 pitch=64 vol=42
Time=17062  Note on, chan=1 pitch=52 vol=49
Time=17066  Note off, chan=1 pitch=53 vol=64
Time=17252  Note off, chan=1 pitch=52 vol=64
Time=17264  Note off, chan=1 pitch=64 vol=64
Time=17270  Note on, chan=1 pitch=62 vol=41
Time=17286  Note on, chan=1 pitch=50 vol=45
Time=17499  Note off, chan=1 pitch=62 vol=64
Time=17535  Note on, chan=1 pitch=65 vol=43
Time=17540  Note on, chan=1 pitch=53 vol=54
Time=17579  Note off, chan=1 pitch=50 vol=64
Time=17755  Note off, chan=1 pitch=65 vol=64
Time=17757  Note on, chan=1 pitch=67 vol=47
Time=17765  Note on, chan=1 pitch=55 vol=52
Time=17800  Note off, chan=1 pitch=53 vol=64
Time=18000  Note off, chan=1 pitch=55 vol=64
Time=18008  Note on, chan=1 pitch=57 vol=48
Time=18011  Note off, chan=1 pitch=67 vol=64
Time=18023  Note on, chan=1 pitch=69 vol=40
Time=18242  Note off, chan=1 pitch=69 vol=64
Time=18251  Note off, chan=1 pitch=57 vol=64
Time=18261  Note on, chan=1 pitch=71 vol=44
Time=18263  Note on, chan=1 pitch=59 vol=47
Time=18488  Note on, chan=1 pitch=69 vol=40
Time=18495  Note off, chan=1 pitch=71 vol=64
Time=18506  Note on, chan=1 pitch=57 vol=31
Time=18528  Note off, chan=1 pitch=59 vol=64
Time=18726  Note on, chan=1 pitch=55 vol=51
Time=18735  Note off, chan=1 pitch=69 vol=64
Time=18737  Note off, chan=1 pitch=57 vol=64
Time=18744  Note on, chan=1 pitch=67 vol=43
Time=18968  Note off, chan=1 pitch=67 vol=64
Time=18970  Note on, chan=1 pitch=65 vol=41
Time=18996  Note on, chan=1 pitch=53 vol=64
Time=19016  Note off, chan=1 pitch=55 vol=64
Time=19168  Note off, chan=1 pitch=53 vol=64
Time=19193  Note off, chan=1 pitch=65 vol=64
Time=19229  Note on, chan=1 pitch=64 vol=40
Time=19231  Note on, chan=1 pitch=52 vol=43
Time=19406  Note off, chan=1 pitch=64 vol=64
Time=19476  Note on, chan=1 pitch=67 vol=45
Time=19483  Note on, chan=1 pitch=55 vol=49
Time=19517  Note off, chan=1 pitch=52 vol=64
Time=19684  Note off, chan=1 pitch=67 vol=64
Time=19712  Note on, chan=1 pitch=69 vol=43
Time=19713  Note on, chan=1 pitch=57 vol=51
Time=19737  Note off, chan=1 pitch=55 vol=64
Time=19928  Note off, chan=1 pitch=69 vol=64
Time=19951  Note off, chan=1 pitch=57 vol=64
Time=19953  Note on, chan=1 pitch=71 vol=36
Time=19958  Note on, chan=1 pitch=59 vol=45
Time=20155  Note off, chan=1 pitch=71 vol=64
Time=20168  Note off, chan=1 pitch=59 vol=64
Time=20192  Note on, chan=1 pitch=60 vol=38
Time=20193  Note on, chan=1 pitch=72 vol=46
Time=20411  Note off, chan=1 pitch=72 vol=64
Time=20430  Note on, chan=1 pitch=71 vol=36
Time=20450  Note on, chan=1 pitch=59 vol=38
Time=20451  Note off, chan=1 pitch=60 vol=64
Time=20631  Note off, chan=1 pitch=71 vol=64
Time=20660  Note on, chan=1 pitch=69 vol=49
Time=20673  Note on, chan=1 pitch=57 vol=54
Time=20677  Note off, chan=1 pitch=59 vol=64
Time=20875  Note off, chan=1 pitch=69 vol=64
Time=20886  Note on, chan=1 pitch=67 vol=39
Time=20906  Note on, chan=1 pitch=55 vol=43
Time=20955  Note off, chan=1 pitch=57 vol=64
Time=21065  Note off, chan=1 pitch=55 vol=64
Time=21090  Note off, chan=1 pitch=67 vol=64
Time=21129  Note on, chan=1 pitch=53 vol=46
Time=21135  Note on, chan=1 pitch=65 vol=41
Time=21315  Note off, chan=1 pitch=65 vol=64
Time=21380  Note on, chan=1 pitch=57 vol=49
Time=21390  Note on, chan=1 pitch=69 vol=40
Time=21398  Note off, chan=1 pitch=53 vol=64
Time=21596  Note off, chan=1 pitch=69 vol=64
Time=21621  Note on, chan=1 pitch=71 vol=37
Time=21626  Note on, chan=1 pitch=59 vol=47
Time=21640  Note off, chan=1 pitch=57 vol=64
Time=21835  Note off, chan=1 pitch=71 vol=64
Time=21850  Note off, chan=1 pitch=59 vol=64
Time=21853  Note on, chan=1 pitch=60 vol=40
Time=21866  Note on, chan=1 pitch=72 vol=36
Time=22061  Note off, chan=1 pitch=72 vol=64
Time=22098  Note on, chan=1 pitch=74 vol=47
Time=22101  Note on, chan=1 pitch=62 vol=41
Time=22103  Note off, chan=1 pitch=60 vol=64
Time=22265  Note off, chan=1 pitch=74 vol=64
Time=22310  Note on, chan=1 pitch=72 vol=42
Time=22361  Note off, chan=1 pitch=62 vol=64
Time=22362  Note on, chan=1 pitch=60 vol=36
Time=22503  Note off, chan=1 pitch=72 vol=64
Time=22574  Note on, chan=1 pitch=71 vol=38
Time=22600  Note on, chan=1 pitch=59 vol=49
Time=22605  Note off, chan=1 pitch=60 vol=64
Time=22789  Note off, chan=1 pitch=71 vol=64
Time=22808  Note on, chan=1 pitch=69 vol=40
Time=22838  Note on, chan=1 pitch=57 vol=41
Time=22883  Note off, chan=1 pitch=59 vol=64
Time=22999  Note off, chan=1 pitch=57 vol=64
Time=23018  Note off, chan=1 pitch=69 vol=64
Time=23057  Note on, chan=1 pitch=67 vol=40
Time=23061  Note on, chan=1 pitch=55 vol=41
Time=23238  Note off, chan=1 pitch=67 vol=64
Time=23313  Note on, chan=1 pitch=71 vol=39
Time=23316  Note on, chan=1 pitch=59 vol=46
Time=23339  Note off, chan=1 pitch=55 vol=64
Time=23520  Note off, chan=1 pitch=71 vol=64
Time=23536  Note on, chan=1 pitch=72 vol=43
Time=23549  Note on, chan=1 pitch=60 vol=54
Time=23579  Note off, chan=1 pitch=59 vol=64
Time=23727  Note off, chan=1 pitch=72 vol=64
Time=23758  Note on, chan=1 pitch=74 vol=44
Time=23792  Note off, chan=1 pitch=60 vol=64
Time=23793  Note on, chan=1 pitch=62 vol=42
Time=23948  Note off, chan=1 pitch=74 vol=64
Time=24002  Note off, chan=1 pitch=62 vol=64
Time=24021  Note on, chan=1 pitch=64 vol=36
Time=24023  Note on, chan=1 pitch=76 vol=45
Time=24219  Note off, chan=1 pitch=64 vol=64
Time=24221  Note off, chan=1 pitch=76 vol=64
Time=24247  Note on, chan=1 pitch=74 vol=38
Time=24251  Note on, chan=1 pitch=62 vol=36
Time=24453  Note off, chan=1 pitch=74 vol=64
Time=24486  Note off, chan=1 pitch=62 vol=64
Time=24489  Note on, chan=1 pitch=72 vol=40
Time=24491  Note on, chan=1 pitch=60 vol=39
Time=24694  Note off, chan=1 pitch=72 vol=64
Time=24717  Note on, chan=1 pitch=59 vol=40
Time=24726  Note on, chan=1 pitch=71 vol=35
Time=24764  Note off, chan=1 pitch=60 vol=64
Time=24897  Note off, chan=1 pitch=59 vol=64
Time=24924  Note off, chan=1 pitch=71 vol=64
Time=24954  Note on, chan=1 pitch=57 vol=46
Time=24967  Note on, chan=1 pitch=69 vol=46
Time=25143  Note off, chan=1 pitch=69 vol=64
Time=25211  Note on, chan=1 pitch=60 vol=49
Time=25215  Note on, chan=1 pitch=72 vol=33
Time=25220  Note off, chan=1 pitch=57 vol=64
Time=25410  Note off, chan=1 pitch=72 vol=64
Time=25448  Note on, chan=1 pitch=62 vol=44
Time=25451  Note on, chan=1 pitch=74 vol=40
Time=25456  Note off, chan=1 pitch=60 vol=64
Time=25656  Note off, chan=1 pitch=74 vol=64
Time=25677  Note off, chan=1 pitch=62 vol=64
Time=25693  Note on, chan=1 pitch=64 vol=43
Time=25695  Note on, chan=1 pitch=76 vol=37
Time=25905  Note off, chan=1 pitch=76 vol=64
Time=25919  Note off, chan=1 pitch=64 vol=64
Time=25944  Note on, chan=1 pitch=77 vol=48
Time=25950  Note on, chan=1 pitch=65 vol=39
Time=26145  Note off, chan=1 pitch=77 vol=64
Time=26192  Note on, chan=1 pitch=76 vol=36
Time=26193  Note on, chan=1 pitch=64 vol=41
Time=26199  Note off, chan=1 pitch=65 vol=64
Time=26373  Note off, chan=1 pitch=76 vol=64
Time=26415  Note on, chan=1 pitch=62 vol=44
Time=26417  Note off, chan=1 pitch=64 vol=64
Time=26418  Note on, chan=1 pitch=74 vol=42
Time=26633  Note off, chan=1 pitch=74 vol=64
Time=26659  Note on, chan=1 pitch=60 vol=40
Time=26663  Note on, chan=1 pitch=72 vol=36
Time=26697  Note off, chan=1 pitch=62 vol=64
Time=26846  Note off, chan=1 pitch=60 vol=64
Time=26870  Note off, chan=1 pitch=72 vol=64
Time=26901  Note on, chan=1 pitch=71 vol=40
Time=26909  Note on, chan=1 pitch=59 vol=40
Time=27080  Note off, chan=1 pitch=71 vol=64
Time=27149  Note on, chan=1 pitch=62 vol=47
Time=27155  Note off, chan=1 pitch=59 vol=64
Time=27156  Note on, chan=1 pitch=74 vol=33
Time=27350  Note off, chan=1 pitch=74 vol=64
Time=27394  Note on, chan=1 pitch=76 vol=38
Time=27405  Note off, chan=1 pitch=62 vol=64
Time=27407  Note on, chan=1 pitch=64 vol=36
Time=27591  Note off, chan=1 pitch=76 vol=64
Time=27638  Note on, chan=1 pitch=77 vol=42
Time=27649  Note off, chan=1 pitch=64 vol=64
Time=27666  Note on, chan=1 pitch=65 vol=38
Time=27837  Note off, chan=1 pitch=77 vol=64
Time=27866  Note off, chan=1 pitch=65 vol=64
Time=27900  Note on, chan=1 pitch=79 vol=45
Time=27913  Note on, chan=1 pitch=67 vol=44
Time=28097  Note off, chan=1 pitch=79 vol=64
Time=28131  Note on, chan=1 pitch=77 vol=38
Time=28139  Note on, chan=1 pitch=65 vol=43
Time=28145  Note off, chan=1 pitch=67 vol=64
Time=28326  Note off, chan=1 pitch=77 vol=64
Time=28365  Note on, chan=1 pitch=76 vol=43
Time=28375  Note on, chan=1 pitch=64 vol=40
Time=28388  Note off, chan=1 pitch=65 vol=64
Time=28591  Note off, chan=1 pitch=76 vol=64
Time=28598  Note on, chan=1 pitch=62 vol=43
Time=28610  Note off, chan=1 pitch=64 vol=64
Time=28611  Note on, chan=1 pitch=74 vol=33
Time=28759  Note off, chan=1 pitch=62 vol=64
Time=28784  Note off, chan=1 pitch=74 vol=64
Time=28826  Note on, chan=1 pitch=67 vol=42
Time=28828  Note on, chan=1 pitch=79 vol=40
Time=29009  Note off, chan=1 pitch=79 vol=64
Time=29052  Note on, chan=1 pitch=76 vol=41
Time=29061  Note off, chan=1 pitch=67 vol=64
Time=29093  Note on, chan=1 pitch=64 vol=35
Time=29239  Note off, chan=1 pitch=76 vol=64
Time=29278  Note off, chan=1 pitch=64 vol=64
Time=29303  Note on, chan=1 pitch=62 vol=41
Time=29321  Note on, chan=1 pitch=74 vol=33
Time=29517  Note off, chan=1 pitch=74 vol=64
Time=29541  Note on, chan=1 pitch=60 vol=44
Time=29542  Note on, chan=1 pitch=72 vol=37
Time=29558  Note off, chan=1 pitch=62 vol=64
Time=29715  Note off, chan=1 pitch=60 vol=64
Time=29729  Note off, chan=1 pitch=72 vol=64
Time=29768  Note on, chan=1 pitch=71 vol=32
Time=29787  Note on, chan=1 pitch=59 vol=36
Time=29958  Note off, chan=1 pitch=71 vol=64
Time=30009  Note off, chan=1 pitch=59 vol=64
Time=30014  Note on, chan=1 pitch=60 vol=41
Time=30015  Note on, chan=1 pitch=72 vol=27
Time=30209  Note off, chan=1 pitch=72 vol=64
Time=30229  Note off, chan=1 pitch=60 vol=64
Time=30231  Note on, chan=1 pitch=62 vol=48
Time=30257  Note on, chan=1 pitch=74 vol=33
Time=30461  Note off, chan=1 pitch=62 vol=64
Time=30464  Note off, chan=1 pitch=74 vol=64
Time=30488  Note on, chan=1 pitch=64 vol=36
Time=30489  Note on, chan=1 pitch=76 vol=41
Time=30673  Note off, chan=1 pitch=76 vol=64
Time=30689  Note off, chan=1 pitch=64 vol=64
Time=30722  Note on, chan=1 pitch=77 vol=48
Time=30726  Note on, chan=1 pitch=65 vol=41
Time=30915  Note off, chan=1 pitch=77 vol=64
Time=30968  Note off, chan=1 pitch=65 vol=64
Time=30969  Note on, chan=1 pitch=74 vol=33
Time=30986  Note on, chan=1 pitch=62 vol=28
Time=31167  Note off, chan=1 pitch=74 vol=64
Time=31174  Note off, chan=1 pitch=62 vol=64
Time=31207  Note on, chan=1 pitch=60 vol=39
Time=31217  Note on, chan=1 pitch=72 vol=29
Time=31400  Note off, chan=1 pitch=72 vol=64
Time=31452  Note on, chan=1 pitch=71 vol=31
Time=31463  Note on, chan=1 pitch=59 vol=41
Time=31488  Note off, chan=1 pitch=60 vol=64
Time=31650  Note off, chan=1 pitch=71 vol=64
Time=31673  Note off, chan=1 pitch=59 vol=64
Time=31693  Note on, chan=1 pitch=69 vol=38
Time=31703  Note on, chan=1 pitch=57 vol=36
Time=31889  Note off, chan=1 pitch=69 vol=64
Time=31944  Note on, chan=1 pitch=71 vol=30
Time=31946  Note on, chan=1 pitch=59 vol=42
Time=31955  Note off, chan=1 pitch=57 vol=64
Time=32131  Note off, chan=1 pitch=71 vol=64
Time=32162  Note on, chan=1 pitch=72 vol=36
Time=32169  Note off, chan=1 pitch=59 vol=64
Time=32174  Note on, chan=1 pitch=60 vol=40
Time=32372  Note off, chan=1 pitch=72 vol=64
Time=32402  Note on, chan=1 pitch=74 vol=40
Time=32424  Note off, chan=1 pitch=60 vol=64
Time=32431  Note on, chan=1 pitch=62 vol=36
Time=32595  Note off, chan=1 pitch=74 vol=64
Time=32640  Note off, chan=1 pitch=62 vol=64
Time=32655  Note on, chan=1 pitch=76 vol=38
Time=32676  Note on, chan=1 pitch=64 vol=42
Time=32858  Note off, chan=1 pitch=76 vol=64
Time=32900  Note on, chan=1 pitch=72 vol=38
Time=32915  Note off, chan=1 pitch=64 vol=64
Time=32917  Note on, chan=1 pitch=60 vol=38
Time=33096  Note off, chan=1 pitch=72 vol=64
Time=33117  Note off, chan=1 pitch=60 vol=64
Time=33134  Note on, chan=1 pitch=59 vol=49
Time=33137  Note on, chan=1 pitch=71 vol=36
Time=33313  Note off, chan=1 pitch=71 vol=64
Time=33357  Note on, chan=1 pitch=69 vol=44
Time=33362  Note on, chan=1 pitch=57 vol=47
Time=33385  Note off, chan=1 pitch=59 vol=64
Time=33552  Note off, chan=1 pitch=69 vol=64
Time=33570  Note off, chan=1 pitch=57 vol=64
Time=33606  Note on, chan=1 pitch=67 vol=32
Time=33611  Note on, chan=1 pitch=55 vol=39
Time=33782  Note off, chan=1 pitch=67 vol=64
Time=33841  Note on, chan=1 pitch=57 vol=44
Time=33849  Note on, chan=1 pitch=69 vol=37
Time=33852  Note off, chan=1 pitch=55 vol=64
Time=34016  Note off, chan=1 pitch=69 vol=64
Time=34086  Note on, chan=1 pitch=59 vol=41
Time=34092  Note off, chan=1 pitch=57 vol=64
Time=34094  Note on, chan=1 pitch=71 vol=28
Time=34251  Note off, chan=1 pitch=71 vol=64
Time=34313  Note off, chan=1 pitch=59 vol=64
Time=34326  Note on, chan=1 pitch=72 vol=32
Time=34346  Note on, chan=1 pitch=60 vol=34
Time=34526  Note off, chan=1 pitch=72 vol=64
Time=34547  Note off, chan=1 pitch=60 vol=64
Time=34584  Note on, chan=1 pitch=62 vol=38
Time=34585  Note on, chan=1 pitch=74 vol=43
Time=34793  Note off, chan=1 pitch=74 vol=64
Time=34819  Note off, chan=1 pitch=62 vol=64
Time=34830  Note on, chan=1 pitch=71 vol=36
Time=34849  Note on, chan=1 pitch=59 vol=35
Time=35007  Note off, chan=1 pitch=71 vol=64
Time=35023  Note off, chan=1 pitch=59 vol=64
Time=35055  Note on, chan=1 pitch=57 vol=42
Time=35078  Note on, chan=1 pitch=69 vol=35
Time=35247  Note off, chan=1 pitch=69 vol=64
Time=35280  Note off, chan=1 pitch=57 vol=64
Time=35283  Note on, chan=1 pitch=55 vol=45
Time=35290  Note on, chan=1 pitch=67 vol=37
Time=35468  Note off, chan=1 pitch=55 vol=64
Time=35485  Note off, chan=1 pitch=67 vol=64
Time=35521  Note on, chan=1 pitch=53 vol=41
Time=35526  Note on, chan=1 pitch=65 vol=35
Time=35727  Note off, chan=1 pitch=65 vol=64
Time=35773  Note on, chan=1 pitch=67 vol=32
Time=35775  Note on, chan=1 pitch=55 vol=41
Time=35793  Note off, chan=1 pitch=53 vol=64
Time=35958  Note off, chan=1 pitch=67 vol=64
Time=35999  Note off, chan=1 pitch=55 vol=64
Time=36008  Note on, chan=1 pitch=69 vol=36
Time=36017  Note on, chan=1 pitch=57 vol=46
Time=36218  Note off, chan=1 pitch=69 vol=64
Time=36245  Note off, chan=1 pitch=57 vol=64
Time=36254  Note on, chan=1 pitch=71 vol=32
Time=36262  Note on, chan=1 pitch=59 vol=34
Time=36450  Note off, chan=1 pitch=71 vol=64
Time=36453  Note off, chan=1 pitch=59 vol=64
Time=36494  Note on, chan=1 pitch=60 vol=45
Time=36495  Note on, chan=1 pitch=72 vol=44
Time=36696  Note off, chan=1 pitch=72 vol=64
Time=36728  Note off, chan=1 pitch=60 vol=64
Time=36741  Note on, chan=1 pitch=69 vol=38
Time=36742  Note on, chan=1 pitch=57 vol=36
Time=36914  Note off, chan=1 pitch=57 vol=64
Time=36917  Note off, chan=1 pitch=69 vol=64
Time=36945  Note on, chan=1 pitch=55 vol=46
Time=36979  Note on, chan=1 pitch=67 vol=35
Time=37112  Note off, chan=1 pitch=67 vol=64
Time=37187  Note on, chan=1 pitch=53 vol=40
Time=37193  Note on, chan=1 pitch=65 vol=33
Time=37197  Note off, chan=1 pitch=55 vol=64
Time=37380  Note off, chan=1 pitch=65 vol=64
Time=37391  Note off, chan=1 pitch=53 vol=64
Time=37422  Note on, chan=1 pitch=64 vol=33
Time=37431  Note on, chan=1 pitch=52 vol=40
Time=37566  Note off, chan=1 pitch=64 vol=64
Time=37649  Note on, chan=1 pitch=65 vol=28
Time=37670  Note on, chan=1 pitch=53 vol=36
Time=37682  Note off, chan=1 pitch=52 vol=64
Time=37843  Note off, chan=1 pitch=65 vol=64
Time=37897  Note on, chan=1 pitch=67 vol=32
Time=37914  Note on, chan=1 pitch=55 vol=44
Time=37938  Note off, chan=1 pitch=53 vol=64
Time=38104  Note off, chan=1 pitch=67 vol=64
Time=38137  Note off, chan=1 pitch=55 vol=64
Time=38139  Note on, chan=1 pitch=69 vol=41
Time=38148  Note on, chan=1 pitch=57 vol=40
Time=38316  Note off, chan=1 pitch=69 vol=64
Time=38337  Note off, chan=1 pitch=57 vol=64
Time=38373  Note on, chan=1 pitch=59 vol=41
Time=38390  Note on, chan=1 pitch=71 vol=43
Time=38588  Note off, chan=1 pitch=71 vol=64
Time=38614  Note off, chan=1 pitch=59 vol=64
Time=38635  Note on, chan=1 pitch=67 vol=34
Time=38642  Note on, chan=1 pitch=55 vol=34
Time=38803  Note off, chan=1 pitch=67 vol=64
Time=38837  Note off, chan=1 pitch=55 vol=64
Time=38858  Note on, chan=1 pitch=53 vol=47
Time=38878  Note on, chan=1 pitch=65 vol=36
Time=39069  Note off, chan=1 pitch=65 vol=64
Time=39110  Note on, chan=1 pitch=64 vol=32
Time=39120  Note on, chan=1 pitch=52 vol=43
Time=39126  Note off, chan=1 pitch=53 vol=64
Time=39303  Note off, chan=1 pitch=64 vol=64
Time=39314  Note off, chan=1 pitch=52 vol=64
Time=39345  Note on, chan=1 pitch=62 vol=35
Time=39368  Note on, chan=1 pitch=50 vol=36
Time=39533  Note off, chan=1 pitch=62 vol=64
Time=39601  Note on, chan=1 pitch=64 vol=21
Time=39611  Note on, chan=1 pitch=52 vol=42
Time=39619  Note off, chan=1 pitch=50 vol=64
Time=39770  Note off, chan=1 pitch=64 vol=64
Time=39823  Note on, chan=1 pitch=65 vol=32
Time=39848  Note on, chan=1 pitch=53 vol=47
Time=39855  Note off, chan=1 pitch=52 vol=64
Time=40027  Note off, chan=1 pitch=65 vol=64
Time=40076  Note off, chan=1 pitch=53 vol=64
Time=40077  Note on, chan=1 pitch=67 vol=37
Time=40095  Note on, chan=1 pitch=55 vol=36
Time=40268  Note off, chan=1 pitch=55 vol=64
Time=40274  Note off, chan=1 pitch=67 vol=64
Time=40301  Note on, chan=1 pitch=57 vol=50
Time=40329  Note on, chan=1 pitch=69 vol=45
Time=40498  Note off, chan=1 pitch=69 vol=64
Time=40549  Note off, chan=1 pitch=57 vol=64
Time=40572  Note on, chan=1 pitch=65 vol=36
Time=40575  Note on, chan=1 pitch=53 vol=34
Time=40748  Note off, chan=1 pitch=65 vol=64
Time=40752  Note off, chan=1 pitch=53 vol=64
Time=40780  Note on, chan=1 pitch=52 vol=41
Time=40826  Note on, chan=1 pitch=64 vol=30
Time=41004  Note off, chan=1 pitch=64 vol=64
Time=41048  Note on, chan=1 pitch=50 vol=43
Time=41052  Note off, chan=1 pitch=52 vol=64
Time=41054  Note on, chan=1 pitch=62 vol=32
Time=41253  Note off, chan=1 pitch=62 vol=64
Time=41267  Note off, chan=1 pitch=50 vol=64
Time=41292  Note on, chan=1 pitch=60 vol=31
Time=41307  Note on, chan=1 pitch=48 vol=39
Time=41490  Note off, chan=1 pitch=60 vol=64
Time=41547  Note on, chan=1 pitch=62 vol=32
Time=41561  Note off, chan=1 pitch=48 vol=64
Time=41562  Note on, chan=1 pitch=50 vol=35
Time=41730  Note off, chan=1 pitch=62 vol=64
Time=41777  Note off, chan=1 pitch=50 vol=64
Time=41787  Note on, chan=1 pitch=52 vol=41
Time=41790  Note on, chan=1 pitch=64 vol=29
Time=41930  Note off, chan=1 pitch=64 vol=64
Time=42017  Note on, chan=1 pitch=65 vol=37
Time=42022  Note off, chan=1 pitch=52 vol=64
Time=42026  Note on, chan=1 pitch=53 vol=36
Time=42203  Note off, chan=1 pitch=65 vol=64
Time=42212  Note off, chan=1 pitch=53 vol=64
Time=42251  Note on, chan=1 pitch=55 vol=44
Time=42258  Note on, chan=1 pitch=67 vol=47
Time=42457  Note off, chan=1 pitch=67 vol=64
Time=42464  Note off, chan=1 pitch=55 vol=64
Time=42494  Note on, chan=1 pitch=64 vol=33
Time=42500  Note on, chan=1 pitch=52 vol=32
Time=42664  Note off, chan=1 pitch=64 vol=64
Time=42689  Note off, chan=1 pitch=52 vol=64
Time=42729  Note on, chan=1 pitch=50 vol=38
Time=42750  Note on, chan=1 pitch=62 vol=28
Time=42923  Note off, chan=1 pitch=62 vol=64
Time=42977  Note on, chan=1 pitch=60 vol=29
Time=42998  Note on, chan=1 pitch=48 vol=34
Time=43002  Note off, chan=1 pitch=50 vol=64
Time=43169  Note off, chan=1 pitch=60 vol=64
Time=43181  Note off, chan=1 pitch=48 vol=64
Time=43215  Note on, chan=1 pitch=59 vol=35
Time=43217  Note on, chan=1 pitch=47 vol=40
Time=43392  Note off, chan=1 pitch=59 vol=64
Time=43444  Note on, chan=1 pitch=60 vol=29
Time=43463  Note off, chan=1 pitch=47 vol=64
Time=43465  Note on, chan=1 pitch=48 vol=36
Time=43641  Note off, chan=1 pitch=60 vol=64
Time=43682  Note on, chan=1 pitch=62 vol=35
Time=43687  Note off, chan=1 pitch=48 vol=64
Time=43699  Note on, chan=1 pitch=50 vol=43
Time=43880  Note off, chan=1 pitch=62 vol=64
Time=43925  Note off, chan=1 pitch=50 vol=64
Time=43935  Note on, chan=1 pitch=64 vol=32
Time=43952  Note on, chan=1 pitch=52 vol=36
Time=44121  Note off, chan=1 pitch=64 vol=64
Time=44136  Note off, chan=1 pitch=52 vol=64
Time=44177  Note on, chan=1 pitch=53 vol=42
Time=44183  Note on, chan=1 pitch=65 vol=46
Time=44359  Note off, chan=1 pitch=65 vol=64
Time=44382  Note off, chan=1 pitch=53 vol=64
Time=44413  Note on, chan=1 pitch=62 vol=34
Time=44424  Note on, chan=1 pitch=50 vol=34
Time=44593  Note off, chan=1 pitch=62 vol=64
Time=44627  Note off, chan=1 pitch=50 vol=64
Time=44655  Note on, chan=1 pitch=48 vol=42
Time=44678  Note on, chan=1 pitch=60 vol=25
Time=44840  Note off, chan=1 pitch=60 vol=64
Time=44882  Note on, chan=1 pitch=47 vol=36
Time=44885  Note off, chan=1 pitch=48 vol=64
Time=44901  Note on, chan=1 pitch=59 vol=39
Time=45093  Note off, chan=1 pitch=59 vol=64
Time=45102  Note off, chan=1 pitch=47 vol=64
Time=45130  Note on, chan=1 pitch=57 vol=35
Time=45141  Note on, chan=1 pitch=45 vol=39
Time=45321  Note off, chan=1 pitch=57 vol=64
Time=45369  Note on, chan=1 pitch=59 vol=27
Time=45373  Note off, chan=1 pitch=45 vol=64
Time=45375  Note on, chan=1 pitch=47 vol=35
Time=45558  Note off, chan=1 pitch=59 vol=64
Time=45606  Note on, chan=1 pitch=60 vol=28
Time=45611  Note on, chan=1 pitch=48 vol=42
Time=45614  Note off, chan=1 pitch=47 vol=64
Time=45801  Note off, chan=1 pitch=60 vol=64
Time=45839  Note off, chan=1 pitch=48 vol=64
Time=45847  Note on, chan=1 pitch=62 vol=32
Time=45861  Note on, chan=1 pitch=50 vol=35
Time=45984  Note off, chan=1 pitch=62 vol=64
Time=46055  Note off, chan=1 pitch=50 vol=64
Time=46091  Note on, chan=1 pitch=64 vol=48
Time=46093  Note on, chan=1 pitch=52 vol=40
Time=46238  Note off, chan=1 pitch=64 vol=64
Time=46331  Note off, chan=1 pitch=52 vol=64
Time=46346  Note on, chan=1 pitch=60 vol=27
Time=46349  Note on, chan=1 pitch=48 vol=40
Time=46519  Note off, chan=1 pitch=60 vol=64
Time=46553  Note off, chan=1 pitch=48 vol=64
Time=46567  Note on, chan=1 pitch=59 vol=39
Time=46572  Note on, chan=1 pitch=47 vol=49
Time=46788  Note off, chan=1 pitch=59 vol=64
Time=46797  Note on, chan=1 pitch=57 vol=38
Time=46802  Note on, chan=1 pitch=45 vol=42
Time=46830  Note off, chan=1 pitch=47 vol=64
Time=46998  Note off, chan=1 pitch=45 vol=64
Time=47019  Note off, chan=1 pitch=57 vol=64
Time=47042  Note on, chan=1 pitch=55 vol=38
Time=47047  Note on, chan=1 pitch=43 vol=39
Time=47247  Note off, chan=1 pitch=55 vol=64
Time=47274  Note on, chan=1 pitch=45 vol=39
Time=47292  Note on, chan=1 pitch=57 vol=34
Time=47307  Note off, chan=1 pitch=43 vol=64
Time=47492  Note off, chan=1 pitch=57 vol=64
Time=47523  Note on, chan=1 pitch=59 vol=36
Time=47526  Note on, chan=1 pitch=47 vol=36
Time=47538  Note off, chan=1 pitch=45 vol=64
Time=47750  Note off, chan=1 pitch=47 vol=64
Time=47762  Note on, chan=1 pitch=48 vol=40
Time=47771  Note off, chan=1 pitch=59 vol=64
Time=47786  Note on, chan=1 pitch=60 vol=32
Time=47978  Note off, chan=1 pitch=60 vol=64
Time=47997  Note off, chan=1 pitch=48 vol=64
Time=48007  Note on, chan=1 pitch=62 vol=42
Time=48026  Note on, chan=1 pitch=50 vol=35
Time=48214  Note off, chan=1 pitch=62 vol=64
Time=48249  Note on, chan=1 pitch=59 vol=38
Time=48258  Note off, chan=1 pitch=50 vol=64
Time=48284  Note on, chan=1 pitch=47 vol=40
Time=48450  Note off, chan=1 pitch=59 vol=64
Time=48483  Note on, chan=1 pitch=57 vol=40
Time=48490  Note off, chan=1 pitch=47 vol=64
Time=48503  Note on, chan=1 pitch=45 vol=47
Time=48707  Note off, chan=1 pitch=57 vol=64
Time=48726  Note on, chan=1 pitch=43 vol=44
Time=48732  Note on, chan=1 pitch=55 vol=40
Time=48750  Note off, chan=1 pitch=45 vol=64
Time=48951  Note off, chan=1 pitch=55 vol=64
Time=48965  Note off, chan=1 pitch=43 vol=64
Time=48972  Note on, chan=1 pitch=53 vol=44
Time=48981  Note on, chan=1 pitch=41 vol=43
Time=49178  Note on, chan=1 pitch=43 vol=41
Time=49184  Note off, chan=1 pitch=53 vol=64
Time=49193  Note off, chan=1 pitch=41 vol=64
Time=49216  Note on, chan=1 pitch=55 vol=40
Time=49445  Note off, chan=1 pitch=55 vol=64
Time=49448  Note off, chan=1 pitch=43 vol=64
Time=49449  Note on, chan=1 pitch=57 vol=32
Time=49467  Note on, chan=1 pitch=45 vol=40
Time=49670  Note off, chan=1 pitch=57 vol=64
Time=49682  Note off, chan=1 pitch=45 vol=64
Time=49691  Note on, chan=1 pitch=59 vol=45
Time=49701  Note on, chan=1 pitch=47 vol=44
Time=49895  Note off, chan=1 pitch=59 vol=64
Time=49905  Note off, chan=1 pitch=47 vol=64
Time=49919  Note on, chan=1 pitch=60 vol=52
Time=49932  Note on, chan=1 pitch=48 vol=40
Time=50133  Note off, chan=1 pitch=60 vol=64
Time=50160  Note off, chan=1 pitch=48 vol=64
Time=50172  Note on, chan=1 pitch=57 vol=49
Time=50193  Note on, chan=1 pitch=45 vol=44
Time=50373  Note off, chan=1 pitch=45 vol=64
Time=50376  Note off, chan=1 pitch=57 vol=64
Time=50410  Note on, chan=1 pitch=43 vol=40
Time=50424  Note on, chan=1 pitch=55 vol=44
Time=50661  Note on, chan=1 pitch=41 vol=41
Time=50676  Note off, chan=1 pitch=43 vol=64
Time=50678  Note on, chan=1 pitch=53 vol=40
Time=50679  Note off, chan=1 pitch=55 vol=64
Time=50879  Note off, chan=1 pitch=41 vol=64
Time=50891  Note off, chan=1 pitch=53 vol=64
Time=50915  Note on, chan=1 pitch=52 vol=42
Time=50919  Note on, chan=1 pitch=40 vol=43
Time=51117  Note off, chan=1 pitch=52 vol=64
Time=51131  Note off, chan=1 pitch=40 vol=64
Time=51156  Note on, chan=1 pitch=41 vol=40
Time=51164  Note on, chan=1 pitch=53 vol=49
Time=51365  Note off, chan=1 pitch=53 vol=64
Time=51367  Note off, chan=1 pitch=41 vol=64
Time=51382  Note on, chan=1 pitch=55 vol=37
Time=51383  Note on, chan=1 pitch=43 vol=45
Time=51584  Note off, chan=1 pitch=55 vol=64
Time=51612  Note off, chan=1 pitch=43 vol=64
Time=51617  Note on, chan=1 pitch=57 vol=42
Time=51627  Note on, chan=1 pitch=45 vol=51
Time=51801  Note off, chan=1 pitch=57 vol=64
Time=51824  Note off, chan=1 pitch=45 vol=64
Time=51846  Note on, chan=1 pitch=59 vol=47
Time=51867  Note on, chan=1 pitch=47 vol=49
Time=52047  Note off, chan=1 pitch=59 vol=64
Time=52097  Note off, chan=1 pitch=47 vol=64
Time=52100  Note on, chan=1 pitch=55 vol=47
Time=52103  Note on, chan=1 pitch=43 vol=43
Time=52282  Note off, chan=1 pitch=55 vol=64
Time=52296  Note off, chan=1 pitch=43 vol=64
Time=52323  Note on, chan=1 pitch=41 vol=41
Time=52328  Note on, chan=1 pitch=53 vol=44
Time=52559  Note on, chan=1 pitch=40 vol=49
Time=52562  Note on, chan=1 pitch=52 vol=47
Time=52570  Note off, chan=1 pitch=53 vol=64
Time=52581  Note off, chan=1 pitch=41 vol=64
Time=52767  Note off, chan=1 pitch=40 vol=64
Time=52793  Note off, chan=1 pitch=52 vol=64
Time=52808  Note on, chan=1 pitch=38 vol=41
Time=52810  Note on, chan=1 pitch=50 vol=44
Time=53000  Note off, chan=1 pitch=50 vol=64
Time=53025  Note off, chan=1 pitch=38 vol=64
Time=53054  Note on, chan=1 pitch=52 vol=47
Time=53061  Note on, chan=1 pitch=40 vol=40
Time=53275  Note off, chan=1 pitch=52 vol=64
Time=53278  Note off, chan=1 pitch=40 vol=64
Time=53285  Note on, chan=1 pitch=53 vol=44
Time=53292  Note on, chan=1 pitch=41 vol=34
Time=53494  Note off, chan=1 pitch=53 vol=64
Time=53510  Note on, chan=1 pitch=55 vol=44
Time=53513  Note off, chan=1 pitch=41 vol=64
Time=53525  Note on, chan=1 pitch=43 vol=40
Time=53717  Note off, chan=1 pitch=55 vol=64
Time=53733  Note off, chan=1 pitch=43 vol=64
Time=53743  Note on, chan=1 pitch=57 vol=54
Time=53762  Note on, chan=1 pitch=45 vol=44
Time=53920  Note off, chan=1 pitch=57 vol=64
Time=53978  Note off, chan=1 pitch=45 vol=64
Time=53985  Note on, chan=1 pitch=53 vol=52
Time=54005  Note on, chan=1 pitch=41 vol=41
Time=54172  Note off, chan=1 pitch=53 vol=64
Time=54227  Note off, chan=1 pitch=41 vol=64
Time=54229  Note on, chan=1 pitch=52 vol=43
Time=54242  Note on, chan=1 pitch=40 vol=47
Time=54461  Note on, chan=1 pitch=50 vol=38
Time=54470  Note on, chan=1 pitch=38 vol=40
Time=54471  Note off, chan=1 pitch=52 vol=64
Time=54527  Note off, chan=1 pitch=40 vol=64
Time=54690  Note off, chan=1 pitch=38 vol=64
Time=54696  Note off, chan=1 pitch=50 vol=64
Time=54713  Note on, chan=1 pitch=48 vol=48
Time=54732  Note on, chan=1 pitch=36 vol=38
Time=54912  Note off, chan=1 pitch=48 vol=64
Time=54965  Note off, chan=1 pitch=36 vol=64
Time=54973  Note on, chan=1 pitch=50 vol=42
Time=54998  Note on, chan=1 pitch=38 vol=35
Time=55176  Note off, chan=1 pitch=38 vol=64
Time=55187  Note off, chan=1 pitch=50 vol=64
Time=55206  Note on, chan=1 pitch=52 vol=46
Time=55219  Note on, chan=1 pitch=40 vol=44
Time=55395  Note off, chan=1 pitch=52 vol=64
Time=55405  Note off, chan=1 pitch=40 vol=64
Time=55439  Note on, chan=1 pitch=53 vol=49
Time=55463  Note on, chan=1 pitch=41 vol=44
Time=55603  Note off, chan=1 pitch=53 vol=64
Time=55621  Note off, chan=1 pitch=41 vol=64
Time=55674  Note on, chan=1 pitch=48 vol=50
Time=55683  Note on, chan=1 pitch=36 vol=51
Time=57384  Note off, chan=1 pitch=48 vol=64
Time=57393  Note off, chan=1 pitch=36 vol=64
Time=57582  Note on, chan=1 pitch=48 vol=59
Time=57590  Note on, chan=1 pitch=36 vol=55
Time=57822  Note on, chan=1 pitch=40 vol=50
Time=57825  Note off, chan=1 pitch=36 vol=64
Time=57827  Note off, chan=1 pitch=48 vol=64
Time=57847  Note on, chan=1 pitch=52 vol=47
Time=58040  Note off, chan=1 pitch=40 vol=64
Time=58065  Note off, chan=1 pitch=52 vol=64
Time=58071  Note on, chan=1 pitch=45 vol=55
Time=58072  Note on, chan=1 pitch=57 vol=55
Time=58256  Note off, chan=1 pitch=57 vol=64
Time=58305  Note on, chan=1 pitch=55 vol=46
Time=58328  Note on, chan=1 pitch=43 vol=38
Time=58329  Note off, chan=1 pitch=45 vol=64
Time=58502  Note off, chan=1 pitch=55 vol=64
Time=58536  Note off, chan=1 pitch=43 vol=64
Time=58552  Note on, chan=1 pitch=53 vol=46
Time=58554  Note on, chan=1 pitch=41 vol=46
Time=58740  Note off, chan=1 pitch=41 vol=64
Time=58742  Note off, chan=1 pitch=53 vol=64
Time=58797  Note on, chan=1 pitch=55 vol=47
Time=58805  Note on, chan=1 pitch=43 vol=45
Time=58987  Note off, chan=1 pitch=55 vol=64
Time=59030  Note on, chan=1 pitch=53 vol=45
Time=59037  Note off, chan=1 pitch=43 vol=64
Time=59042  Note on, chan=1 pitch=41 vol=42
Time=59255  Note off, chan=1 pitch=41 vol=64
Time=59258  Note on, chan=1 pitch=40 vol=51
Time=59264  Note on, chan=1 pitch=52 vol=43
Time=59273  Note off, chan=1 pitch=53 vol=64
Time=59483  Note off, chan=1 pitch=40 vol=64
Time=59487  Note off, chan=1 pitch=52 vol=64
Time=59520  Note on, chan=1 pitch=50 vol=52
Time=59543  Note on, chan=1 pitch=38 vol=42
Time=59736  Note off, chan=1 pitch=50 vol=64
Time=59775  Note on, chan=1 pitch=41 vol=41
Time=59777  Note on, chan=1 pitch=53 vol=45
Time=59787  Note off, chan=1 pitch=38 vol=64
Time=59973  Note off, chan=1 pitch=41 vol=64
Time=60003  Note off, chan=1 pitch=53 vol=64
Time=60015  Note on, chan=1 pitch=47 vol=44
Time=60024  Note on, chan=1 pitch=59 vol=57
Time=60239  Note off, chan=1 pitch=59 vol=64
Time=60257  Note on, chan=1 pitch=57 vol=44
Time=60261  Note off, chan=1 pitch=47 vol=64
Time=60276  Note on, chan=1 pitch=45 vol=36
Time=60465  Note off, chan=1 pitch=57 vol=64
Time=60492  Note off, chan=1 pitch=45 vol=64
Time=60501  Note on, chan=1 pitch=43 vol=51
Time=60509  Note on, chan=1 pitch=55 vol=43
Time=60727  Note off, chan=1 pitch=55 vol=64
Time=60737  Note off, chan=1 pitch=43 vol=64
Time=60761  Note on, chan=1 pitch=45 vol=45
Time=60767  Note on, chan=1 pitch=57 vol=35
Time=60939  Note off, chan=1 pitch=57 vol=64
Time=60998  Note on, chan=1 pitch=55 vol=44
Time=61017  Note off, chan=1 pitch=45 vol=64
Time=61023  Note on, chan=1 pitch=43 vol=42
Time=61223  Note off, chan=1 pitch=55 vol=64
Time=61230  Note on, chan=1 pitch=53 vol=40
Time=61240  Note on, chan=1 pitch=41 vol=41
Time=61245  Note off, chan=1 pitch=43 vol=64
Time=61416  Note off, chan=1 pitch=41 vol=64
Time=61431  Note off, chan=1 pitch=53 vol=64
Time=61470  Note on, chan=1 pitch=52 vol=47
Time=61491  Note on, chan=1 pitch=40 vol=40
Time=61680  Note off, chan=1 pitch=52 vol=64
Time=61710  Note on, chan=1 pitch=43 vol=45
Time=61715  Note off, chan=1 pitch=40 vol=64
Time=61719  Note on, chan=1 pitch=55 vol=46
Time=61925  Note off, chan=1 pitch=43 vol=64
Time=61934  Note off, chan=1 pitch=55 vol=64
Time=61952  Note on, chan=1 pitch=48 vol=50
Time=61956  Note on, chan=1 pitch=60 vol=44
Time=62151  Note off, chan=1 pitch=60 vol=64
Time=62177  Note on, chan=1 pitch=59 vol=40
Time=62220  Note off, chan=1 pitch=48 vol=64
Time=62224  Note on, chan=1 pitch=47 vol=39
Time=62381  Note off, chan=1 pitch=59 vol=64
Time=62396  Note off, chan=1 pitch=47 vol=64
Time=62420  Note on, chan=1 pitch=45 vol=40
Time=62439  Note on, chan=1 pitch=57 vol=40
Time=62629  Note off, chan=1 pitch=57 vol=64
Time=62658  Note off, chan=1 pitch=45 vol=64
Time=62684  Note on, chan=1 pitch=59 vol=40
Time=62686  Note on, chan=1 pitch=47 vol=41
Time=62863  Note off, chan=1 pitch=59 vol=64
Time=62912  Note off, chan=1 pitch=47 vol=64
Time=62915  Note on, chan=1 pitch=57 vol=40
Time=62916  Note on, chan=1 pitch=45 vol=32
Time=63147  Note off, chan=1 pitch=45 vol=64
Time=63148  Note off, chan=1 pitch=57 vol=64
Time=63151  Note on, chan=1 pitch=43 vol=41
Time=63153  Note on, chan=1 pitch=55 vol=42
Time=63354  Note off, chan=1 pitch=43 vol=64
Time=63359  Note off, chan=1 pitch=55 vol=64
Time=63399  Note on, chan=1 pitch=53 vol=47
Time=63408  Note on, chan=1 pitch=41 vol=37
Time=63605  Note off, chan=1 pitch=53 vol=64
Time=63629  Note on, chan=1 pitch=45 vol=50
Time=63639  Note off, chan=1 pitch=41 vol=64
Time=63647  Note on, chan=1 pitch=57 vol=49
Time=63845  Note off, chan=1 pitch=45 vol=64
Time=63856  Note off, chan=1 pitch=57 vol=64
Time=63871  Note on, chan=1 pitch=50 vol=49
Time=63876  Note on, chan=1 pitch=62 vol=47
Time=64086  Note off, chan=1 pitch=62 vol=64
Time=64104  Note on, chan=1 pitch=60 vol=40
Time=64122  Note off, chan=1 pitch=50 vol=64
Time=64124  Note on, chan=1 pitch=48 vol=40
Time=64304  Note off, chan=1 pitch=60 vol=64
Time=64310  Note off, chan=1 pitch=48 vol=64
Time=64335  Note on, chan=1 pitch=47 vol=47
Time=64354  Note on, chan=1 pitch=59 vol=45
Time=64538  Note off, chan=1 pitch=59 vol=64
Time=64563  Note off, chan=1 pitch=47 vol=64
Time=64591  Note on, chan=1 pitch=48 vol=49
Time=64596  Note on, chan=1 pitch=60 vol=43
Time=64796  Note off, chan=1 pitch=60 vol=64
Time=64826  Note off, chan=1 pitch=48 vol=64
Time=64835  Note on, chan=1 pitch=59 vol=47
Time=64849  Note on, chan=1 pitch=47 vol=49
Time=65052  Note off, chan=1 pitch=59 vol=64
Time=65066  Note on, chan=1 pitch=57 vol=48
Time=65069  Note off, chan=1 pitch=47 vol=64
Time=65078  Note on, chan=1 pitch=45 vol=47
Time=65251  Note off, chan=1 pitch=57 vol=64
Time=65284  Note off, chan=1 pitch=45 vol=64
Time=65301  Note on, chan=1 pitch=55 vol=49
Time=65326  Note on, chan=1 pitch=43 vol=42
Time=65475  Note off, chan=1 pitch=55 vol=64
Time=65517  Note off, chan=1 pitch=43 vol=64
Time=65528  Note on, chan=1 pitch=47 vol=43
Time=65532  Note on, chan=1 pitch=59 vol=48
Time=65720  Note off, chan=1 pitch=47 vol=64
Time=65746  Note on, chan=1 pitch=52 vol=54
Time=65748  Note off, chan=1 pitch=59 vol=64
Time=65767  Note on, chan=1 pitch=64 vol=54
Time=65973  Note off, chan=1 pitch=64 vol=64
Time=65991  Note on, chan=1 pitch=62 vol=42
Time=66015  Note off, chan=1 pitch=52 vol=64
Time=66017  Note on, chan=1 pitch=50 vol=42
Time=66208  Note off, chan=1 pitch=62 vol=64
Time=66230  Note off, chan=1 pitch=50 vol=64
Time=66241  Note on, chan=1 pitch=48 vol=46
Time=66251  Note on, chan=1 pitch=60 vol=39
Time=66443  Note off, chan=1 pitch=60 vol=64
Time=66462  Note off, chan=1 pitch=48 vol=64
Time=66486  Note on, chan=1 pitch=50 vol=46
Time=66506  Note on, chan=1 pitch=62 vol=40
Time=66714  Note off, chan=1 pitch=62 vol=64
Time=66723  Note off, chan=1 pitch=50 vol=64
Time=66738  Note on, chan=1 pitch=48 vol=51
Time=66755  Note on, chan=1 pitch=60 vol=39
Time=66968  Note off, chan=1 pitch=48 vol=64
Time=66980  Note off, chan=1 pitch=60 vol=64
Time=66982  Note on, chan=1 pitch=47 vol=45
Time=66986  Note on, chan=1 pitch=59 vol=46
Time=67180  Note off, chan=1 pitch=47 vol=64
Time=67185  Note off, chan=1 pitch=59 vol=64
Time=67217  Note on, chan=1 pitch=57 vol=43
Time=67233  Note on, chan=1 pitch=45 vol=42
Time=67412  Note off, chan=1 pitch=57 vol=64
Time=67457  Note on, chan=1 pitch=48 vol=44
Time=67461  Note on, chan=1 pitch=60 vol=45
Time=67464  Note off, chan=1 pitch=45 vol=64
Time=67653  Note off, chan=1 pitch=60 vol=64
Time=67659  Note off, chan=1 pitch=48 vol=64
Time=67694  Note on, chan=1 pitch=53 vol=47
Time=67702  Note on, chan=1 pitch=65 vol=47
Time=67876  Note off, chan=1 pitch=65 vol=64
Time=67921  Note on, chan=1 pitch=64 vol=40
Time=67923  Note off, chan=1 pitch=53 vol=64
Time=67934  Note on, chan=1 pitch=52 vol=38
Time=68105  Note off, chan=1 pitch=64 vol=64
Time=68141  Note off, chan=1 pitch=52 vol=64
Time=68160  Note on, chan=1 pitch=50 vol=42
Time=68177  Note on, chan=1 pitch=62 vol=36
Time=68328  Note off, chan=1 pitch=62 vol=64
Time=68370  Note off, chan=1 pitch=50 vol=64
Time=68408  Note on, chan=1 pitch=64 vol=42
Time=68417  Note on, chan=1 pitch=52 vol=44
Time=68607  Note off, chan=1 pitch=64 vol=64
Time=68643  Note off, chan=1 pitch=52 vol=64
Time=68655  Note on, chan=1 pitch=50 vol=43
Time=68658  Note on, chan=1 pitch=62 vol=40
Time=68882  Note off, chan=1 pitch=50 vol=64
Time=68895  Note on, chan=1 pitch=48 vol=48
Time=68901  Note on, chan=1 pitch=60 vol=40
Time=68909  Note off, chan=1 pitch=62 vol=64
Time=69095  Note off, chan=1 pitch=48 vol=64
Time=69099  Note off, chan=1 pitch=60 vol=64
Time=69137  Note on, chan=1 pitch=59 vol=45
Time=69164  Note on, chan=1 pitch=47 vol=45
Time=69342  Note off, chan=1 pitch=59 vol=64
Time=69375  Note off, chan=1 pitch=47 vol=64
Time=69382  Note on, chan=1 pitch=50 vol=40
Time=69393  Note on, chan=1 pitch=62 vol=38
Time=69579  Note off, chan=1 pitch=50 vol=64
Time=69597  Note off, chan=1 pitch=62 vol=64
Time=69608  Note on, chan=1 pitch=55 vol=54
Time=69621  Note on, chan=1 pitch=67 vol=54
Time=69828  Note off, chan=1 pitch=67 vol=64
Time=69848  Note on, chan=1 pitch=65 vol=44
Time=69852  Note off, chan=1 pitch=55 vol=64
Time=69854  Note on, chan=1 pitch=53 vol=37
Time=70040  Note off, chan=1 pitch=65 vol=64
Time=70085  Note on, chan=1 pitch=52 vol=54
Time=70091  Note off, chan=1 pitch=53 vol=64
Time=70097  Note on, chan=1 pitch=64 vol=32
Time=70282  Note off, chan=1 pitch=64 vol=64
Time=70313  Note off, chan=1 pitch=52 vol=64
Time=70329  Note on, chan=1 pitch=53 vol=30
Time=70346  Note on, chan=1 pitch=65 vol=36
Time=70520  Note off, chan=1 pitch=65 vol=64
Time=70557  Note off, chan=1 pitch=53 vol=64
Time=70572  Note on, chan=1 pitch=52 vol=49
Time=70577  Note on, chan=1 pitch=64 vol=35
Time=70784  Note off, chan=1 pitch=52 vol=64
Time=70790  Note off, chan=1 pitch=64 vol=64
Time=70815  Note on, chan=1 pitch=50 vol=42
Time=70822  Note on, chan=1 pitch=62 vol=36
Time=70992  Note off, chan=1 pitch=50 vol=64
Time=70996  Note off, chan=1 pitch=62 vol=64
Time=71031  Note on, chan=1 pitch=60 vol=45
Time=71061  Note on, chan=1 pitch=48 vol=41
Time=71246  Note off, chan=1 pitch=60 vol=64
Time=71279  Note off, chan=1 pitch=48 vol=64
Time=71281  Note on, chan=1 pitch=52 vol=36
Time=71299  Note on, chan=1 pitch=64 vol=35
Time=71483  Note off, chan=1 pitch=52 vol=64
Time=71484  Note off, chan=1 pitch=64 vol=64
Time=71513  Note on, chan=1 pitch=57 vol=47
Time=71526  Note on, chan=1 pitch=69 vol=49
Time=71717  Note off, chan=1 pitch=69 vol=64
Time=71753  Note on, chan=1 pitch=67 vol=43
Time=71772  Note off, chan=1 pitch=57 vol=64
Time=71781  Note on, chan=1 pitch=55 vol=34
Time=71936  Note off, chan=1 pitch=67 vol=64
Time=71994  Note off, chan=1 pitch=55 vol=64
Time=72011  Note on, chan=1 pitch=65 vol=40
Time=72014  Note on, chan=1 pitch=53 vol=40
Time=72186  Note off, chan=1 pitch=65 vol=64
Time=72236  Note off, chan=1 pitch=53 vol=64
Time=72242  Note on, chan=1 pitch=67 vol=40
Time=72255  Note on, chan=1 pitch=55 vol=39
Time=72432  Note off, chan=1 pitch=67 vol=64
Time=72477  Note off, chan=1 pitch=55 vol=64
Time=72495  Note on, chan=1 pitch=65 vol=40
Time=72503  Note on, chan=1 pitch=53 vol=49
Time=72720  Note off, chan=1 pitch=65 vol=64
Time=72729  Note off, chan=1 pitch=53 vol=64
Time=72737  Note on, chan=1 pitch=64 vol=36
Time=72747  Note on, chan=1 pitch=52 vol=44
Time=72927  Note off, chan=1 pitch=52 vol=64
Time=72930  Note off, chan=1 pitch=64 vol=64
Time=72972  Note on, chan=1 pitch=62 vol=42
Time=72980  Note on, chan=1 pitch=50 vol=45
Time=73182  Note off, chan=1 pitch=62 vol=64
Time=73216  Note on, chan=1 pitch=53 vol=44
Time=73223  Note on, chan=1 pitch=65 vol=51
Time=73230  Note off, chan=1 pitch=50 vol=64
Time=73431  Note off, chan=1 pitch=53 vol=64
Time=73448  Note off, chan=1 pitch=65 vol=64
Time=73450  Note on, chan=1 pitch=59 vol=52
Time=73452  Note on, chan=1 pitch=71 vol=50
Time=73675  Note off, chan=1 pitch=71 vol=64
Time=73691  Note on, chan=1 pitch=69 vol=49
Time=73712  Note on, chan=1 pitch=57 vol=40
Time=73714  Note off, chan=1 pitch=59 vol=64
Time=73882  Note off, chan=1 pitch=69 vol=64
Time=73907  Note off, chan=1 pitch=57 vol=64
Time=73920  Note on, chan=1 pitch=55 vol=45
Time=73926  Note on, chan=1 pitch=67 vol=44
Time=74105  Note off, chan=1 pitch=67 vol=64
Time=74148  Note off, chan=1 pitch=55 vol=64
Time=74169  Note on, chan=1 pitch=69 vol=36
Time=74177  Note on, chan=1 pitch=57 vol=46
Time=74357  Note off, chan=1 pitch=69 vol=64
Time=74394  Note off, chan=1 pitch=57 vol=64
Time=74398  Note on, chan=1 pitch=67 vol=46
Time=74401  Note on, chan=1 pitch=55 vol=55
Time=74621  Note off, chan=1 pitch=55 vol=64
Time=74633  Note off, chan=1 pitch=67 vol=64
Time=74648  Note on, chan=1 pitch=53 vol=49
Time=74651  Note on, chan=1 pitch=65 vol=38
Time=74843  Note off, chan=1 pitch=65 vol=64
Time=74846  Note off, chan=1 pitch=53 vol=64
Time=74883  Note on, chan=1 pitch=64 vol=46
Time=74907  Note on, chan=1 pitch=52 vol=43
Time=75084  Note off, chan=1 pitch=64 vol=64
Time=75117  Note off, chan=1 pitch=52 vol=64
Time=75132  Note on, chan=1 pitch=55 vol=48
Time=75143  Note on, chan=1 pitch=67 vol=42
Time=75333  Note off, chan=1 pitch=67 vol=64
Time=75351  Note off, chan=1 pitch=55 vol=64
Time=75374  Note on, chan=1 pitch=72 vol=45
Time=75393  Note on, chan=1 pitch=60 vol=40
Time=75570  Note off, chan=1 pitch=72 vol=64
Time=75611  Note on, chan=1 pitch=71 vol=39
Time=75639  Note off, chan=1 pitch=60 vol=64
Time=75641  Note on, chan=1 pitch=59 vol=36
Time=75803  Note off, chan=1 pitch=71 vol=64
Time=75838  Note off, chan=1 pitch=59 vol=64
Time=75849  Note on, chan=1 pitch=57 vol=44
Time=75857  Note on, chan=1 pitch=69 vol=44
Time=76033  Note off, chan=1 pitch=69 vol=64
Time=76063  Note off, chan=1 pitch=57 vol=64
Time=76105  Note on, chan=1 pitch=59 vol=42
Time=76112  Note on, chan=1 pitch=71 vol=29
Time=76290  Note off, chan=1 pitch=71 vol=64
Time=76310  Note off, chan=1 pitch=59 vol=64
Time=76325  Note on, chan=1 pitch=69 vol=46
Time=76331  Note on, chan=1 pitch=57 vol=51
Time=76547  Note off, chan=1 pitch=57 vol=64
Time=76574  Note on, chan=1 pitch=55 vol=43
Time=76576  Note on, chan=1 pitch=67 vol=39
Time=76579  Note off, chan=1 pitch=69 vol=64
Time=76761  Note off, chan=1 pitch=55 vol=64
Time=76766  Note off, chan=1 pitch=67 vol=64
Time=76806  Note on, chan=1 pitch=65 vol=43
Time=76824  Note on, chan=1 pitch=53 vol=44
Time=77004  Note off, chan=1 pitch=65 vol=64
Time=77051  Note off, chan=1 pitch=53 vol=64
Time=77055  Note on, chan=1 pitch=57 vol=49
Time=77065  Note on, chan=1 pitch=69 vol=47
Time=77235  Note off, chan=1 pitch=57 vol=64
Time=77254  Note off, chan=1 pitch=69 vol=64
Time=77285  Note on, chan=1 pitch=62 vol=47
Time=77292  Note on, chan=1 pitch=74 vol=47
Time=77465  Note off, chan=1 pitch=74 vol=64
Time=77519  Note on, chan=1 pitch=72 vol=40
Time=77533  Note off, chan=1 pitch=62 vol=64
Time=77548  Note on, chan=1 pitch=60 vol=32
Time=77697  Note off, chan=1 pitch=72 vol=64
Time=77763  Note off, chan=1 pitch=60 vol=64
Time=77765  Note on, chan=1 pitch=71 vol=38
Time=77767  Note on, chan=1 pitch=59 vol=47
Time=77923  Note off, chan=1 pitch=71 vol=64
Time=77976  Note off, chan=1 pitch=59 vol=64
Time=77990  Note on, chan=1 pitch=72 vol=37
Time=77996  Note on, chan=1 pitch=60 vol=36
Time=78192  Note off, chan=1 pitch=72 vol=64
Time=78215  Note off, chan=1 pitch=60 vol=64
Time=78236  Note on, chan=1 pitch=59 vol=49
Time=78245  Note on, chan=1 pitch=71 vol=39
Time=78451  Note off, chan=1 pitch=59 vol=64
Time=78481  Note on, chan=1 pitch=57 vol=47
Time=78485  Note off, chan=1 pitch=71 vol=64
Time=78489  Note on, chan=1 pitch=69 vol=43
Time=78702  Note off, chan=1 pitch=69 vol=64
Time=78706  Note off, chan=1 pitch=57 vol=64
Time=78735  Note on, chan=1 pitch=67 vol=48
Time=78756  Note on, chan=1 pitch=55 vol=43
Time=78946  Note off, chan=1 pitch=67 vol=64
Time=78963  Note off, chan=1 pitch=55 vol=64
Time=78976  Note on, chan=1 pitch=59 vol=43
Time=78991  Note on, chan=1 pitch=71 vol=47
Time=79155  Note off, chan=1 pitch=59 vol=64
Time=79181  Note off, chan=1 pitch=71 vol=64
Time=79199  Note on, chan=1 pitch=64 vol=43
Time=79215  Note on, chan=1 pitch=76 vol=55
Time=79401  Note off, chan=1 pitch=76 vol=64
Time=79440  Note off, chan=1 pitch=64 vol=64
Time=79445  Note on, chan=1 pitch=74 vol=47
Time=79464  Note on, chan=1 pitch=62 vol=32
Time=79635  Note off, chan=1 pitch=74 vol=64
Time=79652  Note off, chan=1 pitch=62 vol=64
Time=79665  Note on, chan=1 pitch=60 vol=47
Time=79682  Note on, chan=1 pitch=72 vol=44
Time=79874  Note off, chan=1 pitch=72 vol=64
Time=79893  Note off, chan=1 pitch=60 vol=64
Time=79917  Note on, chan=1 pitch=74 vol=43
Time=79920  Note on, chan=1 pitch=62 vol=41
Time=80122  Note off, chan=1 pitch=62 vol=64
Time=80125  Note off, chan=1 pitch=74 vol=64
Time=80150  Note on, chan=1 pitch=72 vol=47
Time=80152  Note on, chan=1 pitch=60 vol=45
Time=80375  Note off, chan=1 pitch=60 vol=64
Time=80387  Note on, chan=1 pitch=71 vol=37
Time=80396  Note off, chan=1 pitch=72 vol=64
Time=80398  Note on, chan=1 pitch=59 vol=44
Time=80588  Note off, chan=1 pitch=59 vol=64
Time=80597  Note off, chan=1 pitch=71 vol=64
Time=80634  Note on, chan=1 pitch=69 vol=52
Time=80651  Note on, chan=1 pitch=57 vol=45
Time=80844  Note off, chan=1 pitch=69 vol=64
Time=80883  Note off, chan=1 pitch=57 vol=64
Time=80885  Note on, chan=1 pitch=60 vol=42
Time=80888  Note on, chan=1 pitch=72 vol=50
Time=81075  Note off, chan=1 pitch=60 vol=64
Time=81086  Note off, chan=1 pitch=72 vol=64
Time=81118  Note on, chan=1 pitch=65 vol=47
Time=81120  Note on, chan=1 pitch=77 vol=50
Time=81297  Note off, chan=1 pitch=77 vol=64
Time=81357  Note on, chan=1 pitch=76 vol=46
Time=81375  Note on, chan=1 pitch=64 vol=38
Time=81377  Note off, chan=1 pitch=65 vol=64
Time=81548  Note off, chan=1 pitch=76 vol=64
Time=81573  Note off, chan=1 pitch=64 vol=64
Time=81592  Note on, chan=1 pitch=62 vol=45
Time=81606  Note on, chan=1 pitch=74 vol=39
Time=81780  Note off, chan=1 pitch=74 vol=64
Time=81810  Note off, chan=1 pitch=62 vol=64
Time=81843  Note on, chan=1 pitch=64 vol=47
Time=81845  Note on, chan=1 pitch=76 vol=40
Time=82042  Note off, chan=1 pitch=64 vol=64
Time=82044  Note off, chan=1 pitch=76 vol=64
Time=82077  Note on, chan=1 pitch=62 vol=41
Time=82077  Note on, chan=1 pitch=74 vol=45
Time=82305  Note off, chan=1 pitch=62 vol=64
Time=82320  Note on, chan=1 pitch=60 vol=41
Time=82322  Note on, chan=1 pitch=72 vol=44
Time=82333  Note off, chan=1 pitch=74 vol=64
Time=82430  Note off, chan=1 pitch=60 vol=64
Time=82505  Note off, chan=1 pitch=72 vol=64
Time=82547  Note on, chan=1 pitch=59 vol=50
Time=82550  Note on, chan=1 pitch=71 vol=47
Time=82734  Note off, chan=1 pitch=71 vol=64
Time=82802  Note on, chan=1 pitch=74 vol=46
Time=82811  Note on, chan=1 pitch=62 vol=44
Time=82813  Note off, chan=1 pitch=59 vol=64
Time=82980  Note off, chan=1 pitch=62 vol=64
Time=83010  Note off, chan=1 pitch=74 vol=64
Time=83038  Note on, chan=1 pitch=67 vol=45
Time=83040  Note on, chan=1 pitch=79 vol=47
Time=83220  Note off, chan=1 pitch=79 vol=64
Time=83274  Note on, chan=1 pitch=77 vol=40
Time=83277  Note off, chan=1 pitch=67 vol=64
Time=83282  Note on, chan=1 pitch=65 vol=37
Time=83479  Note off, chan=1 pitch=77 vol=64
Time=83487  Note off, chan=1 pitch=65 vol=64
Time=83507  Note on, chan=1 pitch=64 vol=43
Time=83537  Note on, chan=1 pitch=76 vol=42
Time=83706  Note off, chan=1 pitch=76 vol=64
Time=83725  Note off, chan=1 pitch=64 vol=64
Time=83767  Note on, chan=1 pitch=77 vol=40
Time=83774  Note on, chan=1 pitch=65 vol=45
Time=83967  Note off, chan=1 pitch=77 vol=64
Time=83993  Note on, chan=1 pitch=64 vol=48
Time=84005  Note on, chan=1 pitch=76 vol=47
Time=84021  Note off, chan=1 pitch=65 vol=64
Time=84214  Note off, chan=1 pitch=64 vol=64
Time=84219  Note off, chan=1 pitch=76 vol=64
Time=84230  Note on, chan=1 pitch=62 vol=49
Time=84248  Note on, chan=1 pitch=74 vol=35
Time=84383  Note off, chan=1 pitch=62 vol=64
Time=84411  Note off, chan=1 pitch=74 vol=64
Time=84467  Note on, chan=1 pitch=79 vol=57
Time=84481  Note on, chan=1 pitch=67 vol=44
Time=84701  Note off, chan=1 pitch=79 vol=64
Time=84702  Note on, chan=1 pitch=62 vol=47
Time=84720  Note on, chan=1 pitch=74 vol=40
Time=84733  Note off, chan=1 pitch=67 vol=64
Time=84905  Note off, chan=1 pitch=74 vol=64
Time=84940  Note off, chan=1 pitch=62 vol=64
Time=84945  Note on, chan=1 pitch=71 vol=47
Time=84966  Note on, chan=1 pitch=59 vol=46
Time=85136  Note off, chan=1 pitch=59 vol=64
Time=85149  Note off, chan=1 pitch=71 vol=64
Time=85193  Note on, chan=1 pitch=72 vol=47
Time=85211  Note on, chan=1 pitch=60 vol=45
Time=85333  Note off, chan=1 pitch=60 vol=64
Time=85378  Note off, chan=1 pitch=72 vol=64
Time=85409  Note on, chan=1 pitch=62 vol=54
Time=85421  Note on, chan=1 pitch=74 vol=47
Time=85601  Note off, chan=1 pitch=62 vol=64
Time=85611  Note off, chan=1 pitch=74 vol=64
Time=85654  Note on, chan=1 pitch=60 vol=36
Time=85673  Note on, chan=1 pitch=72 vol=37
Time=85859  Note off, chan=1 pitch=72 vol=64
Time=85889  Note on, chan=1 pitch=62 vol=44
Time=85896  Note off, chan=1 pitch=60 vol=64
Time=85904  Note on, chan=1 pitch=74 vol=40
Time=86108  Note off, chan=1 pitch=74 vol=64
Time=86135  Note off, chan=1 pitch=62 vol=64
Time=86148  Note on, chan=1 pitch=76 vol=43
Time=86152  Note on, chan=1 pitch=64 vol=40
Time=86326  Note off, chan=1 pitch=64 vol=64
Time=86331  Note off, chan=1 pitch=76 vol=64
Time=86375  Note on, chan=1 pitch=65 vol=54
Time=86392  Note on, chan=1 pitch=77 vol=48
Time=86607  Note on, chan=1 pitch=60 vol=40
Time=86627  Note off, chan=1 pitch=65 vol=64
Time=86639  Note off, chan=1 pitch=77 vol=64
Time=86644  Note on, chan=1 pitch=72 vol=36
Time=86829  Note off, chan=1 pitch=72 vol=64
Time=86840  Note off, chan=1 pitch=60 vol=64
Time=86868  Note on, chan=1 pitch=57 vol=46
Time=86870  Note on, chan=1 pitch=69 vol=47
Time=87051  Note off, chan=1 pitch=69 vol=64
Time=87060  Note off, chan=1 pitch=57 vol=64
Time=87108  Note on, chan=1 pitch=59 vol=44
Time=87110  Note on, chan=1 pitch=71 vol=37
Time=87294  Note off, chan=1 pitch=59 vol=64
Time=87307  Note off, chan=1 pitch=71 vol=64
Time=87339  Note on, chan=1 pitch=60 vol=45
Time=87354  Note on, chan=1 pitch=72 vol=46
Time=87542  Note off, chan=1 pitch=72 vol=64
Time=87549  Note off, chan=1 pitch=60 vol=64
Time=87605  Note on, chan=1 pitch=59 vol=38
Time=87609  Note on, chan=1 pitch=71 vol=36
Time=87798  Note off, chan=1 pitch=71 vol=64
Time=87801  Note off, chan=1 pitch=59 vol=64
Time=87812  Note on, chan=1 pitch=60 vol=45
Time=87835  Note on, chan=1 pitch=72 vol=36
Time=88018  Note off, chan=1 pitch=72 vol=64
Time=88078  Note on, chan=1 pitch=62 vol=43
Time=88080  Note on, chan=1 pitch=74 vol=39
Time=88085  Note off, chan=1 pitch=60 vol=64
Time=88281  Note off, chan=1 pitch=74 vol=64
Time=88284  Note off, chan=1 pitch=62 vol=64
Time=88322  Note on, chan=1 pitch=64 vol=43
Time=88325  Note on, chan=1 pitch=76 vol=42
Time=88554  Note on, chan=1 pitch=59 vol=39
Time=88570  Note on, chan=1 pitch=71 vol=37
Time=88573  Note off, chan=1 pitch=76 vol=64
Time=88592  Note off, chan=1 pitch=64 vol=64
Time=88749  Note off, chan=1 pitch=71 vol=64
Time=88771  Note off, chan=1 pitch=59 vol=64
Time=88782  Note on, chan=1 pitch=67 vol=44
Time=88787  Note on, chan=1 pitch=55 vol=43
Time=88967  Note off, chan=1 pitch=55 vol=64
Time=88989  Note off, chan=1 pitch=67 vol=64
Time=89013  Note on, chan=1 pitch=69 vol=51
Time=89018  Note on, chan=1 pitch=57 vol=40
Time=89226  Note off, chan=1 pitch=69 vol=64
Time=89229  Note off, chan=1 pitch=57 vol=64
Time=89262  Note on, chan=1 pitch=59 vol=48
Time=89265  Note on, chan=1 pitch=71 vol=40
Time=89472  Note off, chan=1 pitch=71 vol=64
Time=89475  Note off, chan=1 pitch=59 vol=64
Time=89510  Note on, chan=1 pitch=57 vol=44
Time=89523  Note on, chan=1 pitch=69 vol=43
Time=89718  Note off, chan=1 pitch=69 vol=64
Time=89747  Note on, chan=1 pitch=59 vol=39
Time=89755  Note off, chan=1 pitch=57 vol=64
Time=89766  Note on, chan=1 pitch=71 vol=32
Time=89946  Note off, chan=1 pitch=71 vol=64
Time=89985  Note off, chan=1 pitch=59 vol=64
Time=89994  Note on, chan=1 pitch=60 vol=35
Time=90005  Note on, chan=1 pitch=72 vol=36
Time=90180  Note off, chan=1 pitch=72 vol=64
Time=90189  Note off, chan=1 pitch=60 vol=64
Time=90224  Note on, chan=1 pitch=62 vol=45
Time=90242  Note on, chan=1 pitch=74 vol=41
Time=90478  Note off, chan=1 pitch=74 vol=64
Time=90482  Note on, chan=1 pitch=57 vol=32
Time=90494  Note on, chan=1 pitch=69 vol=36
Time=90498  Note off, chan=1 pitch=62 vol=64
Time=90672  Note off, chan=1 pitch=69 vol=64
Time=90706  Note on, chan=1 pitch=65 vol=43
Time=90736  Note off, chan=1 pitch=57 vol=64
Time=90740  Note on, chan=1 pitch=53 vol=41
Time=90906  Note off, chan=1 pitch=65 vol=64
Time=90945  Note off, chan=1 pitch=53 vol=64
Time=90955  Note on, chan=1 pitch=67 vol=44
Time=90977  Note on, chan=1 pitch=55 vol=44
Time=91169  Note off, chan=1 pitch=67 vol=64
Time=91187  Note off, chan=1 pitch=55 vol=64
Time=91208  Note on, chan=1 pitch=69 vol=44
Time=91212  Note on, chan=1 pitch=57 vol=43
Time=91422  Note off, chan=1 pitch=69 vol=64
Time=91431  Note off, chan=1 pitch=57 vol=64
Time=91460  Note on, chan=1 pitch=67 vol=32
Time=91482  Note on, chan=1 pitch=55 vol=31
Time=91662  Note off, chan=1 pitch=55 vol=64
Time=91667  Note off, chan=1 pitch=67 vol=64
Time=91680  Note on, chan=1 pitch=57 vol=39
Time=91719  Note on, chan=1 pitch=69 vol=30
Time=91905  Note off, chan=1 pitch=69 vol=64
Time=91926  Note off, chan=1 pitch=57 vol=64
Time=91931  Note on, chan=1 pitch=59 vol=42
Time=91932  Note on, chan=1 pitch=71 vol=44
Time=92135  Note off, chan=1 pitch=71 vol=64
Time=92145  Note off, chan=1 pitch=59 vol=64
Time=92183  Note on, chan=1 pitch=60 vol=49
Time=92189  Note on, chan=1 pitch=72 vol=43
Time=92395  Note on, chan=1 pitch=55 vol=40
Time=92403  Note off, chan=1 pitch=60 vol=64
Time=92422  Note off, chan=1 pitch=72 vol=64
Time=92424  Note on, chan=1 pitch=67 vol=44
Time=92619  Note off, chan=1 pitch=67 vol=64
Time=92640  Note off, chan=1 pitch=55 vol=64
Time=92678  Note on, chan=1 pitch=64 vol=36
Time=92679  Note on, chan=1 pitch=52 vol=40
Time=92865  Note off, chan=1 pitch=52 vol=64
Time=92873  Note off, chan=1 pitch=64 vol=64
Time=92918  Note on, chan=1 pitch=65 vol=43
Time=92921  Note on, chan=1 pitch=53 vol=42
Time=93103  Note off, chan=1 pitch=53 vol=64
Time=93107  Note off, chan=1 pitch=65 vol=64
Time=93143  Note on, chan=1 pitch=55 vol=45
Time=93152  Note on, chan=1 pitch=67 vol=41
Time=93343  Note off, chan=1 pitch=55 vol=64
Time=93360  Note off, chan=1 pitch=67 vol=64
Time=93393  Note on, chan=1 pitch=53 vol=36
Time=93405  Note on, chan=1 pitch=65 vol=39
Time=93594  Note off, chan=1 pitch=53 vol=64
Time=93611  Note on, chan=1 pitch=55 vol=43
Time=93614  Note off, chan=1 pitch=65 vol=64
Time=93647  Note on, chan=1 pitch=67 vol=37
Time=93840  Note off, chan=1 pitch=67 vol=64
Time=93870  Note on, chan=1 pitch=57 vol=44
Time=93874  Note off, chan=1 pitch=55 vol=64
Time=93876  Note on, chan=1 pitch=69 vol=41
Time=94064  Note off, chan=1 pitch=69 vol=64
Time=94076  Note off, chan=1 pitch=57 vol=64
Time=94112  Note on, chan=1 pitch=71 vol=44
Time=94118  Note on, chan=1 pitch=59 vol=46
Time=94337  Note on, chan=1 pitch=53 vol=39
Time=94339  Note off, chan=1 pitch=71 vol=64
Time=94355  Note off, chan=1 pitch=59 vol=64
Time=94358  Note on, chan=1 pitch=65 vol=39
Time=94545  Note off, chan=1 pitch=65 vol=64
Time=94577  Note off, chan=1 pitch=53 vol=64
Time=94587  Note on, chan=1 pitch=62 vol=44
Time=94596  Note on, chan=1 pitch=50 vol=44
Time=94763  Note off, chan=1 pitch=62 vol=64
Time=94785  Note off, chan=1 pitch=50 vol=64
Time=94820  Note on, chan=1 pitch=64 vol=34
Time=94833  Note on, chan=1 pitch=52 vol=48
Time=94995  Note off, chan=1 pitch=52 vol=64
Time=95022  Note off, chan=1 pitch=64 vol=64
Time=95034  Note on, chan=1 pitch=53 vol=51
Time=95064  Note on, chan=1 pitch=65 vol=37
Time=95251  Note off, chan=1 pitch=65 vol=64
Time=95253  Note off, chan=1 pitch=53 vol=64
Time=95301  Note on, chan=1 pitch=52 vol=33
Time=95303  Note on, chan=1 pitch=64 vol=34
Time=95505  Note on, chan=1 pitch=53 vol=40
Time=95513  Note off, chan=1 pitch=52 vol=64
Time=95522  Note off, chan=1 pitch=64 vol=64
Time=95540  Note on, chan=1 pitch=65 vol=34
Time=95757  Note off, chan=1 pitch=65 vol=64
Time=95773  Note on, chan=1 pitch=55 vol=42
Time=95790  Note off, chan=1 pitch=53 vol=64
Time=95795  Note on, chan=1 pitch=67 vol=42
Time=95962  Note off, chan=1 pitch=55 vol=64
Time=95979  Note off, chan=1 pitch=67 vol=64
Time=96027  Note on, chan=1 pitch=57 vol=52
Time=96032  Note on, chan=1 pitch=69 vol=52
Time=96242  Note off, chan=1 pitch=69 vol=64
Time=96267  Note off, chan=1 pitch=57 vol=64
Time=96270  Note on, chan=1 pitch=64 vol=34
Time=96272  Note on, chan=1 pitch=52 vol=43
Time=96444  Note off, chan=1 pitch=64 vol=64
Time=96497  Note off, chan=1 pitch=52 vol=64
Time=96510  Note on, chan=1 pitch=48 vol=41
Time=96515  Note on, chan=1 pitch=60 vol=39
Time=96687  Note off, chan=1 pitch=48 vol=64
Time=96695  Note off, chan=1 pitch=60 vol=64
Time=96741  Note on, chan=1 pitch=62 vol=36
Time=96750  Note on, chan=1 pitch=50 vol=45
Time=96927  Note off, chan=1 pitch=50 vol=64
Time=96945  Note off, chan=1 pitch=62 vol=64
Time=96970  Note on, chan=1 pitch=52 vol=46
Time=96987  Note on, chan=1 pitch=64 vol=36
Time=97167  Note off, chan=1 pitch=64 vol=64
Time=97182  Note off, chan=1 pitch=52 vol=64
Time=97214  Note on, chan=1 pitch=62 vol=33
Time=97215  Note on, chan=1 pitch=50 vol=38
Time=97426  Note off, chan=1 pitch=62 vol=64
Time=97434  Note on, chan=1 pitch=52 vol=43
Time=97449  Note off, chan=1 pitch=50 vol=64
Time=97451  Note on, chan=1 pitch=64 vol=35
Time=97659  Note off, chan=1 pitch=64 vol=64
Time=97687  Note on, chan=1 pitch=53 vol=43
Time=97692  Note on, chan=1 pitch=65 vol=41
Time=97720  Note off, chan=1 pitch=52 vol=64
Time=97877  Note off, chan=1 pitch=65 vol=64
Time=97881  Note off, chan=1 pitch=53 vol=64
Time=97910  Note on, chan=1 pitch=55 vol=46
Time=97926  Note on, chan=1 pitch=67 vol=45
Time=98153  Note off, chan=1 pitch=67 vol=64
Time=98162  Note on, chan=1 pitch=50 vol=40
Time=98174  Note on, chan=1 pitch=62 vol=36
Time=98181  Note off, chan=1 pitch=55 vol=64
Time=98336  Note off, chan=1 pitch=62 vol=64
Time=98346  Note off, chan=1 pitch=50 vol=64
Time=98370  Note on, chan=1 pitch=47 vol=45
Time=98412  Note on, chan=1 pitch=59 vol=38
Time=98576  Note off, chan=1 pitch=47 vol=64
Time=98595  Note off, chan=1 pitch=59 vol=64
Time=98622  Note on, chan=1 pitch=48 vol=42
Time=98629  Note on, chan=1 pitch=60 vol=40
Time=98831  Note off, chan=1 pitch=48 vol=64
Time=98852  Note on, chan=1 pitch=50 vol=49
Time=98855  Note off, chan=1 pitch=60 vol=64
Time=98882  Note on, chan=1 pitch=62 vol=37
Time=99060  Note off, chan=1 pitch=62 vol=64
Time=99065  Note off, chan=1 pitch=50 vol=64
Time=99112  Note on, chan=1 pitch=60 vol=31
Time=99118  Note on, chan=1 pitch=48 vol=35
Time=99314  Note on, chan=1 pitch=50 vol=43
Time=99322  Note off, chan=1 pitch=48 vol=64
Time=99332  Note off, chan=1 pitch=60 vol=64
Time=99365  Note on, chan=1 pitch=62 vol=28
Time=99576  Note off, chan=1 pitch=62 vol=64
Time=99610  Note off, chan=1 pitch=50 vol=64
Time=99611  Note on, chan=1 pitch=52 vol=41
Time=99626  Note on, chan=1 pitch=64 vol=36
Time=99781  Note off, chan=1 pitch=64 vol=64
Time=99785  Note off, chan=1 pitch=52 vol=64
Time=99842  Note on, chan=1 pitch=53 vol=43
Time=99851  Note on, chan=1 pitch=65 vol=51
Time=100080  Note off, chan=1 pitch=65 vol=64
Time=100089  Note on, chan=1 pitch=48 vol=37
Time=100101  Note off, chan=1 pitch=53 vol=64
Time=100110  Note on, chan=1 pitch=60 vol=36
Time=100282  Note off, chan=1 pitch=60 vol=64
Time=100317  Note off, chan=1 pitch=48 vol=64
Time=100333  Note on, chan=1 pitch=45 vol=41
Time=100339  Note on, chan=1 pitch=57 vol=36
Time=100513  Note off, chan=1 pitch=45 vol=64
Time=100541  Note off, chan=1 pitch=57 vol=64
Time=100574  Note on, chan=1 pitch=47 vol=41
Time=100585  Note on, chan=1 pitch=59 vol=39
Time=100770  Note off, chan=1 pitch=47 vol=64
Time=100788  Note off, chan=1 pitch=59 vol=64
Time=100816  Note on, chan=1 pitch=48 vol=38
Time=100824  Note on, chan=1 pitch=60 vol=33
Time=100985  Note off, chan=1 pitch=60 vol=64
Time=100995  Note off, chan=1 pitch=48 vol=64
Time=101051  Note on, chan=1 pitch=59 vol=36
Time=101058  Note on, chan=1 pitch=47 vol=36
Time=101256  Note off, chan=1 pitch=59 vol=64
Time=101262  Note off, chan=1 pitch=47 vol=64
Time=101265  Note on, chan=1 pitch=48 vol=46
Time=101294  Note on, chan=1 pitch=60 vol=33
Time=101498  Note off, chan=1 pitch=60 vol=64
Time=101529  Note on, chan=1 pitch=62 vol=40
Time=101538  Note on, chan=1 pitch=50 vol=46
Time=101555  Note off, chan=1 pitch=48 vol=64
Time=101693  Note off, chan=1 pitch=62 vol=64
Time=101718  Note off, chan=1 pitch=50 vol=64
Time=101757  Note on, chan=1 pitch=64 vol=51
Time=101765  Note on, chan=1 pitch=52 vol=40
Time=101990  Note off, chan=1 pitch=64 vol=64
Time=102000  Note on, chan=1 pitch=47 vol=32
Time=102027  Note off, chan=1 pitch=52 vol=64
Time=102030  Note on, chan=1 pitch=59 vol=29
Time=102190  Note off, chan=1 pitch=59 vol=64
Time=102237  Note off, chan=1 pitch=47 vol=64
Time=102263  Note on, chan=1 pitch=55 vol=35
Time=102271  Note on, chan=1 pitch=43 vol=36
Time=102447  Note off, chan=1 pitch=43 vol=64
Time=102459  Note off, chan=1 pitch=55 vol=64
Time=102501  Note on, chan=1 pitch=57 vol=36
Time=102509  Note on, chan=1 pitch=45 vol=44
Time=102696  Note off, chan=1 pitch=45 vol=64
Time=102705  Note off, chan=1 pitch=57 vol=64
Time=102733  Note on, chan=1 pitch=47 vol=41
Time=102740  Note on, chan=1 pitch=59 vol=34
Time=102902  Note off, chan=1 pitch=59 vol=64
Time=102924  Note off, chan=1 pitch=47 vol=64
Time=102982  Note on, chan=1 pitch=57 vol=29
Time=102998  Note on, chan=1 pitch=45 vol=19
Time=103185  Note off, chan=1 pitch=57 vol=64
Time=103209  Note off, chan=1 pitch=45 vol=64
Time=103216  Note on, chan=1 pitch=47 vol=36
Time=103218  Note on, chan=1 pitch=59 vol=30
Time=103429  Note off, chan=1 pitch=59 vol=64
Time=103454  Note on, chan=1 pitch=60 vol=38
Time=103484  Note off, chan=1 pitch=47 vol=64
Time=103488  Note on, chan=1 pitch=48 vol=36
Time=103637  Note off, chan=1 pitch=60 vol=64
Time=103660  Note off, chan=1 pitch=48 vol=64
Time=103692  Note on, chan=1 pitch=62 vol=45
Time=103696  Note on, chan=1 pitch=50 vol=32
Time=103939  Note off, chan=1 pitch=62 vol=64
Time=103951  Note on, chan=1 pitch=45 vol=38
Time=103958  Note off, chan=1 pitch=50 vol=64
Time=103962  Note on, chan=1 pitch=57 vol=35
Time=104121  Note off, chan=1 pitch=57 vol=64
Time=104180  Note off, chan=1 pitch=45 vol=64
Time=104199  Note on, chan=1 pitch=53 vol=39
Time=104200  Note on, chan=1 pitch=41 vol=41
Time=104378  Note off, chan=1 pitch=41 vol=64
Time=104380  Note off, chan=1 pitch=53 vol=64
Time=104414  Note on, chan=1 pitch=55 vol=38
Time=104444  Note on, chan=1 pitch=43 vol=40
Time=104622  Note off, chan=1 pitch=55 vol=64
Time=104656  Note on, chan=1 pitch=57 vol=39
Time=104661  Note off, chan=1 pitch=43 vol=64
Time=104675  Note on, chan=1 pitch=45 vol=39
Time=104855  Note off, chan=1 pitch=57 vol=64
Time=104880  Note off, chan=1 pitch=45 vol=64
Time=104897  Note on, chan=1 pitch=55 vol=34
Time=104939  Note on, chan=1 pitch=43 vol=36
Time=105115  Note off, chan=1 pitch=43 vol=64
Time=105117  Note on, chan=1 pitch=45 vol=38
Time=105119  Note off, chan=1 pitch=55 vol=64
Time=105128  Note on, chan=1 pitch=57 vol=35
Time=105354  Note off, chan=1 pitch=57 vol=64
Time=105369  Note on, chan=1 pitch=59 vol=42
Time=105372  Note on, chan=1 pitch=47 vol=38
Time=105384  Note off, chan=1 pitch=45 vol=64
Time=105546  Note off, chan=1 pitch=47 vol=64
Time=105555  Note off, chan=1 pitch=59 vol=64
Time=105596  Note on, chan=1 pitch=48 vol=40
Time=105597  Note on, chan=1 pitch=60 vol=49
Time=105834  Note off, chan=1 pitch=60 vol=64
Time=105852  Note on, chan=1 pitch=43 vol=39
Time=105862  Note on, chan=1 pitch=55 vol=37
Time=105864  Note off, chan=1 pitch=48 vol=64
Time=106028  Note off, chan=1 pitch=55 vol=64
Time=106089  Note on, chan=1 pitch=52 vol=40
Time=106100  Note off, chan=1 pitch=43 vol=64
Time=106122  Note on, chan=1 pitch=40 vol=40
Time=106285  Note off, chan=1 pitch=52 vol=64
Time=106311  Note off, chan=1 pitch=40 vol=64
Time=106323  Note on, chan=1 pitch=53 vol=37
Time=106364  Note on, chan=1 pitch=41 vol=41
Time=106536  Note off, chan=1 pitch=53 vol=64
Time=106548  Note off, chan=1 pitch=41 vol=64
Time=106562  Note on, chan=1 pitch=55 vol=41
Time=106574  Note on, chan=1 pitch=43 vol=44
Time=106767  Note off, chan=1 pitch=55 vol=64
Time=106778  Note off, chan=1 pitch=43 vol=64
Time=106817  Note on, chan=1 pitch=53 vol=41
Time=106833  Note on, chan=1 pitch=41 vol=41
Time=107031  Note off, chan=1 pitch=53 vol=64
Time=107049  Note off, chan=1 pitch=41 vol=64
Time=107059  Note on, chan=1 pitch=43 vol=45
Time=107063  Note on, chan=1 pitch=55 vol=31
Time=107282  Note off, chan=1 pitch=55 vol=64
Time=107300  Note off, chan=1 pitch=43 vol=64
Time=107304  Note on, chan=1 pitch=57 vol=42
Time=107315  Note on, chan=1 pitch=45 vol=23
Time=107476  Note off, chan=1 pitch=57 vol=64
Time=107487  Note off, chan=1 pitch=45 vol=64
Time=107529  Note on, chan=1 pitch=59 vol=45
Time=107540  Note on, chan=1 pitch=47 vol=39
Time=107738  Note off, chan=1 pitch=47 vol=64
Time=107746  Note off, chan=1 pitch=59 vol=64
Time=107768  Note on, chan=1 pitch=41 vol=40
Time=107772  Note on, chan=1 pitch=53 vol=37
Time=107954  Note off, chan=1 pitch=53 vol=64
Time=107987  Note off, chan=1 pitch=41 vol=64
Time=108012  Note on, chan=1 pitch=38 vol=45
Time=108019  Note on, chan=1 pitch=50 vol=40
Time=108194  Note off, chan=1 pitch=38 vol=64
Time=108195  Note off, chan=1 pitch=50 vol=64
Time=108249  Note on, chan=1 pitch=52 vol=40
Time=108261  Note on, chan=1 pitch=40 vol=37
Time=108420  Note off, chan=1 pitch=40 vol=64
Time=108455  Note off, chan=1 pitch=52 vol=64
Time=108480  Note on, chan=1 pitch=41 vol=40
Time=108484  Note on, chan=1 pitch=53 vol=40
Time=108671  Note off, chan=1 pitch=53 vol=64
Time=108679  Note off, chan=1 pitch=41 vol=64
Time=108728  Note on, chan=1 pitch=52 vol=36
Time=108732  Note on, chan=1 pitch=40 vol=45
Time=108943  Note on, chan=1 pitch=41 vol=47
Time=108945  Note off, chan=1 pitch=40 vol=64
Time=108947  Note off, chan=1 pitch=52 vol=64
Time=108950  Note on, chan=1 pitch=53 vol=40
Time=109148  Note off, chan=1 pitch=53 vol=64
Time=109183  Note on, chan=1 pitch=55 vol=41
Time=109188  Note on, chan=1 pitch=43 vol=45
Time=109211  Note off, chan=1 pitch=41 vol=64
Time=109344  Note off, chan=1 pitch=43 vol=64
Time=109347  Note off, chan=1 pitch=55 vol=64
Time=109405  Note on, chan=1 pitch=57 vol=51
Time=109413  Note on, chan=1 pitch=45 vol=47
Time=109629  Note off, chan=1 pitch=45 vol=64
Time=109632  Note off, chan=1 pitch=57 vol=64
Time=109646  Note on, chan=1 pitch=40 vol=40
Time=109659  Note on, chan=1 pitch=52 vol=35
Time=109805  Note off, chan=1 pitch=52 vol=64
Time=109865  Note off, chan=1 pitch=40 vol=64
Time=109874  Note on, chan=1 pitch=36 vol=48
Time=109892  Note on, chan=1 pitch=48 vol=39
Time=110039  Note off, chan=1 pitch=36 vol=64
Time=110070  Note off, chan=1 pitch=48 vol=64
Time=110129  Note on, chan=1 pitch=50 vol=41
Time=110142  Note on, chan=1 pitch=38 vol=36
Time=110322  Note off, chan=1 pitch=38 vol=64
Time=110339  Note off, chan=1 pitch=50 vol=64
Time=110372  Note on, chan=1 pitch=40 vol=42
Time=110375  Note on, chan=1 pitch=52 vol=40
Time=110589  Note off, chan=1 pitch=40 vol=64
Time=110600  Note off, chan=1 pitch=52 vol=64
Time=110634  Note on, chan=1 pitch=38 vol=36
Time=110637  Note on, chan=1 pitch=50 vol=32
Time=110811  Note off, chan=1 pitch=38 vol=64
Time=110823  Note off, chan=1 pitch=50 vol=64
Time=110847  Note on, chan=1 pitch=40 vol=50
Time=110872  Note on, chan=1 pitch=52 vol=44
Time=111069  Note off, chan=1 pitch=52 vol=64
Time=111095  Note on, chan=1 pitch=53 vol=44
Time=111114  Note on, chan=1 pitch=41 vol=48
Time=111120  Note off, chan=1 pitch=40 vol=64
Time=111256  Note off, chan=1 pitch=53 vol=64
Time=111269  Note off, chan=1 pitch=41 vol=64
Time=111317  Note on, chan=1 pitch=48 vol=51
Time=111336  Note on, chan=1 pitch=36 vol=48
Time=113235  Note off, chan=1 pitch=36 vol=64
Time=113247  Note off, chan=1 pitch=48 vol=64
Time=115190  Note on, chan=1 pitch=36 vol=38
Time=115197  Note on, chan=1 pitch=48 vol=56
Time=115408  Note off, chan=1 pitch=48 vol=64
Time=115427  Note on, chan=1 pitch=40 vol=45
Time=115445  Note off, chan=1 pitch=36 vol=64
Time=115455  Note on, chan=1 pitch=52 vol=40
Time=115627  Note off, chan=1 pitch=40 vol=64
Time=115655  Note off, chan=1 pitch=52 vol=64
Time=115674  Note on, chan=1 pitch=45 vol=38
Time=115683  Note on, chan=1 pitch=57 vol=51
Time=115871  Note off, chan=1 pitch=57 vol=64
Time=115919  Note off, chan=1 pitch=45 vol=64
Time=115931  Note on, chan=1 pitch=55 vol=43
Time=115935  Note on, chan=1 pitch=43 vol=44
Time=116132  Note off, chan=1 pitch=55 vol=64
Time=116154  Note off, chan=1 pitch=43 vol=64
Time=116175  Note on, chan=1 pitch=41 vol=51
Time=116180  Note on, chan=1 pitch=53 vol=41
Time=116372  Note off, chan=1 pitch=53 vol=64
Time=116378  Note off, chan=1 pitch=41 vol=64
Time=116416  Note on, chan=1 pitch=52 vol=40
Time=116425  Note on, chan=1 pitch=40 vol=46
Time=116641  Note off, chan=1 pitch=52 vol=64
Time=116645  Note off, chan=1 pitch=40 vol=64
Time=116648  Note on, chan=1 pitch=53 vol=41
Time=116657  Note on, chan=1 pitch=41 vol=37
Time=116858  Note off, chan=1 pitch=53 vol=64
Time=116881  Note on, chan=1 pitch=55 vol=40
Time=116897  Note off, chan=1 pitch=41 vol=64
Time=116900  Note on, chan=1 pitch=43 vol=40
Time=117052  Note off, chan=1 pitch=55 vol=64
Time=117101  Note off, chan=1 pitch=43 vol=64
Time=117116  Note on, chan=1 pitch=50 vol=41
Time=117139  Note on, chan=1 pitch=38 vol=44
Time=117312  Note off, chan=1 pitch=50 vol=64
Time=117337  Note off, chan=1 pitch=38 vol=64
Time=117371  Note on, chan=1 pitch=41 vol=37
Time=117383  Note on, chan=1 pitch=53 vol=43
Time=117538  Note off, chan=1 pitch=41 vol=64
Time=117585  Note off, chan=1 pitch=53 vol=64
Time=117597  Note on, chan=1 pitch=47 vol=44
Time=117603  Note on, chan=1 pitch=59 vol=46
Time=117806  Note off, chan=1 pitch=47 vol=64
Time=117817  Note off, chan=1 pitch=59 vol=64
Time=117834  Note on, chan=1 pitch=57 vol=44
Time=117836  Note on, chan=1 pitch=45 vol=36
Time=118043  Note off, chan=1 pitch=57 vol=64
Time=118058  Note off, chan=1 pitch=45 vol=64
Time=118077  Note on, chan=1 pitch=43 vol=56
Time=118086  Note on, chan=1 pitch=55 vol=47
Time=118275  Note off, chan=1 pitch=55 vol=64
Time=118299  Note off, chan=1 pitch=43 vol=64
Time=118324  Note on, chan=1 pitch=53 vol=36
Time=118353  Note on, chan=1 pitch=41 vol=33
Time=118539  Note off, chan=1 pitch=53 vol=64
Time=118558  Note off, chan=1 pitch=41 vol=64
Time=118577  Note on, chan=1 pitch=55 vol=43
Time=118583  Note on, chan=1 pitch=43 vol=40
Time=118769  Note off, chan=1 pitch=55 vol=64
Time=118794  Note on, chan=1 pitch=57 vol=45
Time=118820  Note on, chan=1 pitch=45 vol=39
Time=118836  Note off, chan=1 pitch=43 vol=64
Time=118982  Note off, chan=1 pitch=57 vol=64
Time=119022  Note off, chan=1 pitch=45 vol=64
Time=119034  Note on, chan=1 pitch=52 vol=41
Time=119058  Note on, chan=1 pitch=40 vol=41
Time=119231  Note off, chan=1 pitch=52 vol=64
Time=119262  Note off, chan=1 pitch=40 vol=64
Time=119268  Note on, chan=1 pitch=43 vol=42
Time=119288  Note on, chan=1 pitch=55 vol=41
Time=119469  Note off, chan=1 pitch=43 vol=64
Time=119480  Note off, chan=1 pitch=55 vol=64
Time=119494  Note on, chan=1 pitch=48 vol=44
Time=119508  Note on, chan=1 pitch=60 vol=43
Time=119702  Note off, chan=1 pitch=48 vol=64
Time=119726  Note off, chan=1 pitch=60 vol=64
Time=119739  Note on, chan=1 pitch=47 vol=32
Time=119742  Note on, chan=1 pitch=59 vol=42
Time=119951  Note off, chan=1 pitch=47 vol=64
Time=119952  Note off, chan=1 pitch=59 vol=64
Time=119967  Note on, chan=1 pitch=45 vol=54
Time=119993  Note on, chan=1 pitch=57 vol=42
Time=120188  Note off, chan=1 pitch=57 vol=64
Time=120215  Note off, chan=1 pitch=45 vol=64
Time=120224  Note on, chan=1 pitch=55 vol=34
Time=120245  Note on, chan=1 pitch=43 vol=41
Time=120450  Note off, chan=1 pitch=55 vol=64
Time=120467  Note off, chan=1 pitch=43 vol=64
Time=120468  Note on, chan=1 pitch=45 vol=45
Time=120470  Note on, chan=1 pitch=57 vol=34
Time=120701  Note off, chan=1 pitch=57 vol=64
Time=120711  Note on, chan=1 pitch=59 vol=40
Time=120714  Note on, chan=1 pitch=47 vol=40
Time=120730  Note off, chan=1 pitch=45 vol=64
Time=120909  Note off, chan=1 pitch=59 vol=64
Time=120915  Note off, chan=1 pitch=47 vol=64
Time=120950  Note on, chan=1 pitch=53 vol=49
Time=120959  Note on, chan=1 pitch=41 vol=35
Time=121124  Note off, chan=1 pitch=53 vol=64
Time=121178  Note on, chan=1 pitch=45 vol=40
Time=121181  Note off, chan=1 pitch=41 vol=64
Time=121202  Note on, chan=1 pitch=57 vol=42
Time=121400  Note off, chan=1 pitch=45 vol=64
Time=121410  Note off, chan=1 pitch=57 vol=64
Time=121417  Note on, chan=1 pitch=50 vol=41
Time=121435  Note on, chan=1 pitch=62 vol=49
Time=121634  Note off, chan=1 pitch=62 vol=64
Time=121636  Note on, chan=1 pitch=60 vol=50
Time=121640  Note off, chan=1 pitch=50 vol=64
Time=121646  Note on, chan=1 pitch=48 vol=44
Time=121868  Note off, chan=1 pitch=60 vol=64
Time=121889  Note off, chan=1 pitch=48 vol=64
Time=121892  Note on, chan=1 pitch=59 vol=50
Time=121895  Note on, chan=1 pitch=47 vol=55
Time=122069  Note off, chan=1 pitch=59 vol=64
Time=122106  Note off, chan=1 pitch=47 vol=64
Time=122123  Note on, chan=1 pitch=57 vol=40
Time=122136  Note on, chan=1 pitch=45 vol=37
Time=122352  Note on, chan=1 pitch=47 vol=60
Time=122364  Note off, chan=1 pitch=45 vol=64
Time=122370  Note off, chan=1 pitch=57 vol=64
Time=122372  Note on, chan=1 pitch=59 vol=43
Time=122599  Note on, chan=1 pitch=48 vol=45
Time=122604  Note on, chan=1 pitch=60 vol=39
Time=122609  Note off, chan=1 pitch=59 vol=64
Time=122642  Note off, chan=1 pitch=47 vol=64
Time=122777  Note off, chan=1 pitch=60 vol=64
Time=122804  Note off, chan=1 pitch=48 vol=64
Time=122843  Note on, chan=1 pitch=55 vol=44
Time=122856  Note on, chan=1 pitch=43 vol=44
Time=123030  Note off, chan=1 pitch=55 vol=64
Time=123059  Note off, chan=1 pitch=43 vol=64
Time=123081  Note on, chan=1 pitch=47 vol=44
Time=123099  Note on, chan=1 pitch=59 vol=52
Time=123278  Note off, chan=1 pitch=47 vol=64
Time=123319  Note on, chan=1 pitch=52 vol=36
Time=123323  Note off, chan=1 pitch=59 vol=64
Time=123330  Note on, chan=1 pitch=64 vol=43
Time=123542  Note off, chan=1 pitch=52 vol=64
Time=123544  Note off, chan=1 pitch=64 vol=64
Time=123551  Note on, chan=1 pitch=50 vol=30
Time=123555  Note on, chan=1 pitch=62 vol=38
Time=123798  Note off, chan=1 pitch=50 vol=64
Time=123803  Note on, chan=1 pitch=48 vol=49
Time=123807  Note off, chan=1 pitch=62 vol=64
Time=123824  Note on, chan=1 pitch=60 vol=49
Time=124023  Note off, chan=1 pitch=48 vol=64
Time=124034  Note off, chan=1 pitch=60 vol=64
Time=124055  Note on, chan=1 pitch=47 vol=45
Time=124066  Note on, chan=1 pitch=59 vol=38
Time=124289  Note off, chan=1 pitch=47 vol=64
Time=124306  Note on, chan=1 pitch=48 vol=44
Time=124323  Note on, chan=1 pitch=60 vol=37
Time=124331  Note off, chan=1 pitch=59 vol=64
Time=124541  Note on, chan=1 pitch=50 vol=39
Time=124545  Note off, chan=1 pitch=60 vol=64
Time=124547  Note on, chan=1 pitch=62 vol=34
Time=124599  Note off, chan=1 pitch=48 vol=64
Time=124724  Note off, chan=1 pitch=62 vol=64
Time=124779  Note off, chan=1 pitch=50 vol=64
Time=124785  Note on, chan=1 pitch=57 vol=49
Time=124796  Note on, chan=1 pitch=45 vol=44
Time=124983  Note off, chan=1 pitch=57 vol=64
Time=125034  Note off, chan=1 pitch=45 vol=64
Time=125040  Note on, chan=1 pitch=48 vol=35
Time=125066  Note on, chan=1 pitch=60 vol=40
Time=125242  Note off, chan=1 pitch=48 vol=64
Time=125278  Note off, chan=1 pitch=60 vol=64
Time=125281  Note on, chan=1 pitch=53 vol=46
Time=125315  Note on, chan=1 pitch=65 vol=42
Time=125498  Note off, chan=1 pitch=65 vol=64
Time=125514  Note off, chan=1 pitch=53 vol=64
Time=125535  Note on, chan=1 pitch=64 vol=36
Time=125543  Note on, chan=1 pitch=52 vol=30
Time=125726  Note off, chan=1 pitch=52 vol=64
Time=125756  Note off, chan=1 pitch=64 vol=64
Time=125758  Note on, chan=1 pitch=50 vol=36
Time=125793  Note on, chan=1 pitch=62 vol=44
Time=125978  Note off, chan=1 pitch=50 vol=64
Time=126000  Note off, chan=1 pitch=62 vol=64
Time=126003  Note on, chan=1 pitch=48 vol=47
Time=126029  Note on, chan=1 pitch=60 vol=39
Time=126234  Note off, chan=1 pitch=48 vol=64
Time=126266  Note on, chan=1 pitch=50 vol=32
Time=126269  Note off, chan=1 pitch=60 vol=64
Time=126271  Note on, chan=1 pitch=62 vol=37
Time=126506  Note on, chan=1 pitch=64 vol=33
Time=126513  Note off, chan=1 pitch=62 vol=64
Time=126515  Note on, chan=1 pitch=52 vol=39
Time=126537  Note off, chan=1 pitch=50 vol=64
Time=126680  Note off, chan=1 pitch=64 vol=64
Time=126720  Note on, chan=1 pitch=59 vol=45
Time=126731  Note off, chan=1 pitch=52 vol=64
Time=126770  Note on, chan=1 pitch=47 vol=35
Time=126956  Note off, chan=1 pitch=59 vol=64
Time=126965  Note off, chan=1 pitch=47 vol=64
Time=126984  Note on, chan=1 pitch=50 vol=27
Time=126986  Note on, chan=1 pitch=62 vol=42
Time=127179  Note off, chan=1 pitch=50 vol=64
Time=127195  Note off, chan=1 pitch=62 vol=64
Time=127208  Note on, chan=1 pitch=55 vol=37
Time=127223  Note on, chan=1 pitch=67 vol=49
Time=127425  Note off, chan=1 pitch=67 vol=64
Time=127437  Note off, chan=1 pitch=55 vol=64
Time=127447  Note on, chan=1 pitch=53 vol=29
Time=127449  Note on, chan=1 pitch=65 vol=40
Time=127661  Note off, chan=1 pitch=65 vol=64
Time=127668  Note off, chan=1 pitch=53 vol=64
Time=127683  Note on, chan=1 pitch=52 vol=41
Time=127699  Note on, chan=1 pitch=64 vol=37
Time=127890  Note off, chan=1 pitch=52 vol=64
Time=127896  Note off, chan=1 pitch=64 vol=64
Time=127934  Note on, chan=1 pitch=50 vol=45
Time=127939  Note on, chan=1 pitch=62 vol=40
Time=128159  Note off, chan=1 pitch=50 vol=64
Time=128169  Note on, chan=1 pitch=52 vol=36
Time=128175  Note off, chan=1 pitch=62 vol=64
Time=128179  Note on, chan=1 pitch=64 vol=31
Time=128388  Note off, chan=1 pitch=64 vol=64
Time=128403  Note on, chan=1 pitch=65 vol=39
Time=128433  Note on, chan=1 pitch=53 vol=34
Time=128463  Note off, chan=1 pitch=52 vol=64
Time=128589  Note off, chan=1 pitch=65 vol=64
Time=128643  Note off, chan=1 pitch=53 vol=64
Time=128666  Note on, chan=1 pitch=60 vol=33
Time=128669  Note on, chan=1 pitch=48 vol=46
Time=128857  Note off, chan=1 pitch=60 vol=64
Time=128888  Note off, chan=1 pitch=48 vol=64
Time=128900  Note on, chan=1 pitch=52 vol=34
Time=128919  Note on, chan=1 pitch=64 vol=38
Time=129071  Note off, chan=1 pitch=52 vol=64
Time=129101  Note off, chan=1 pitch=64 vol=64
Time=129113  Note on, chan=1 pitch=57 vol=40
Time=129144  Note on, chan=1 pitch=69 vol=42
Time=129333  Note off, chan=1 pitch=69 vol=64
Time=129350  Note off, chan=1 pitch=57 vol=64
Time=129365  Note on, chan=1 pitch=67 vol=40
Time=129373  Note on, chan=1 pitch=55 vol=28
Time=129565  Note off, chan=1 pitch=55 vol=64
Time=129575  Note off, chan=1 pitch=67 vol=64
Time=129592  Note on, chan=1 pitch=53 vol=33
Time=129628  Note on, chan=1 pitch=65 vol=36
Time=129795  Note off, chan=1 pitch=53 vol=64
Time=129798  Note off, chan=1 pitch=65 vol=64
Time=129842  Note on, chan=1 pitch=52 vol=43
Time=129860  Note on, chan=1 pitch=64 vol=36
Time=130058  Note off, chan=1 pitch=52 vol=64
Time=130071  Note on, chan=1 pitch=53 vol=37
Time=130086  Note off, chan=1 pitch=64 vol=64
Time=130104  Note on, chan=1 pitch=65 vol=33
Time=130304  Note off, chan=1 pitch=65 vol=64
Time=130321  Note on, chan=1 pitch=67 vol=37
Time=130355  Note on, chan=1 pitch=55 vol=32
Time=130372  Note off, chan=1 pitch=53 vol=64
Time=130509  Note off, chan=1 pitch=67 vol=64
Time=130555  Note off, chan=1 pitch=55 vol=64
Time=130577  Note on, chan=1 pitch=62 vol=40
Time=130585  Note on, chan=1 pitch=50 vol=45
Time=130767  Note off, chan=1 pitch=62 vol=64
Time=130794  Note off, chan=1 pitch=50 vol=64
Time=130798  Note on, chan=1 pitch=53 vol=44
Time=130826  Note on, chan=1 pitch=65 vol=40
Time=131012  Note off, chan=1 pitch=53 vol=64
Time=131016  Note off, chan=1 pitch=65 vol=64
Time=131043  Note on, chan=1 pitch=59 vol=40
Time=131058  Note on, chan=1 pitch=71 vol=37
Time=131234  Note off, chan=1 pitch=71 vol=64
Time=131267  Note on, chan=1 pitch=69 vol=37
Time=131283  Note off, chan=1 pitch=59 vol=64
Time=131293  Note on, chan=1 pitch=57 vol=34
Time=131484  Note off, chan=1 pitch=69 vol=64
Time=131487  Note off, chan=1 pitch=57 vol=64
Time=131505  Note on, chan=1 pitch=55 vol=40
Time=131528  Note on, chan=1 pitch=67 vol=39
Time=131718  Note off, chan=1 pitch=67 vol=64
Time=131734  Note off, chan=1 pitch=55 vol=64
Time=131768  Note on, chan=1 pitch=53 vol=45
Time=131769  Note on, chan=1 pitch=65 vol=37
Time=131974  Note off, chan=1 pitch=53 vol=64
Time=131984  Note off, chan=1 pitch=65 vol=64
Time=132001  Note on, chan=1 pitch=55 vol=42
Time=132011  Note on, chan=1 pitch=67 vol=35
Time=132216  Note off, chan=1 pitch=67 vol=64
Time=132243  Note on, chan=1 pitch=69 vol=34
Time=132249  Note on, chan=1 pitch=57 vol=33
Time=132266  Note off, chan=1 pitch=55 vol=64
Time=132431  Note off, chan=1 pitch=69 vol=64
Time=132471  Note off, chan=1 pitch=57 vol=64
Time=132492  Note on, chan=1 pitch=64 vol=41
Time=132495  Note on, chan=1 pitch=52 vol=47
Time=132684  Note off, chan=1 pitch=64 vol=64
Time=132712  Note off, chan=1 pitch=52 vol=64
Time=132716  Note on, chan=1 pitch=55 vol=39
Time=132737  Note on, chan=1 pitch=67 vol=40
Time=132931  Note off, chan=1 pitch=67 vol=64
Time=132936  Note off, chan=1 pitch=55 vol=64
Time=132962  Note on, chan=1 pitch=72 vol=44
Time=132966  Note on, chan=1 pitch=60 vol=36
Time=133158  Note off, chan=1 pitch=72 vol=64
Time=133200  Note on, chan=1 pitch=71 vol=36
Time=133215  Note on, chan=1 pitch=59 vol=31
Time=133220  Note off, chan=1 pitch=60 vol=64
Time=133426  Note off, chan=1 pitch=71 vol=64
Time=133428  Note off, chan=1 pitch=59 vol=64
Time=133440  Note on, chan=1 pitch=57 vol=45
Time=133465  Note on, chan=1 pitch=69 vol=39
Time=133637  Note off, chan=1 pitch=69 vol=64
Time=133669  Note off, chan=1 pitch=57 vol=64
Time=133688  Note on, chan=1 pitch=67 vol=40
Time=133703  Note on, chan=1 pitch=55 vol=47
Time=133916  Note off, chan=1 pitch=67 vol=64
Time=133931  Note on, chan=1 pitch=69 vol=39
Time=133935  Note on, chan=1 pitch=57 vol=42
Time=133939  Note off, chan=1 pitch=55 vol=64
Time=134136  Note off, chan=1 pitch=69 vol=64
Time=134172  Note on, chan=1 pitch=71 vol=36
Time=134186  Note on, chan=1 pitch=59 vol=35
Time=134253  Note off, chan=1 pitch=57 vol=64
Time=134364  Note off, chan=1 pitch=71 vol=64
Time=134407  Note off, chan=1 pitch=59 vol=64
Time=134427  Note on, chan=1 pitch=65 vol=39
Time=134448  Note on, chan=1 pitch=53 vol=42
Time=134602  Note off, chan=1 pitch=65 vol=64
Time=134661  Note on, chan=1 pitch=57 vol=43
Time=134667  Note off, chan=1 pitch=53 vol=64
Time=134673  Note on, chan=1 pitch=69 vol=44
Time=134850  Note off, chan=1 pitch=57 vol=64
Time=134865  Note off, chan=1 pitch=69 vol=64
Time=134890  Note on, chan=1 pitch=62 vol=40
Time=134898  Note on, chan=1 pitch=74 vol=54
Time=135099  Note off, chan=1 pitch=74 vol=64
Time=135122  Note off, chan=1 pitch=62 vol=64
Time=135129  Note on, chan=1 pitch=60 vol=36
Time=135135  Note on, chan=1 pitch=72 vol=32
Time=135330  Note off, chan=1 pitch=60 vol=64
Time=135333  Note off, chan=1 pitch=72 vol=64
Time=135343  Note on, chan=1 pitch=59 vol=42
Time=135390  Note on, chan=1 pitch=71 vol=29
Time=135560  Note off, chan=1 pitch=71 vol=64
Time=135575  Note off, chan=1 pitch=59 vol=64
Time=135612  Note on, chan=1 pitch=57 vol=46
Time=135626  Note on, chan=1 pitch=69 vol=33
Time=135801  Note off, chan=1 pitch=57 vol=64
Time=135803  Note off, chan=1 pitch=69 vol=64
Time=135821  Note on, chan=1 pitch=71 vol=40
Time=135825  Note on, chan=1 pitch=59 vol=44
Time=136046  Note off, chan=1 pitch=71 vol=64
Time=136063  Note on, chan=1 pitch=72 vol=40
Time=136085  Note on, chan=1 pitch=60 vol=29
Time=136094  Note off, chan=1 pitch=59 vol=64
Time=136245  Note off, chan=1 pitch=72 vol=64
Time=136277  Note off, chan=1 pitch=60 vol=64
Time=136312  Note on, chan=1 pitch=67 vol=44
Time=136316  Note on, chan=1 pitch=55 vol=51
Time=136507  Note off, chan=1 pitch=67 vol=64
Time=136510  Note off, chan=1 pitch=55 vol=64
Time=136521  Note on, chan=1 pitch=59 vol=44
Time=136550  Note on, chan=1 pitch=71 vol=40
Time=136756  Note off, chan=1 pitch=59 vol=64
Time=136761  Note off, chan=1 pitch=71 vol=64
Time=136793  Note on, chan=1 pitch=64 vol=40
Time=136805  Note on, chan=1 pitch=76 vol=47
Time=137000  Note off, chan=1 pitch=76 vol=64
Time=137035  Note off, chan=1 pitch=64 vol=64
Time=137037  Note on, chan=1 pitch=74 vol=41
Time=137040  Note on, chan=1 pitch=62 vol=35
Time=137243  Note off, chan=1 pitch=62 vol=64
Time=137246  Note off, chan=1 pitch=74 vol=64
Time=137255  Note on, chan=1 pitch=60 vol=49
Time=137279  Note on, chan=1 pitch=72 vol=42
Time=137465  Note off, chan=1 pitch=72 vol=64
Time=137504  Note off, chan=1 pitch=60 vol=64
Time=137514  Note on, chan=1 pitch=71 vol=40
Time=137530  Note on, chan=1 pitch=59 vol=40
Time=137726  Note off, chan=1 pitch=71 vol=64
Time=137732  Note off, chan=1 pitch=59 vol=64
Time=137738  Note on, chan=1 pitch=60 vol=44
Time=137753  Note on, chan=1 pitch=72 vol=41
Time=137984  Note off, chan=1 pitch=72 vol=64
Time=137995  Note on, chan=1 pitch=74 vol=46
Time=137999  Note on, chan=1 pitch=62 vol=32
Time=138015  Note off, chan=1 pitch=60 vol=64
Time=138191  Note off, chan=1 pitch=74 vol=64
Time=138217  Note off, chan=1 pitch=62 vol=64
Time=138234  Note on, chan=1 pitch=57 vol=52
Time=138249  Note on, chan=1 pitch=69 vol=51
Time=138427  Note off, chan=1 pitch=69 vol=64
Time=138450  Note off, chan=1 pitch=57 vol=64
Time=138459  Note on, chan=1 pitch=60 vol=40
Time=138485  Note on, chan=1 pitch=72 vol=42
Time=138650  Note off, chan=1 pitch=60 vol=64
Time=138699  Note off, chan=1 pitch=72 vol=64
Time=138708  Note on, chan=1 pitch=65 vol=36
Time=138734  Note on, chan=1 pitch=77 vol=44
Time=138932  Note off, chan=1 pitch=77 vol=64
Time=138942  Note off, chan=1 pitch=65 vol=64
Time=138964  Note on, chan=1 pitch=64 vol=32
Time=138966  Note on, chan=1 pitch=76 vol=40
Time=139160  Note off, chan=1 pitch=64 vol=64
Time=139178  Note on, chan=1 pitch=62 vol=39
Time=139181  Note off, chan=1 pitch=76 vol=64
Time=139214  Note on, chan=1 pitch=74 vol=36
Time=139402  Note off, chan=1 pitch=74 vol=64
Time=139406  Note off, chan=1 pitch=62 vol=64
Time=139449  Note on, chan=1 pitch=60 vol=40
Time=139457  Note on, chan=1 pitch=72 vol=39
Time=139637  Note off, chan=1 pitch=60 vol=64
Time=139668  Note on, chan=1 pitch=62 vol=37
Time=139671  Note off, chan=1 pitch=72 vol=64
Time=139691  Note on, chan=1 pitch=74 vol=36
Time=139907  Note off, chan=1 pitch=74 vol=64
Time=139914  Note on, chan=1 pitch=76 vol=42
Time=139923  Note on, chan=1 pitch=64 vol=37
Time=139926  Note off, chan=1 pitch=62 vol=64
Time=140100  Note off, chan=1 pitch=76 vol=64
Time=140128  Note off, chan=1 pitch=64 vol=64
Time=140159  Note on, chan=1 pitch=59 vol=41
Time=140186  Note on, chan=1 pitch=71 vol=32
Time=140367  Note off, chan=1 pitch=71 vol=64
Time=140376  Note off, chan=1 pitch=59 vol=64
Time=140385  Note on, chan=1 pitch=62 vol=36
Time=140390  Note on, chan=1 pitch=74 vol=44
Time=140580  Note off, chan=1 pitch=62 vol=64
Time=140619  Note off, chan=1 pitch=74 vol=64
Time=140637  Note on, chan=1 pitch=67 vol=45
Time=140643  Note on, chan=1 pitch=79 vol=51
Time=140838  Note off, chan=1 pitch=79 vol=64
Time=140888  Note on, chan=1 pitch=77 vol=44
Time=140893  Note off, chan=1 pitch=67 vol=64
Time=140898  Note on, chan=1 pitch=65 vol=38
Time=141090  Note off, chan=1 pitch=77 vol=64
Time=141111  Note off, chan=1 pitch=65 vol=64
Time=141117  Note on, chan=1 pitch=64 vol=47
Time=141132  Note on, chan=1 pitch=76 vol=45
Time=141324  Note off, chan=1 pitch=76 vol=64
Time=141348  Note off, chan=1 pitch=64 vol=64
Time=141372  Note on, chan=1 pitch=74 vol=41
Time=141380  Note on, chan=1 pitch=62 vol=41
Time=141584  Note off, chan=1 pitch=74 vol=64
Time=141612  Note on, chan=1 pitch=76 vol=39
Time=141623  Note on, chan=1 pitch=64 vol=40
Time=141630  Note off, chan=1 pitch=62 vol=64
Time=141858  Note on, chan=1 pitch=77 vol=42
Time=141871  Note off, chan=1 pitch=76 vol=64
Time=141882  Note on, chan=1 pitch=65 vol=33
Time=141891  Note off, chan=1 pitch=64 vol=64
Time=142034  Note off, chan=1 pitch=77 vol=64
Time=142046  Note off, chan=1 pitch=65 vol=64
Time=142089  Note on, chan=1 pitch=79 vol=44
Time=142102  Note on, chan=1 pitch=67 vol=45
Time=142336  Note on, chan=1 pitch=62 vol=45
Time=142340  Note off, chan=1 pitch=79 vol=64
Time=142348  Note off, chan=1 pitch=67 vol=64
Time=142356  Note on, chan=1 pitch=74 vol=43
Time=142550  Note off, chan=1 pitch=74 vol=64
Time=142575  Note on, chan=1 pitch=59 vol=51
Time=142577  Note on, chan=1 pitch=71 vol=45
Time=142583  Note off, chan=1 pitch=62 vol=64
Time=142799  Note off, chan=1 pitch=59 vol=64
Time=142807  Note off, chan=1 pitch=71 vol=64
Time=142841  Note on, chan=1 pitch=60 vol=44
Time=142842  Note on, chan=1 pitch=72 vol=42
Time=143018  Note off, chan=1 pitch=60 vol=64
Time=143046  Note on, chan=1 pitch=62 vol=47
Time=143057  Note off, chan=1 pitch=72 vol=64
Time=143076  Note on, chan=1 pitch=74 vol=41
Time=143250  Note off, chan=1 pitch=62 vol=64
Time=143277  Note off, chan=1 pitch=74 vol=64
Time=143313  Note on, chan=1 pitch=76 vol=36
Time=143329  Note on, chan=1 pitch=64 vol=39
Time=143534  Note off, chan=1 pitch=76 vol=64
Time=143546  Note on, chan=1 pitch=62 vol=32
Time=143547  Note off, chan=1 pitch=64 vol=64
Time=143553  Note on, chan=1 pitch=74 vol=39
Time=143735  Note off, chan=1 pitch=62 vol=64
Time=143769  Note off, chan=1 pitch=74 vol=64
Time=143778  Note on, chan=1 pitch=60 vol=49
Time=143793  Note on, chan=1 pitch=72 vol=45
Time=143955  Note off, chan=1 pitch=60 vol=64
Time=144001  Note off, chan=1 pitch=72 vol=64
Time=144027  Note on, chan=1 pitch=77 vol=46
Time=144035  Note on, chan=1 pitch=65 vol=47
Time=144266  Note off, chan=1 pitch=77 vol=64
Time=144270  Note on, chan=1 pitch=60 vol=40
Time=144290  Note on, chan=1 pitch=72 vol=41
Time=144307  Note off, chan=1 pitch=65 vol=64
Time=144474  Note off, chan=1 pitch=72 vol=64
Time=144506  Note off, chan=1 pitch=60 vol=64
Time=144513  Note on, chan=1 pitch=69 vol=52
Time=144518  Note on, chan=1 pitch=57 vol=52
Time=144711  Note off, chan=1 pitch=57 vol=64
Time=144714  Note off, chan=1 pitch=69 vol=64
Time=144751  Note on, chan=1 pitch=71 vol=41
Time=144771  Note on, chan=1 pitch=59 vol=49
Time=144956  Note off, chan=1 pitch=59 vol=64
Time=144969  Note off, chan=1 pitch=71 vol=64
Time=144985  Note on, chan=1 pitch=60 vol=43
Time=144986  Note on, chan=1 pitch=72 vol=48
Time=145191  Note off, chan=1 pitch=72 vol=64
Time=145194  Note off, chan=1 pitch=60 vol=64
Time=145223  Note on, chan=1 pitch=74 vol=37
Time=145239  Note on, chan=1 pitch=62 vol=42
Time=145439  Note on, chan=1 pitch=60 vol=43
Time=145440  Note off, chan=1 pitch=62 vol=64
Time=145444  Note off, chan=1 pitch=74 vol=64
Time=145451  Note on, chan=1 pitch=72 vol=47
Time=145653  Note off, chan=1 pitch=60 vol=64
Time=145677  Note off, chan=1 pitch=72 vol=64
Time=145695  Note on, chan=1 pitch=59 vol=44
Time=145698  Note on, chan=1 pitch=71 vol=43
Time=145860  Note off, chan=1 pitch=59 vol=64
Time=145881  Note off, chan=1 pitch=71 vol=64
Time=145923  Note on, chan=1 pitch=64 vol=50
Time=145947  Note on, chan=1 pitch=76 vol=46
Time=146172  Note on, chan=1 pitch=59 vol=43
Time=146184  Note off, chan=1 pitch=64 vol=64
Time=146195  Note off, chan=1 pitch=76 vol=64
Time=146198  Note on, chan=1 pitch=71 vol=40
Time=146371  Note off, chan=1 pitch=71 vol=64
Time=146400  Note off, chan=1 pitch=59 vol=64
Time=146411  Note on, chan=1 pitch=55 vol=45
Time=146426  Note on, chan=1 pitch=67 vol=44
Time=146616  Note off, chan=1 pitch=67 vol=64
Time=146624  Note off, chan=1 pitch=55 vol=64
Time=146656  Note on, chan=1 pitch=57 vol=47
Time=146658  Note on, chan=1 pitch=69 vol=45
Time=146852  Note off, chan=1 pitch=57 vol=64
Time=146855  Note off, chan=1 pitch=69 vol=64
Time=146880  Note on, chan=1 pitch=59 vol=49
Time=146896  Note on, chan=1 pitch=71 vol=44
Time=147081  Note off, chan=1 pitch=59 vol=64
Time=147090  Note off, chan=1 pitch=71 vol=64
Time=147133  Note on, chan=1 pitch=72 vol=40
Time=147138  Note on, chan=1 pitch=60 vol=42
Time=147353  Note off, chan=1 pitch=60 vol=64
Time=147363  Note off, chan=1 pitch=72 vol=64
Time=147375  Note on, chan=1 pitch=59 vol=33
Time=147377  Note on, chan=1 pitch=71 vol=40
Time=147559  Note off, chan=1 pitch=59 vol=64
Time=147584  Note off, chan=1 pitch=71 vol=64
Time=147596  Note on, chan=1 pitch=57 vol=47
Time=147605  Note on, chan=1 pitch=69 vol=48
Time=147752  Note off, chan=1 pitch=57 vol=64
Time=147795  Note off, chan=1 pitch=69 vol=64
Time=147824  Note on, chan=1 pitch=62 vol=41
Time=147855  Note on, chan=1 pitch=74 vol=43
Time=148079  Note on, chan=1 pitch=57 vol=38
Time=148094  Note off, chan=1 pitch=74 vol=64
Time=148097  Note off, chan=1 pitch=62 vol=64
Time=148098  Note on, chan=1 pitch=69 vol=40
Time=148278  Note off, chan=1 pitch=69 vol=64
Time=148309  Note off, chan=1 pitch=57 vol=64
Time=148332  Note on, chan=1 pitch=65 vol=38
Time=148335  Note on, chan=1 pitch=53 vol=41
Time=148509  Note off, chan=1 pitch=65 vol=64
Time=148541  Note off, chan=1 pitch=53 vol=64
Time=148574  Note on, chan=1 pitch=67 vol=36
Time=148587  Note on, chan=1 pitch=55 vol=42
Time=148766  Note off, chan=1 pitch=55 vol=64
Time=148772  Note off, chan=1 pitch=67 vol=64
Time=148803  Note on, chan=1 pitch=57 vol=54
Time=148811  Note on, chan=1 pitch=69 vol=44
Time=148998  Note off, chan=1 pitch=57 vol=64
Time=149004  Note off, chan=1 pitch=69 vol=64
Time=149055  Note on, chan=1 pitch=71 vol=35
Time=149064  Note on, chan=1 pitch=59 vol=29
Time=149246  Note off, chan=1 pitch=71 vol=64
Time=149283  Note off, chan=1 pitch=59 vol=64
Time=149289  Note on, chan=1 pitch=69 vol=45
Time=149300  Note on, chan=1 pitch=57 vol=44
Time=149469  Note off, chan=1 pitch=69 vol=64
Time=149504  Note off, chan=1 pitch=57 vol=64
Time=149534  Note on, chan=1 pitch=67 vol=44
Time=149537  Note on, chan=1 pitch=55 vol=47
Time=149690  Note off, chan=1 pitch=55 vol=64
Time=149719  Note off, chan=1 pitch=67 vol=64
Time=149765  Note on, chan=1 pitch=60 vol=45
Time=149792  Note on, chan=1 pitch=72 vol=38
Time=149991  Note off, chan=1 pitch=72 vol=64
Time=149994  Note on, chan=1 pitch=55 vol=36
Time=150020  Note on, chan=1 pitch=67 vol=47
Time=150041  Note off, chan=1 pitch=60 vol=64
Time=150212  Note off, chan=1 pitch=67 vol=64
Time=150228  Note off, chan=1 pitch=55 vol=64
Time=150254  Note on, chan=1 pitch=52 vol=42
Time=150273  Note on, chan=1 pitch=64 vol=40
Time=150467  Note off, chan=1 pitch=64 vol=64
Time=150482  Note off, chan=1 pitch=52 vol=64
Time=150500  Note on, chan=1 pitch=53 vol=47
Time=150501  Note on, chan=1 pitch=65 vol=43
Time=150694  Note off, chan=1 pitch=65 vol=64
Time=150714  Note off, chan=1 pitch=53 vol=64
Time=150731  Note on, chan=1 pitch=67 vol=40
Time=150750  Note on, chan=1 pitch=55 vol=36
Time=150936  Note off, chan=1 pitch=67 vol=64
Time=150941  Note off, chan=1 pitch=55 vol=64
Time=150977  Note on, chan=1 pitch=69 vol=40
Time=150993  Note on, chan=1 pitch=57 vol=42
Time=151199  Note off, chan=1 pitch=69 vol=64
Time=151202  Note off, chan=1 pitch=57 vol=64
Time=151204  Note on, chan=1 pitch=55 vol=44
Time=151224  Note on, chan=1 pitch=67 vol=38
Time=151400  Note off, chan=1 pitch=55 vol=64
Time=151430  Note off, chan=1 pitch=67 vol=64
Time=151451  Note on, chan=1 pitch=53 vol=43
Time=151467  Note on, chan=1 pitch=65 vol=40
Time=151599  Note off, chan=1 pitch=53 vol=64
Time=151631  Note off, chan=1 pitch=65 vol=64
Time=151668  Note on, chan=1 pitch=59 vol=40
Time=151713  Note on, chan=1 pitch=71 vol=29
Time=151933  Note on, chan=1 pitch=53 vol=39
Time=151936  Note off, chan=1 pitch=59 vol=64
Time=151938  Note on, chan=1 pitch=65 vol=40
Time=151941  Note off, chan=1 pitch=71 vol=64
Time=152135  Note off, chan=1 pitch=65 vol=64
Time=152151  Note off, chan=1 pitch=53 vol=64
Time=152175  Note on, chan=1 pitch=62 vol=45
Time=152178  Note on, chan=1 pitch=50 vol=41
Time=152369  Note off, chan=1 pitch=62 vol=64
Time=152375  Note off, chan=1 pitch=50 vol=64
Time=152417  Note on, chan=1 pitch=64 vol=33
Time=152429  Note on, chan=1 pitch=52 vol=43
Time=152621  Note off, chan=1 pitch=64 vol=64
Time=152634  Note off, chan=1 pitch=52 vol=64
Time=152661  Note on, chan=1 pitch=65 vol=48
Time=152674  Note on, chan=1 pitch=53 vol=36
Time=152853  Note off, chan=1 pitch=65 vol=64
Time=152877  Note off, chan=1 pitch=53 vol=64
Time=152913  Note on, chan=1 pitch=67 vol=35
Time=152928  Note on, chan=1 pitch=55 vol=36
Time=153129  Note off, chan=1 pitch=67 vol=64
Time=153140  Note off, chan=1 pitch=55 vol=64
Time=153146  Note on, chan=1 pitch=53 vol=32
Time=153164  Note on, chan=1 pitch=65 vol=47
Time=153359  Note off, chan=1 pitch=65 vol=64
Time=153379  Note off, chan=1 pitch=53 vol=64
Time=153401  Note on, chan=1 pitch=52 vol=45
Time=153405  Note on, chan=1 pitch=64 vol=40
Time=153583  Note off, chan=1 pitch=52 vol=64
Time=153591  Note off, chan=1 pitch=64 vol=64
Time=153626  Note on, chan=1 pitch=57 vol=43
Time=153654  Note on, chan=1 pitch=69 vol=40
Time=153879  Note off, chan=1 pitch=57 vol=64
Time=153882  Note off, chan=1 pitch=69 vol=64
Time=153888  Note on, chan=1 pitch=52 vol=36
Time=153896  Note on, chan=1 pitch=64 vol=34
Time=154076  Note off, chan=1 pitch=64 vol=64
Time=154119  Note off, chan=1 pitch=52 vol=64
Time=154133  Note on, chan=1 pitch=60 vol=39
Time=154141  Note on, chan=1 pitch=48 vol=45
Time=154314  Note off, chan=1 pitch=60 vol=64
Time=154317  Note off, chan=1 pitch=48 vol=64
Time=154361  Note on, chan=1 pitch=62 vol=41
Time=154373  Note on, chan=1 pitch=50 vol=43
Time=154562  Note off, chan=1 pitch=62 vol=64
Time=154586  Note off, chan=1 pitch=50 vol=64
Time=154615  Note on, chan=1 pitch=64 vol=39
Time=154631  Note on, chan=1 pitch=52 vol=40
Time=154796  Note off, chan=1 pitch=64 vol=64
Time=154815  Note off, chan=1 pitch=52 vol=64
Time=154846  Note on, chan=1 pitch=65 vol=40
Time=154856  Note on, chan=1 pitch=53 vol=44
Time=155043  Note off, chan=1 pitch=65 vol=64
Time=155067  Note off, chan=1 pitch=53 vol=64
Time=155078  Note on, chan=1 pitch=64 vol=38
Time=155081  Note on, chan=1 pitch=52 vol=37
Time=155283  Note off, chan=1 pitch=52 vol=64
Time=155292  Note off, chan=1 pitch=64 vol=64
Time=155319  Note on, chan=1 pitch=50 vol=49
Time=155327  Note on, chan=1 pitch=62 vol=36
Time=155461  Note off, chan=1 pitch=50 vol=64
Time=155481  Note off, chan=1 pitch=62 vol=64
Time=155520  Note on, chan=1 pitch=55 vol=41
Time=155550  Note on, chan=1 pitch=67 vol=44
Time=155768  Note off, chan=1 pitch=55 vol=64
Time=155775  Note on, chan=1 pitch=50 vol=39
Time=155778  Note off, chan=1 pitch=67 vol=64
Time=155792  Note on, chan=1 pitch=62 vol=38
Time=155961  Note off, chan=1 pitch=62 vol=64
Time=155999  Note off, chan=1 pitch=50 vol=64
Time=156030  Note on, chan=1 pitch=59 vol=37
Time=156039  Note on, chan=1 pitch=47 vol=34
Time=156212  Note off, chan=1 pitch=59 vol=64
Time=156218  Note off, chan=1 pitch=47 vol=64
Time=156267  Note on, chan=1 pitch=60 vol=34
Time=156274  Note on, chan=1 pitch=48 vol=36
Time=156468  Note off, chan=1 pitch=60 vol=64
Time=156473  Note off, chan=1 pitch=48 vol=64
Time=156495  Note on, chan=1 pitch=50 vol=42
Time=156507  Note on, chan=1 pitch=62 vol=40
Time=156680  Note off, chan=1 pitch=62 vol=64
Time=156695  Note off, chan=1 pitch=50 vol=64
Time=156745  Note on, chan=1 pitch=64 vol=38
Time=156755  Note on, chan=1 pitch=52 vol=39
Time=156939  Note off, chan=1 pitch=64 vol=64
Time=156964  Note off, chan=1 pitch=52 vol=64
Time=156967  Note on, chan=1 pitch=50 vol=39
Time=156982  Note on, chan=1 pitch=62 vol=40
Time=157173  Note off, chan=1 pitch=62 vol=64
Time=157176  Note off, chan=1 pitch=50 vol=64
Time=157200  Note on, chan=1 pitch=48 vol=45
Time=157220  Note on, chan=1 pitch=60 vol=36
Time=157370  Note off, chan=1 pitch=48 vol=64
Time=157379  Note off, chan=1 pitch=60 vol=64
Time=157434  Note on, chan=1 pitch=53 vol=42
Time=157463  Note on, chan=1 pitch=65 vol=35
Time=157694  Note off, chan=1 pitch=53 vol=64
Time=157707  Note on, chan=1 pitch=60 vol=39
Time=157710  Note on, chan=1 pitch=48 vol=41
Time=157725  Note off, chan=1 pitch=65 vol=64
Time=157900  Note off, chan=1 pitch=60 vol=64
Time=157935  Note off, chan=1 pitch=48 vol=64
Time=157957  Note on, chan=1 pitch=45 vol=44
Time=157961  Note on, chan=1 pitch=57 vol=43
Time=158139  Note off, chan=1 pitch=57 vol=64
Time=158141  Note off, chan=1 pitch=45 vol=64
Time=158182  Note on, chan=1 pitch=59 vol=41
Time=158214  Note on, chan=1 pitch=47 vol=32
Time=158386  Note off, chan=1 pitch=47 vol=64
Time=158388  Note off, chan=1 pitch=59 vol=64
Time=158423  Note on, chan=1 pitch=60 vol=39
Time=158426  Note on, chan=1 pitch=48 vol=54
Time=158592  Note off, chan=1 pitch=60 vol=64
Time=158630  Note off, chan=1 pitch=48 vol=64
Time=158651  Note on, chan=1 pitch=62 vol=39
Time=158659  Note on, chan=1 pitch=50 vol=40
Time=158840  Note off, chan=1 pitch=62 vol=64
Time=158872  Note off, chan=1 pitch=50 vol=64
Time=158889  Note on, chan=1 pitch=60 vol=42
Time=158891  Note on, chan=1 pitch=48 vol=46
Time=159086  Note off, chan=1 pitch=48 vol=64
Time=159088  Note off, chan=1 pitch=60 vol=64
Time=159119  Note on, chan=1 pitch=47 vol=41
Time=159127  Note on, chan=1 pitch=59 vol=36
Time=159272  Note off, chan=1 pitch=47 vol=64
Time=159299  Note off, chan=1 pitch=59 vol=64
Time=159349  Note on, chan=1 pitch=52 vol=36
Time=159375  Note on, chan=1 pitch=64 vol=36
Time=159596  Note off, chan=1 pitch=64 vol=64
Time=159598  Note on, chan=1 pitch=59 vol=36
Time=159609  Note on, chan=1 pitch=47 vol=36
Time=159615  Note off, chan=1 pitch=52 vol=64
Time=159774  Note off, chan=1 pitch=59 vol=64
Time=159807  Note off, chan=1 pitch=47 vol=64
Time=159820  Note on, chan=1 pitch=55 vol=41
Time=159841  Note on, chan=1 pitch=43 vol=37
Time=160005  Note off, chan=1 pitch=43 vol=64
Time=160010  Note off, chan=1 pitch=55 vol=64
Time=160056  Note on, chan=1 pitch=57 vol=42
Time=160082  Note on, chan=1 pitch=45 vol=36
Time=160259  Note off, chan=1 pitch=57 vol=64
Time=160272  Note off, chan=1 pitch=45 vol=64
Time=160298  Note on, chan=1 pitch=59 vol=39
Time=160314  Note on, chan=1 pitch=47 vol=40
Time=160496  Note off, chan=1 pitch=59 vol=64
Time=160550  Note on, chan=1 pitch=60 vol=38
Time=160586  Note off, chan=1 pitch=47 vol=64
Time=160592  Note on, chan=1 pitch=48 vol=64
Time=160767  Note off, chan=1 pitch=60 vol=64
Time=160821  Note on, chan=1 pitch=59 vol=40
Time=160851  Note on, chan=1 pitch=47 vol=36
Time=160854  Note off, chan=1 pitch=48 vol=64
Time=161022  Note off, chan=1 pitch=47 vol=64
Time=161034  Note off, chan=1 pitch=59 vol=64
Time=161051  Note on, chan=1 pitch=57 vol=45
Time=161074  Note on, chan=1 pitch=45 vol=45
Time=161138  Note off, chan=1 pitch=45 vol=64
Time=161233  Note off, chan=1 pitch=57 vol=64
Time=161283  Note on, chan=1 pitch=50 vol=40
Time=161297  Note on, chan=1 pitch=62 vol=55
Time=161527  Note on, chan=1 pitch=57 vol=40
Time=161529  Note off, chan=1 pitch=62 vol=64
Time=161535  Note off, chan=1 pitch=50 vol=64
Time=161561  Note on, chan=1 pitch=45 vol=31
Time=161726  Note off, chan=1 pitch=57 vol=64
Time=161748  Note off, chan=1 pitch=45 vol=64
Time=161772  Note on, chan=1 pitch=53 vol=39
Time=161778  Note on, chan=1 pitch=41 vol=40
Time=161931  Note off, chan=1 pitch=41 vol=64
Time=161945  Note off, chan=1 pitch=53 vol=64
Time=161988  Note on, chan=1 pitch=55 vol=43
Time=162017  Note on, chan=1 pitch=43 vol=38
Time=162200  Note off, chan=1 pitch=43 vol=64
Time=162203  Note off, chan=1 pitch=55 vol=64
Time=162240  Note on, chan=1 pitch=57 vol=46
Time=162248  Note on, chan=1 pitch=45 vol=47
Time=162415  Note off, chan=1 pitch=57 vol=64
Time=162449  Note off, chan=1 pitch=45 vol=64
Time=162479  Note on, chan=1 pitch=59 vol=39
Time=162495  Note on, chan=1 pitch=47 vol=52
Time=162678  Note off, chan=1 pitch=59 vol=64
Time=162701  Note off, chan=1 pitch=47 vol=64
Time=162717  Note on, chan=1 pitch=45 vol=29
Time=162722  Note on, chan=1 pitch=57 vol=45
Time=162896  Note off, chan=1 pitch=45 vol=64
Time=162916  Note off, chan=1 pitch=57 vol=64
Time=162945  Note on, chan=1 pitch=43 vol=45
Time=162950  Note on, chan=1 pitch=55 vol=46
Time=163097  Note off, chan=1 pitch=43 vol=64
Time=163120  Note off, chan=1 pitch=55 vol=64
Time=163167  Note on, chan=1 pitch=48 vol=40
Time=163186  Note on, chan=1 pitch=60 vol=40
Time=163394  Note off, chan=1 pitch=60 vol=64
Time=163409  Note on, chan=1 pitch=43 vol=37
Time=163421  Note on, chan=1 pitch=55 vol=46
Time=163436  Note off, chan=1 pitch=48 vol=64
Time=163596  Note off, chan=1 pitch=55 vol=64
Time=163629  Note off, chan=1 pitch=43 vol=64
Time=163654  Note on, chan=1 pitch=40 vol=40
Time=163679  Note on, chan=1 pitch=52 vol=43
Time=163831  Note off, chan=1 pitch=40 vol=64
Time=163863  Note off, chan=1 pitch=52 vol=64
Time=163898  Note on, chan=1 pitch=53 vol=44
Time=163902  Note on, chan=1 pitch=41 vol=39
Time=164093  Note off, chan=1 pitch=41 vol=64
Time=164115  Note off, chan=1 pitch=53 vol=64
Time=164132  Note on, chan=1 pitch=43 vol=40
Time=164145  Note on, chan=1 pitch=55 vol=43
Time=164329  Note off, chan=1 pitch=55 vol=64
Time=164336  Note off, chan=1 pitch=43 vol=64
Time=164391  Note on, chan=1 pitch=57 vol=39
Time=164400  Note on, chan=1 pitch=45 vol=42
Time=164600  Note off, chan=1 pitch=57 vol=64
Time=164625  Note on, chan=1 pitch=55 vol=40
Time=164628  Note on, chan=1 pitch=43 vol=32
Time=164630  Note off, chan=1 pitch=45 vol=64
Time=164815  Note off, chan=1 pitch=43 vol=64
Time=164837  Note off, chan=1 pitch=55 vol=64
Time=164865  Note on, chan=1 pitch=41 vol=40
Time=164868  Note on, chan=1 pitch=53 vol=44
Time=165019  Note off, chan=1 pitch=41 vol=64
Time=165048  Note off, chan=1 pitch=53 vol=64
Time=165109  Note on, chan=1 pitch=47 vol=36
Time=165116  Note on, chan=1 pitch=59 vol=46
Time=165346  Note on, chan=1 pitch=53 vol=40
Time=165354  Note on, chan=1 pitch=41 vol=33
Time=165366  Note off, chan=1 pitch=47 vol=64
Time=165371  Note off, chan=1 pitch=59 vol=64
Time=165530  Note off, chan=1 pitch=53 vol=64
Time=165554  Note off, chan=1 pitch=41 vol=64
Time=165594  Note on, chan=1 pitch=38 vol=22
Time=165595  Note on, chan=1 pitch=50 vol=41
Time=165767  Note off, chan=1 pitch=38 vol=64
Time=165786  Note off, chan=1 pitch=50 vol=64
Time=165806  Note on, chan=1 pitch=40 vol=43
Time=165837  Note on, chan=1 pitch=52 vol=47
Time=165987  Note off, chan=1 pitch=40 vol=64
Time=166047  Note off, chan=1 pitch=52 vol=64
Time=166049  Note on, chan=1 pitch=41 vol=33
Time=166056  Note on, chan=1 pitch=53 vol=51
Time=166238  Note off, chan=1 pitch=53 vol=64
Time=166253  Note off, chan=1 pitch=41 vol=64
Time=166296  Note on, chan=1 pitch=55 vol=42
Time=166311  Note on, chan=1 pitch=43 vol=40
Time=166515  Note off, chan=1 pitch=55 vol=64
Time=166535  Note off, chan=1 pitch=43 vol=64
Time=166542  Note on, chan=1 pitch=41 vol=37
Time=166554  Note on, chan=1 pitch=53 vol=44
Time=166730  Note off, chan=1 pitch=41 vol=64
Time=166760  Note off, chan=1 pitch=53 vol=64
Time=166790  Note on, chan=1 pitch=40 vol=44
Time=166794  Note on, chan=1 pitch=52 vol=42
Time=166928  Note off, chan=1 pitch=40 vol=64
Time=166958  Note off, chan=1 pitch=52 vol=64
Time=167012  Note on, chan=1 pitch=45 vol=45
Time=167019  Note on, chan=1 pitch=57 vol=50
Time=167261  Note on, chan=1 pitch=52 vol=40
Time=167263  Note on, chan=1 pitch=40 vol=38
Time=167268  Note off, chan=1 pitch=57 vol=64
Time=167328  Note off, chan=1 pitch=45 vol=64
Time=167448  Note off, chan=1 pitch=40 vol=64
Time=167459  Note off, chan=1 pitch=52 vol=64
Time=167472  Note on, chan=1 pitch=36 vol=46
Time=167508  Note on, chan=1 pitch=48 vol=47
Time=167666  Note off, chan=1 pitch=36 vol=64
Time=167694  Note off, chan=1 pitch=48 vol=64
Time=167748  Note on, chan=1 pitch=50 vol=36
Time=167768  Note on, chan=1 pitch=38 vol=36
Time=167937  Note off, chan=1 pitch=38 vol=64
Time=167975  Note off, chan=1 pitch=50 vol=64
Time=167997  Note on, chan=1 pitch=40 vol=37
Time=168010  Note on, chan=1 pitch=52 vol=40
Time=168202  Note off, chan=1 pitch=52 vol=64
Time=168206  Note off, chan=1 pitch=40 vol=64
Time=168248  Note on, chan=1 pitch=53 vol=47
Time=168266  Note on, chan=1 pitch=41 vol=36
Time=168461  Note off, chan=1 pitch=53 vol=64
Time=168480  Note off, chan=1 pitch=41 vol=64
Time=168488  Note on, chan=1 pitch=40 vol=37
Time=168489  Note on, chan=1 pitch=52 vol=50
Time=168701  Note off, chan=1 pitch=40 vol=64
Time=168722  Note off, chan=1 pitch=52 vol=64
Time=168723  Note on, chan=1 pitch=38 vol=42
Time=168728  Note on, chan=1 pitch=50 vol=45
Time=168902  Note off, chan=1 pitch=38 vol=64
Time=168923  Note off, chan=1 pitch=50 vol=64
Time=168977  Note on, chan=1 pitch=36 vol=42
Time=168981  Note on, chan=1 pitch=48 vol=45
Time=170568  Note off, chan=1 pitch=36 vol=64
Time=170595  Note off, chan=1 pitch=48 vol=64
Time=170859  Note on, chan=1 pitch=36 vol=49
Time=170867  Note on, chan=1 pitch=48 vol=45
Time=171057  Note off, chan=1 pitch=36 vol=64
Time=171068  Note off, chan=1 pitch=48 vol=64
Time=171091  Note on, chan=1 pitch=38 vol=40
Time=171104  Note on, chan=1 pitch=50 vol=41
Time=171282  Note off, chan=1 pitch=38 vol=64
Time=171325  Note off, chan=1 pitch=50 vol=64
Time=171340  Note on, chan=1 pitch=36 vol=47
Time=171365  Note on, chan=1 pitch=48 vol=45
Time=171556  Note off, chan=1 pitch=36 vol=64
Time=171558  Note off, chan=1 pitch=48 vol=64
Time=171567  Note on, chan=1 pitch=40 vol=42
Time=171607  Note on, chan=1 pitch=52 vol=38
Time=171757  Note off, chan=1 pitch=40 vol=64
Time=171818  Note off, chan=1 pitch=52 vol=64
Time=171830  Note on, chan=1 pitch=45 vol=50
Time=171845  Note on, chan=1 pitch=57 vol=52
Time=172047  Note off, chan=1 pitch=57 vol=64
Time=172063  Note off, chan=1 pitch=45 vol=64
Time=172086  Note on, chan=1 pitch=55 vol=43
Time=172092  Note on, chan=1 pitch=43 vol=34
Time=172286  Note off, chan=1 pitch=43 vol=64
Time=172289  Note off, chan=1 pitch=55 vol=64
Time=172310  Note on, chan=1 pitch=41 vol=40
Time=172325  Note on, chan=1 pitch=53 vol=44
Time=172496  Note off, chan=1 pitch=41 vol=64
Time=172545  Note off, chan=1 pitch=53 vol=64
Time=172547  Note on, chan=1 pitch=40 vol=40
Time=172555  Note on, chan=1 pitch=52 vol=44
Time=172754  Note off, chan=1 pitch=40 vol=64
Time=172764  Note off, chan=1 pitch=52 vol=64
Time=172800  Note on, chan=1 pitch=50 vol=35
Time=172815  Note on, chan=1 pitch=38 vol=41
Time=172977  Note off, chan=1 pitch=50 vol=64
Time=173001  Note off, chan=1 pitch=38 vol=64
Time=173023  Note on, chan=1 pitch=52 vol=40
Time=173034  Note on, chan=1 pitch=40 vol=42
Time=173205  Note off, chan=1 pitch=40 vol=64
Time=173232  Note off, chan=1 pitch=52 vol=64
Time=173254  Note on, chan=1 pitch=38 vol=45
Time=173255  Note on, chan=1 pitch=50 vol=40
Time=173426  Note off, chan=1 pitch=50 vol=64
Time=173474  Note off, chan=1 pitch=38 vol=64
Time=173489  Note on, chan=1 pitch=41 vol=50
Time=173490  Note on, chan=1 pitch=53 vol=45
Time=173678  Note off, chan=1 pitch=41 vol=64
Time=173693  Note off, chan=1 pitch=53 vol=64
Time=173724  Note on, chan=1 pitch=59 vol=55
Time=173726  Note on, chan=1 pitch=47 vol=49
Time=173929  Note off, chan=1 pitch=59 vol=64
Time=173940  Note off, chan=1 pitch=47 vol=64
Time=173960  Note on, chan=1 pitch=57 vol=40
Time=173973  Note on, chan=1 pitch=45 vol=33
Time=174180  Note off, chan=1 pitch=57 vol=64
Time=174191  Note off, chan=1 pitch=45 vol=64
Time=174202  Note on, chan=1 pitch=43 vol=55
Time=174216  Note on, chan=1 pitch=55 vol=41
Time=174411  Note off, chan=1 pitch=43 vol=64
Time=174437  Note off, chan=1 pitch=55 vol=64
Time=174452  Note on, chan=1 pitch=41 vol=40
Time=174461  Note on, chan=1 pitch=53 vol=40
Time=174634  Note off, chan=1 pitch=41 vol=64
Time=174684  Note off, chan=1 pitch=53 vol=64
Time=174701  Note on, chan=1 pitch=40 vol=41
Time=174716  Note on, chan=1 pitch=52 vol=44
Time=174900  Note off, chan=1 pitch=52 vol=64
Time=174924  Note off, chan=1 pitch=40 vol=64
Time=174945  Note on, chan=1 pitch=53 vol=42
Time=174954  Note on, chan=1 pitch=41 vol=39
Time=175138  Note off, chan=1 pitch=41 vol=64
Time=175158  Note off, chan=1 pitch=53 vol=64
Time=175187  Note on, chan=1 pitch=40 vol=36
Time=175199  Note on, chan=1 pitch=52 vol=40
Time=175382  Note off, chan=1 pitch=52 vol=64
Time=175419  Note off, chan=1 pitch=40 vol=64
Time=175457  Note on, chan=1 pitch=43 vol=41
Time=175458  Note on, chan=1 pitch=55 vol=36
Time=175629  Note off, chan=1 pitch=43 vol=64
Time=175649  Note off, chan=1 pitch=55 vol=64
Time=175676  Note on, chan=1 pitch=48 vol=49
Time=175689  Note on, chan=1 pitch=60 vol=51
Time=175877  Note off, chan=1 pitch=60 vol=64
Time=175889  Note off, chan=1 pitch=48 vol=64
Time=175914  Note on, chan=1 pitch=59 vol=42
Time=175918  Note on, chan=1 pitch=47 vol=31
Time=176110  Note off, chan=1 pitch=47 vol=64
Time=176129  Note off, chan=1 pitch=59 vol=64
Time=176132  Note on, chan=1 pitch=45 vol=47
Time=176171  Note on, chan=1 pitch=57 vol=38
Time=176363  Note off, chan=1 pitch=45 vol=64
Time=176379  Note off, chan=1 pitch=57 vol=64
Time=176396  Note on, chan=1 pitch=55 vol=45
Time=176399  Note on, chan=1 pitch=43 vol=42
Time=176598  Note off, chan=1 pitch=43 vol=64
Time=176606  Note off, chan=1 pitch=55 vol=64
Time=176640  Note on, chan=1 pitch=53 vol=46
Time=176648  Note on, chan=1 pitch=41 vol=40
Time=176846  Note off, chan=1 pitch=53 vol=64
Time=176874  Note off, chan=1 pitch=41 vol=64
Time=176876  Note on, chan=1 pitch=55 vol=43
Time=176895  Note on, chan=1 pitch=43 vol=42
Time=177075  Note off, chan=1 pitch=43 vol=64
Time=177084  Note off, chan=1 pitch=55 vol=64
Time=177120  Note on, chan=1 pitch=53 vol=37
Time=177122  Note on, chan=1 pitch=41 vol=40
Time=177300  Note off, chan=1 pitch=53 vol=64
Time=177345  Note off, chan=1 pitch=41 vol=64
Time=177360  Note on, chan=1 pitch=45 vol=44
Time=177384  Note on, chan=1 pitch=57 vol=43
Time=177536  Note off, chan=1 pitch=45 vol=64
Time=177561  Note off, chan=1 pitch=57 vol=64
Time=177595  Note on, chan=1 pitch=50 vol=41
Time=177605  Note on, chan=1 pitch=62 vol=44
Time=177813  Note off, chan=1 pitch=50 vol=64
Time=177821  Note off, chan=1 pitch=62 vol=64
Time=177851  Note on, chan=1 pitch=60 vol=45
Time=177853  Note on, chan=1 pitch=48 vol=32
Time=178052  Note off, chan=1 pitch=48 vol=64
Time=178071  Note off, chan=1 pitch=60 vol=64
Time=178078  Note on, chan=1 pitch=47 vol=42
Time=178115  Note on, chan=1 pitch=59 vol=29
Time=178278  Note off, chan=1 pitch=47 vol=64
Time=178310  Note off, chan=1 pitch=59 vol=64
Time=178326  Note on, chan=1 pitch=45 vol=43
Time=178335  Note on, chan=1 pitch=57 vol=43
Time=178520  Note off, chan=1 pitch=45 vol=64
Time=178538  Note off, chan=1 pitch=57 vol=64
Time=178569  Note on, chan=1 pitch=55 vol=36
Time=178584  Note on, chan=1 pitch=43 vol=45
Time=178767  Note off, chan=1 pitch=55 vol=64
Time=178814  Note on, chan=1 pitch=57 vol=42
Time=178818  Note off, chan=1 pitch=43 vol=64
Time=178818  Note on, chan=1 pitch=45 vol=46
Time=178999  Note off, chan=1 pitch=45 vol=64
Time=179028  Note on, chan=1 pitch=43 vol=42
Time=179030  Note off, chan=1 pitch=57 vol=64
Time=179051  Note on, chan=1 pitch=55 vol=39
Time=179247  Note off, chan=1 pitch=55 vol=64
Time=179265  Note off, chan=1 pitch=43 vol=64
Time=179285  Note on, chan=1 pitch=47 vol=40
Time=179322  Note on, chan=1 pitch=59 vol=41
Time=179460  Note off, chan=1 pitch=47 vol=64
Time=179505  Note off, chan=1 pitch=59 vol=64
Time=179516  Note on, chan=1 pitch=52 vol=46
Time=179535  Note on, chan=1 pitch=64 vol=39
Time=179732  Note off, chan=1 pitch=52 vol=64
Time=179760  Note off, chan=1 pitch=64 vol=64
Time=179775  Note on, chan=1 pitch=50 vol=34
Time=179780  Note on, chan=1 pitch=62 vol=45
Time=179973  Note off, chan=1 pitch=50 vol=64
Time=179996  Note on, chan=1 pitch=48 vol=56
Time=180011  Note off, chan=1 pitch=62 vol=64
Time=180035  Note on, chan=1 pitch=60 vol=40
Time=180231  Note off, chan=1 pitch=48 vol=64
Time=180240  Note off, chan=1 pitch=60 vol=64
Time=180257  Note on, chan=1 pitch=59 vol=45
Time=180266  Note on, chan=1 pitch=47 vol=40
Time=180426  Note off, chan=1 pitch=47 vol=64
Time=180455  Note off, chan=1 pitch=59 vol=64
Time=180491  Note on, chan=1 pitch=57 vol=33
Time=180492  Note on, chan=1 pitch=45 vol=41
Time=180688  Note off, chan=1 pitch=57 vol=64
Time=180728  Note off, chan=1 pitch=45 vol=64
Time=180737  Note on, chan=1 pitch=59 vol=42
Time=180749  Note on, chan=1 pitch=47 vol=42
Time=180913  Note off, chan=1 pitch=47 vol=64
Time=180945  Note off, chan=1 pitch=59 vol=64
Time=180977  Note on, chan=1 pitch=57 vol=34
Time=180980  Note on, chan=1 pitch=45 vol=38
Time=181159  Note off, chan=1 pitch=57 vol=64
Time=181216  Note off, chan=1 pitch=45 vol=64
Time=181233  Note on, chan=1 pitch=60 vol=40
Time=181242  Note on, chan=1 pitch=48 vol=42
Time=181386  Note off, chan=1 pitch=48 vol=64
Time=181416  Note off, chan=1 pitch=60 vol=64
Time=181452  Note on, chan=1 pitch=53 vol=44
Time=181467  Note on, chan=1 pitch=65 vol=48
Time=181656  Note off, chan=1 pitch=65 vol=64
Time=181665  Note off, chan=1 pitch=53 vol=64
Time=181695  Note on, chan=1 pitch=52 vol=28
Time=181700  Note on, chan=1 pitch=64 vol=38
Time=181892  Note off, chan=1 pitch=52 vol=64
Time=181914  Note on, chan=1 pitch=50 vol=43
Time=181931  Note off, chan=1 pitch=64 vol=64
Time=181959  Note on, chan=1 pitch=62 vol=36
Time=182136  Note off, chan=1 pitch=62 vol=64
Time=182163  Note off, chan=1 pitch=50 vol=64
Time=182169  Note on, chan=1 pitch=60 vol=40
Time=182180  Note on, chan=1 pitch=48 vol=43
Time=182346  Note off, chan=1 pitch=48 vol=64
Time=182373  Note off, chan=1 pitch=60 vol=64
Time=182424  Note on, chan=1 pitch=47 vol=46
Time=182432  Note on, chan=1 pitch=59 vol=35
Time=182595  Note off, chan=1 pitch=59 vol=64
Time=182645  Note on, chan=1 pitch=60 vol=35
Time=182647  Note off, chan=1 pitch=47 vol=64
Time=182660  Note on, chan=1 pitch=48 vol=44
Time=182837  Note off, chan=1 pitch=48 vol=64
Time=182850  Note off, chan=1 pitch=60 vol=64
Time=182885  Note on, chan=1 pitch=47 vol=43
Time=182903  Note on, chan=1 pitch=59 vol=32
Time=183073  Note off, chan=1 pitch=59 vol=64
Time=183117  Note off, chan=1 pitch=47 vol=64
Time=183132  Note on, chan=1 pitch=50 vol=41
Time=183159  Note on, chan=1 pitch=62 vol=38
Time=183294  Note off, chan=1 pitch=50 vol=64
Time=183329  Note off, chan=1 pitch=62 vol=64
Time=183356  Note on, chan=1 pitch=55 vol=48
Time=183368  Note on, chan=1 pitch=67 vol=45
Time=183551  Note off, chan=1 pitch=55 vol=64
Time=183570  Note off, chan=1 pitch=67 vol=64
Time=183602  Note on, chan=1 pitch=65 vol=42
Time=183606  Note on, chan=1 pitch=53 vol=34
Time=183806  Note off, chan=1 pitch=65 vol=64
Time=183821  Note off, chan=1 pitch=53 vol=64
Time=183834  Note on, chan=1 pitch=52 vol=48
Time=183845  Note on, chan=1 pitch=64 vol=41
Time=184038  Note off, chan=1 pitch=64 vol=64
Time=184051  Note off, chan=1 pitch=52 vol=64
Time=184069  Note on, chan=1 pitch=62 vol=40
Time=184078  Note on, chan=1 pitch=50 vol=41
Time=184263  Note off, chan=1 pitch=50 vol=64
Time=184296  Note off, chan=1 pitch=62 vol=64
Time=184317  Note on, chan=1 pitch=48 vol=41
Time=184324  Note on, chan=1 pitch=60 vol=38
Time=184497  Note off, chan=1 pitch=60 vol=64
Time=184547  Note off, chan=1 pitch=48 vol=64
Time=184559  Note on, chan=1 pitch=62 vol=35
Time=184563  Note on, chan=1 pitch=50 vol=37
Time=184736  Note off, chan=1 pitch=50 vol=64
Time=184769  Note off, chan=1 pitch=62 vol=64
Time=184772  Note on, chan=1 pitch=48 vol=40
Time=184803  Note on, chan=1 pitch=60 vol=32
Time=184977  Note off, chan=1 pitch=60 vol=64
Time=185007  Note off, chan=1 pitch=48 vol=64
Time=185024  Note on, chan=1 pitch=52 vol=38
Time=185054  Note on, chan=1 pitch=64 vol=38
Time=185210  Note off, chan=1 pitch=52 vol=64
Time=185240  Note off, chan=1 pitch=64 vol=64
Time=185265  Note on, chan=1 pitch=57 vol=43
Time=185298  Note on, chan=1 pitch=69 vol=25
Time=185474  Note off, chan=1 pitch=69 vol=64
Time=185501  Note off, chan=1 pitch=57 vol=64
Time=185512  Note on, chan=1 pitch=67 vol=41
Time=185523  Note on, chan=1 pitch=55 vol=33
Time=185721  Note off, chan=1 pitch=55 vol=64
Time=185742  Note off, chan=1 pitch=67 vol=64
Time=185746  Note on, chan=1 pitch=53 vol=45
Time=185775  Note on, chan=1 pitch=65 vol=41
Time=185966  Note off, chan=1 pitch=65 vol=64
Time=185975  Note off, chan=1 pitch=53 vol=64
Time=186002  Note on, chan=1 pitch=52 vol=42
Time=186007  Note on, chan=1 pitch=64 vol=35
Time=186164  Note off, chan=1 pitch=52 vol=64
Time=186190  Note off, chan=1 pitch=64 vol=64
Time=186228  Note on, chan=1 pitch=62 vol=33
Time=186230  Note on, chan=1 pitch=50 vol=40
Time=186405  Note off, chan=1 pitch=62 vol=64
Time=186452  Note off, chan=1 pitch=50 vol=64
Time=186465  Note on, chan=1 pitch=64 vol=33
Time=186474  Note on, chan=1 pitch=52 vol=44
Time=186645  Note off, chan=1 pitch=52 vol=64
Time=186665  Note off, chan=1 pitch=64 vol=64
Time=186702  Note on, chan=1 pitch=50 vol=40
Time=186704  Note on, chan=1 pitch=62 vol=38
Time=186893  Note off, chan=1 pitch=62 vol=64
Time=186941  Note off, chan=1 pitch=50 vol=64
Time=186949  Note on, chan=1 pitch=53 vol=44
Time=186971  Note on, chan=1 pitch=65 vol=36
Time=187124  Note off, chan=1 pitch=53 vol=64
Time=187155  Note off, chan=1 pitch=65 vol=64
Time=187175  Note on, chan=1 pitch=59 vol=44
Time=187196  Note on, chan=1 pitch=71 vol=34
Time=187394  Note off, chan=1 pitch=71 vol=64
Time=187409  Note off, chan=1 pitch=59 vol=64
Time=187416  Note on, chan=1 pitch=69 vol=47
Time=187437  Note on, chan=1 pitch=57 vol=36
Time=187641  Note off, chan=1 pitch=57 vol=64
Time=187662  Note on, chan=1 pitch=55 vol=48
Time=187670  Note off, chan=1 pitch=69 vol=64
Time=187695  Note on, chan=1 pitch=67 vol=51
Time=187873  Note off, chan=1 pitch=55 vol=64
Time=187901  Note on, chan=1 pitch=53 vol=55
Time=187931  Note off, chan=1 pitch=67 vol=64
Time=187939  Note on, chan=1 pitch=65 vol=43
Time=188138  Note off, chan=1 pitch=53 vol=64
Time=188154  Note off, chan=1 pitch=65 vol=64
Time=188174  Note on, chan=1 pitch=52 vol=38
Time=188184  Note on, chan=1 pitch=64 vol=36
Time=188319  Note off, chan=1 pitch=64 vol=64
Time=188369  Note off, chan=1 pitch=52 vol=64
Time=188410  Note on, chan=1 pitch=53 vol=43
Time=188416  Note on, chan=1 pitch=65 vol=38
Time=188580  Note off, chan=1 pitch=53 vol=64
Time=188604  Note off, chan=1 pitch=65 vol=64
Time=188643  Note on, chan=1 pitch=64 vol=33
Time=188645  Note on, chan=1 pitch=52 vol=37
Time=188801  Note off, chan=1 pitch=64 vol=64
Time=188869  Note off, chan=1 pitch=52 vol=64
Time=188877  Note on, chan=1 pitch=67 vol=40
Time=188879  Note on, chan=1 pitch=55 vol=43
Time=189050  Note off, chan=1 pitch=55 vol=64
Time=189084  Note off, chan=1 pitch=67 vol=64
Time=189105  Note on, chan=1 pitch=60 vol=42
Time=189108  Note on, chan=1 pitch=72 vol=45
Time=189322  Note off, chan=1 pitch=72 vol=64
Time=189339  Note on, chan=1 pitch=71 vol=39
Time=189353  Note off, chan=1 pitch=60 vol=64
Time=189372  Note on, chan=1 pitch=59 vol=38
Time=189546  Note off, chan=1 pitch=71 vol=64
Time=189566  Note off, chan=1 pitch=59 vol=64
Time=189594  Note on, chan=1 pitch=57 vol=42
Time=189596  Note on, chan=1 pitch=69 vol=43
Time=189802  Note off, chan=1 pitch=57 vol=64
Time=189834  Note on, chan=1 pitch=55 vol=54
Time=189843  Note off, chan=1 pitch=69 vol=64
Time=189846  Note on, chan=1 pitch=67 vol=46
Time=190045  Note off, chan=1 pitch=55 vol=64
Time=190058  Note off, chan=1 pitch=67 vol=64
Time=190083  Note on, chan=1 pitch=53 vol=44
Time=190098  Note on, chan=1 pitch=65 vol=40
Time=190291  Note off, chan=1 pitch=65 vol=64
Time=190310  Note off, chan=1 pitch=53 vol=64
Time=190321  Note on, chan=1 pitch=55 vol=46
Time=190343  Note on, chan=1 pitch=67 vol=47
Time=190517  Note off, chan=1 pitch=55 vol=64
Time=190548  Note off, chan=1 pitch=67 vol=64
Time=190566  Note on, chan=1 pitch=53 vol=45
Time=190567  Note on, chan=1 pitch=65 vol=41
Time=190741  Note off, chan=1 pitch=65 vol=64
Time=190770  Note off, chan=1 pitch=53 vol=64
Time=190805  Note on, chan=1 pitch=57 vol=47
Time=190808  Note on, chan=1 pitch=69 vol=49
Time=191000  Note off, chan=1 pitch=57 vol=64
Time=191015  Note off, chan=1 pitch=69 vol=64
Time=191043  Note on, chan=1 pitch=62 vol=49
Time=191045  Note on, chan=1 pitch=74 vol=48
Time=191232  Note off, chan=1 pitch=74 vol=64
Time=191264  Note on, chan=1 pitch=72 vol=40
Time=191300  Note off, chan=1 pitch=62 vol=64
Time=191322  Note on, chan=1 pitch=60 vol=37
Time=191505  Note off, chan=1 pitch=72 vol=64
Time=191527  Note off, chan=1 pitch=60 vol=64
Time=191549  Note on, chan=1 pitch=59 vol=44
Time=191555  Note on, chan=1 pitch=71 vol=45
Time=191739  Note off, chan=1 pitch=59 vol=64
Time=191778  Note on, chan=1 pitch=57 vol=56
Time=191791  Note off, chan=1 pitch=71 vol=64
Time=191808  Note on, chan=1 pitch=69 vol=43
Time=191972  Note off, chan=1 pitch=57 vol=64
Time=192018  Note off, chan=1 pitch=69 vol=64
Time=192041  Note on, chan=1 pitch=55 vol=43
Time=192054  Note on, chan=1 pitch=67 vol=40
Time=192243  Note off, chan=1 pitch=55 vol=64
Time=192245  Note off, chan=1 pitch=67 vol=64
Time=192296  Note on, chan=1 pitch=57 vol=49
Time=192312  Note on, chan=1 pitch=69 vol=55
Time=192438  Note off, chan=1 pitch=57 vol=64
Time=192496  Note off, chan=1 pitch=69 vol=64
Time=193464  Note on, chan=1 pitch=76 vol=38
Time=193490  Note on, chan=1 pitch=64 vol=19
Time=193622  Note off, chan=1 pitch=76 vol=64
Time=193655  Note off, chan=1 pitch=64 vol=64
Time=193694  Note on, chan=1 pitch=74 vol=35
Time=193878  Note off, chan=1 pitch=74 vol=64
Time=193941  Note on, chan=1 pitch=72 vol=56
Time=194130  Note off, chan=1 pitch=72 vol=64
Time=194190  Note on, chan=1 pitch=71 vol=36
Time=194366  Note off, chan=1 pitch=71 vol=64
Time=194413  Note on, chan=1 pitch=57 vol=46
Time=194430  Note on, chan=1 pitch=69 vol=45
Time=194591  Note off, chan=1 pitch=57 vol=64
Time=194614  Note off, chan=1 pitch=69 vol=64
Time=194633  Note on, chan=1 pitch=59 vol=46
Time=194672  Note on, chan=1 pitch=71 vol=39
Time=194808  Note off, chan=1 pitch=59 vol=64
Time=194865  Note off, chan=1 pitch=71 vol=64
Time=194906  Note on, chan=1 pitch=57 vol=38
Time=194911  Note on, chan=1 pitch=69 vol=43
Time=195117  Note off, chan=1 pitch=57 vol=64
Time=195135  Note on, chan=1 pitch=60 vol=34
Time=195170  Note off, chan=1 pitch=69 vol=64
Time=195288  Note off, chan=1 pitch=60 vol=64
Time=195378  Note on, chan=1 pitch=77 vol=52
Time=195380  Note on, chan=1 pitch=65 vol=45
Time=195540  Note off, chan=1 pitch=77 vol=64
Time=195576  Note off, chan=1 pitch=65 vol=64
Time=197770  Note on, chan=1 pitch=55 vol=51
Time=197783  Note on, chan=1 pitch=67 vol=48
Time=197987  Note off, chan=1 pitch=67 vol=64
Time=197990  Note off, chan=1 pitch=55 vol=64
Time=198003  Note on, chan=1 pitch=57 vol=56
Time=198020  Note on, chan=1 pitch=69 vol=54
Time=198061  Note off, chan=1 pitch=57 vol=64
Time=198212  Note off, chan=1 pitch=69 vol=64
Time=198257  Note on, chan=1 pitch=55 vol=40
Time=198279  Note on, chan=1 pitch=67 vol=38
Time=198527  Note off, chan=1 pitch=67 vol=64
Time=198573  Note off, chan=1 pitch=55 vol=64
Time=198770  Note on, chan=1 pitch=64 vol=56
Time=198773  Note on, chan=1 pitch=76 vol=65
Time=198922  Note off, chan=1 pitch=76 vol=64
Time=198963  Note off, chan=1 pitch=64 vol=64
Time=198983  Note on, chan=1 pitch=74 vol=40
Time=198997  Note on, chan=1 pitch=62 vol=37
Time=199155  Note off, chan=1 pitch=74 vol=64
Time=199175  Note off, chan=1 pitch=62 vol=64
Time=199232  Note on, chan=1 pitch=60 vol=43
Time=199234  Note on, chan=1 pitch=72 vol=50
Time=199391  Note off, chan=1 pitch=60 vol=64
Time=199414  Note off, chan=1 pitch=72 vol=64
Time=199463  Note on, chan=1 pitch=59 vol=40
Time=199485  Note on, chan=1 pitch=71 vol=35
Time=199601  Note off, chan=1 pitch=59 vol=64
Time=199662  Note off, chan=1 pitch=71 vol=64
Time=199715  Note on, chan=1 pitch=69 vol=49
Time=199720  Note on, chan=1 pitch=57 vol=45
Time=199880  Note off, chan=1 pitch=69 vol=64
Time=199908  Note off, chan=1 pitch=57 vol=64
Time=199918  Note on, chan=1 pitch=59 vol=45
Time=199942  Note on, chan=1 pitch=71 vol=35
Time=200095  Note off, chan=1 pitch=59 vol=64
Time=200150  Note off, chan=1 pitch=71 vol=64
Time=200175  Note on, chan=1 pitch=57 vol=43
Time=200181  Note on, chan=1 pitch=69 vol=38
Time=200404  Note off, chan=1 pitch=69 vol=64
Time=200413  Note off, chan=1 pitch=57 vol=64
Time=200424  Note on, chan=1 pitch=60 vol=43
Time=200435  Note on, chan=1 pitch=72 vol=47
Time=200574  Note off, chan=1 pitch=60 vol=64
Time=200621  Note off, chan=1 pitch=72 vol=64
Time=200649  Note on, chan=1 pitch=65 vol=43
Time=200655  Note on, chan=1 pitch=77 vol=50
Time=200861  Note off, chan=1 pitch=77 vol=64
Time=200897  Note on, chan=1 pitch=76 vol=46
Time=200912  Note off, chan=1 pitch=65 vol=64
Time=200927  Note on, chan=1 pitch=64 vol=42
Time=201099  Note off, chan=1 pitch=76 vol=64
Time=201108  Note off, chan=1 pitch=64 vol=64
Time=201149  Note on, chan=1 pitch=62 vol=44
Time=201158  Note on, chan=1 pitch=74 vol=43
Time=201332  Note off, chan=1 pitch=62 vol=64
Time=201340  Note off, chan=1 pitch=74 vol=64
Time=201380  Note on, chan=1 pitch=60 vol=43
Time=201389  Note on, chan=1 pitch=72 vol=43
Time=201527  Note off, chan=1 pitch=60 vol=64
Time=201570  Note off, chan=1 pitch=72 vol=64
Time=201618  Note on, chan=1 pitch=71 vol=35
Time=201624  Note on, chan=1 pitch=59 vol=41
Time=201792  Note off, chan=1 pitch=71 vol=64
Time=201810  Note off, chan=1 pitch=59 vol=64
Time=201839  Note on, chan=1 pitch=60 vol=47
Time=201842  Note on, chan=1 pitch=72 vol=42
Time=202008  Note off, chan=1 pitch=60 vol=64
Time=202059  Note off, chan=1 pitch=72 vol=64
Time=202087  Note on, chan=1 pitch=71 vol=46
Time=202097  Note on, chan=1 pitch=59 vol=47
Time=202311  Note off, chan=1 pitch=59 vol=64
Time=202316  Note on, chan=1 pitch=62 vol=49
Time=202335  Note off, chan=1 pitch=71 vol=64
Time=202346  Note on, chan=1 pitch=74 vol=39
Time=202482  Note off, chan=1 pitch=74 vol=64
Time=202486  Note off, chan=1 pitch=62 vol=64
Time=202554  Note on, chan=1 pitch=79 vol=60
Time=202556  Note on, chan=1 pitch=67 vol=51
Time=202737  Note off, chan=1 pitch=79 vol=64
Time=202777  Note off, chan=1 pitch=67 vol=64
Time=202807  Note on, chan=1 pitch=77 vol=43
Time=202826  Note on, chan=1 pitch=65 vol=45
Time=202998  Note off, chan=1 pitch=77 vol=64
Time=203000  Note off, chan=1 pitch=65 vol=64
Time=203043  Note on, chan=1 pitch=64 vol=48
Time=203060  Note on, chan=1 pitch=76 vol=55
Time=203250  Note off, chan=1 pitch=64 vol=64
Time=203259  Note off, chan=1 pitch=76 vol=64
Time=203271  Note on, chan=1 pitch=62 vol=32
Time=203301  Note on, chan=1 pitch=74 vol=45
Time=203465  Note off, chan=1 pitch=62 vol=64
Time=203484  Note off, chan=1 pitch=74 vol=64
Time=203523  Note on, chan=1 pitch=79 vol=54
Time=203542  Note on, chan=1 pitch=67 vol=47
Time=203735  Note off, chan=1 pitch=79 vol=64
Time=203751  Note off, chan=1 pitch=67 vol=64
Time=203778  Note on, chan=1 pitch=77 vol=46
Time=203795  Note on, chan=1 pitch=65 vol=46
Time=203949  Note off, chan=1 pitch=77 vol=64
Time=203976  Note off, chan=1 pitch=65 vol=64
Time=204009  Note on, chan=1 pitch=79 vol=45
Time=204011  Note on, chan=1 pitch=67 vol=50
Time=204208  Note off, chan=1 pitch=79 vol=64
Time=204230  Note off, chan=1 pitch=67 vol=64
Time=204268  Note on, chan=1 pitch=74 vol=40
Time=204276  Note on, chan=1 pitch=62 vol=40
Time=204449  Note off, chan=1 pitch=74 vol=64
Time=204466  Note off, chan=1 pitch=62 vol=64
Time=204500  Note on, chan=1 pitch=71 vol=38
Time=204503  Note on, chan=1 pitch=59 vol=38
Time=204696  Note off, chan=1 pitch=59 vol=64
Time=204713  Note off, chan=1 pitch=71 vol=64
Time=204744  Note on, chan=1 pitch=60 vol=41
Time=204750  Note on, chan=1 pitch=72 vol=38
Time=204950  Note off, chan=1 pitch=72 vol=64
Time=204953  Note off, chan=1 pitch=60 vol=64
Time=204980  Note on, chan=1 pitch=62 vol=55
Time=205010  Note on, chan=1 pitch=74 vol=44
Time=205199  Note off, chan=1 pitch=74 vol=64
Time=205223  Note off, chan=1 pitch=62 vol=64
Time=205242  Note on, chan=1 pitch=76 vol=43
Time=205258  Note on, chan=1 pitch=64 vol=36
Time=205418  Note off, chan=1 pitch=76 vol=64
Time=205424  Note off, chan=1 pitch=64 vol=64
Time=205470  Note on, chan=1 pitch=77 vol=45
Time=205475  Note on, chan=1 pitch=65 vol=42
Time=205644  Note off, chan=1 pitch=65 vol=64
Time=205664  Note off, chan=1 pitch=77 vol=64
Time=205707  Note on, chan=1 pitch=76 vol=41
Time=205721  Note on, chan=1 pitch=64 vol=38
Time=205888  Note off, chan=1 pitch=64 vol=64
Time=205896  Note off, chan=1 pitch=76 vol=64
Time=205932  Note on, chan=1 pitch=77 vol=47
Time=205946  Note on, chan=1 pitch=65 vol=44
Time=206137  Note off, chan=1 pitch=77 vol=64
Time=206142  Note off, chan=1 pitch=65 vol=64
Time=206172  Note on, chan=1 pitch=60 vol=42
Time=206188  Note on, chan=1 pitch=72 vol=38
Time=206368  Note off, chan=1 pitch=60 vol=64
Time=206375  Note off, chan=1 pitch=72 vol=64
Time=206411  Note on, chan=1 pitch=57 vol=36
Time=206435  Note on, chan=1 pitch=69 vol=40
Time=206576  Note off, chan=1 pitch=57 vol=64
Time=206649  Note off, chan=1 pitch=69 vol=64
Time=206657  Note on, chan=1 pitch=59 vol=40
Time=206673  Note on, chan=1 pitch=71 vol=37
Time=206877  Note off, chan=1 pitch=71 vol=64
Time=206880  Note off, chan=1 pitch=59 vol=64
Time=206898  Note on, chan=1 pitch=60 vol=45
Time=206925  Note on, chan=1 pitch=72 vol=32
Time=207092  Note off, chan=1 pitch=60 vol=64
Time=207099  Note off, chan=1 pitch=72 vol=64
Time=207152  Note on, chan=1 pitch=74 vol=37
Time=207161  Note on, chan=1 pitch=62 vol=29
Time=207326  Note off, chan=1 pitch=74 vol=64
Time=207350  Note off, chan=1 pitch=62 vol=64
Time=207390  Note on, chan=1 pitch=76 vol=43
Time=207399  Note on, chan=1 pitch=64 vol=35
Time=207567  Note off, chan=1 pitch=76 vol=64
Time=207576  Note off, chan=1 pitch=64 vol=64
Time=207620  Note on, chan=1 pitch=62 vol=39
Time=207627  Note on, chan=1 pitch=74 vol=41
Time=207803  Note off, chan=1 pitch=74 vol=64
Time=207806  Note off, chan=1 pitch=62 vol=64
Time=207842  Note on, chan=1 pitch=76 vol=43
Time=207863  Note on, chan=1 pitch=64 vol=45
Time=208040  Note off, chan=1 pitch=76 vol=64
Time=208085  Note off, chan=1 pitch=64 vol=64
Time=208099  Note on, chan=1 pitch=59 vol=38
Time=208102  Note on, chan=1 pitch=71 vol=34
Time=208275  Note off, chan=1 pitch=71 vol=64
Time=208287  Note off, chan=1 pitch=59 vol=64
Time=208313  Note on, chan=1 pitch=55 vol=54
Time=208347  Note on, chan=1 pitch=67 vol=36
Time=208522  Note off, chan=1 pitch=55 vol=64
Time=208545  Note off, chan=1 pitch=67 vol=64
Time=208566  Note on, chan=1 pitch=69 vol=45
Time=208571  Note on, chan=1 pitch=57 vol=44
Time=208771  Note off, chan=1 pitch=69 vol=64
Time=208790  Note off, chan=1 pitch=57 vol=64
Time=208803  Note on, chan=1 pitch=59 vol=41
Time=208839  Note on, chan=1 pitch=71 vol=38
Time=209002  Note off, chan=1 pitch=71 vol=64
Time=209013  Note off, chan=1 pitch=59 vol=64
Time=209054  Note on, chan=1 pitch=72 vol=43
Time=209070  Note on, chan=1 pitch=60 vol=32
Time=209242  Note off, chan=1 pitch=72 vol=64
Time=209264  Note off, chan=1 pitch=60 vol=64
Time=209292  Note on, chan=1 pitch=62 vol=42
Time=209294  Note on, chan=1 pitch=74 vol=45
Time=209489  Note off, chan=1 pitch=74 vol=64
Time=209502  Note off, chan=1 pitch=62 vol=64
Time=209529  Note on, chan=1 pitch=72 vol=36
Time=209543  Note on, chan=1 pitch=60 vol=40
Time=209718  Note off, chan=1 pitch=72 vol=64
Time=209727  Note off, chan=1 pitch=60 vol=64
Time=209756  Note on, chan=1 pitch=62 vol=44
Time=209757  Note on, chan=1 pitch=74 vol=40
Time=209942  Note off, chan=1 pitch=74 vol=64
Time=209997  Note off, chan=1 pitch=62 vol=64
Time=210018  Note on, chan=1 pitch=57 vol=38
Time=210027  Note on, chan=1 pitch=69 vol=35
Time=210200  Note off, chan=1 pitch=69 vol=64
Time=210239  Note off, chan=1 pitch=57 vol=64
Time=210258  Note on, chan=1 pitch=65 vol=36
Time=210266  Note on, chan=1 pitch=53 vol=40
Time=210462  Note off, chan=1 pitch=53 vol=64
Time=210464  Note off, chan=1 pitch=65 vol=64
Time=210494  Note on, chan=1 pitch=67 vol=36
Time=210498  Note on, chan=1 pitch=55 vol=38
Time=210688  Note off, chan=1 pitch=67 vol=64
Time=210707  Note off, chan=1 pitch=55 vol=64
Time=210725  Note on, chan=1 pitch=57 vol=38
Time=210743  Note on, chan=1 pitch=69 vol=37
Time=210907  Note off, chan=1 pitch=69 vol=64
Time=210931  Note off, chan=1 pitch=57 vol=64
Time=210977  Note on, chan=1 pitch=71 vol=34
Time=210985  Note on, chan=1 pitch=59 vol=32
Time=211163  Note off, chan=1 pitch=71 vol=64
Time=211178  Note off, chan=1 pitch=59 vol=64
Time=211220  Note on, chan=1 pitch=60 vol=42
Time=211221  Note on, chan=1 pitch=72 vol=40
Time=211398  Note off, chan=1 pitch=72 vol=64
Time=211409  Note off, chan=1 pitch=60 vol=64
Time=211455  Note on, chan=1 pitch=71 vol=37
Time=211463  Note on, chan=1 pitch=59 vol=35
Time=211619  Note off, chan=1 pitch=71 vol=64
Time=211635  Note off, chan=1 pitch=59 vol=64
Time=211676  Note on, chan=1 pitch=72 vol=37
Time=211685  Note on, chan=1 pitch=60 vol=42
Time=211894  Note off, chan=1 pitch=72 vol=64
Time=211908  Note off, chan=1 pitch=60 vol=64
Time=211944  Note on, chan=1 pitch=55 vol=36
Time=211947  Note on, chan=1 pitch=67 vol=32
Time=212094  Note off, chan=1 pitch=67 vol=64
Time=212142  Note off, chan=1 pitch=55 vol=64
Time=212175  Note on, chan=1 pitch=52 vol=42
Time=212203  Note on, chan=1 pitch=64 vol=32
Time=212360  Note off, chan=1 pitch=52 vol=64
Time=212410  Note on, chan=1 pitch=53 vol=37
Time=212426  Note off, chan=1 pitch=64 vol=64
Time=212445  Note on, chan=1 pitch=65 vol=36
Time=212654  Note off, chan=1 pitch=53 vol=64
Time=212659  Note off, chan=1 pitch=65 vol=64
Time=212670  Note on, chan=1 pitch=55 vol=37
Time=212703  Note on, chan=1 pitch=67 vol=36
Time=212862  Note off, chan=1 pitch=67 vol=64
Time=212886  Note off, chan=1 pitch=55 vol=64
Time=212918  Note on, chan=1 pitch=69 vol=39
Time=212934  Note on, chan=1 pitch=57 vol=36
Time=213087  Note off, chan=1 pitch=69 vol=64
Time=213104  Note off, chan=1 pitch=57 vol=64
Time=213150  Note on, chan=1 pitch=71 vol=42
Time=213161  Note on, chan=1 pitch=59 vol=36
Time=213342  Note off, chan=1 pitch=71 vol=64
Time=213354  Note off, chan=1 pitch=59 vol=64
Time=213396  Note on, chan=1 pitch=57 vol=35
Time=213399  Note on, chan=1 pitch=69 vol=35
Time=213570  Note off, chan=1 pitch=69 vol=64
Time=213591  Note off, chan=1 pitch=57 vol=64
Time=213615  Note on, chan=1 pitch=71 vol=43
Time=213622  Note on, chan=1 pitch=59 vol=46
Time=213845  Note off, chan=1 pitch=71 vol=64
Time=213860  Note off, chan=1 pitch=59 vol=64
Time=213865  Note on, chan=1 pitch=53 vol=41
Time=213887  Note on, chan=1 pitch=65 vol=34
Time=214029  Note off, chan=1 pitch=65 vol=64
Time=214064  Note off, chan=1 pitch=53 vol=64
Time=214095  Note on, chan=1 pitch=50 vol=41
Time=214112  Note on, chan=1 pitch=62 vol=36
Time=214277  Note off, chan=1 pitch=50 vol=64
Time=214308  Note off, chan=1 pitch=62 vol=64
Time=214333  Note on, chan=1 pitch=52 vol=34
Time=214352  Note on, chan=1 pitch=64 vol=32
Time=214539  Note off, chan=1 pitch=64 vol=64
Time=214563  Note off, chan=1 pitch=52 vol=64
Time=214578  Note on, chan=1 pitch=53 vol=43
Time=214598  Note on, chan=1 pitch=65 vol=32
Time=214758  Note off, chan=1 pitch=65 vol=64
Time=214802  Note off, chan=1 pitch=53 vol=64
Time=214819  Note on, chan=1 pitch=67 vol=39
Time=214839  Note on, chan=1 pitch=55 vol=36
Time=215006  Note off, chan=1 pitch=67 vol=64
Time=215021  Note off, chan=1 pitch=55 vol=64
Time=215066  Note on, chan=1 pitch=69 vol=49
Time=215075  Note on, chan=1 pitch=57 vol=42
Time=215259  Note off, chan=1 pitch=57 vol=64
Time=215274  Note off, chan=1 pitch=69 vol=64
Time=215297  Note on, chan=1 pitch=67 vol=41
Time=215300  Note on, chan=1 pitch=55 vol=40
Time=215478  Note off, chan=1 pitch=67 vol=64
Time=215497  Note off, chan=1 pitch=55 vol=64
Time=215525  Note on, chan=1 pitch=69 vol=34
Time=215545  Note on, chan=1 pitch=57 vol=40
Time=215711  Note off, chan=1 pitch=69 vol=64
Time=215764  Note off, chan=1 pitch=57 vol=64
Time=215789  Note on, chan=1 pitch=52 vol=36
Time=215796  Note on, chan=1 pitch=64 vol=37
Time=215945  Note off, chan=1 pitch=64 vol=64
Time=215975  Note off, chan=1 pitch=52 vol=64
Time=216000  Note on, chan=1 pitch=48 vol=51
Time=216018  Note on, chan=1 pitch=60 vol=40
Time=216182  Note off, chan=1 pitch=48 vol=64
Time=216230  Note on, chan=1 pitch=50 vol=42
Time=216231  Note off, chan=1 pitch=60 vol=64
Time=216250  Note on, chan=1 pitch=62 vol=35
Time=216461  Note off, chan=1 pitch=62 vol=64
Time=216467  Note off, chan=1 pitch=50 vol=64
Time=216471  Note on, chan=1 pitch=52 vol=42
Time=216499  Note on, chan=1 pitch=64 vol=36
Time=216670  Note off, chan=1 pitch=64 vol=64
Time=216698  Note off, chan=1 pitch=52 vol=64
Time=216714  Note on, chan=1 pitch=65 vol=49
Time=216737  Note on, chan=1 pitch=53 vol=41
Time=216890  Note off, chan=1 pitch=65 vol=64
Time=216924  Note off, chan=1 pitch=53 vol=64
Time=216951  Note on, chan=1 pitch=67 vol=41
Time=216965  Note on, chan=1 pitch=55 vol=45
Time=217122  Note off, chan=1 pitch=67 vol=64
Time=217163  Note off, chan=1 pitch=55 vol=64
Time=217184  Note on, chan=1 pitch=65 vol=41
Time=217203  Note on, chan=1 pitch=53 vol=40
Time=217355  Note off, chan=1 pitch=65 vol=64
Time=217370  Note off, chan=1 pitch=53 vol=64
Time=217407  Note on, chan=1 pitch=67 vol=48
Time=217428  Note on, chan=1 pitch=55 vol=43
Time=217626  Note off, chan=1 pitch=67 vol=64
Time=217652  Note off, chan=1 pitch=55 vol=64
Time=217673  Note on, chan=1 pitch=50 vol=38
Time=217676  Note on, chan=1 pitch=62 vol=32
Time=217836  Note off, chan=1 pitch=62 vol=64
Time=217850  Note off, chan=1 pitch=50 vol=64
Time=217897  Note on, chan=1 pitch=47 vol=33
Time=217914  Note on, chan=1 pitch=59 vol=35
Time=218076  Note off, chan=1 pitch=47 vol=64
Time=218120  Note off, chan=1 pitch=59 vol=64
Time=218142  Note on, chan=1 pitch=48 vol=39
Time=218147  Note on, chan=1 pitch=60 vol=36
Time=218355  Note off, chan=1 pitch=60 vol=64
Time=218375  Note off, chan=1 pitch=48 vol=64
Time=218394  Note on, chan=1 pitch=50 vol=40
Time=218398  Note on, chan=1 pitch=62 vol=36
Time=218565  Note off, chan=1 pitch=62 vol=64
Time=218615  Note off, chan=1 pitch=50 vol=64
Time=218630  Note on, chan=1 pitch=64 vol=37
Time=218666  Note on, chan=1 pitch=52 vol=35
Time=218813  Note off, chan=1 pitch=64 vol=64
Time=218823  Note off, chan=1 pitch=52 vol=64
Time=218871  Note on, chan=1 pitch=53 vol=39
Time=218882  Note on, chan=1 pitch=65 vol=41
Time=219063  Note off, chan=1 pitch=65 vol=64
Time=219086  Note off, chan=1 pitch=53 vol=64
Time=219108  Note on, chan=1 pitch=52 vol=34
Time=219117  Note on, chan=1 pitch=64 vol=36
Time=219266  Note off, chan=1 pitch=64 vol=64
Time=219294  Note off, chan=1 pitch=52 vol=64
Time=219336  Note on, chan=1 pitch=65 vol=45
Time=219347  Note on, chan=1 pitch=53 vol=50
Time=219558  Note off, chan=1 pitch=65 vol=64
Time=219600  Note on, chan=1 pitch=48 vol=33
Time=219602  Note off, chan=1 pitch=53 vol=64
Time=219617  Note on, chan=1 pitch=60 vol=28
Time=219738  Note off, chan=1 pitch=60 vol=64
Time=219803  Note off, chan=1 pitch=48 vol=64
Time=219835  Note on, chan=1 pitch=57 vol=35
Time=219850  Note on, chan=1 pitch=45 vol=32
Time=220041  Note off, chan=1 pitch=45 vol=64
Time=220063  Note off, chan=1 pitch=57 vol=64
Time=220095  Note on, chan=1 pitch=47 vol=35
Time=220112  Note on, chan=1 pitch=59 vol=36
Time=220310  Note off, chan=1 pitch=59 vol=64
Time=220319  Note off, chan=1 pitch=47 vol=64
Time=220342  Note on, chan=1 pitch=48 vol=43
Time=220368  Note on, chan=1 pitch=60 vol=33
Time=220529  Note off, chan=1 pitch=60 vol=64
Time=220572  Note off, chan=1 pitch=48 vol=64
Time=220608  Note on, chan=1 pitch=50 vol=33
Time=220614  Note on, chan=1 pitch=62 vol=32
Time=220736  Note off, chan=1 pitch=62 vol=64
Time=220774  Note off, chan=1 pitch=50 vol=64
Time=220845  Note on, chan=1 pitch=52 vol=41
Time=220847  Note on, chan=1 pitch=64 vol=43
Time=221047  Note off, chan=1 pitch=52 vol=64
Time=221055  Note off, chan=1 pitch=64 vol=64
Time=221088  Note on, chan=1 pitch=50 vol=33
Time=221095  Note on, chan=1 pitch=62 vol=34
Time=221219  Note off, chan=1 pitch=62 vol=64
Time=221229  Note off, chan=1 pitch=50 vol=64
Time=221288  Note on, chan=1 pitch=64 vol=43
Time=221303  Note on, chan=1 pitch=52 vol=44
Time=221512  Note off, chan=1 pitch=64 vol=64
Time=221529  Note off, chan=1 pitch=52 vol=64
Time=221559  Note on, chan=1 pitch=59 vol=31
Time=221568  Note on, chan=1 pitch=47 vol=34
Time=221671  Note off, chan=1 pitch=59 vol=64
Time=221733  Note off, chan=1 pitch=47 vol=64
Time=221784  Note on, chan=1 pitch=43 vol=38
Time=221788  Note on, chan=1 pitch=55 vol=35
Time=221963  Note off, chan=1 pitch=43 vol=64
Time=222008  Note off, chan=1 pitch=55 vol=64
Time=222020  Note on, chan=1 pitch=57 vol=38
Time=222048  Note on, chan=1 pitch=45 vol=31
Time=222207  Note off, chan=1 pitch=57 vol=64
Time=222251  Note off, chan=1 pitch=45 vol=64
Time=222263  Note on, chan=1 pitch=47 vol=47
Time=222270  Note on, chan=1 pitch=59 vol=41
Time=222369  Note off, chan=1 pitch=59 vol=64
Time=222480  Note off, chan=1 pitch=47 vol=64
Time=222508  Note on, chan=1 pitch=60 vol=35
Time=222521  Note on, chan=1 pitch=48 vol=35
Time=222704  Note off, chan=1 pitch=48 vol=64
Time=222708  Note off, chan=1 pitch=60 vol=64
Time=222737  Note on, chan=1 pitch=50 vol=41
Time=222755  Note on, chan=1 pitch=62 vol=44
Time=222951  Note off, chan=1 pitch=50 vol=64
Time=222970  Note off, chan=1 pitch=62 vol=64
Time=222990  Note on, chan=1 pitch=48 vol=37
Time=222993  Note on, chan=1 pitch=60 vol=42
Time=223163  Note off, chan=1 pitch=60 vol=64
Time=223169  Note off, chan=1 pitch=48 vol=64
Time=223208  Note on, chan=1 pitch=62 vol=46
Time=223218  Note on, chan=1 pitch=50 vol=38
Time=223306  Note off, chan=1 pitch=62 vol=64
Time=223390  Note off, chan=1 pitch=50 vol=64
Time=223451  Note on, chan=1 pitch=57 vol=42
Time=223466  Note on, chan=1 pitch=45 vol=36
Time=223626  Note off, chan=1 pitch=57 vol=64
Time=223634  Note off, chan=1 pitch=45 vol=64
Time=223676  Note on, chan=1 pitch=41 vol=45
Time=223682  Note on, chan=1 pitch=53 vol=46
Time=223863  Note off, chan=1 pitch=41 vol=64
Time=223895  Note off, chan=1 pitch=53 vol=64
Time=223925  Note on, chan=1 pitch=55 vol=36
Time=223930  Note on, chan=1 pitch=43 vol=38
Time=224130  Note off, chan=1 pitch=55 vol=64
Time=224136  Note off, chan=1 pitch=43 vol=64
Time=224154  Note on, chan=1 pitch=45 vol=46
Time=224175  Note on, chan=1 pitch=57 vol=31
Time=224319  Note off, chan=1 pitch=57 vol=64
Time=224375  Note off, chan=1 pitch=45 vol=64
Time=224387  Note on, chan=1 pitch=59 vol=37
Time=224424  Note on, chan=1 pitch=47 vol=30
Time=224589  Note off, chan=1 pitch=59 vol=64
Time=224634  Note off, chan=1 pitch=47 vol=64
Time=224651  Note on, chan=1 pitch=60 vol=36
Time=224660  Note on, chan=1 pitch=48 vol=42
Time=224844  Note off, chan=1 pitch=60 vol=64
Time=224855  Note off, chan=1 pitch=48 vol=64
Time=224907  Note on, chan=1 pitch=59 vol=40
Time=224911  Note on, chan=1 pitch=47 vol=35
Time=225084  Note off, chan=1 pitch=47 vol=64
Time=225088  Note off, chan=1 pitch=59 vol=64
Time=225110  Note on, chan=1 pitch=60 vol=44
Time=225131  Note on, chan=1 pitch=48 vol=40
Time=225336  Note off, chan=1 pitch=60 vol=64
Time=225364  Note off, chan=1 pitch=48 vol=64
Time=225368  Note on, chan=1 pitch=43 vol=43
Time=225375  Note on, chan=1 pitch=55 vol=35
Time=225485  Note off, chan=1 pitch=55 vol=64
Time=225575  Note off, chan=1 pitch=43 vol=64
Time=225609  Note on, chan=1 pitch=40 vol=39
Time=225612  Note on, chan=1 pitch=52 vol=40
Time=225784  Note off, chan=1 pitch=40 vol=64
Time=225801  Note off, chan=1 pitch=52 vol=64
Time=225845  Note on, chan=1 pitch=53 vol=36
Time=225849  Note on, chan=1 pitch=41 vol=33
Time=226040  Note off, chan=1 pitch=53 vol=64
Time=226061  Note off, chan=1 pitch=41 vol=64
Time=226085  Note on, chan=1 pitch=43 vol=39
Time=226092  Note on, chan=1 pitch=55 vol=38
Time=226224  Note off, chan=1 pitch=55 vol=64
Time=226319  Note on, chan=1 pitch=57 vol=43
Time=226326  Note on, chan=1 pitch=45 vol=42
Time=226363  Note off, chan=1 pitch=43 vol=64
Time=226514  Note off, chan=1 pitch=57 vol=64
Time=226526  Note off, chan=1 pitch=45 vol=64
Time=226578  Note on, chan=1 pitch=47 vol=41
Time=226581  Note on, chan=1 pitch=59 vol=44
Time=226787  Note off, chan=1 pitch=59 vol=64
Time=226794  Note off, chan=1 pitch=47 vol=64
Time=226826  Note on, chan=1 pitch=45 vol=30
Time=226829  Note on, chan=1 pitch=57 vol=40
Time=227005  Note off, chan=1 pitch=57 vol=64
Time=227025  Note off, chan=1 pitch=45 vol=64
Time=227052  Note on, chan=1 pitch=59 vol=44
Time=227066  Note on, chan=1 pitch=47 vol=40
Time=227236  Note off, chan=1 pitch=59 vol=64
Time=227270  Note off, chan=1 pitch=47 vol=64
Time=227296  Note on, chan=1 pitch=41 vol=37
Time=227304  Note on, chan=1 pitch=53 vol=32
Time=227439  Note off, chan=1 pitch=53 vol=64
Time=227490  Note off, chan=1 pitch=41 vol=64
Time=227523  Note on, chan=1 pitch=50 vol=40
Time=227529  Note on, chan=1 pitch=38 vol=39
Time=227709  Note off, chan=1 pitch=38 vol=64
Time=227729  Note off, chan=1 pitch=50 vol=64
Time=227765  Note on, chan=1 pitch=40 vol=42
Time=227786  Note on, chan=1 pitch=52 vol=32
Time=227972  Note off, chan=1 pitch=40 vol=64
Time=227985  Note off, chan=1 pitch=52 vol=64
Time=228006  Note on, chan=1 pitch=41 vol=38
Time=228021  Note on, chan=1 pitch=53 vol=43
Time=228120  Note off, chan=1 pitch=53 vol=64
Time=228233  Note off, chan=1 pitch=41 vol=64
Time=228251  Note on, chan=1 pitch=55 vol=41
Time=228272  Note on, chan=1 pitch=43 vol=38
Time=228421  Note off, chan=1 pitch=55 vol=64
Time=228432  Note off, chan=1 pitch=43 vol=64
Time=228496  Note on, chan=1 pitch=57 vol=47
Time=228502  Note on, chan=1 pitch=45 vol=36
Time=228666  Note off, chan=1 pitch=45 vol=64
Time=228680  Note off, chan=1 pitch=57 vol=64
Time=228722  Note on, chan=1 pitch=55 vol=44
Time=228724  Note on, chan=1 pitch=43 vol=35
Time=228896  Note off, chan=1 pitch=55 vol=64
Time=228921  Note off, chan=1 pitch=43 vol=64
Time=228956  Note on, chan=1 pitch=57 vol=47
Time=228978  Note on, chan=1 pitch=45 vol=44
Time=229158  Note off, chan=1 pitch=45 vol=64
Time=229169  Note off, chan=1 pitch=57 vol=64
Time=229215  Note on, chan=1 pitch=52 vol=50
Time=229218  Note on, chan=1 pitch=40 vol=36
Time=229374  Note off, chan=1 pitch=52 vol=64
Time=229391  Note off, chan=1 pitch=40 vol=64
Time=229451  Note on, chan=1 pitch=48 vol=46
Time=229467  Note on, chan=1 pitch=36 vol=36
Time=229652  Note off, chan=1 pitch=48 vol=64
Time=229660  Note off, chan=1 pitch=36 vol=64
Time=229700  Note on, chan=1 pitch=50 vol=42
Time=229713  Note on, chan=1 pitch=38 vol=39
Time=229884  Note off, chan=1 pitch=50 vol=64
Time=229887  Note off, chan=1 pitch=38 vol=64
Time=229935  Note on, chan=1 pitch=40 vol=43
Time=229937  Note on, chan=1 pitch=52 vol=56
Time=230112  Note off, chan=1 pitch=52 vol=64
Time=230133  Note off, chan=1 pitch=40 vol=64
Time=230152  Note on, chan=1 pitch=53 vol=47
Time=230170  Note on, chan=1 pitch=41 vol=36
Time=230334  Note off, chan=1 pitch=53 vol=64
Time=230337  Note off, chan=1 pitch=41 vol=64
Time=230390  Note on, chan=1 pitch=48 vol=54
Time=230396  Note on, chan=1 pitch=36 vol=56
Time=233272  Note off, chan=1 pitch=48 vol=64
Time=233705  Note off, chan=1 pitch=36 vol=64
Time=234200  Note on, chan=1 pitch=36 vol=55
Time=234210  Note on, chan=1 pitch=48 vol=49
Time=234423  Note off, chan=1 pitch=48 vol=64
Time=234462  Note off, chan=1 pitch=36 vol=64
Time=234473  Note on, chan=1 pitch=45 vol=44
Time=234479  Note on, chan=1 pitch=57 vol=45
Time=234666  Note off, chan=1 pitch=57 vol=64
Time=234699  Note off, chan=1 pitch=45 vol=64
Time=234716  Note on, chan=1 pitch=43 vol=38
Time=234720  Note on, chan=1 pitch=55 vol=42
Time=234882  Note off, chan=1 pitch=55 vol=64
Time=234909  Note off, chan=1 pitch=43 vol=64
Time=235002  Note on, chan=1 pitch=45 vol=39
Time=235076  Note off, chan=1 pitch=45 vol=64
Time=238076  Note on, chan=1 pitch=36 vol=60
Time=238080  Note on, chan=1 pitch=48 vol=56
Time=238292  Note off, chan=1 pitch=48 vol=64
Time=238313  Note on, chan=1 pitch=57 vol=56
Time=238318  Note off, chan=1 pitch=36 vol=64
Time=238320  Note on, chan=1 pitch=45 vol=43
Time=238517  Note off, chan=1 pitch=57 vol=64
Time=238542  Note off, chan=1 pitch=45 vol=64
Time=238560  Note on, chan=1 pitch=43 vol=43
Time=238569  Note on, chan=1 pitch=55 vol=50
Time=238742  Note off, chan=1 pitch=55 vol=64
Time=238774  Note off, chan=1 pitch=43 vol=64
Time=238797  Note on, chan=1 pitch=57 vol=57
Time=238808  Note on, chan=1 pitch=45 vol=49
Time=238979  Note off, chan=1 pitch=45 vol=64
Time=238989  Note off, chan=1 pitch=57 vol=64
Time=239037  Note on, chan=1 pitch=41 vol=40
Time=239051  Note on, chan=1 pitch=53 vol=41
Time=239223  Note off, chan=1 pitch=53 vol=64
Time=239240  Note off, chan=1 pitch=41 vol=64
Time=239298  Note on, chan=1 pitch=55 vol=40
Time=239310  Note on, chan=1 pitch=43 vol=29
Time=239462  Note off, chan=1 pitch=55 vol=64
Time=239486  Note off, chan=1 pitch=43 vol=64
Time=239522  Note on, chan=1 pitch=52 vol=49
Time=239524  Note on, chan=1 pitch=40 vol=45
Time=239706  Note off, chan=1 pitch=40 vol=64
Time=239723  Note off, chan=1 pitch=52 vol=64
Time=239751  Note on, chan=1 pitch=41 vol=42
Time=239763  Note on, chan=1 pitch=53 vol=40
Time=239919  Note off, chan=1 pitch=53 vol=64
Time=239950  Note off, chan=1 pitch=41 vol=64
Time=239982  Note on, chan=1 pitch=50 vol=48
Time=240009  Note on, chan=1 pitch=38 vol=57
Time=240180  Note off, chan=1 pitch=38 vol=64
Time=240200  Note off, chan=1 pitch=50 vol=64
Time=240228  Note on, chan=1 pitch=47 vol=38
Time=240243  Note on, chan=1 pitch=59 vol=42
Time=240405  Note off, chan=1 pitch=59 vol=64
Time=240423  Note off, chan=1 pitch=47 vol=64
Time=240455  Note on, chan=1 pitch=45 vol=40
Time=240468  Note on, chan=1 pitch=57 vol=48
Time=240658  Note off, chan=1 pitch=57 vol=64
Time=240666  Note off, chan=1 pitch=45 vol=64
Time=240705  Note on, chan=1 pitch=47 vol=39
Time=240717  Note on, chan=1 pitch=59 vol=42
Time=240890  Note off, chan=1 pitch=59 vol=64
Time=240913  Note off, chan=1 pitch=47 vol=64
Time=240930  Note on, chan=1 pitch=43 vol=34
Time=240962  Note on, chan=1 pitch=55 vol=40
Time=241139  Note off, chan=1 pitch=55 vol=64
Time=241184  Note off, chan=1 pitch=43 vol=64
Time=241200  Note on, chan=1 pitch=57 vol=45
Time=241209  Note on, chan=1 pitch=45 vol=40
Time=241427  Note off, chan=1 pitch=57 vol=64
Time=241432  Note off, chan=1 pitch=45 vol=64
Time=241448  Note on, chan=1 pitch=53 vol=49
Time=241460  Note on, chan=1 pitch=41 vol=34
Time=241665  Note off, chan=1 pitch=41 vol=64
Time=241671  Note off, chan=1 pitch=53 vol=64
Time=241685  Note on, chan=1 pitch=43 vol=51
Time=241694  Note on, chan=1 pitch=55 vol=43
Time=241857  Note off, chan=1 pitch=55 vol=64
Time=241890  Note off, chan=1 pitch=43 vol=64
Time=241919  Note on, chan=1 pitch=40 vol=55
Time=241922  Note on, chan=1 pitch=52 vol=43
Time=242136  Note off, chan=1 pitch=52 vol=64
Time=242176  Note on, chan=1 pitch=60 vol=51
Time=242179  Note off, chan=1 pitch=40 vol=64
Time=242187  Note on, chan=1 pitch=48 vol=44
Time=242377  Note off, chan=1 pitch=60 vol=64
Time=242395  Note off, chan=1 pitch=48 vol=64
Time=242408  Note on, chan=1 pitch=59 vol=46
Time=242417  Note on, chan=1 pitch=47 vol=33
Time=242595  Note off, chan=1 pitch=59 vol=64
Time=242627  Note off, chan=1 pitch=47 vol=64
Time=242651  Note on, chan=1 pitch=60 vol=39
Time=242654  Note on, chan=1 pitch=48 vol=45
Time=242848  Note off, chan=1 pitch=48 vol=64
Time=242853  Note off, chan=1 pitch=60 vol=64
Time=242867  Note on, chan=1 pitch=45 vol=38
Time=242895  Note on, chan=1 pitch=57 vol=42
Time=243083  Note off, chan=1 pitch=57 vol=64
Time=243097  Note off, chan=1 pitch=45 vol=64
Time=243116  Note on, chan=1 pitch=47 vol=40
Time=243127  Note on, chan=1 pitch=59 vol=43
Time=243333  Note off, chan=1 pitch=59 vol=64
Time=243343  Note off, chan=1 pitch=47 vol=64
Time=243366  Note on, chan=1 pitch=55 vol=45
Time=243384  Note on, chan=1 pitch=43 vol=40
Time=243563  Note off, chan=1 pitch=43 vol=64
Time=243570  Note off, chan=1 pitch=55 vol=64
Time=243599  Note on, chan=1 pitch=45 vol=46
Time=243603  Note on, chan=1 pitch=57 vol=40
Time=243796  Note off, chan=1 pitch=57 vol=64
Time=243809  Note off, chan=1 pitch=45 vol=64
Time=243845  Note on, chan=1 pitch=53 vol=42
Time=243858  Note on, chan=1 pitch=41 vol=36
Time=244041  Note off, chan=1 pitch=41 vol=64
Time=244055  Note off, chan=1 pitch=53 vol=64
Time=244085  Note on, chan=1 pitch=50 vol=40
Time=244100  Note on, chan=1 pitch=62 vol=47
Time=244292  Note off, chan=1 pitch=62 vol=64
Time=244308  Note off, chan=1 pitch=50 vol=64
Time=244338  Note on, chan=1 pitch=60 vol=45
Time=244345  Note on, chan=1 pitch=48 vol=40
Time=244520  Note off, chan=1 pitch=60 vol=64
Time=244548  Note off, chan=1 pitch=48 vol=64
Time=244560  Note on, chan=1 pitch=62 vol=44
Time=244578  Note on, chan=1 pitch=50 vol=39
Time=244747  Note off, chan=1 pitch=62 vol=64
Time=244770  Note off, chan=1 pitch=50 vol=64
Time=244802  Note on, chan=1 pitch=47 vol=40
Time=244815  Note on, chan=1 pitch=59 vol=42
Time=244974  Note off, chan=1 pitch=59 vol=64
Time=245016  Note off, chan=1 pitch=47 vol=64
Time=245043  Note on, chan=1 pitch=60 vol=42
Time=245045  Note on, chan=1 pitch=48 vol=46
Time=245237  Note off, chan=1 pitch=60 vol=64
Time=245265  Note off, chan=1 pitch=48 vol=64
Time=245280  Note on, chan=1 pitch=57 vol=46
Time=245305  Note on, chan=1 pitch=45 vol=42
Time=245477  Note off, chan=1 pitch=57 vol=64
Time=245505  Note off, chan=1 pitch=45 vol=64
Time=245523  Note on, chan=1 pitch=47 vol=44
Time=245528  Note on, chan=1 pitch=59 vol=38
Time=245720  Note off, chan=1 pitch=47 vol=64
Time=245722  Note off, chan=1 pitch=59 vol=64
Time=245773  Note on, chan=1 pitch=55 vol=46
Time=245776  Note on, chan=1 pitch=43 vol=51
Time=245987  Note off, chan=1 pitch=55 vol=64
Time=245990  Note off, chan=1 pitch=43 vol=64
Time=246021  Note on, chan=1 pitch=52 vol=36
Time=246032  Note on, chan=1 pitch=64 vol=36
Time=246194  Note off, chan=1 pitch=64 vol=64
Time=246231  Note off, chan=1 pitch=52 vol=64
Time=246248  Note on, chan=1 pitch=62 vol=45
Time=246259  Note on, chan=1 pitch=50 vol=29
Time=246425  Note off, chan=1 pitch=62 vol=64
Time=246459  Note off, chan=1 pitch=50 vol=64
Time=246490  Note on, chan=1 pitch=52 vol=40
Time=246497  Note on, chan=1 pitch=64 vol=43
Time=246678  Note off, chan=1 pitch=64 vol=64
Time=246700  Note off, chan=1 pitch=52 vol=64
Time=246720  Note on, chan=1 pitch=48 vol=37
Time=246724  Note on, chan=1 pitch=60 vol=42
Time=246903  Note off, chan=1 pitch=60 vol=64
Time=246953  Note off, chan=1 pitch=48 vol=64
Time=246972  Note on, chan=1 pitch=62 vol=36
Time=246981  Note on, chan=1 pitch=50 vol=42
Time=247161  Note off, chan=1 pitch=62 vol=64
Time=247170  Note off, chan=1 pitch=50 vol=64
Time=247211  Note on, chan=1 pitch=59 vol=49
Time=247223  Note on, chan=1 pitch=47 vol=43
Time=247405  Note off, chan=1 pitch=59 vol=64
Time=247431  Note off, chan=1 pitch=47 vol=64
Time=247448  Note on, chan=1 pitch=60 vol=37
Time=247449  Note on, chan=1 pitch=48 vol=40
Time=247633  Note off, chan=1 pitch=60 vol=64
Time=247646  Note off, chan=1 pitch=48 vol=64
Time=247684  Note on, chan=1 pitch=57 vol=51
Time=247702  Note on, chan=1 pitch=45 vol=40
Time=247881  Note off, chan=1 pitch=57 vol=64
Time=247893  Note off, chan=1 pitch=45 vol=64
Time=247944  Note on, chan=1 pitch=53 vol=43
Time=247953  Note on, chan=1 pitch=65 vol=48
Time=248153  Note off, chan=1 pitch=65 vol=64
Time=248160  Note off, chan=1 pitch=53 vol=64
Time=248181  Note on, chan=1 pitch=52 vol=36
Time=248187  Note on, chan=1 pitch=64 vol=44
Time=248370  Note off, chan=1 pitch=64 vol=64
Time=248415  Note off, chan=1 pitch=52 vol=64
Time=248429  Note on, chan=1 pitch=65 vol=50
Time=248430  Note on, chan=1 pitch=53 vol=42
Time=248593  Note off, chan=1 pitch=65 vol=64
Time=248618  Note off, chan=1 pitch=53 vol=64
Time=248644  Note on, chan=1 pitch=50 vol=36
Time=248659  Note on, chan=1 pitch=62 vol=41
Time=248833  Note off, chan=1 pitch=62 vol=64
Time=248867  Note off, chan=1 pitch=50 vol=64
Time=248891  Note on, chan=1 pitch=64 vol=37
Time=248893  Note on, chan=1 pitch=52 vol=34
Time=249080  Note off, chan=1 pitch=52 vol=64
Time=249087  Note off, chan=1 pitch=64 vol=64
Time=249132  Note on, chan=1 pitch=60 vol=41
Time=249149  Note on, chan=1 pitch=48 vol=43
Time=249338  Note off, chan=1 pitch=48 vol=64
Time=249341  Note off, chan=1 pitch=60 vol=64
Time=249356  Note on, chan=1 pitch=50 vol=36
Time=249369  Note on, chan=1 pitch=62 vol=38
Time=249541  Note off, chan=1 pitch=50 vol=64
Time=249554  Note off, chan=1 pitch=62 vol=64
Time=249596  Note on, chan=1 pitch=47 vol=44
Time=249614  Note on, chan=1 pitch=59 vol=43
Time=249804  Note off, chan=1 pitch=59 vol=64
Time=249827  Note off, chan=1 pitch=47 vol=64
Time=249871  Note on, chan=1 pitch=55 vol=27
Time=249878  Note on, chan=1 pitch=67 vol=35
Time=250010  Note off, chan=1 pitch=67 vol=64
Time=250065  Note off, chan=1 pitch=55 vol=64
Time=250085  Note on, chan=1 pitch=65 vol=47
Time=250101  Note on, chan=1 pitch=53 vol=36
Time=250281  Note off, chan=1 pitch=65 vol=64
Time=250343  Note on, chan=1 pitch=67 vol=45
Time=250350  Note off, chan=1 pitch=53 vol=64
Time=250359  Note on, chan=1 pitch=55 vol=44
Time=250532  Note off, chan=1 pitch=67 vol=64
Time=250542  Note off, chan=1 pitch=55 vol=64
Time=250562  Note on, chan=1 pitch=64 vol=42
Time=250576  Note on, chan=1 pitch=52 vol=49
Time=250766  Note off, chan=1 pitch=64 vol=64
Time=250814  Note on, chan=1 pitch=65 vol=43
Time=250821  Note off, chan=1 pitch=52 vol=64
Time=250823  Note on, chan=1 pitch=53 vol=32
Time=251021  Note off, chan=1 pitch=65 vol=64
Time=251027  Note off, chan=1 pitch=53 vol=64
Time=251051  Note on, chan=1 pitch=62 vol=43
Time=251053  Note on, chan=1 pitch=50 vol=43
Time=251271  Note off, chan=1 pitch=62 vol=64
Time=251273  Note off, chan=1 pitch=50 vol=64
Time=251277  Note on, chan=1 pitch=52 vol=40
Time=251292  Note on, chan=1 pitch=64 vol=42
Time=251497  Note off, chan=1 pitch=52 vol=64
Time=251499  Note off, chan=1 pitch=64 vol=64
Time=251533  Note on, chan=1 pitch=60 vol=40
Time=251538  Note on, chan=1 pitch=48 vol=51
Time=251733  Note off, chan=1 pitch=60 vol=64
Time=251771  Note off, chan=1 pitch=48 vol=64
Time=251790  Note on, chan=1 pitch=69 vol=38
Time=251792  Note on, chan=1 pitch=57 vol=40
Time=251948  Note off, chan=1 pitch=69 vol=64
Time=251991  Note on, chan=1 pitch=67 vol=48
Time=252004  Note off, chan=1 pitch=57 vol=64
Time=252012  Note on, chan=1 pitch=55 vol=35
Time=252178  Note off, chan=1 pitch=67 vol=64
Time=252234  Note on, chan=1 pitch=69 vol=54
Time=252251  Note off, chan=1 pitch=55 vol=64
Time=252260  Note on, chan=1 pitch=57 vol=45
Time=252434  Note off, chan=1 pitch=57 vol=64
Time=252440  Note off, chan=1 pitch=69 vol=64
Time=252471  Note on, chan=1 pitch=53 vol=41
Time=252479  Note on, chan=1 pitch=65 vol=37
Time=252697  Note off, chan=1 pitch=65 vol=64
Time=252713  Note on, chan=1 pitch=67 vol=48
Time=252716  Note on, chan=1 pitch=55 vol=38
Time=252731  Note off, chan=1 pitch=53 vol=64
Time=252950  Note off, chan=1 pitch=55 vol=64
Time=252962  Note on, chan=1 pitch=64 vol=43
Time=252965  Note off, chan=1 pitch=67 vol=64
Time=252980  Note on, chan=1 pitch=52 vol=37
Time=253176  Note off, chan=1 pitch=64 vol=64
Time=253190  Note off, chan=1 pitch=52 vol=64
Time=253193  Note on, chan=1 pitch=53 vol=44
Time=253206  Note on, chan=1 pitch=65 vol=36
Time=253399  Note off, chan=1 pitch=53 vol=64
Time=253410  Note off, chan=1 pitch=65 vol=64
Time=253443  Note on, chan=1 pitch=62 vol=40
Time=253446  Note on, chan=1 pitch=50 vol=45
Time=253660  Note off, chan=1 pitch=50 vol=64
Time=253662  Note off, chan=1 pitch=62 vol=64
Time=253697  Note on, chan=1 pitch=59 vol=36
Time=253703  Note on, chan=1 pitch=71 vol=39
Time=253868  Note off, chan=1 pitch=71 vol=64
Time=253906  Note off, chan=1 pitch=59 vol=64
Time=253925  Note on, chan=1 pitch=69 vol=44
Time=253938  Note on, chan=1 pitch=57 vol=31
Time=254118  Note off, chan=1 pitch=69 vol=64
Time=254156  Note off, chan=1 pitch=57 vol=64
Time=254174  Note on, chan=1 pitch=71 vol=47
Time=254189  Note on, chan=1 pitch=59 vol=41
Time=254351  Note off, chan=1 pitch=71 vol=64
Time=254383  Note off, chan=1 pitch=59 vol=64
Time=254408  Note on, chan=1 pitch=55 vol=31
Time=254412  Note on, chan=1 pitch=67 vol=37
Time=254588  Note off, chan=1 pitch=67 vol=64
Time=254642  Note off, chan=1 pitch=55 vol=64
Time=254643  Note on, chan=1 pitch=69 vol=39
Time=254651  Note on, chan=1 pitch=57 vol=36
Time=254843  Note off, chan=1 pitch=57 vol=64
Time=254859  Note off, chan=1 pitch=69 vol=64
Time=254885  Note on, chan=1 pitch=65 vol=47
Time=254895  Note on, chan=1 pitch=53 vol=40
Time=255106  Note off, chan=1 pitch=65 vol=64
Time=255108  Note off, chan=1 pitch=53 vol=64
Time=255120  Note on, chan=1 pitch=55 vol=40
Time=255142  Note on, chan=1 pitch=67 vol=39
Time=255315  Note off, chan=1 pitch=67 vol=64
Time=255318  Note off, chan=1 pitch=55 vol=64
Time=255370  Note on, chan=1 pitch=64 vol=44
Time=255381  Note on, chan=1 pitch=52 vol=47
Time=255570  Note off, chan=1 pitch=52 vol=64
Time=255614  Note on, chan=1 pitch=60 vol=33
Time=255618  Note on, chan=1 pitch=72 vol=41
Time=255635  Note off, chan=1 pitch=64 vol=64
Time=255767  Note off, chan=1 pitch=72 vol=64
Time=255823  Note off, chan=1 pitch=60 vol=64
Time=255837  Note on, chan=1 pitch=71 vol=36
Time=255854  Note on, chan=1 pitch=59 vol=31
Time=256015  Note off, chan=1 pitch=71 vol=64
Time=256054  Note off, chan=1 pitch=59 vol=64
Time=256075  Note on, chan=1 pitch=72 vol=43
Time=256077  Note on, chan=1 pitch=60 vol=41
Time=256261  Note off, chan=1 pitch=72 vol=64
Time=256287  Note off, chan=1 pitch=60 vol=64
Time=256309  Note on, chan=1 pitch=57 vol=40
Time=256332  Note on, chan=1 pitch=69 vol=41
Time=256513  Note off, chan=1 pitch=69 vol=64
Time=256541  Note off, chan=1 pitch=57 vol=64
Time=256564  Note on, chan=1 pitch=59 vol=32
Time=256574  Note on, chan=1 pitch=71 vol=38
Time=256769  Note off, chan=1 pitch=59 vol=64
Time=256776  Note off, chan=1 pitch=71 vol=64
Time=256811  Note on, chan=1 pitch=67 vol=38
Time=256826  Note on, chan=1 pitch=55 vol=36
Time=257013  Note off, chan=1 pitch=55 vol=64
Time=257027  Note off, chan=1 pitch=67 vol=64
Time=257034  Note on, chan=1 pitch=57 vol=38
Time=257069  Note on, chan=1 pitch=69 vol=48
Time=257226  Note off, chan=1 pitch=57 vol=64
Time=257235  Note off, chan=1 pitch=69 vol=64
Time=257293  Note on, chan=1 pitch=53 vol=46
Time=257295  Note on, chan=1 pitch=65 vol=45
Time=257500  Note off, chan=1 pitch=53 vol=64
Time=257543  Note on, chan=1 pitch=62 vol=36
Time=257547  Note on, chan=1 pitch=74 vol=44
Time=257573  Note off, chan=1 pitch=65 vol=64
Time=257716  Note off, chan=1 pitch=74 vol=64
Time=257742  Note off, chan=1 pitch=62 vol=64
Time=257775  Note on, chan=1 pitch=72 vol=40
Time=257778  Note on, chan=1 pitch=60 vol=31
Time=257967  Note off, chan=1 pitch=72 vol=64
Time=257997  Note off, chan=1 pitch=60 vol=64
Time=258002  Note on, chan=1 pitch=62 vol=38
Time=258004  Note on, chan=1 pitch=74 vol=41
Time=258193  Note off, chan=1 pitch=62 vol=64
Time=258201  Note off, chan=1 pitch=74 vol=64
Time=258222  Note on, chan=1 pitch=59 vol=36
Time=258249  Note on, chan=1 pitch=71 vol=43
Time=258429  Note off, chan=1 pitch=71 vol=64
Time=258472  Note on, chan=1 pitch=72 vol=37
Time=258487  Note on, chan=1 pitch=60 vol=40
Time=258489  Note off, chan=1 pitch=59 vol=64
Time=258707  Note off, chan=1 pitch=60 vol=64
Time=258716  Note off, chan=1 pitch=72 vol=64
Time=258718  Note on, chan=1 pitch=57 vol=42
Time=258729  Note on, chan=1 pitch=69 vol=48
Time=258933  Note off, chan=1 pitch=57 vol=64
Time=258942  Note on, chan=1 pitch=59 vol=41
Time=258955  Note off, chan=1 pitch=69 vol=64
Time=258980  Note on, chan=1 pitch=71 vol=45
Time=259152  Note off, chan=1 pitch=71 vol=64
Time=259158  Note off, chan=1 pitch=59 vol=64
Time=259204  Note on, chan=1 pitch=67 vol=44
Time=259216  Note on, chan=1 pitch=55 vol=46
Time=259401  Note off, chan=1 pitch=67 vol=64
Time=259430  Note off, chan=1 pitch=55 vol=64
Time=259470  Note on, chan=1 pitch=64 vol=40
Time=259476  Note on, chan=1 pitch=76 vol=35
Time=259641  Note off, chan=1 pitch=76 vol=64
Time=259679  Note off, chan=1 pitch=64 vol=64
Time=259688  Note on, chan=1 pitch=74 vol=40
Time=259709  Note on, chan=1 pitch=62 vol=30
Time=259906  Note off, chan=1 pitch=74 vol=64
Time=259935  Note on, chan=1 pitch=64 vol=44
Time=259938  Note off, chan=1 pitch=62 vol=64
Time=259940  Note on, chan=1 pitch=76 vol=38
Time=260111  Note off, chan=1 pitch=76 vol=64
Time=260123  Note off, chan=1 pitch=64 vol=64
Time=260159  Note on, chan=1 pitch=60 vol=37
Time=260166  Note on, chan=1 pitch=72 vol=42
Time=260366  Note off, chan=1 pitch=72 vol=64
Time=260415  Note on, chan=1 pitch=74 vol=39
Time=260417  Note off, chan=1 pitch=60 vol=64
Time=260418  Note on, chan=1 pitch=62 vol=38
Time=260639  Note off, chan=1 pitch=74 vol=64
Time=260645  Note off, chan=1 pitch=62 vol=64
Time=260654  Note on, chan=1 pitch=59 vol=47
Time=260670  Note on, chan=1 pitch=71 vol=41
Time=260873  Note off, chan=1 pitch=59 vol=64
Time=260879  Note on, chan=1 pitch=60 vol=42
Time=260882  Note off, chan=1 pitch=71 vol=64
Time=260890  Note on, chan=1 pitch=72 vol=46
Time=261087  Note off, chan=1 pitch=72 vol=64
Time=261100  Note off, chan=1 pitch=60 vol=64
Time=261116  Note on, chan=1 pitch=69 vol=45
Time=261134  Note on, chan=1 pitch=57 vol=51
Time=261315  Note off, chan=1 pitch=69 vol=64
Time=261370  Note on, chan=1 pitch=77 vol=44
Time=261376  Note off, chan=1 pitch=57 vol=64
Time=261388  Note on, chan=1 pitch=65 vol=48
Time=261544  Note off, chan=1 pitch=77 vol=64
Time=261604  Note off, chan=1 pitch=65 vol=64
Time=261607  Note on, chan=1 pitch=76 vol=40
Time=261616  Note on, chan=1 pitch=64 vol=38
Time=261814  Note off, chan=1 pitch=76 vol=64
Time=261854  Note on, chan=1 pitch=77 vol=44
Time=261857  Note on, chan=1 pitch=65 vol=52
Time=261861  Note off, chan=1 pitch=64 vol=64
Time=262017  Note off, chan=1 pitch=65 vol=64
Time=262035  Note off, chan=1 pitch=77 vol=64
Time=262062  Note on, chan=1 pitch=62 vol=39
Time=262096  Note on, chan=1 pitch=74 vol=43
Time=262276  Note off, chan=1 pitch=74 vol=64
Time=262279  Note off, chan=1 pitch=62 vol=64
Time=262325  Note on, chan=1 pitch=64 vol=42
Time=262328  Note on, chan=1 pitch=76 vol=40
Time=262547  Note off, chan=1 pitch=76 vol=64
Time=262548  Note off, chan=1 pitch=64 vol=64
Time=262563  Note on, chan=1 pitch=72 vol=48
Time=262566  Note on, chan=1 pitch=60 vol=44
Time=262766  Note off, chan=1 pitch=60 vol=64
Time=262769  Note off, chan=1 pitch=72 vol=64
Time=262787  Note on, chan=1 pitch=62 vol=43
Time=262802  Note on, chan=1 pitch=74 vol=39
Time=262984  Note off, chan=1 pitch=62 vol=64
Time=262996  Note off, chan=1 pitch=74 vol=64
Time=263048  Note on, chan=1 pitch=71 vol=45
Time=263065  Note on, chan=1 pitch=59 vol=47
Time=263254  Note off, chan=1 pitch=59 vol=64
Time=263304  Note on, chan=1 pitch=67 vol=51
Time=263306  Note on, chan=1 pitch=79 vol=27
Time=263310  Note off, chan=1 pitch=71 vol=64
Time=263467  Note off, chan=1 pitch=79 vol=64
Time=263515  Note off, chan=1 pitch=67 vol=64
Time=263529  Note on, chan=1 pitch=77 vol=50
Time=263544  Note on, chan=1 pitch=65 vol=47
Time=263689  Note off, chan=1 pitch=77 vol=64
Time=263742  Note off, chan=1 pitch=65 vol=64
Time=263775  Note on, chan=1 pitch=76 vol=49
Time=263780  Note on, chan=1 pitch=64 vol=54
Time=263935  Note off, chan=1 pitch=76 vol=64
Time=263990  Note on, chan=1 pitch=77 vol=37
Time=264057  Note off, chan=1 pitch=64 vol=64
Time=264091  Note on, chan=1 pitch=65 vol=35
Time=264266  Note off, chan=1 pitch=77 vol=64
Time=264351  Note on, chan=1 pitch=76 vol=32
Time=264415  Note off, chan=1 pitch=65 vol=64
Time=264543  Note off, chan=1 pitch=76 vol=64
Time=265017  Note on, chan=1 pitch=71 vol=31
Time=265041  Note on, chan=1 pitch=59 vol=32
Time=265223  Note off, chan=1 pitch=59 vol=64
Time=265251  Note on, chan=1 pitch=79 vol=42
Time=265260  Note off, chan=1 pitch=71 vol=64
Time=265278  Note on, chan=1 pitch=67 vol=42
Time=265499  Note off, chan=1 pitch=79 vol=64
Time=265508  Note off, chan=1 pitch=67 vol=64
Time=265512  Note on, chan=1 pitch=77 vol=44
Time=265525  Note on, chan=1 pitch=65 vol=33
Time=265688  Note off, chan=1 pitch=77 vol=64
Time=265761  Note on, chan=1 pitch=79 vol=31
Time=265803  Note off, chan=1 pitch=65 vol=64
Time=265811  Note on, chan=1 pitch=67 vol=42
Time=265881  Note off, chan=1 pitch=67 vol=64
Time=265890  Note off, chan=1 pitch=79 vol=64
Time=266886  Note on, chan=1 pitch=71 vol=49
Time=266889  Note on, chan=1 pitch=59 vol=45
Time=267059  Note off, chan=1 pitch=71 vol=64
Time=267108  Note off, chan=1 pitch=59 vol=64
Time=267138  Note on, chan=1 pitch=67 vol=42
Time=267139  Note on, chan=1 pitch=79 vol=39
Time=267280  Note off, chan=1 pitch=79 vol=64
Time=267331  Note off, chan=1 pitch=67 vol=64
Time=267363  Note on, chan=1 pitch=65 vol=38
Time=267365  Note on, chan=1 pitch=77 vol=42
Time=267533  Note off, chan=1 pitch=77 vol=64
Time=267578  Note off, chan=1 pitch=65 vol=64
Time=267588  Note on, chan=1 pitch=79 vol=34
Time=267603  Note on, chan=1 pitch=67 vol=40
Time=267758  Note off, chan=1 pitch=79 vol=64
Time=267777  Note off, chan=1 pitch=67 vol=64
Time=267828  Note on, chan=1 pitch=64 vol=44
Time=267848  Note on, chan=1 pitch=76 vol=48
Time=268001  Note off, chan=1 pitch=76 vol=64
Time=268023  Note off, chan=1 pitch=64 vol=64
Time=268073  Note on, chan=1 pitch=65 vol=37
Time=268074  Note on, chan=1 pitch=77 vol=40
Time=268275  Note off, chan=1 pitch=77 vol=64
Time=268282  Note off, chan=1 pitch=65 vol=64
Time=268324  Note on, chan=1 pitch=74 vol=51
Time=268338  Note on, chan=1 pitch=62 vol=35
Time=268520  Note off, chan=1 pitch=62 vol=64
Time=268523  Note off, chan=1 pitch=74 vol=64
Time=268548  Note on, chan=1 pitch=64 vol=41
Time=268569  Note on, chan=1 pitch=76 vol=36
Time=268756  Note off, chan=1 pitch=64 vol=64
Time=268760  Note off, chan=1 pitch=76 vol=64
Time=268803  Note on, chan=1 pitch=72 vol=39
Time=268811  Note on, chan=1 pitch=60 vol=42
Time=268991  Note off, chan=1 pitch=60 vol=64
Time=269002  Note off, chan=1 pitch=72 vol=64
Time=269046  Note on, chan=1 pitch=62 vol=42
Time=269053  Note on, chan=1 pitch=74 vol=44
Time=269222  Note off, chan=1 pitch=62 vol=64
Time=269250  Note off, chan=1 pitch=74 vol=64
Time=269271  Note on, chan=1 pitch=60 vol=36
Time=269294  Note on, chan=1 pitch=72 vol=36
Time=269478  Note off, chan=1 pitch=72 vol=64
Time=269481  Note off, chan=1 pitch=60 vol=64
Time=269536  Note on, chan=1 pitch=76 vol=40
Time=269541  Note on, chan=1 pitch=64 vol=37
Time=269705  Note off, chan=1 pitch=64 vol=64
Time=269711  Note off, chan=1 pitch=76 vol=64
Time=269763  Note on, chan=1 pitch=62 vol=39
Time=269769  Note on, chan=1 pitch=74 vol=43
Time=269963  Note off, chan=1 pitch=74 vol=64
Time=270005  Note on, chan=1 pitch=65 vol=36
Time=270023  Note on, chan=1 pitch=77 vol=28
Time=270051  Note off, chan=1 pitch=62 vol=64
Time=270167  Note off, chan=1 pitch=77 vol=64
Time=270203  Note off, chan=1 pitch=65 vol=64
Time=270229  Note on, chan=1 pitch=64 vol=51
Time=270248  Note on, chan=1 pitch=76 vol=37
Time=270429  Note off, chan=1 pitch=64 vol=64
Time=270440  Note off, chan=1 pitch=76 vol=64
Time=270480  Note on, chan=1 pitch=67 vol=36
Time=270482  Note on, chan=1 pitch=79 vol=38
Time=270653  Note off, chan=1 pitch=79 vol=64
Time=270713  Note on, chan=1 pitch=71 vol=42
Time=270731  Note off, chan=1 pitch=67 vol=64
Time=270742  Note on, chan=1 pitch=59 vol=40
Time=270893  Note off, chan=1 pitch=59 vol=64
Time=270938  Note off, chan=1 pitch=71 vol=64
Time=270945  Note on, chan=1 pitch=60 vol=41
Time=270974  Note on, chan=1 pitch=72 vol=39
Time=271134  Note off, chan=1 pitch=60 vol=64
Time=271160  Note off, chan=1 pitch=72 vol=64
Time=271172  Note on, chan=1 pitch=59 vol=45
Time=271214  Note on, chan=1 pitch=71 vol=38
Time=271371  Note off, chan=1 pitch=59 vol=64
Time=271395  Note off, chan=1 pitch=71 vol=64
Time=271418  Note on, chan=1 pitch=62 vol=38
Time=271442  Note on, chan=1 pitch=74 vol=39
Time=271626  Note off, chan=1 pitch=62 vol=64
Time=271629  Note off, chan=1 pitch=74 vol=64
Time=271676  Note on, chan=1 pitch=60 vol=38
Time=271680  Note on, chan=1 pitch=72 vol=39
Time=271882  Note off, chan=1 pitch=72 vol=64
Time=271926  Note on, chan=1 pitch=64 vol=39
Time=271943  Note on, chan=1 pitch=76 vol=38
Time=271959  Note off, chan=1 pitch=60 vol=64
Time=272093  Note off, chan=1 pitch=76 vol=64
Time=272124  Note off, chan=1 pitch=64 vol=64
Time=272152  Note on, chan=1 pitch=74 vol=38
Time=272168  Note on, chan=1 pitch=62 vol=40
Time=272351  Note off, chan=1 pitch=74 vol=64
Time=272358  Note off, chan=1 pitch=62 vol=64
Time=272406  Note on, chan=1 pitch=65 vol=38
Time=272408  Note on, chan=1 pitch=77 vol=40
Time=272590  Note off, chan=1 pitch=77 vol=64
Time=272655  Note on, chan=1 pitch=69 vol=47
Time=272670  Note on, chan=1 pitch=57 vol=50
Time=272678  Note off, chan=1 pitch=65 vol=64
Time=272850  Note off, chan=1 pitch=57 vol=64
Time=272882  Note off, chan=1 pitch=69 vol=64
Time=272886  Note on, chan=1 pitch=59 vol=42
Time=272916  Note on, chan=1 pitch=71 vol=40
Time=273101  Note off, chan=1 pitch=59 vol=64
Time=273122  Note off, chan=1 pitch=71 vol=64
Time=273126  Note on, chan=1 pitch=57 vol=48
Time=273158  Note on, chan=1 pitch=69 vol=41
Time=273323  Note off, chan=1 pitch=57 vol=64
Time=273345  Note off, chan=1 pitch=69 vol=64
Time=273372  Note on, chan=1 pitch=60 vol=44
Time=273387  Note on, chan=1 pitch=72 vol=42
Time=273563  Note off, chan=1 pitch=60 vol=64
Time=273581  Note off, chan=1 pitch=72 vol=64
Time=273618  Note on, chan=1 pitch=71 vol=44
Time=273624  Note on, chan=1 pitch=59 vol=40
Time=273839  Note off, chan=1 pitch=71 vol=64
Time=273846  Note on, chan=1 pitch=62 vol=36
Time=273872  Note on, chan=1 pitch=74 vol=37
Time=273878  Note off, chan=1 pitch=59 vol=64
Time=274031  Note off, chan=1 pitch=74 vol=64
Time=274055  Note off, chan=1 pitch=62 vol=64
Time=274089  Note on, chan=1 pitch=60 vol=41
Time=274095  Note on, chan=1 pitch=72 vol=42
Time=274281  Note off, chan=1 pitch=60 vol=64
Time=274313  Note off, chan=1 pitch=72 vol=64
Time=274344  Note on, chan=1 pitch=76 vol=47
Time=274352  Note on, chan=1 pitch=64 vol=42
Time=274521  Note off, chan=1 pitch=76 vol=64
Time=274576  Note on, chan=1 pitch=67 vol=52
Time=274583  Note on, chan=1 pitch=55 vol=44
Time=274593  Note off, chan=1 pitch=64 vol=64
Time=274766  Note off, chan=1 pitch=55 vol=64
Time=274801  Note off, chan=1 pitch=67 vol=64
Time=274816  Note on, chan=1 pitch=57 vol=44
Time=274834  Note on, chan=1 pitch=69 vol=42
Time=275025  Note off, chan=1 pitch=57 vol=64
Time=275028  Note off, chan=1 pitch=69 vol=64
Time=275058  Note on, chan=1 pitch=55 vol=43
Time=275064  Note on, chan=1 pitch=67 vol=46
Time=275265  Note off, chan=1 pitch=55 vol=64
Time=275273  Note off, chan=1 pitch=67 vol=64
Time=275304  Note on, chan=1 pitch=59 vol=35
Time=275306  Note on, chan=1 pitch=71 vol=40
Time=275469  Note off, chan=1 pitch=71 vol=64
Time=275483  Note off, chan=1 pitch=59 vol=64
Time=275523  Note on, chan=1 pitch=69 vol=43
Time=275525  Note on, chan=1 pitch=57 vol=47
Time=275744  Note off, chan=1 pitch=69 vol=64
Time=275761  Note on, chan=1 pitch=60 vol=37
Time=275787  Note on, chan=1 pitch=72 vol=36
Time=275792  Note off, chan=1 pitch=57 vol=64
Time=275952  Note off, chan=1 pitch=72 vol=64
Time=275975  Note off, chan=1 pitch=60 vol=64
Time=275999  Note on, chan=1 pitch=59 vol=43
Time=276000  Note on, chan=1 pitch=71 vol=43
Time=276216  Note off, chan=1 pitch=71 vol=64
Time=276239  Note off, chan=1 pitch=59 vol=64
Time=276245  Note on, chan=1 pitch=74 vol=39
Time=276260  Note on, chan=1 pitch=62 vol=38
Time=276404  Note off, chan=1 pitch=74 vol=64
Time=276465  Note on, chan=1 pitch=65 vol=41
Time=276471  Note off, chan=1 pitch=62 vol=64
Time=276485  Note on, chan=1 pitch=53 vol=44
Time=276668  Note off, chan=1 pitch=53 vol=64
Time=276683  Note off, chan=1 pitch=65 vol=64
Time=276704  Note on, chan=1 pitch=55 vol=46
Time=276717  Note on, chan=1 pitch=67 vol=39
Time=276912  Note off, chan=1 pitch=55 vol=64
Time=276942  Note off, chan=1 pitch=67 vol=64
Time=276945  Note on, chan=1 pitch=53 vol=52
Time=276971  Note on, chan=1 pitch=65 vol=44
Time=277152  Note off, chan=1 pitch=65 vol=64
Time=277161  Note off, chan=1 pitch=53 vol=64
Time=277187  Note on, chan=1 pitch=57 vol=42
Time=277208  Note on, chan=1 pitch=69 vol=44
Time=277365  Note off, chan=1 pitch=57 vol=64
Time=277395  Note off, chan=1 pitch=69 vol=64
Time=277401  Note on, chan=1 pitch=55 vol=46
Time=277440  Note on, chan=1 pitch=67 vol=42
Time=277656  Note off, chan=1 pitch=67 vol=64
Time=277685  Note on, chan=1 pitch=59 vol=34
Time=277692  Note off, chan=1 pitch=55 vol=64
Time=277703  Note on, chan=1 pitch=71 vol=35
Time=277934  Note off, chan=1 pitch=71 vol=64
Time=278051  Note off, chan=1 pitch=59 vol=64
Time=278086  Note on, chan=1 pitch=69 vol=18
Time=278163  Note off, chan=1 pitch=69 vol=64
Time=278226  Note on, chan=1 pitch=72 vol=36
Time=278337  Note off, chan=1 pitch=72 vol=64
Time=278436  Note on, chan=1 pitch=64 vol=51
Time=278448  Note on, chan=1 pitch=52 vol=59
Time=278631  Note off, chan=1 pitch=64 vol=64
Time=278636  Note off, chan=1 pitch=52 vol=64
Time=278646  Note on, chan=1 pitch=53 vol=54
Time=278677  Note on, chan=1 pitch=65 vol=35
Time=278829  Note off, chan=1 pitch=53 vol=64
Time=278855  Note off, chan=1 pitch=65 vol=64
Time=278906  Note on, chan=1 pitch=52 vol=32
Time=278915  Note on, chan=1 pitch=64 vol=36
Time=278993  Note off, chan=1 pitch=52 vol=64
Time=279094  Note off, chan=1 pitch=64 vol=64
Time=279136  Note on, chan=1 pitch=55 vol=29
Time=279150  Note on, chan=1 pitch=67 vol=39
Time=279296  Note off, chan=1 pitch=55 vol=64
Time=279328  Note off, chan=1 pitch=67 vol=64
Time=279362  Note on, chan=1 pitch=53 vol=41
Time=279393  Note on, chan=1 pitch=65 vol=43
Time=279599  Note off, chan=1 pitch=65 vol=64
Time=279617  Note on, chan=1 pitch=57 vol=44
Time=279653  Note on, chan=1 pitch=69 vol=36
Time=279680  Note off, chan=1 pitch=53 vol=64
Time=279809  Note off, chan=1 pitch=69 vol=64
Time=279828  Note off, chan=1 pitch=57 vol=64
Time=279849  Note on, chan=1 pitch=67 vol=40
Time=279865  Note on, chan=1 pitch=55 vol=39
Time=280056  Note off, chan=1 pitch=67 vol=64
Time=280089  Note off, chan=1 pitch=55 vol=64
Time=280102  Note on, chan=1 pitch=71 vol=36
Time=280116  Note on, chan=1 pitch=59 vol=36
Time=280260  Note off, chan=1 pitch=71 vol=64
Time=280326  Note on, chan=1 pitch=62 vol=38
Time=280341  Note on, chan=1 pitch=50 vol=44
Time=280343  Note off, chan=1 pitch=59 vol=64
Time=280529  Note off, chan=1 pitch=50 vol=64
Time=280568  Note off, chan=1 pitch=62 vol=64
Time=280581  Note on, chan=1 pitch=52 vol=39
Time=280604  Note on, chan=1 pitch=64 vol=43
Time=280770  Note off, chan=1 pitch=52 vol=64
Time=280811  Note off, chan=1 pitch=64 vol=64
Time=280814  Note on, chan=1 pitch=50 vol=46
Time=280836  Note on, chan=1 pitch=62 vol=39
Time=281034  Note off, chan=1 pitch=50 vol=64
Time=281045  Note off, chan=1 pitch=62 vol=64
Time=281061  Note on, chan=1 pitch=53 vol=32
Time=281065  Note on, chan=1 pitch=65 vol=43
Time=281257  Note off, chan=1 pitch=53 vol=64
Time=281273  Note off, chan=1 pitch=65 vol=64
Time=281292  Note on, chan=1 pitch=52 vol=44
Time=281309  Note on, chan=1 pitch=64 vol=40
Time=281531  Note on, chan=1 pitch=55 vol=35
Time=281537  Note off, chan=1 pitch=64 vol=64
Time=281558  Note on, chan=1 pitch=67 vol=37
Time=281603  Note off, chan=1 pitch=52 vol=64
Time=281729  Note off, chan=1 pitch=67 vol=64
Time=281733  Note off, chan=1 pitch=55 vol=64
Time=281781  Note on, chan=1 pitch=53 vol=28
Time=281783  Note on, chan=1 pitch=65 vol=40
Time=281987  Note off, chan=1 pitch=53 vol=64
Time=281994  Note off, chan=1 pitch=65 vol=64
Time=282016  Note on, chan=1 pitch=57 vol=45
Time=282036  Note on, chan=1 pitch=69 vol=37
Time=282188  Note off, chan=1 pitch=69 vol=64
Time=282236  Note on, chan=1 pitch=60 vol=42
Time=282248  Note off, chan=1 pitch=57 vol=64
Time=282252  Note on, chan=1 pitch=48 vol=43
Time=282425  Note off, chan=1 pitch=48 vol=64
Time=282469  Note off, chan=1 pitch=60 vol=64
Time=282475  Note on, chan=1 pitch=50 vol=42
Time=282499  Note on, chan=1 pitch=62 vol=40
Time=282677  Note off, chan=1 pitch=50 vol=64
Time=282710  Note on, chan=1 pitch=48 vol=49
Time=282717  Note off, chan=1 pitch=62 vol=64
Time=282743  Note on, chan=1 pitch=60 vol=38
Time=282936  Note off, chan=1 pitch=60 vol=64
Time=282939  Note off, chan=1 pitch=48 vol=64
Time=282960  Note on, chan=1 pitch=64 vol=45
Time=282966  Note on, chan=1 pitch=52 vol=36
Time=283160  Note off, chan=1 pitch=52 vol=64
Time=283171  Note off, chan=1 pitch=64 vol=64
Time=283196  Note on, chan=1 pitch=50 vol=48
Time=283211  Note on, chan=1 pitch=62 vol=39
Time=283417  Note off, chan=1 pitch=62 vol=64
Time=283427  Note on, chan=1 pitch=53 vol=42
Time=283451  Note on, chan=1 pitch=65 vol=38
Time=283461  Note off, chan=1 pitch=50 vol=64
Time=283624  Note off, chan=1 pitch=65 vol=64
Time=283635  Note off, chan=1 pitch=53 vol=64
Time=283669  Note on, chan=1 pitch=64 vol=43
Time=283684  Note on, chan=1 pitch=52 vol=36
Time=283890  Note off, chan=1 pitch=64 vol=64
Time=283917  Note off, chan=1 pitch=52 vol=64
Time=283920  Note on, chan=1 pitch=67 vol=37
Time=283927  Note on, chan=1 pitch=55 vol=40
Time=284085  Note off, chan=1 pitch=67 vol=64
Time=284165  Note on, chan=1 pitch=59 vol=41
Time=284166  Note off, chan=1 pitch=55 vol=64
Time=284175  Note on, chan=1 pitch=47 vol=44
Time=284348  Note off, chan=1 pitch=47 vol=64
Time=284355  Note off, chan=1 pitch=59 vol=64
Time=284391  Note on, chan=1 pitch=48 vol=39
Time=284415  Note on, chan=1 pitch=60 vol=39
Time=284603  Note off, chan=1 pitch=48 vol=64
Time=284628  Note off, chan=1 pitch=60 vol=64
Time=284634  Note on, chan=1 pitch=47 vol=50
Time=284643  Note on, chan=1 pitch=59 vol=40
Time=284840  Note off, chan=1 pitch=59 vol=64
Time=284851  Note off, chan=1 pitch=47 vol=64
Time=284862  Note on, chan=1 pitch=62 vol=42
Time=284866  Note on, chan=1 pitch=50 vol=44
Time=285067  Note off, chan=1 pitch=62 vol=64
Time=285069  Note off, chan=1 pitch=50 vol=64
Time=285103  Note on, chan=1 pitch=48 vol=45
Time=285107  Note on, chan=1 pitch=60 vol=37
Time=285335  Note off, chan=1 pitch=60 vol=64
Time=285353  Note on, chan=1 pitch=52 vol=45
Time=285366  Note off, chan=1 pitch=48 vol=64
Time=285371  Note on, chan=1 pitch=64 vol=40
Time=285505  Note off, chan=1 pitch=64 vol=64
Time=285554  Note off, chan=1 pitch=52 vol=64
Time=285578  Note on, chan=1 pitch=62 vol=40
Time=285586  Note on, chan=1 pitch=50 vol=42
Time=285792  Note off, chan=1 pitch=50 vol=64
Time=285806  Note off, chan=1 pitch=62 vol=64
Time=285816  Note on, chan=1 pitch=53 vol=45
Time=285843  Note on, chan=1 pitch=65 vol=38
Time=285952  Note off, chan=1 pitch=65 vol=64
Time=286061  Note off, chan=1 pitch=53 vol=64
Time=286064  Note on, chan=1 pitch=57 vol=41
Time=286084  Note on, chan=1 pitch=45 vol=40
Time=286230  Note off, chan=1 pitch=45 vol=64
Time=286281  Note on, chan=1 pitch=47 vol=45
Time=286289  Note off, chan=1 pitch=57 vol=64
Time=286343  Note on, chan=1 pitch=59 vol=43
Time=286478  Note off, chan=1 pitch=47 vol=64
Time=286530  Note on, chan=1 pitch=45 vol=39
Time=286541  Note off, chan=1 pitch=59 vol=64
Time=286557  Note on, chan=1 pitch=57 vol=44
Time=286724  Note off, chan=1 pitch=45 vol=64
Time=286760  Note off, chan=1 pitch=57 vol=64
Time=286771  Note on, chan=1 pitch=48 vol=40
Time=286787  Note on, chan=1 pitch=60 vol=40
Time=286954  Note off, chan=1 pitch=48 vol=64
Time=286997  Note off, chan=1 pitch=60 vol=64
Time=287016  Note on, chan=1 pitch=47 vol=38
Time=287030  Note on, chan=1 pitch=59 vol=41
Time=287261  Note off, chan=1 pitch=59 vol=64
Time=287285  Note on, chan=1 pitch=50 vol=45
Time=287290  Note on, chan=1 pitch=62 vol=36
Time=287318  Note off, chan=1 pitch=47 vol=64
Time=287478  Note off, chan=1 pitch=62 vol=64
Time=287511  Note off, chan=1 pitch=50 vol=64
Time=287518  Note on, chan=1 pitch=60 vol=40
Time=287537  Note on, chan=1 pitch=48 vol=38
Time=287726  Note off, chan=1 pitch=48 vol=64
Time=287756  Note off, chan=1 pitch=60 vol=64
Time=287766  Note on, chan=1 pitch=52 vol=44
Time=287792  Note on, chan=1 pitch=64 vol=39
Time=287885  Note off, chan=1 pitch=64 vol=64
Time=288007  Note on, chan=1 pitch=55 vol=44
Time=288009  Note off, chan=1 pitch=52 vol=64
Time=288011  Note on, chan=1 pitch=43 vol=47
Time=288182  Note off, chan=1 pitch=43 vol=64
Time=288230  Note on, chan=1 pitch=45 vol=45
Time=288236  Note off, chan=1 pitch=55 vol=64
Time=288267  Note on, chan=1 pitch=57 vol=44
Time=288437  Note off, chan=1 pitch=45 vol=64
Time=288465  Note on, chan=1 pitch=43 vol=40
Time=288485  Note off, chan=1 pitch=57 vol=64
Time=288497  Note on, chan=1 pitch=55 vol=43
Time=288683  Note off, chan=1 pitch=43 vol=64
Time=288696  Note off, chan=1 pitch=55 vol=64
Time=288717  Note on, chan=1 pitch=47 vol=41
Time=288735  Note on, chan=1 pitch=59 vol=37
Time=288915  Note off, chan=1 pitch=47 vol=64
Time=288941  Note off, chan=1 pitch=59 vol=64
Time=288969  Note on, chan=1 pitch=45 vol=41
Time=288981  Note on, chan=1 pitch=57 vol=42
Time=289204  Note on, chan=1 pitch=48 vol=38
Time=289214  Note off, chan=1 pitch=57 vol=64
Time=289230  Note on, chan=1 pitch=60 vol=39
Time=289235  Note off, chan=1 pitch=45 vol=64
Time=289389  Note off, chan=1 pitch=60 vol=64
Time=289421  Note off, chan=1 pitch=48 vol=64
Time=289442  Note on, chan=1 pitch=59 vol=39
Time=289455  Note on, chan=1 pitch=47 vol=36
Time=289676  Note off, chan=1 pitch=59 vol=64
Time=289688  Note off, chan=1 pitch=47 vol=64
Time=289691  Note on, chan=1 pitch=50 vol=42
Time=289718  Note on, chan=1 pitch=62 vol=28
Time=289811  Note off, chan=1 pitch=62 vol=64
Time=289937  Note off, chan=1 pitch=50 vol=64
Time=289940  Note on, chan=1 pitch=53 vol=47
Time=289950  Note on, chan=1 pitch=41 vol=33
Time=290114  Note off, chan=1 pitch=41 vol=64
Time=290158  Note off, chan=1 pitch=53 vol=64
Time=290183  Note on, chan=1 pitch=43 vol=51
Time=290200  Note on, chan=1 pitch=55 vol=41
Time=290366  Note off, chan=1 pitch=43 vol=64
Time=290403  Note off, chan=1 pitch=55 vol=64
Time=290424  Note on, chan=1 pitch=41 vol=45
Time=290426  Note on, chan=1 pitch=53 vol=42
Time=290620  Note off, chan=1 pitch=41 vol=64
Time=290633  Note off, chan=1 pitch=53 vol=64
Time=290657  Note on, chan=1 pitch=57 vol=38
Time=290658  Note on, chan=1 pitch=45 vol=43
Time=290836  Note off, chan=1 pitch=45 vol=64
Time=290852  Note off, chan=1 pitch=57 vol=64
Time=290877  Note on, chan=1 pitch=43 vol=44
Time=290903  Note on, chan=1 pitch=55 vol=40
Time=291111  Note off, chan=1 pitch=55 vol=64
Time=291118  Note on, chan=1 pitch=47 vol=40
Time=291136  Note off, chan=1 pitch=43 vol=64
Time=291156  Note on, chan=1 pitch=59 vol=37
Time=291321  Note off, chan=1 pitch=59 vol=64
Time=291344  Note off, chan=1 pitch=47 vol=64
Time=291367  Note on, chan=1 pitch=57 vol=40
Time=291374  Note on, chan=1 pitch=45 vol=40
Time=291577  Note off, chan=1 pitch=57 vol=64
Time=291602  Note on, chan=1 pitch=60 vol=44
Time=291626  Note on, chan=1 pitch=48 vol=37
Time=291636  Note off, chan=1 pitch=45 vol=64
Time=291793  Note off, chan=1 pitch=60 vol=64
Time=291857  Note on, chan=1 pitch=52 vol=44
Time=291866  Note off, chan=1 pitch=48 vol=64
Time=291869  Note on, chan=1 pitch=40 vol=54
Time=292050  Note off, chan=1 pitch=40 vol=64
Time=292062  Note off, chan=1 pitch=52 vol=64
Time=292088  Note on, chan=1 pitch=41 vol=37
Time=292106  Note on, chan=1 pitch=53 vol=41
Time=292282  Note off, chan=1 pitch=41 vol=64
Time=292323  Note off, chan=1 pitch=53 vol=64
Time=292328  Note on, chan=1 pitch=40 vol=47
Time=292343  Note on, chan=1 pitch=52 vol=41
Time=292541  Note off, chan=1 pitch=40 vol=64
Time=292545  Note off, chan=1 pitch=52 vol=64
Time=292568  Note on, chan=1 pitch=43 vol=46
Time=292575  Note on, chan=1 pitch=55 vol=43
Time=292755  Note off, chan=1 pitch=43 vol=64
Time=292776  Note off, chan=1 pitch=55 vol=64
Time=292805  Note on, chan=1 pitch=41 vol=36
Time=292817  Note on, chan=1 pitch=53 vol=45
Time=293034  Note off, chan=1 pitch=53 vol=64
Time=293041  Note off, chan=1 pitch=41 vol=64
Time=293046  Note on, chan=1 pitch=45 vol=43
Time=293063  Note on, chan=1 pitch=57 vol=41
Time=293237  Note off, chan=1 pitch=57 vol=64
Time=293240  Note off, chan=1 pitch=45 vol=64
Time=293270  Note on, chan=1 pitch=43 vol=42
Time=293272  Note on, chan=1 pitch=55 vol=43
Time=293466  Note off, chan=1 pitch=43 vol=64
Time=293486  Note off, chan=1 pitch=55 vol=64
Time=293515  Note on, chan=1 pitch=47 vol=44
Time=293519  Note on, chan=1 pitch=59 vol=38
Time=293682  Note off, chan=1 pitch=59 vol=64
Time=293760  Note on, chan=1 pitch=50 vol=47
Time=293780  Note on, chan=1 pitch=38 vol=44
Time=293783  Note off, chan=1 pitch=47 vol=64
Time=293912  Note off, chan=1 pitch=38 vol=64
Time=293968  Note on, chan=1 pitch=40 vol=42
Time=293975  Note off, chan=1 pitch=50 vol=64
Time=294017  Note on, chan=1 pitch=52 vol=40
Time=294170  Note off, chan=1 pitch=40 vol=64
Time=294207  Note on, chan=1 pitch=38 vol=37
Time=294221  Note off, chan=1 pitch=52 vol=64
Time=294241  Note on, chan=1 pitch=50 vol=41
Time=294414  Note off, chan=1 pitch=38 vol=64
Time=294448  Note on, chan=1 pitch=41 vol=43
Time=294450  Note off, chan=1 pitch=50 vol=64
Time=294466  Note on, chan=1 pitch=53 vol=46
Time=294633  Note off, chan=1 pitch=41 vol=64
Time=294679  Note off, chan=1 pitch=53 vol=64
Time=294688  Note on, chan=1 pitch=40 vol=47
Time=294716  Note on, chan=1 pitch=52 vol=51
Time=294936  Note off, chan=1 pitch=40 vol=64
Time=294938  Note on, chan=1 pitch=43 vol=46
Time=294950  Note off, chan=1 pitch=52 vol=64
Time=294959  Note on, chan=1 pitch=55 vol=43
Time=295133  Note off, chan=1 pitch=43 vol=64
Time=295158  Note off, chan=1 pitch=55 vol=64
Time=295192  Note on, chan=1 pitch=53 vol=47
Time=295202  Note on, chan=1 pitch=41 vol=39
Time=295384  Note off, chan=1 pitch=41 vol=64
Time=295390  Note off, chan=1 pitch=53 vol=64
Time=295413  Note on, chan=1 pitch=57 vol=43
Time=295418  Note on, chan=1 pitch=45 vol=44
Time=295551  Note off, chan=1 pitch=57 vol=64
Time=295655  Note off, chan=1 pitch=45 vol=64
Time=295661  Note on, chan=1 pitch=48 vol=54
Time=295682  Note on, chan=1 pitch=36 vol=41
Time=295835  Note off, chan=1 pitch=36 vol=64
Time=295886  Note off, chan=1 pitch=48 vol=64
Time=295910  Note on, chan=1 pitch=38 vol=36
Time=295928  Note on, chan=1 pitch=50 vol=44
Time=296087  Note off, chan=1 pitch=38 vol=64
Time=296139  Note on, chan=1 pitch=36 vol=37
Time=296156  Note on, chan=1 pitch=48 vol=44
Time=296159  Note off, chan=1 pitch=50 vol=64
Time=296311  Note off, chan=1 pitch=36 vol=64
Time=296369  Note off, chan=1 pitch=48 vol=64
Time=296375  Note on, chan=1 pitch=40 vol=33
Time=296378  Note on, chan=1 pitch=52 vol=39
Time=296571  Note off, chan=1 pitch=40 vol=64
Time=296604  Note off, chan=1 pitch=52 vol=64
Time=296615  Note on, chan=1 pitch=38 vol=46
Time=296636  Note on, chan=1 pitch=50 vol=41
Time=296850  Note off, chan=1 pitch=38 vol=64
Time=296864  Note on, chan=1 pitch=41 vol=48
Time=296872  Note on, chan=1 pitch=53 vol=45
Time=296890  Note off, chan=1 pitch=50 vol=64
Time=297075  Note off, chan=1 pitch=41 vol=64
Time=297086  Note off, chan=1 pitch=53 vol=64
Time=297141  Note on, chan=1 pitch=40 vol=42
Time=297148  Note on, chan=1 pitch=52 vol=48
Time=297554  Note off, chan=1 pitch=40 vol=64
Time=297579  Note off, chan=1 pitch=52 vol=64
Time=297645  Note on, chan=1 pitch=36 vol=56
Time=297648  Note on, chan=1 pitch=48 vol=49
Time=299553  Note off, chan=1 pitch=36 vol=64
Time=299876  Note on, chan=1 pitch=36 vol=1
Time=301289  Note off, chan=1 pitch=36 vol=64
Time=301302  Note off, chan=1 pitch=48 vol=64
Time=311066  Note on, chan=1 pitch=48 vol=61
Time=311069  Note on, chan=1 pitch=36 vol=47
Time=311241  Note off, chan=1 pitch=48 vol=64
Time=311300  Note off, chan=1 pitch=36 vol=64
Time=311312  Note on, chan=1 pitch=45 vol=41
Time=311313  Note on, chan=1 pitch=57 vol=45
Time=311495  Note off, chan=1 pitch=57 vol=64
Time=311523  Note off, chan=1 pitch=45 vol=64
Time=311547  Note on, chan=1 pitch=55 vol=48
Time=311559  Note on, chan=1 pitch=43 vol=35
Time=311735  Note off, chan=1 pitch=55 vol=64
Time=311750  Note off, chan=1 pitch=43 vol=64
Time=311771  Note on, chan=1 pitch=45 vol=32
Time=311793  Note on, chan=1 pitch=57 vol=40
Time=311948  Note off, chan=1 pitch=57 vol=64
Time=311978  Note off, chan=1 pitch=45 vol=64
Time=312017  Note on, chan=1 pitch=41 vol=37
Time=312022  Note on, chan=1 pitch=53 vol=48
Time=312176  Note off, chan=1 pitch=53 vol=64
Time=312216  Note off, chan=1 pitch=41 vol=64
Time=312218  Note on, chan=1 pitch=57 vol=44
Time=312229  Note on, chan=1 pitch=45 vol=36
Time=312371  Note off, chan=1 pitch=57 vol=64
Time=312430  Note off, chan=1 pitch=45 vol=64
Time=312464  Note on, chan=1 pitch=52 vol=43
Time=312470  Note on, chan=1 pitch=40 vol=47
Time=312651  Note off, chan=1 pitch=52 vol=64
Time=312691  Note on, chan=1 pitch=57 vol=43
Time=312699  Note off, chan=1 pitch=40 vol=64
Time=312705  Note on, chan=1 pitch=45 vol=43
Time=312855  Note off, chan=1 pitch=57 vol=64
Time=312890  Note off, chan=1 pitch=45 vol=64
Time=312931  Note on, chan=1 pitch=38 vol=55
Time=312935  Note on, chan=1 pitch=50 vol=41
Time=313141  Note off, chan=1 pitch=38 vol=64
Time=313184  Note off, chan=1 pitch=50 vol=64
Time=313185  Note on, chan=1 pitch=47 vol=41
Time=313208  Note on, chan=1 pitch=59 vol=37
Time=313367  Note off, chan=1 pitch=59 vol=64
Time=313381  Note off, chan=1 pitch=47 vol=64
Time=313422  Note on, chan=1 pitch=45 vol=36
Time=313445  Note on, chan=1 pitch=57 vol=49
Time=313616  Note off, chan=1 pitch=57 vol=64
Time=313623  Note off, chan=1 pitch=45 vol=64
Time=313653  Note on, chan=1 pitch=47 vol=39
Time=313692  Note on, chan=1 pitch=59 vol=44
Time=313833  Note off, chan=1 pitch=59 vol=64
Time=313859  Note off, chan=1 pitch=47 vol=64
Time=313890  Note on, chan=1 pitch=43 vol=41
Time=313905  Note on, chan=1 pitch=55 vol=40
Time=314103  Note off, chan=1 pitch=55 vol=64
Time=314114  Note off, chan=1 pitch=43 vol=64
Time=314137  Note on, chan=1 pitch=47 vol=40
Time=314141  Note on, chan=1 pitch=59 vol=44
Time=314306  Note off, chan=1 pitch=59 vol=64
Time=314334  Note off, chan=1 pitch=47 vol=64
Time=314367  Note on, chan=1 pitch=53 vol=42
Time=314380  Note on, chan=1 pitch=41 vol=44
Time=314571  Note off, chan=1 pitch=41 vol=64
Time=314582  Note off, chan=1 pitch=53 vol=64
Time=314604  Note on, chan=1 pitch=47 vol=48
Time=314611  Note on, chan=1 pitch=59 vol=43
Time=314736  Note off, chan=1 pitch=59 vol=64
Time=314794  Note off, chan=1 pitch=47 vol=64
Time=314849  Note on, chan=1 pitch=40 vol=48
Time=314855  Note on, chan=1 pitch=52 vol=46
Time=315038  Note off, chan=1 pitch=40 vol=64
Time=315080  Note off, chan=1 pitch=52 vol=64
Time=315087  Note on, chan=1 pitch=48 vol=38
Time=315101  Note on, chan=1 pitch=60 vol=35
Time=315272  Note off, chan=1 pitch=60 vol=64
Time=315308  Note off, chan=1 pitch=48 vol=64
Time=315333  Note on, chan=1 pitch=59 vol=42
Time=315345  Note on, chan=1 pitch=47 vol=34
Time=315525  Note off, chan=1 pitch=59 vol=64
Time=315527  Note off, chan=1 pitch=47 vol=64
Time=315566  Note on, chan=1 pitch=48 vol=41
Time=315581  Note on, chan=1 pitch=60 vol=44
Time=315738  Note off, chan=1 pitch=60 vol=64
Time=315774  Note off, chan=1 pitch=48 vol=64
Time=315802  Note on, chan=1 pitch=45 vol=41
Time=315818  Note on, chan=1 pitch=57 vol=39
Time=315993  Note off, chan=1 pitch=57 vol=64
Time=316006  Note off, chan=1 pitch=45 vol=64
Time=316040  Note on, chan=1 pitch=60 vol=44
Time=316051  Note on, chan=1 pitch=48 vol=40
Time=316218  Note off, chan=1 pitch=60 vol=64
Time=316243  Note off, chan=1 pitch=48 vol=64
Time=316283  Note on, chan=1 pitch=43 vol=49
Time=316287  Note on, chan=1 pitch=55 vol=37
Time=316469  Note off, chan=1 pitch=43 vol=64
Time=316491  Note off, chan=1 pitch=55 vol=64
Time=316508  Note on, chan=1 pitch=48 vol=45
Time=316527  Note on, chan=1 pitch=60 vol=41
Time=316713  Note off, chan=1 pitch=60 vol=64
Time=316734  Note off, chan=1 pitch=48 vol=64
Time=316761  Note on, chan=1 pitch=41 vol=48
Time=316778  Note on, chan=1 pitch=53 vol=47
Time=316968  Note off, chan=1 pitch=41 vol=64
Time=316973  Note off, chan=1 pitch=53 vol=64
Time=317019  Note on, chan=1 pitch=50 vol=38
Time=317036  Note on, chan=1 pitch=62 vol=40
Time=317171  Note off, chan=1 pitch=62 vol=64
Time=317219  Note off, chan=1 pitch=50 vol=64
Time=317264  Note on, chan=1 pitch=48 vol=34
Time=317268  Note on, chan=1 pitch=60 vol=44
Time=317466  Note off, chan=1 pitch=48 vol=64
Time=317478  Note on, chan=1 pitch=50 vol=39
Time=317493  Note off, chan=1 pitch=60 vol=64
Time=317510  Note on, chan=1 pitch=62 vol=54
Time=317678  Note off, chan=1 pitch=62 vol=64
Time=317703  Note off, chan=1 pitch=50 vol=64
Time=317729  Note on, chan=1 pitch=47 vol=40
Time=317756  Note on, chan=1 pitch=59 vol=36
Time=317926  Note off, chan=1 pitch=59 vol=64
Time=317939  Note off, chan=1 pitch=47 vol=64
Time=317966  Note on, chan=1 pitch=62 vol=39
Time=317969  Note on, chan=1 pitch=50 vol=41
Time=318153  Note off, chan=1 pitch=62 vol=64
Time=318173  Note off, chan=1 pitch=50 vol=64
Time=318205  Note on, chan=1 pitch=45 vol=47
Time=318212  Note on, chan=1 pitch=57 vol=39
Time=318420  Note off, chan=1 pitch=57 vol=64
Time=318423  Note off, chan=1 pitch=45 vol=64
Time=318426  Note on, chan=1 pitch=50 vol=43
Time=318443  Note on, chan=1 pitch=62 vol=40
Time=318624  Note off, chan=1 pitch=62 vol=64
Time=318656  Note off, chan=1 pitch=50 vol=64
Time=318681  Note on, chan=1 pitch=43 vol=31
Time=318715  Note on, chan=1 pitch=55 vol=46
Time=318888  Note off, chan=1 pitch=43 vol=64
Time=318905  Note off, chan=1 pitch=55 vol=64
Time=318912  Note on, chan=1 pitch=52 vol=38
Time=318955  Note on, chan=1 pitch=64 vol=57
Time=319142  Note off, chan=1 pitch=64 vol=64
Time=319171  Note on, chan=1 pitch=50 vol=45
Time=319174  Note off, chan=1 pitch=52 vol=64
Time=319178  Note on, chan=1 pitch=62 vol=44
Time=319362  Note off, chan=1 pitch=62 vol=64
Time=319410  Note on, chan=1 pitch=64 vol=36
Time=319420  Note on, chan=1 pitch=52 vol=48
Time=319443  Note off, chan=1 pitch=50 vol=64
Time=319590  Note off, chan=1 pitch=64 vol=64
Time=319628  Note off, chan=1 pitch=52 vol=64
Time=319649  Note on, chan=1 pitch=60 vol=45
Time=319653  Note on, chan=1 pitch=48 vol=42
Time=319849  Note off, chan=1 pitch=60 vol=64
Time=319866  Note off, chan=1 pitch=48 vol=64
Time=319885  Note on, chan=1 pitch=64 vol=47
Time=319893  Note on, chan=1 pitch=52 vol=40
Time=320062  Note off, chan=1 pitch=64 vol=64
Time=320117  Note off, chan=1 pitch=52 vol=64
Time=320136  Note on, chan=1 pitch=47 vol=50
Time=320138  Note on, chan=1 pitch=59 vol=39
Time=320365  Note off, chan=1 pitch=59 vol=64
Time=320377  Note on, chan=1 pitch=64 vol=44
Time=320391  Note off, chan=1 pitch=47 vol=64
Time=320393  Note on, chan=1 pitch=52 vol=32
Time=320598  Note off, chan=1 pitch=64 vol=64
Time=320615  Note off, chan=1 pitch=52 vol=64
Time=320631  Note on, chan=1 pitch=45 vol=57
Time=320637  Note on, chan=1 pitch=57 vol=54
Time=320880  Note on, chan=1 pitch=53 vol=46
Time=320883  Note on, chan=1 pitch=65 vol=49
Time=320886  Note off, chan=1 pitch=57 vol=64
Time=320891  Note off, chan=1 pitch=45 vol=64
Time=321051  Note off, chan=1 pitch=65 vol=64
Time=321101  Note on, chan=1 pitch=52 vol=42
Time=321105  Note off, chan=1 pitch=53 vol=64
Time=321111  Note on, chan=1 pitch=64 vol=43
Time=321313  Note off, chan=1 pitch=64 vol=64
Time=321323  Note off, chan=1 pitch=52 vol=64
Time=321356  Note on, chan=1 pitch=65 vol=46
Time=321359  Note on, chan=1 pitch=53 vol=54
Time=321507  Note off, chan=1 pitch=65 vol=64
Time=321562  Note off, chan=1 pitch=53 vol=64
Time=321583  Note on, chan=1 pitch=50 vol=47
Time=321601  Note on, chan=1 pitch=62 vol=39
Time=321788  Note off, chan=1 pitch=62 vol=64
Time=321807  Note off, chan=1 pitch=50 vol=64
Time=321816  Note on, chan=1 pitch=53 vol=35
Time=321826  Note on, chan=1 pitch=65 vol=45
Time=322008  Note off, chan=1 pitch=65 vol=64
Time=322047  Note off, chan=1 pitch=53 vol=64
Time=322061  Note on, chan=1 pitch=48 vol=54
Time=322076  Note on, chan=1 pitch=60 vol=42
Time=322300  Note on, chan=1 pitch=65 vol=55
Time=322304  Note on, chan=1 pitch=53 vol=43
Time=322314  Note off, chan=1 pitch=60 vol=64
Time=322389  Note off, chan=1 pitch=48 vol=64
Time=322533  Note off, chan=1 pitch=65 vol=64
Time=322542  Note off, chan=1 pitch=53 vol=64
Time=322547  Note on, chan=1 pitch=47 vol=54
Time=322570  Note on, chan=1 pitch=59 vol=57
Time=322788  Note off, chan=1 pitch=47 vol=64
Time=322789  Note on, chan=1 pitch=55 vol=43
Time=322791  Note off, chan=1 pitch=59 vol=64
Time=322817  Note on, chan=1 pitch=67 vol=48
Time=322984  Note off, chan=1 pitch=67 vol=64
Time=323016  Note off, chan=1 pitch=55 vol=64
Time=323028  Note on, chan=1 pitch=65 vol=49
Time=323039  Note on, chan=1 pitch=53 vol=36
Time=323238  Note off, chan=1 pitch=65 vol=64
Time=323276  Note off, chan=1 pitch=53 vol=64
Time=323278  Note on, chan=1 pitch=67 vol=44
Time=323282  Note on, chan=1 pitch=55 vol=43
Time=323456  Note off, chan=1 pitch=67 vol=64
Time=323495  Note off, chan=1 pitch=55 vol=64
Time=323505  Note on, chan=1 pitch=52 vol=36
Time=323531  Note on, chan=1 pitch=64 vol=46
Time=323708  Note off, chan=1 pitch=64 vol=64
Time=323744  Note on, chan=1 pitch=67 vol=45
Time=323747  Note off, chan=1 pitch=52 vol=64
Time=323749  Note on, chan=1 pitch=55 vol=43
Time=323970  Note off, chan=1 pitch=67 vol=64
Time=323987  Note off, chan=1 pitch=55 vol=64
Time=323988  Note on, chan=1 pitch=50 vol=55
Time=323996  Note on, chan=1 pitch=62 vol=49
Time=324231  Note on, chan=1 pitch=55 vol=49
Time=324246  Note on, chan=1 pitch=67 vol=44
Time=324270  Note off, chan=1 pitch=50 vol=64
Time=324273  Note off, chan=1 pitch=62 vol=64
Time=324411  Note off, chan=1 pitch=67 vol=64
Time=324455  Note off, chan=1 pitch=55 vol=64
Time=324473  Note on, chan=1 pitch=48 vol=57
Time=324488  Note on, chan=1 pitch=60 vol=46
Time=324713  Note off, chan=1 pitch=60 vol=64
Time=324718  Note on, chan=1 pitch=57 vol=45
Time=324722  Note off, chan=1 pitch=48 vol=64
Time=324728  Note on, chan=1 pitch=69 vol=48
Time=324887  Note off, chan=1 pitch=69 vol=64
Time=324960  Note on, chan=1 pitch=67 vol=42
Time=324963  Note on, chan=1 pitch=55 vol=40
Time=324966  Note off, chan=1 pitch=57 vol=64
Time=325163  Note off, chan=1 pitch=67 vol=64
Time=325208  Note on, chan=1 pitch=69 vol=39
Time=325215  Note off, chan=1 pitch=55 vol=64
Time=325224  Note on, chan=1 pitch=57 vol=46
Time=325385  Note off, chan=1 pitch=69 vol=64
Time=325419  Note off, chan=1 pitch=57 vol=64
Time=325436  Note on, chan=1 pitch=53 vol=37
Time=325466  Note on, chan=1 pitch=65 vol=49
Time=325641  Note off, chan=1 pitch=65 vol=64
Time=325680  Note on, chan=1 pitch=57 vol=46
Time=325695  Note on, chan=1 pitch=67 vol=45
Time=325698  Note off, chan=1 pitch=53 vol=64
Time=325871  Note off, chan=1 pitch=57 vol=64
Time=325900  Note off, chan=1 pitch=67 vol=64
Time=325928  Note on, chan=1 pitch=52 vol=56
Time=325943  Note on, chan=1 pitch=64 vol=44
Time=326135  Note on, chan=1 pitch=57 vol=46
Time=326143  Note off, chan=1 pitch=52 vol=64
Time=326145  Note off, chan=1 pitch=64 vol=64
Time=326262  Note on, chan=1 pitch=65 vol=8
Time=326337  Note off, chan=1 pitch=65 vol=64
Time=326351  Note off, chan=1 pitch=57 vol=64
Time=326391  Note on, chan=1 pitch=50 vol=58
Time=326420  Note on, chan=1 pitch=62 vol=44
Time=326622  Note off, chan=1 pitch=50 vol=64
Time=326627  Note off, chan=1 pitch=62 vol=64
Time=326645  Note on, chan=1 pitch=59 vol=40
Time=326661  Note on, chan=1 pitch=71 vol=44
Time=326824  Note off, chan=1 pitch=71 vol=64
Time=326873  Note off, chan=1 pitch=59 vol=64
Time=326888  Note on, chan=1 pitch=57 vol=40
Time=326890  Note on, chan=1 pitch=69 vol=43
Time=327090  Note off, chan=1 pitch=69 vol=64
Time=327114  Note off, chan=1 pitch=57 vol=64
Time=327131  Note on, chan=1 pitch=59 vol=40
Time=327138  Note on, chan=1 pitch=71 vol=46
Time=327338  Note off, chan=1 pitch=71 vol=64
Time=327348  Note off, chan=1 pitch=59 vol=64
Time=327366  Note on, chan=1 pitch=55 vol=43
Time=327377  Note on, chan=1 pitch=67 vol=43
Time=327567  Note off, chan=1 pitch=67 vol=64
Time=327612  Note on, chan=1 pitch=71 vol=43
Time=327615  Note off, chan=1 pitch=55 vol=64
Time=327624  Note on, chan=1 pitch=59 vol=40
Time=327788  Note off, chan=1 pitch=71 vol=64
Time=327823  Note off, chan=1 pitch=59 vol=64
Time=327843  Note on, chan=1 pitch=53 vol=55
Time=327851  Note on, chan=1 pitch=65 vol=37
Time=328063  Note off, chan=1 pitch=65 vol=64
Time=328094  Note on, chan=1 pitch=71 vol=41
Time=328097  Note on, chan=1 pitch=59 vol=44
Time=328109  Note off, chan=1 pitch=53 vol=64
Time=328271  Note off, chan=1 pitch=71 vol=64
Time=328326  Note off, chan=1 pitch=59 vol=64
Time=328334  Note on, chan=1 pitch=64 vol=46
Time=328337  Note on, chan=1 pitch=52 vol=49
Time=328533  Note off, chan=1 pitch=64 vol=64
Time=328568  Note on, chan=1 pitch=72 vol=44
Time=328571  Note on, chan=1 pitch=60 vol=43
Time=328581  Note off, chan=1 pitch=52 vol=64
Time=328743  Note off, chan=1 pitch=72 vol=64
Time=328778  Note off, chan=1 pitch=60 vol=64
Time=328808  Note on, chan=1 pitch=71 vol=38
Time=328811  Note on, chan=1 pitch=59 vol=36
Time=328989  Note off, chan=1 pitch=71 vol=64
Time=328999  Note off, chan=1 pitch=59 vol=64
Time=329032  Note on, chan=1 pitch=60 vol=45
Time=329048  Note on, chan=1 pitch=72 vol=43
Time=329201  Note off, chan=1 pitch=72 vol=64
Time=329254  Note off, chan=1 pitch=60 vol=64
Time=329264  Note on, chan=1 pitch=57 vol=40
Time=329292  Note on, chan=1 pitch=69 vol=44
Time=329472  Note off, chan=1 pitch=69 vol=64
Time=329495  Note off, chan=1 pitch=57 vol=64
Time=329499  Note on, chan=1 pitch=60 vol=52
Time=329706  Note off, chan=1 pitch=60 vol=64
Time=329754  Note on, chan=1 pitch=55 vol=52
Time=329935  Note off, chan=1 pitch=55 vol=64
Time=329973  Note on, chan=1 pitch=60 vol=42
Time=330185  Note off, chan=1 pitch=60 vol=64
Time=330203  Note on, chan=1 pitch=53 vol=47
Time=330248  Note on, chan=1 pitch=65 vol=46
Time=330422  Note off, chan=1 pitch=65 vol=64
Time=330452  Note off, chan=1 pitch=53 vol=64
Time=330461  Note on, chan=1 pitch=62 vol=40
Time=330477  Note on, chan=1 pitch=74 vol=36
Time=330608  Note off, chan=1 pitch=74 vol=64
Time=330693  Note off, chan=1 pitch=62 vol=64
Time=330702  Note on, chan=1 pitch=72 vol=40
Time=330713  Note on, chan=1 pitch=60 vol=40
Time=330888  Note off, chan=1 pitch=72 vol=64
Time=330930  Note off, chan=1 pitch=60 vol=64
Time=330936  Note on, chan=1 pitch=74 vol=50
Time=330958  Note on, chan=1 pitch=62 vol=39
Time=331157  Note off, chan=1 pitch=62 vol=64
Time=331181  Note on, chan=1 pitch=59 vol=40
Time=331188  Note off, chan=1 pitch=74 vol=64
Time=331202  Note on, chan=1 pitch=71 vol=50
Time=331413  Note off, chan=1 pitch=59 vol=64
Time=331431  Note off, chan=1 pitch=71 vol=64
Time=331433  Note on, chan=1 pitch=62 vol=37
Time=331457  Note on, chan=1 pitch=74 vol=51
Time=331648  Note off, chan=1 pitch=62 vol=64
Time=331652  Note off, chan=1 pitch=74 vol=64
Time=331671  Note on, chan=1 pitch=69 vol=56
Time=331673  Note on, chan=1 pitch=57 vol=47
Time=331910  Note on, chan=1 pitch=62 vol=41
Time=331911  Note on, chan=1 pitch=74 vol=54
Time=331924  Note off, chan=1 pitch=57 vol=64
Time=331947  Note off, chan=1 pitch=69 vol=64
Time=332121  Note off, chan=1 pitch=62 vol=64
Time=332127  Note off, chan=1 pitch=74 vol=64
Time=332145  Note on, chan=1 pitch=67 vol=56
Time=332160  Note on, chan=1 pitch=55 vol=52
Time=332390  Note off, chan=1 pitch=55 vol=64
Time=332411  Note off, chan=1 pitch=67 vol=64
Time=332415  Note on, chan=1 pitch=64 vol=45
Time=332426  Note on, chan=1 pitch=76 vol=47
Time=332603  Note off, chan=1 pitch=76 vol=64
Time=332631  Note on, chan=1 pitch=74 vol=49
Time=332653  Note off, chan=1 pitch=64 vol=64
Time=332662  Note on, chan=1 pitch=62 vol=42
Time=332877  Note off, chan=1 pitch=74 vol=64
Time=332884  Note on, chan=1 pitch=76 vol=56
Time=332906  Note off, chan=1 pitch=62 vol=64
Time=332909  Note on, chan=1 pitch=64 vol=48
Time=333101  Note off, chan=1 pitch=76 vol=64
Time=333118  Note off, chan=1 pitch=64 vol=64
Time=333121  Note on, chan=1 pitch=60 vol=48
Time=333138  Note on, chan=1 pitch=72 vol=52
Time=333342  Note off, chan=1 pitch=72 vol=64
Time=333345  Note on, chan=1 pitch=64 vol=44
Time=333356  Note off, chan=1 pitch=60 vol=64
Time=333371  Note on, chan=1 pitch=74 vol=44
Time=333555  Note off, chan=1 pitch=64 vol=64
Time=333599  Note on, chan=1 pitch=59 vol=51
Time=333609  Note on, chan=1 pitch=71 vol=47
Time=333627  Note off, chan=1 pitch=74 vol=64
Time=333816  Note on, chan=1 pitch=64 vol=47
Time=333855  Note off, chan=1 pitch=59 vol=64
Time=333938  Note off, chan=1 pitch=71 vol=64
Time=334028  Note off, chan=1 pitch=64 vol=64
Time=334061  Note on, chan=1 pitch=69 vol=56
Time=334063  Note on, chan=1 pitch=57 vol=63
Time=334287  Note off, chan=1 pitch=57 vol=64
Time=334318  Note on, chan=1 pitch=65 vol=45
Time=334333  Note off, chan=1 pitch=69 vol=64
Time=334338  Note on, chan=1 pitch=77 vol=32
Time=334506  Note off, chan=1 pitch=77 vol=64
Time=334534  Note off, chan=1 pitch=65 vol=64
Time=334555  Note on, chan=1 pitch=76 vol=50
Time=334560  Note on, chan=1 pitch=64 vol=49
Time=334754  Note off, chan=1 pitch=76 vol=64
Time=334797  Note on, chan=1 pitch=77 vol=50
Time=334803  Note off, chan=1 pitch=64 vol=64
Time=334818  Note on, chan=1 pitch=65 vol=49
Time=334997  Note off, chan=1 pitch=65 vol=64
Time=335029  Note off, chan=1 pitch=77 vol=64
Time=335039  Note on, chan=1 pitch=62 vol=42
Time=335051  Note on, chan=1 pitch=74 vol=56
Time=335257  Note off, chan=1 pitch=62 vol=64
Time=335267  Note off, chan=1 pitch=74 vol=64
Time=335280  Note on, chan=1 pitch=65 vol=44
Time=335288  Note on, chan=1 pitch=77 vol=49
Time=335478  Note off, chan=1 pitch=65 vol=64
Time=335508  Note off, chan=1 pitch=77 vol=64
Time=335520  Note on, chan=1 pitch=72 vol=54
Time=335524  Note on, chan=1 pitch=60 vol=49
Time=335762  Note on, chan=1 pitch=77 vol=46
Time=335783  Note on, chan=1 pitch=65 vol=43
Time=335785  Note off, chan=1 pitch=72 vol=64
Time=335792  Note off, chan=1 pitch=60 vol=64
Time=335978  Note off, chan=1 pitch=65 vol=64
Time=335982  Note off, chan=1 pitch=77 vol=64
Time=336033  Note on, chan=1 pitch=59 vol=56
Time=336035  Note on, chan=1 pitch=71 vol=50
Time=336237  Note off, chan=1 pitch=59 vol=64
Time=336249  Note off, chan=1 pitch=71 vol=64
Time=336263  Note on, chan=1 pitch=67 vol=50
Time=336272  Note on, chan=1 pitch=79 vol=54
Time=336479  Note off, chan=1 pitch=79 vol=64
Time=336498  Note off, chan=1 pitch=67 vol=64
Time=336513  Note on, chan=1 pitch=65 vol=47
Time=336517  Note on, chan=1 pitch=77 vol=55
Time=336691  Note off, chan=1 pitch=77 vol=64
Time=336740  Note off, chan=1 pitch=65 vol=64
Time=336750  Note on, chan=1 pitch=79 vol=56
Time=336765  Note on, chan=1 pitch=67 vol=55
Time=336977  Note off, chan=1 pitch=67 vol=64
Time=336993  Note off, chan=1 pitch=79 vol=64
Time=337002  Note on, chan=1 pitch=64 vol=46
Time=337027  Note on, chan=1 pitch=76 vol=47
Time=337197  Note off, chan=1 pitch=76 vol=64
Time=337265  Note on, chan=1 pitch=77 vol=40
Time=337357  Note off, chan=1 pitch=64 vol=64
Time=337481  Note off, chan=1 pitch=77 vol=64
Time=337511  Note on, chan=1 pitch=74 vol=51
Time=337733  Note off, chan=1 pitch=74 vol=64
Time=337737  Note on, chan=1 pitch=79 vol=50
Time=337925  Note off, chan=1 pitch=79 vol=64
Time=337970  Note on, chan=1 pitch=71 vol=47
Time=338135  Note off, chan=1 pitch=71 vol=64
Time=339796  Note on, chan=1 pitch=59 vol=58
Time=339810  Note on, chan=1 pitch=71 vol=56
Time=339998  Note off, chan=1 pitch=71 vol=64
Time=340067  Note off, chan=1 pitch=59 vol=64
Time=340076  Note on, chan=1 pitch=67 vol=50
Time=340085  Note on, chan=1 pitch=79 vol=49
Time=340251  Note off, chan=1 pitch=79 vol=64
Time=340286  Note off, chan=1 pitch=67 vol=64
Time=340316  Note on, chan=1 pitch=77 vol=49
Time=340317  Note on, chan=1 pitch=65 vol=39
Time=340495  Note off, chan=1 pitch=77 vol=64
Time=340518  Note off, chan=1 pitch=65 vol=64
Time=340562  Note on, chan=1 pitch=67 vol=40
Time=340571  Note on, chan=1 pitch=79 vol=47
Time=340737  Note off, chan=1 pitch=79 vol=64
Time=340757  Note off, chan=1 pitch=67 vol=64
Time=340790  Note on, chan=1 pitch=64 vol=47
Time=340810  Note on, chan=1 pitch=76 vol=50
Time=341009  Note off, chan=1 pitch=76 vol=64
Time=341031  Note off, chan=1 pitch=64 vol=64
Time=341042  Note on, chan=1 pitch=79 vol=42
Time=341050  Note on, chan=1 pitch=67 vol=54
Time=341193  Note off, chan=1 pitch=67 vol=64
Time=341218  Note off, chan=1 pitch=79 vol=64
Time=341288  Note on, chan=1 pitch=62 vol=47
Time=341304  Note on, chan=1 pitch=74 vol=42
Time=341370  Note off, chan=1 pitch=74 vol=64
Time=341563  Note on, chan=1 pitch=72 vol=55
Time=341573  Note off, chan=1 pitch=62 vol=64
Time=341703  Note off, chan=1 pitch=72 vol=64
Time=341793  Note on, chan=1 pitch=79 vol=64
Time=341808  Note on, chan=1 pitch=67 vol=57
Time=342000  Note off, chan=1 pitch=79 vol=64
Time=342024  Note on, chan=1 pitch=71 vol=54
Time=342040  Note on, chan=1 pitch=59 vol=57
Time=342056  Note off, chan=1 pitch=67 vol=64
Time=342177  Note off, chan=1 pitch=59 vol=64
Time=342229  Note off, chan=1 pitch=71 vol=64
Time=342253  Note on, chan=1 pitch=60 vol=52
Time=342269  Note on, chan=1 pitch=72 vol=55
Time=342415  Note off, chan=1 pitch=60 vol=64
Time=342456  Note off, chan=1 pitch=72 vol=64
Time=342490  Note on, chan=1 pitch=59 vol=41
Time=342510  Note on, chan=1 pitch=71 vol=42
Time=342700  Note off, chan=1 pitch=59 vol=64
Time=342703  Note off, chan=1 pitch=71 vol=64
Time=342734  Note on, chan=1 pitch=62 vol=52
Time=342743  Note on, chan=1 pitch=74 vol=47
Time=342910  Note off, chan=1 pitch=62 vol=64
Time=342960  Note off, chan=1 pitch=74 vol=64
Time=342987  Note on, chan=1 pitch=71 vol=42
Time=342992  Note on, chan=1 pitch=59 vol=36
Time=343161  Note off, chan=1 pitch=59 vol=64
Time=343191  Note off, chan=1 pitch=71 vol=64
Time=343221  Note on, chan=1 pitch=64 vol=40
Time=343224  Note on, chan=1 pitch=76 vol=47
Time=343415  Note off, chan=1 pitch=64 vol=64
Time=343424  Note off, chan=1 pitch=76 vol=64
Time=343440  Note on, chan=1 pitch=59 vol=44
Time=343478  Note on, chan=1 pitch=71 vol=40
Time=343548  Note off, chan=1 pitch=71 vol=64
Time=343595  Note off, chan=1 pitch=59 vol=64
Time=343662  Note on, chan=1 pitch=65 vol=52
Time=343671  Note on, chan=1 pitch=77 vol=60
Time=343848  Note off, chan=1 pitch=77 vol=64
Time=343926  Note on, chan=1 pitch=57 vol=51
Time=343929  Note on, chan=1 pitch=69 vol=45
Time=343940  Note off, chan=1 pitch=65 vol=64
Time=344049  Note off, chan=1 pitch=57 vol=64
Time=344125  Note off, chan=1 pitch=69 vol=64
Time=344173  Note on, chan=1 pitch=59 vol=43
Time=344196  Note on, chan=1 pitch=71 vol=35
Time=344231  Note off, chan=1 pitch=59 vol=64
Time=344366  Note off, chan=1 pitch=71 vol=64
Time=344371  Note on, chan=1 pitch=59 vol=20
Time=344435  Note on, chan=1 pitch=69 vol=40
Time=344448  Note off, chan=1 pitch=59 vol=64
Time=344641  Note off, chan=1 pitch=69 vol=64
Time=344691  Note on, chan=1 pitch=72 vol=46
Time=344891  Note off, chan=1 pitch=72 vol=64
Time=344930  Note on, chan=1 pitch=69 vol=35
Time=345128  Note off, chan=1 pitch=69 vol=64
Time=345156  Note on, chan=1 pitch=74 vol=48
Time=345360  Note off, chan=1 pitch=74 vol=64
Time=345395  Note on, chan=1 pitch=69 vol=39
Time=345474  Note off, chan=1 pitch=69 vol=64
Time=345603  Note on, chan=1 pitch=76 vol=75
Time=345782  Note off, chan=1 pitch=76 vol=64
Time=345896  Note on, chan=1 pitch=67 vol=23
Time=345969  Note off, chan=1 pitch=67 vol=64
Time=347512  Note on, chan=1 pitch=59 vol=58
Time=347516  Note on, chan=1 pitch=71 vol=52
Time=347714  Note off, chan=1 pitch=71 vol=64
Time=347765  Note off, chan=1 pitch=59 vol=64
Time=347768  Note on, chan=1 pitch=79 vol=49
Time=347772  Note on, chan=1 pitch=67 vol=50
Time=347958  Note off, chan=1 pitch=79 vol=64
Time=347976  Note off, chan=1 pitch=67 vol=64
Time=348006  Note on, chan=1 pitch=65 vol=36
Time=348018  Note on, chan=1 pitch=77 vol=47
Time=348196  Note off, chan=1 pitch=77 vol=64
Time=348211  Note off, chan=1 pitch=65 vol=64
Time=348253  Note on, chan=1 pitch=67 vol=43
Time=348256  Note on, chan=1 pitch=79 vol=45
Time=348420  Note off, chan=1 pitch=79 vol=64
Time=348443  Note off, chan=1 pitch=67 vol=64
Time=348468  Note on, chan=1 pitch=64 vol=47
Time=348491  Note on, chan=1 pitch=76 vol=43
Time=348656  Note off, chan=1 pitch=76 vol=64
Time=348693  Note off, chan=1 pitch=64 vol=64
Time=348705  Note on, chan=1 pitch=67 vol=49
Time=348761  Note on, chan=1 pitch=77 vol=36
Time=348860  Note off, chan=1 pitch=77 vol=64
Time=348880  Note off, chan=1 pitch=67 vol=64
Time=348951  Note on, chan=1 pitch=62 vol=51
Time=348974  Note on, chan=1 pitch=74 vol=35
Time=349014  Note off, chan=1 pitch=62 vol=64
Time=349060  Note off, chan=1 pitch=74 vol=64
Time=351386  Note on, chan=1 pitch=59 vol=52
Time=351389  Note on, chan=1 pitch=71 vol=50
Time=351603  Note off, chan=1 pitch=71 vol=64
Time=351608  Note off, chan=1 pitch=59 vol=64
Time=351620  Note on, chan=1 pitch=67 vol=46
Time=351627  Note on, chan=1 pitch=79 vol=51
Time=351801  Note off, chan=1 pitch=79 vol=64
Time=351831  Note off, chan=1 pitch=67 vol=64
Time=351853  Note on, chan=1 pitch=77 vol=49
Time=351855  Note on, chan=1 pitch=65 vol=40
Time=352027  Note off, chan=1 pitch=77 vol=64
Time=352058  Note off, chan=1 pitch=65 vol=64
Time=352090  Note on, chan=1 pitch=79 vol=48
Time=352095  Note on, chan=1 pitch=67 vol=47
Time=352257  Note off, chan=1 pitch=67 vol=64
Time=352260  Note off, chan=1 pitch=79 vol=64
Time=352301  Note on, chan=1 pitch=64 vol=51
Time=352341  Note on, chan=1 pitch=76 vol=45
Time=352487  Note off, chan=1 pitch=76 vol=64
Time=352496  Note off, chan=1 pitch=64 vol=64
Time=352536  Note on, chan=1 pitch=67 vol=47
Time=352551  Note on, chan=1 pitch=77 vol=44
Time=352676  Note off, chan=1 pitch=67 vol=64
Time=352725  Note off, chan=1 pitch=77 vol=64
Time=352785  Note on, chan=1 pitch=74 vol=51
Time=352788  Note on, chan=1 pitch=62 vol=49
Time=352958  Note off, chan=1 pitch=74 vol=64
Time=352971  Note off, chan=1 pitch=62 vol=64
Time=353003  Note on, chan=1 pitch=60 vol=56
Time=353013  Note on, chan=1 pitch=72 vol=52
Time=353143  Note off, chan=1 pitch=60 vol=64
Time=353165  Note off, chan=1 pitch=72 vol=64
Time=353256  Note on, chan=1 pitch=67 vol=57
Time=353261  Note on, chan=1 pitch=79 vol=54
Time=353438  Note off, chan=1 pitch=79 vol=64
Time=353451  Note off, chan=1 pitch=67 vol=64
Time=353498  Note on, chan=1 pitch=71 vol=42
Time=353511  Note on, chan=1 pitch=59 vol=45
Time=353611  Note off, chan=1 pitch=59 vol=64
Time=353682  Note off, chan=1 pitch=71 vol=64
Time=353700  Note on, chan=1 pitch=60 vol=36
Time=353744  Note on, chan=1 pitch=72 vol=50
Time=353879  Note off, chan=1 pitch=60 vol=64
Time=353921  Note off, chan=1 pitch=72 vol=64
Time=353973  Note on, chan=1 pitch=59 vol=41
Time=353982  Note on, chan=1 pitch=71 vol=42
Time=354128  Note off, chan=1 pitch=71 vol=64
Time=354131  Note off, chan=1 pitch=59 vol=64
Time=354205  Note on, chan=1 pitch=74 vol=56
Time=354221  Note on, chan=1 pitch=62 vol=44
Time=354379  Note off, chan=1 pitch=62 vol=64
Time=354416  Note off, chan=1 pitch=74 vol=64
Time=354475  Note on, chan=1 pitch=71 vol=36
Time=354488  Note on, chan=1 pitch=59 vol=39
Time=354584  Note off, chan=1 pitch=59 vol=64
Time=354670  Note off, chan=1 pitch=71 vol=64
Time=354710  Note on, chan=1 pitch=76 vol=50
Time=354720  Note on, chan=1 pitch=64 vol=36
Time=354894  Note off, chan=1 pitch=64 vol=64
Time=354916  Note off, chan=1 pitch=76 vol=64
Time=354950  Note on, chan=1 pitch=59 vol=33
Time=354981  Note on, chan=1 pitch=71 vol=33
Time=355068  Note off, chan=1 pitch=71 vol=64
Time=355115  Note off, chan=1 pitch=59 vol=64
Time=355173  Note on, chan=1 pitch=77 vol=54
Time=355190  Note on, chan=1 pitch=65 vol=41
Time=355354  Note off, chan=1 pitch=77 vol=64
Time=355432  Note off, chan=1 pitch=65 vol=64
Time=355436  Note on, chan=1 pitch=57 vol=55
Time=355470  Note on, chan=1 pitch=69 vol=45
Time=355614  Note off, chan=1 pitch=57 vol=64
Time=355683  Note on, chan=1 pitch=59 vol=45
Time=355686  Note off, chan=1 pitch=69 vol=64
Time=355708  Note on, chan=1 pitch=71 vol=43
Time=355858  Note off, chan=1 pitch=59 vol=64
Time=355896  Note off, chan=1 pitch=71 vol=64
Time=355946  Note on, chan=1 pitch=57 vol=34
Time=355965  Note on, chan=1 pitch=69 vol=43
Time=356151  Note off, chan=1 pitch=57 vol=64
Time=356153  Note off, chan=1 pitch=69 vol=64
Time=356183  Note on, chan=1 pitch=72 vol=50
Time=356188  Note on, chan=1 pitch=60 vol=45
Time=356408  Note off, chan=1 pitch=72 vol=64
Time=356410  Note off, chan=1 pitch=60 vol=64
Time=356427  Note on, chan=1 pitch=69 vol=49
Time=356445  Note on, chan=1 pitch=57 vol=42
Time=356605  Note off, chan=1 pitch=57 vol=64
Time=356643  Note off, chan=1 pitch=69 vol=64
Time=356656  Note on, chan=1 pitch=62 vol=41
Time=356662  Note on, chan=1 pitch=74 vol=52
Time=356861  Note off, chan=1 pitch=62 vol=64
Time=356886  Note on, chan=1 pitch=57 vol=39
Time=356903  Note off, chan=1 pitch=74 vol=64
Time=356908  Note on, chan=1 pitch=69 vol=45
Time=356994  Note off, chan=1 pitch=69 vol=64
Time=357077  Note off, chan=1 pitch=57 vol=64
Time=357128  Note on, chan=1 pitch=76 vol=59
Time=357130  Note on, chan=1 pitch=64 vol=47
Time=357335  Note off, chan=1 pitch=76 vol=64
Time=357391  Note on, chan=1 pitch=55 vol=49
Time=357401  Note off, chan=1 pitch=64 vol=64
Time=357403  Note on, chan=1 pitch=67 vol=42
Time=357555  Note off, chan=1 pitch=55 vol=64
Time=357618  Note off, chan=1 pitch=67 vol=64
Time=357621  Note on, chan=1 pitch=57 vol=47
Time=357645  Note on, chan=1 pitch=69 vol=50
Time=357828  Note off, chan=1 pitch=57 vol=64
Time=357848  Note on, chan=1 pitch=55 vol=45
Time=357849  Note off, chan=1 pitch=69 vol=64
Time=357872  Note on, chan=1 pitch=67 vol=40
Time=358067  Note off, chan=1 pitch=67 vol=64
Time=358082  Note off, chan=1 pitch=55 vol=64
Time=358097  Note on, chan=1 pitch=59 vol=42
Time=358103  Note on, chan=1 pitch=71 vol=47
Time=358286  Note off, chan=1 pitch=59 vol=64
Time=358328  Note off, chan=1 pitch=71 vol=64
Time=358331  Note on, chan=1 pitch=67 vol=42
Time=358333  Note on, chan=1 pitch=55 vol=47
Time=358526  Note off, chan=1 pitch=55 vol=64
Time=358547  Note on, chan=1 pitch=60 vol=39
Time=358551  Note off, chan=1 pitch=67 vol=64
Time=358560  Note on, chan=1 pitch=72 vol=48
Time=358763  Note off, chan=1 pitch=60 vol=64
Time=358787  Note on, chan=1 pitch=55 vol=45
Time=358804  Note off, chan=1 pitch=72 vol=64
Time=358817  Note on, chan=1 pitch=67 vol=40
Time=358981  Note off, chan=1 pitch=55 vol=64
Time=358987  Note off, chan=1 pitch=67 vol=64
Time=359032  Note on, chan=1 pitch=62 vol=44
Time=359033  Note on, chan=1 pitch=74 vol=55
Time=359247  Note off, chan=1 pitch=74 vol=64
Time=359294  Note off, chan=1 pitch=62 vol=64
Time=359303  Note on, chan=1 pitch=53 vol=51
Time=359306  Note on, chan=1 pitch=65 vol=49
Time=359493  Note off, chan=1 pitch=53 vol=64
Time=359526  Note off, chan=1 pitch=65 vol=64
Time=359539  Note on, chan=1 pitch=55 vol=47
Time=359556  Note on, chan=1 pitch=67 vol=45
Time=359712  Note off, chan=1 pitch=55 vol=64
Time=359747  Note off, chan=1 pitch=67 vol=64
Time=359751  Note on, chan=1 pitch=53 vol=42
Time=359786  Note on, chan=1 pitch=65 vol=44
Time=359979  Note off, chan=1 pitch=65 vol=64
Time=359996  Note off, chan=1 pitch=53 vol=64
Time=360002  Note on, chan=1 pitch=57 vol=43
Time=360011  Note on, chan=1 pitch=69 vol=49
Time=360198  Note off, chan=1 pitch=57 vol=64
Time=360221  Note on, chan=1 pitch=53 vol=37
Time=360239  Note on, chan=1 pitch=65 vol=46
Time=360241  Note off, chan=1 pitch=69 vol=64
Time=360445  Note off, chan=1 pitch=53 vol=64
Time=360458  Note off, chan=1 pitch=65 vol=64
Time=360466  Note on, chan=1 pitch=59 vol=38
Time=360477  Note on, chan=1 pitch=71 vol=39
Time=360665  Note off, chan=1 pitch=59 vol=64
Time=360684  Note on, chan=1 pitch=53 vol=37
Time=360702  Note off, chan=1 pitch=71 vol=64
Time=360738  Note on, chan=1 pitch=65 vol=38
Time=360885  Note off, chan=1 pitch=53 vol=64
Time=360923  Note off, chan=1 pitch=65 vol=64
Time=360938  Note on, chan=1 pitch=60 vol=40
Time=360955  Note on, chan=1 pitch=72 vol=47
Time=361178  Note off, chan=1 pitch=72 vol=64
Time=361206  Note off, chan=1 pitch=60 vol=64
Time=361208  Note on, chan=1 pitch=52 vol=49
Time=361215  Note on, chan=1 pitch=64 vol=49
Time=361410  Note off, chan=1 pitch=52 vol=64
Time=361427  Note off, chan=1 pitch=64 vol=64
Time=361437  Note on, chan=1 pitch=53 vol=46
Time=361455  Note on, chan=1 pitch=65 vol=46
Time=361622  Note off, chan=1 pitch=53 vol=64
Time=361643  Note off, chan=1 pitch=65 vol=64
Time=361665  Note on, chan=1 pitch=52 vol=45
Time=361687  Note on, chan=1 pitch=64 vol=44
Time=361897  Note off, chan=1 pitch=64 vol=64
Time=361901  Note on, chan=1 pitch=55 vol=55
Time=361907  Note off, chan=1 pitch=52 vol=64
Time=361911  Note on, chan=1 pitch=67 vol=44
Time=362117  Note off, chan=1 pitch=55 vol=64
Time=362136  Note on, chan=1 pitch=52 vol=44
Time=362147  Note off, chan=1 pitch=67 vol=64
Time=362154  Note on, chan=1 pitch=64 vol=42
Time=362368  Note off, chan=1 pitch=52 vol=64
Time=362371  Note on, chan=1 pitch=57 vol=43
Time=362390  Note off, chan=1 pitch=64 vol=64
Time=362392  Note on, chan=1 pitch=69 vol=50
Time=362580  Note off, chan=1 pitch=69 vol=64
Time=362583  Note off, chan=1 pitch=57 vol=64
Time=362601  Note on, chan=1 pitch=52 vol=49
Time=362639  Note on, chan=1 pitch=64 vol=40
Time=362822  Note off, chan=1 pitch=52 vol=64
Time=362843  Note off, chan=1 pitch=64 vol=64
Time=362857  Note on, chan=1 pitch=59 vol=50
Time=362866  Note on, chan=1 pitch=71 vol=45
Time=363097  Note off, chan=1 pitch=71 vol=64
Time=363136  Note on, chan=1 pitch=62 vol=54
Time=363138  Note on, chan=1 pitch=50 vol=52
Time=363146  Note off, chan=1 pitch=59 vol=64
Time=363301  Note off, chan=1 pitch=50 vol=64
Time=363338  Note off, chan=1 pitch=62 vol=64
Time=363344  Note on, chan=1 pitch=52 vol=43
Time=363375  Note on, chan=1 pitch=64 vol=43
Time=363570  Note off, chan=1 pitch=64 vol=64
Time=363572  Note off, chan=1 pitch=52 vol=64
Time=363588  Note on, chan=1 pitch=50 vol=45
Time=363590  Note on, chan=1 pitch=62 vol=45
Time=363809  Note off, chan=1 pitch=62 vol=64
Time=363816  Note off, chan=1 pitch=50 vol=64
Time=363824  Note on, chan=1 pitch=65 vol=49
Time=363842  Note on, chan=1 pitch=53 vol=27
Time=364049  Note off, chan=1 pitch=53 vol=64
Time=364068  Note off, chan=1 pitch=65 vol=64
Time=364079  Note on, chan=1 pitch=50 vol=52
Time=364080  Note on, chan=1 pitch=62 vol=45
Time=364267  Note off, chan=1 pitch=50 vol=64
Time=364293  Note on, chan=1 pitch=55 vol=42
Time=364298  Note off, chan=1 pitch=62 vol=64
Time=364318  Note on, chan=1 pitch=67 vol=44
Time=364506  Note off, chan=1 pitch=55 vol=64
Time=364523  Note on, chan=1 pitch=50 vol=41
Time=364547  Note off, chan=1 pitch=67 vol=64
Time=364583  Note on, chan=1 pitch=62 vol=41
Time=364772  Note off, chan=1 pitch=50 vol=64
Time=364785  Note off, chan=1 pitch=62 vol=64
Time=364795  Note on, chan=1 pitch=69 vol=55
Time=364796  Note on, chan=1 pitch=57 vol=57
Time=365021  Note off, chan=1 pitch=69 vol=64
Time=365061  Note off, chan=1 pitch=57 vol=64
Time=365063  Note on, chan=1 pitch=60 vol=48
Time=365067  Note on, chan=1 pitch=48 vol=50
Time=365250  Note off, chan=1 pitch=48 vol=64
Time=365267  Note off, chan=1 pitch=60 vol=64
Time=365269  Note on, chan=1 pitch=50 vol=45
Time=365299  Note on, chan=1 pitch=62 vol=41
Time=365488  Note off, chan=1 pitch=50 vol=64
Time=365500  Note off, chan=1 pitch=62 vol=64
Time=365523  Note on, chan=1 pitch=48 vol=46
Time=365538  Note on, chan=1 pitch=60 vol=40
Time=365741  Note off, chan=1 pitch=48 vol=64
Time=365754  Note on, chan=1 pitch=52 vol=48
Time=365773  Note off, chan=1 pitch=60 vol=64
Time=365781  Note on, chan=1 pitch=64 vol=40
Time=365970  Note off, chan=1 pitch=52 vol=64
Time=365994  Note on, chan=1 pitch=48 vol=39
Time=366002  Note off, chan=1 pitch=64 vol=64
Time=366033  Note on, chan=1 pitch=60 vol=42
Time=366188  Note off, chan=1 pitch=48 vol=64
Time=366223  Note off, chan=1 pitch=60 vol=64
Time=366230  Note on, chan=1 pitch=53 vol=41
Time=366250  Note on, chan=1 pitch=65 vol=48
Time=366438  Note off, chan=1 pitch=53 vol=64
Time=366460  Note on, chan=1 pitch=48 vol=47
Time=366483  Note off, chan=1 pitch=65 vol=64
Time=366488  Note on, chan=1 pitch=60 vol=46
Time=366675  Note off, chan=1 pitch=60 vol=64
Time=366690  Note off, chan=1 pitch=48 vol=64
Time=366703  Note on, chan=1 pitch=67 vol=50
Time=366706  Note on, chan=1 pitch=55 vol=49
Time=366917  Note off, chan=1 pitch=67 vol=64
Time=366976  Note on, chan=1 pitch=59 vol=45
Time=366980  Note off, chan=1 pitch=55 vol=64
Time=366989  Note on, chan=1 pitch=47 vol=48
Time=367154  Note off, chan=1 pitch=47 vol=64
Time=367182  Note off, chan=1 pitch=59 vol=64
Time=367193  Note on, chan=1 pitch=48 vol=49
Time=367214  Note on, chan=1 pitch=60 vol=46
Time=367383  Note off, chan=1 pitch=48 vol=64
Time=367418  Note on, chan=1 pitch=47 vol=44
Time=367420  Note off, chan=1 pitch=60 vol=64
Time=367449  Note on, chan=1 pitch=59 vol=40
Time=367651  Note off, chan=1 pitch=47 vol=64
Time=367665  Note off, chan=1 pitch=59 vol=64
Time=367670  Note on, chan=1 pitch=50 vol=51
Time=367688  Note on, chan=1 pitch=62 vol=41
Time=367883  Note off, chan=1 pitch=50 vol=64
Time=367912  Note off, chan=1 pitch=62 vol=64
Time=367926  Note on, chan=1 pitch=47 vol=43
Time=367958  Note on, chan=1 pitch=59 vol=40
Time=368127  Note off, chan=1 pitch=47 vol=64
Time=368130  Note off, chan=1 pitch=59 vol=64
Time=368157  Note on, chan=1 pitch=52 vol=36
Time=368165  Note on, chan=1 pitch=64 vol=45
Time=368360  Note off, chan=1 pitch=52 vol=64
Time=368387  Note off, chan=1 pitch=64 vol=64
Time=368391  Note on, chan=1 pitch=47 vol=46
Time=368432  Note on, chan=1 pitch=59 vol=40
Time=368516  Note off, chan=1 pitch=59 vol=64
Time=368634  Note off, chan=1 pitch=47 vol=64
Time=368651  Note on, chan=1 pitch=53 vol=47
Time=368658  Note on, chan=1 pitch=65 vol=47
Time=368855  Note off, chan=1 pitch=65 vol=64
Time=368892  Note off, chan=1 pitch=53 vol=64
Time=368916  Note on, chan=1 pitch=45 vol=49
Time=368919  Note on, chan=1 pitch=57 vol=47
Time=369086  Note off, chan=1 pitch=45 vol=64
Time=369110  Note off, chan=1 pitch=57 vol=64
Time=369130  Note on, chan=1 pitch=47 vol=44
Time=369156  Note on, chan=1 pitch=59 vol=44
Time=369314  Note off, chan=1 pitch=47 vol=64
Time=369354  Note off, chan=1 pitch=59 vol=64
Time=369363  Note on, chan=1 pitch=45 vol=42
Time=369399  Note on, chan=1 pitch=57 vol=50
Time=369587  Note off, chan=1 pitch=45 vol=64
Time=369605  Note off, chan=1 pitch=57 vol=64
Time=369609  Note on, chan=1 pitch=48 vol=45
Time=369623  Note on, chan=1 pitch=60 vol=42
Time=369805  Note off, chan=1 pitch=48 vol=64
Time=369836  Note on, chan=1 pitch=45 vol=38
Time=369842  Note off, chan=1 pitch=60 vol=64
Time=369855  Note on, chan=1 pitch=57 vol=43
Time=370068  Note off, chan=1 pitch=57 vol=64
Time=370070  Note off, chan=1 pitch=45 vol=64
Time=370071  Note on, chan=1 pitch=50 vol=40
Time=370078  Note on, chan=1 pitch=62 vol=45
Time=370275  Note off, chan=1 pitch=50 vol=64
Time=370293  Note off, chan=1 pitch=62 vol=64
Time=370301  Note on, chan=1 pitch=45 vol=36
Time=370320  Note on, chan=1 pitch=57 vol=40
Time=370505  Note off, chan=1 pitch=57 vol=64
Time=370543  Note off, chan=1 pitch=45 vol=64
Time=370548  Note on, chan=1 pitch=64 vol=50
Time=370555  Note on, chan=1 pitch=52 vol=47
Time=370744  Note off, chan=1 pitch=64 vol=64
Time=370820  Note off, chan=1 pitch=52 vol=64
Time=370830  Note on, chan=1 pitch=43 vol=52
Time=370837  Note on, chan=1 pitch=55 vol=38
Time=370998  Note off, chan=1 pitch=43 vol=64
Time=371026  Note off, chan=1 pitch=55 vol=64
Time=371028  Note on, chan=1 pitch=45 vol=42
Time=371060  Note on, chan=1 pitch=57 vol=43
Time=371228  Note off, chan=1 pitch=45 vol=64
Time=371265  Note off, chan=1 pitch=57 vol=64
Time=371273  Note on, chan=1 pitch=43 vol=37
Time=371295  Note on, chan=1 pitch=55 vol=40
Time=371503  Note off, chan=1 pitch=43 vol=64
Time=371517  Note off, chan=1 pitch=55 vol=64
Time=371519  Note on, chan=1 pitch=47 vol=54
Time=371531  Note on, chan=1 pitch=59 vol=46
Time=371717  Note off, chan=1 pitch=47 vol=64
Time=371752  Note off, chan=1 pitch=59 vol=64
Time=371769  Note on, chan=1 pitch=55 vol=41
Time=371771  Note on, chan=1 pitch=43 vol=39
Time=371984  Note off, chan=1 pitch=43 vol=64
Time=371995  Note off, chan=1 pitch=55 vol=64
Time=371996  Note on, chan=1 pitch=60 vol=48
Time=372008  Note on, chan=1 pitch=48 vol=38
Time=372173  Note off, chan=1 pitch=48 vol=64
Time=372213  Note on, chan=1 pitch=43 vol=38
Time=372231  Note off, chan=1 pitch=60 vol=64
Time=372245  Note on, chan=1 pitch=55 vol=42
Time=372448  Note off, chan=1 pitch=55 vol=64
Time=372452  Note off, chan=1 pitch=43 vol=64
Time=372456  Note on, chan=1 pitch=50 vol=49
Time=372470  Note on, chan=1 pitch=62 vol=57
Time=372686  Note off, chan=1 pitch=62 vol=64
Time=372745  Note off, chan=1 pitch=50 vol=64
Time=372749  Note on, chan=1 pitch=53 vol=47
Time=372750  Note on, chan=1 pitch=41 vol=46
Time=372915  Note off, chan=1 pitch=41 vol=64
Time=372952  Note off, chan=1 pitch=53 vol=64
Time=372963  Note on, chan=1 pitch=43 vol=41
Time=372994  Note on, chan=1 pitch=55 vol=45
Time=373170  Note off, chan=1 pitch=43 vol=64
Time=373185  Note on, chan=1 pitch=41 vol=42
Time=373191  Note off, chan=1 pitch=55 vol=64
Time=373221  Note on, chan=1 pitch=53 vol=41
Time=373410  Note off, chan=1 pitch=41 vol=64
Time=373428  Note off, chan=1 pitch=53 vol=64
Time=373446  Note on, chan=1 pitch=45 vol=45
Time=373454  Note on, chan=1 pitch=57 vol=51
Time=373627  Note off, chan=1 pitch=45 vol=64
Time=373656  Note off, chan=1 pitch=57 vol=64
Time=373681  Note on, chan=1 pitch=41 vol=42
Time=373686  Note on, chan=1 pitch=53 vol=40
Time=373886  Note off, chan=1 pitch=53 vol=64
Time=373889  Note off, chan=1 pitch=41 vol=64
Time=373903  Note on, chan=1 pitch=59 vol=47
Time=373908  Note on, chan=1 pitch=47 vol=36
Time=374087  Note off, chan=1 pitch=47 vol=64
Time=374114  Note off, chan=1 pitch=59 vol=64
Time=374121  Note on, chan=1 pitch=41 vol=39
Time=374166  Note on, chan=1 pitch=53 vol=37
Time=374364  Note off, chan=1 pitch=53 vol=64
Time=374369  Note off, chan=1 pitch=41 vol=64
Time=374376  Note on, chan=1 pitch=48 vol=56
Time=374381  Note on, chan=1 pitch=60 vol=47
Time=374603  Note off, chan=1 pitch=60 vol=64
Time=374631  Note off, chan=1 pitch=48 vol=64
Time=374671  Note on, chan=1 pitch=40 vol=50
Time=374674  Note on, chan=1 pitch=52 vol=41
Time=374840  Note off, chan=1 pitch=40 vol=64
Time=374885  Note off, chan=1 pitch=52 vol=64
Time=374891  Note on, chan=1 pitch=41 vol=40
Time=374903  Note on, chan=1 pitch=53 vol=45
Time=375073  Note off, chan=1 pitch=41 vol=64
Time=375116  Note off, chan=1 pitch=53 vol=64
Time=375136  Note on, chan=1 pitch=40 vol=36
Time=375170  Note on, chan=1 pitch=52 vol=40
Time=375360  Note off, chan=1 pitch=40 vol=64
Time=375375  Note on, chan=1 pitch=43 vol=46
Time=375387  Note off, chan=1 pitch=52 vol=64
Time=375396  Note on, chan=1 pitch=55 vol=47
Time=375547  Note off, chan=1 pitch=43 vol=64
Time=375606  Note off, chan=1 pitch=55 vol=64
Time=375621  Note on, chan=1 pitch=40 vol=42
Time=375630  Note on, chan=1 pitch=52 vol=39
Time=375823  Note off, chan=1 pitch=40 vol=64
Time=375842  Note on, chan=1 pitch=57 vol=50
Time=375844  Note on, chan=1 pitch=45 vol=37
Time=375848  Note off, chan=1 pitch=52 vol=64
Time=376037  Note off, chan=1 pitch=45 vol=64
Time=376081  Note on, chan=1 pitch=40 vol=40
Time=376100  Note off, chan=1 pitch=57 vol=64
Time=376110  Note on, chan=1 pitch=52 vol=36
Time=376283  Note off, chan=1 pitch=52 vol=64
Time=376307  Note off, chan=1 pitch=40 vol=64
Time=376322  Note on, chan=1 pitch=59 vol=51
Time=376334  Note on, chan=1 pitch=47 vol=49
Time=376527  Note off, chan=1 pitch=59 vol=64
Time=376575  Note off, chan=1 pitch=47 vol=64
Time=376601  Note on, chan=1 pitch=50 vol=45
Time=376613  Note on, chan=1 pitch=38 vol=44
Time=376746  Note off, chan=1 pitch=38 vol=64
Time=376807  Note off, chan=1 pitch=50 vol=64
Time=376816  Note on, chan=1 pitch=40 vol=40
Time=376845  Note on, chan=1 pitch=52 vol=43
Time=376982  Note off, chan=1 pitch=40 vol=64
Time=377036  Note off, chan=1 pitch=52 vol=64
Time=377047  Note on, chan=1 pitch=38 vol=32
Time=377078  Note on, chan=1 pitch=50 vol=37
Time=377256  Note off, chan=1 pitch=38 vol=64
Time=377289  Note off, chan=1 pitch=50 vol=64
Time=377298  Note on, chan=1 pitch=41 vol=40
Time=377309  Note on, chan=1 pitch=53 vol=43
Time=377421  Note off, chan=1 pitch=41 vol=64
Time=377520  Note off, chan=1 pitch=53 vol=64
Time=377529  Note on, chan=1 pitch=38 vol=40
Time=377555  Note on, chan=1 pitch=50 vol=38
Time=377735  Note off, chan=1 pitch=38 vol=64
Time=377760  Note on, chan=1 pitch=43 vol=41
Time=377771  Note on, chan=1 pitch=55 vol=49
Time=377774  Note off, chan=1 pitch=50 vol=64
Time=377948  Note off, chan=1 pitch=43 vol=64
Time=377998  Note on, chan=1 pitch=38 vol=38
Time=378030  Note on, chan=1 pitch=50 vol=37
Time=378033  Note off, chan=1 pitch=55 vol=64
Time=378150  Note off, chan=1 pitch=50 vol=64
Time=378231  Note off, chan=1 pitch=38 vol=64
Time=378234  Note on, chan=1 pitch=57 vol=48
Time=378238  Note on, chan=1 pitch=45 vol=52
Time=378411  Note off, chan=1 pitch=57 vol=64
Time=378470  Note off, chan=1 pitch=45 vol=64
Time=378498  Note on, chan=1 pitch=48 vol=45
Time=378513  Note on, chan=1 pitch=36 vol=49
Time=378647  Note off, chan=1 pitch=36 vol=64
Time=378696  Note off, chan=1 pitch=48 vol=64
Time=378717  Note on, chan=1 pitch=38 vol=36
Time=378736  Note on, chan=1 pitch=50 vol=43
Time=378898  Note off, chan=1 pitch=38 vol=64
Time=378945  Note on, chan=1 pitch=36 vol=43
Time=378959  Note off, chan=1 pitch=50 vol=64
Time=378972  Note on, chan=1 pitch=48 vol=41
Time=379166  Note off, chan=1 pitch=36 vol=64
Time=379193  Note off, chan=1 pitch=48 vol=64
Time=379215  Note on, chan=1 pitch=40 vol=38
Time=379220  Note on, chan=1 pitch=52 vol=47
Time=379386  Note off, chan=1 pitch=40 vol=64
Time=379448  Note off, chan=1 pitch=52 vol=64
Time=379478  Note on, chan=1 pitch=38 vol=42
Time=379489  Note on, chan=1 pitch=48 vol=40
Time=379653  Note off, chan=1 pitch=38 vol=64
Time=379681  Note off, chan=1 pitch=48 vol=64
Time=379697  Note on, chan=1 pitch=53 vol=52
Time=379700  Note on, chan=1 pitch=41 vol=45
Time=379863  Note off, chan=1 pitch=53 vol=64
Time=379910  Note off, chan=1 pitch=41 vol=64
Time=379932  Note on, chan=1 pitch=52 vol=36
Time=379956  Note on, chan=1 pitch=40 vol=44
Time=380062  Note off, chan=1 pitch=40 vol=64
Time=380111  Note off, chan=1 pitch=52 vol=64
Time=380178  Note on, chan=1 pitch=36 vol=59
Time=380180  Note on, chan=1 pitch=48 vol=55
Time=383250  Note off, chan=1 pitch=48 vol=64
Time=383522  Note off, chan=1 pitch=36 vol=64
Time=385911  Note on, chan=1 pitch=36 vol=37
Time=385928  Note on, chan=1 pitch=48 vol=46
Time=386168  Note on, chan=1 pitch=52 vol=49
Time=386173  Note off, chan=1 pitch=48 vol=64
Time=386175  Note off, chan=1 pitch=36 vol=64
Time=386183  Note on, chan=1 pitch=40 vol=39
Time=386364  Note off, chan=1 pitch=52 vol=64
Time=386379  Note off, chan=1 pitch=40 vol=64
Time=386416  Note on, chan=1 pitch=38 vol=42
Time=386418  Note on, chan=1 pitch=50 vol=47
Time=386640  Note off, chan=1 pitch=50 vol=64
Time=386648  Note on, chan=1 pitch=41 vol=40
Time=386660  Note on, chan=1 pitch=53 vol=37
Time=386662  Note off, chan=1 pitch=38 vol=64
Time=386811  Note off, chan=1 pitch=53 vol=64
Time=386869  Note off, chan=1 pitch=41 vol=64
Time=386912  Note on, chan=1 pitch=52 vol=40
Time=386918  Note on, chan=1 pitch=40 vol=34
Time=387086  Note off, chan=1 pitch=40 vol=64
Time=387096  Note off, chan=1 pitch=52 vol=64
Time=387134  Note on, chan=1 pitch=55 vol=54
Time=387147  Note on, chan=1 pitch=43 vol=40
Time=387362  Note off, chan=1 pitch=55 vol=64
Time=387378  Note off, chan=1 pitch=43 vol=64
Time=387384  Note on, chan=1 pitch=41 vol=40
Time=387389  Note on, chan=1 pitch=53 vol=57
Time=387588  Note off, chan=1 pitch=41 vol=64
Time=387603  Note off, chan=1 pitch=53 vol=64
Time=387618  Note on, chan=1 pitch=52 vol=47
Time=387620  Note on, chan=1 pitch=40 vol=49
Time=387796  Note off, chan=1 pitch=52 vol=64
Time=387803  Note off, chan=1 pitch=40 vol=64
Time=387851  Note on, chan=1 pitch=50 vol=43
Time=387873  Note on, chan=1 pitch=38 vol=42
Time=388069  Note off, chan=1 pitch=50 vol=64
Time=388077  Note off, chan=1 pitch=38 vol=64
Time=388092  Note on, chan=1 pitch=53 vol=41
Time=388101  Note on, chan=1 pitch=41 vol=36
Time=388284  Note off, chan=1 pitch=41 vol=64
Time=388310  Note off, chan=1 pitch=53 vol=64
Time=388340  Note on, chan=1 pitch=40 vol=43
Time=388352  Note on, chan=1 pitch=52 vol=45
Time=388544  Note off, chan=1 pitch=52 vol=64
Time=388565  Note on, chan=1 pitch=43 vol=47
Time=388567  Note on, chan=1 pitch=55 vol=40
Time=388592  Note off, chan=1 pitch=40 vol=64
Time=388748  Note off, chan=1 pitch=55 vol=64
Time=388791  Note off, chan=1 pitch=43 vol=64
Time=388802  Note on, chan=1 pitch=53 vol=37
Time=388813  Note on, chan=1 pitch=41 vol=34
Time=388986  Note off, chan=1 pitch=41 vol=64
Time=389001  Note off, chan=1 pitch=53 vol=64
Time=389043  Note on, chan=1 pitch=57 vol=54
Time=389053  Note on, chan=1 pitch=45 vol=41
Time=389280  Note off, chan=1 pitch=57 vol=64
Time=389282  Note on, chan=1 pitch=43 vol=49
Time=389285  Note off, chan=1 pitch=45 vol=64
Time=389294  Note on, chan=1 pitch=55 vol=47
Time=389481  Note off, chan=1 pitch=43 vol=64
Time=389490  Note off, chan=1 pitch=55 vol=64
Time=389523  Note on, chan=1 pitch=53 vol=46
Time=389529  Note on, chan=1 pitch=41 vol=48
Time=389707  Note off, chan=1 pitch=53 vol=64
Time=389710  Note off, chan=1 pitch=41 vol=64
Time=389764  Note on, chan=1 pitch=52 vol=44
Time=389769  Note on, chan=1 pitch=40 vol=41
Time=389972  Note off, chan=1 pitch=52 vol=64
Time=389993  Note on, chan=1 pitch=55 vol=35
Time=389995  Note off, chan=1 pitch=40 vol=64
Time=390006  Note on, chan=1 pitch=43 vol=40
Time=390195  Note off, chan=1 pitch=55 vol=64
Time=390213  Note off, chan=1 pitch=43 vol=64
Time=390254  Note on, chan=1 pitch=41 vol=42
Time=390255  Note on, chan=1 pitch=53 vol=40
Time=390459  Note off, chan=1 pitch=53 vol=64
Time=390462  Note on, chan=1 pitch=45 vol=39
Time=390490  Note off, chan=1 pitch=41 vol=64
Time=390491  Note on, chan=1 pitch=57 vol=43
Time=390666  Note off, chan=1 pitch=57 vol=64
Time=390687  Note off, chan=1 pitch=45 vol=64
Time=390704  Note on, chan=1 pitch=43 vol=40
Time=390710  Note on, chan=1 pitch=55 vol=43
Time=390881  Note off, chan=1 pitch=43 vol=64
Time=390903  Note off, chan=1 pitch=55 vol=64
Time=390947  Note on, chan=1 pitch=47 vol=40
Time=390970  Note on, chan=1 pitch=59 vol=48
Time=391177  Note off, chan=1 pitch=47 vol=64
Time=391183  Note on, chan=1 pitch=45 vol=44
Time=391185  Note off, chan=1 pitch=59 vol=64
Time=391206  Note on, chan=1 pitch=57 vol=43
Time=391377  Note off, chan=1 pitch=45 vol=64
Time=391395  Note off, chan=1 pitch=57 vol=64
Time=391423  Note on, chan=1 pitch=43 vol=44
Time=391433  Note on, chan=1 pitch=55 vol=40
Time=391619  Note off, chan=1 pitch=43 vol=64
Time=391625  Note off, chan=1 pitch=55 vol=64
Time=391668  Note on, chan=1 pitch=53 vol=50
Time=391703  Note on, chan=1 pitch=41 vol=29
Time=391889  Note off, chan=1 pitch=53 vol=64
Time=391916  Note on, chan=1 pitch=57 vol=38
Time=391919  Note off, chan=1 pitch=41 vol=64
Time=391930  Note on, chan=1 pitch=45 vol=45
Time=392114  Note off, chan=1 pitch=57 vol=64
Time=392129  Note off, chan=1 pitch=45 vol=64
Time=392166  Note on, chan=1 pitch=55 vol=43
Time=392168  Note on, chan=1 pitch=43 vol=42
Time=392364  Note off, chan=1 pitch=55 vol=64
Time=392382  Note on, chan=1 pitch=47 vol=36
Time=392388  Note off, chan=1 pitch=43 vol=64
Time=392401  Note on, chan=1 pitch=59 vol=38
Time=392559  Note off, chan=1 pitch=59 vol=64
Time=392605  Note off, chan=1 pitch=47 vol=64
Time=392616  Note on, chan=1 pitch=57 vol=39
Time=392636  Note on, chan=1 pitch=45 vol=37
Time=392807  Note off, chan=1 pitch=57 vol=64
Time=392820  Note off, chan=1 pitch=45 vol=64
Time=392867  Note on, chan=1 pitch=60 vol=42
Time=392875  Note on, chan=1 pitch=48 vol=40
Time=393088  Note off, chan=1 pitch=60 vol=64
Time=393098  Note on, chan=1 pitch=59 vol=45
Time=393101  Note off, chan=1 pitch=48 vol=64
Time=393110  Note on, chan=1 pitch=47 vol=41
Time=393300  Note off, chan=1 pitch=59 vol=64
Time=393318  Note off, chan=1 pitch=47 vol=64
Time=393341  Note on, chan=1 pitch=57 vol=46
Time=393359  Note on, chan=1 pitch=45 vol=48
Time=393539  Note off, chan=1 pitch=57 vol=64
Time=393541  Note off, chan=1 pitch=45 vol=64
Time=393568  Note on, chan=1 pitch=55 vol=43
Time=393613  Note on, chan=1 pitch=43 vol=32
Time=393829  Note off, chan=1 pitch=55 vol=64
Time=393843  Note off, chan=1 pitch=43 vol=64
Time=393853  Note on, chan=1 pitch=59 vol=39
Time=393858  Note on, chan=1 pitch=47 vol=42
Time=394058  Note off, chan=1 pitch=59 vol=64
Time=394063  Note off, chan=1 pitch=47 vol=64
Time=394098  Note on, chan=1 pitch=45 vol=47
Time=394115  Note on, chan=1 pitch=57 vol=43
Time=394301  Note off, chan=1 pitch=57 vol=64
Time=394326  Note on, chan=1 pitch=48 vol=40
Time=394347  Note on, chan=1 pitch=60 vol=42
Time=394377  Note off, chan=1 pitch=45 vol=64
Time=394502  Note off, chan=1 pitch=60 vol=64
Time=394545  Note off, chan=1 pitch=48 vol=64
Time=394577  Note on, chan=1 pitch=59 vol=43
Time=394579  Note on, chan=1 pitch=47 vol=43
Time=394763  Note off, chan=1 pitch=59 vol=64
Time=394770  Note off, chan=1 pitch=47 vol=64
Time=394829  Note on, chan=1 pitch=62 vol=34
Time=394832  Note on, chan=1 pitch=50 vol=37
Time=394989  Note off, chan=1 pitch=62 vol=64
Time=395033  Note off, chan=1 pitch=50 vol=64
Time=395045  Note on, chan=1 pitch=48 vol=47
Time=395052  Note on, chan=1 pitch=60 vol=43
Time=395228  Note off, chan=1 pitch=48 vol=64
Time=395234  Note off, chan=1 pitch=60 vol=64
Time=395281  Note on, chan=1 pitch=47 vol=47
Time=395290  Note on, chan=1 pitch=59 vol=42
Time=395471  Note off, chan=1 pitch=59 vol=64
Time=395494  Note off, chan=1 pitch=47 vol=64
Time=395520  Note on, chan=1 pitch=57 vol=49
Time=395550  Note on, chan=1 pitch=45 vol=42
Time=395733  Note off, chan=1 pitch=45 vol=64
Time=395735  Note off, chan=1 pitch=57 vol=64
Time=395758  Note on, chan=1 pitch=48 vol=48
Time=395774  Note on, chan=1 pitch=60 vol=41
Time=395963  Note off, chan=1 pitch=60 vol=64
Time=395967  Note off, chan=1 pitch=48 vol=64
Time=396008  Note on, chan=1 pitch=47 vol=46
Time=396017  Note on, chan=1 pitch=59 vol=38
Time=396203  Note off, chan=1 pitch=59 vol=64
Time=396228  Note on, chan=1 pitch=50 vol=36
Time=396257  Note on, chan=1 pitch=62 vol=35
Time=396263  Note off, chan=1 pitch=47 vol=64
Time=396417  Note off, chan=1 pitch=62 vol=64
Time=396431  Note off, chan=1 pitch=50 vol=64
Time=396458  Note on, chan=1 pitch=48 vol=47
Time=396462  Note on, chan=1 pitch=60 vol=37
Time=396654  Note off, chan=1 pitch=60 vol=64
Time=396666  Note off, chan=1 pitch=48 vol=64
Time=396712  Note on, chan=1 pitch=64 vol=40
Time=396717  Note on, chan=1 pitch=52 vol=40
Time=396903  Note off, chan=1 pitch=64 vol=64
Time=396936  Note on, chan=1 pitch=62 vol=43
Time=396945  Note off, chan=1 pitch=52 vol=64
Time=396954  Note on, chan=1 pitch=50 vol=42
Time=397127  Note off, chan=1 pitch=62 vol=64
Time=397156  Note off, chan=1 pitch=50 vol=64
Time=397193  Note on, chan=1 pitch=60 vol=36
Time=397194  Note on, chan=1 pitch=48 vol=42
Time=397394  Note off, chan=1 pitch=48 vol=64
Time=397398  Note off, chan=1 pitch=60 vol=64
Time=397434  Note on, chan=1 pitch=59 vol=40
Time=397468  Note on, chan=1 pitch=47 vol=39
Time=397663  Note off, chan=1 pitch=47 vol=64
Time=397665  Note off, chan=1 pitch=59 vol=64
Time=397690  Note on, chan=1 pitch=50 vol=48
Time=397691  Note on, chan=1 pitch=62 vol=37
Time=397895  Note off, chan=1 pitch=50 vol=64
Time=397897  Note off, chan=1 pitch=62 vol=64
Time=397934  Note on, chan=1 pitch=48 vol=37
Time=397953  Note on, chan=1 pitch=60 vol=41
Time=398137  Note off, chan=1 pitch=60 vol=64
Time=398164  Note on, chan=1 pitch=52 vol=34
Time=398182  Note off, chan=1 pitch=48 vol=64
Time=398188  Note on, chan=1 pitch=64 vol=37
Time=398321  Note off, chan=1 pitch=64 vol=64
Time=398369  Note off, chan=1 pitch=52 vol=64
Time=398396  Note on, chan=1 pitch=62 vol=40
Time=398406  Note on, chan=1 pitch=50 vol=34
Time=398591  Note off, chan=1 pitch=62 vol=64
Time=398597  Note off, chan=1 pitch=50 vol=64
Time=398655  Note on, chan=1 pitch=53 vol=40
Time=398664  Note on, chan=1 pitch=65 vol=35
Time=398842  Note off, chan=1 pitch=65 vol=64
Time=398880  Note off, chan=1 pitch=53 vol=64
Time=398883  Note on, chan=1 pitch=52 vol=43
Time=398885  Note on, chan=1 pitch=64 vol=44
Time=399072  Note off, chan=1 pitch=64 vol=64
Time=399078  Note off, chan=1 pitch=52 vol=64
Time=399112  Note on, chan=1 pitch=62 vol=45
Time=399123  Note on, chan=1 pitch=50 vol=43
Time=399313  Note off, chan=1 pitch=62 vol=64
Time=399332  Note off, chan=1 pitch=50 vol=64
Time=399360  Note on, chan=1 pitch=60 vol=40
Time=399384  Note on, chan=1 pitch=48 vol=37
Time=399564  Note off, chan=1 pitch=60 vol=64
Time=399578  Note off, chan=1 pitch=48 vol=64
Time=399597  Note on, chan=1 pitch=52 vol=51
Time=399606  Note on, chan=1 pitch=64 vol=31
Time=399800  Note off, chan=1 pitch=52 vol=64
Time=399808  Note off, chan=1 pitch=64 vol=64
Time=399820  Note on, chan=1 pitch=50 vol=51
Time=399856  Note on, chan=1 pitch=62 vol=40
Time=400023  Note off, chan=1 pitch=62 vol=64
Time=400053  Note on, chan=1 pitch=53 vol=40
Time=400081  Note on, chan=1 pitch=65 vol=36
Time=400086  Note off, chan=1 pitch=50 vol=64
Time=400241  Note off, chan=1 pitch=65 vol=64
Time=400271  Note off, chan=1 pitch=53 vol=64
Time=400295  Note on, chan=1 pitch=52 vol=36
Time=400307  Note on, chan=1 pitch=64 vol=37
Time=400491  Note off, chan=1 pitch=52 vol=64
Time=400502  Note off, chan=1 pitch=64 vol=64
Time=400532  Note on, chan=1 pitch=55 vol=45
Time=400551  Note on, chan=1 pitch=67 vol=41
Time=400740  Note off, chan=1 pitch=67 vol=64
Time=400783  Note off, chan=1 pitch=55 vol=64
Time=400785  Note on, chan=1 pitch=65 vol=46
Time=400788  Note on, chan=1 pitch=53 vol=47
Time=400988  Note off, chan=1 pitch=65 vol=64
Time=400998  Note off, chan=1 pitch=53 vol=64
Time=401027  Note on, chan=1 pitch=64 vol=45
Time=401028  Note on, chan=1 pitch=52 vol=55
Time=401193  Note off, chan=1 pitch=52 vol=64
Time=401200  Note off, chan=1 pitch=64 vol=64
Time=401245  Note on, chan=1 pitch=62 vol=44
Time=401272  Note on, chan=1 pitch=50 vol=42
Time=401474  Note off, chan=1 pitch=50 vol=64
Time=401483  Note off, chan=1 pitch=62 vol=64
Time=401507  Note on, chan=1 pitch=53 vol=41
Time=401520  Note on, chan=1 pitch=65 vol=40
Time=401702  Note off, chan=1 pitch=65 vol=64
Time=401705  Note off, chan=1 pitch=53 vol=64
Time=401757  Note on, chan=1 pitch=52 vol=51
Time=401771  Note on, chan=1 pitch=64 vol=46
Time=401958  Note off, chan=1 pitch=64 vol=64
Time=401978  Note on, chan=1 pitch=55 vol=42
Time=402024  Note on, chan=1 pitch=67 vol=38
Time=402033  Note off, chan=1 pitch=52 vol=64
Time=402191  Note off, chan=1 pitch=67 vol=64
Time=402201  Note off, chan=1 pitch=55 vol=64
Time=402234  Note on, chan=1 pitch=53 vol=38
Time=402245  Note on, chan=1 pitch=65 vol=41
Time=402434  Note off, chan=1 pitch=65 vol=64
Time=402444  Note off, chan=1 pitch=53 vol=64
Time=402499  Note on, chan=1 pitch=69 vol=48
Time=402512  Note on, chan=1 pitch=57 vol=43
Time=402715  Note off, chan=1 pitch=57 vol=64
Time=402718  Note off, chan=1 pitch=69 vol=64
Time=402737  Note on, chan=1 pitch=55 vol=40
Time=402738  Note on, chan=1 pitch=67 vol=42
Time=402948  Note off, chan=1 pitch=67 vol=64
Time=402972  Note on, chan=1 pitch=65 vol=44
Time=402983  Note off, chan=1 pitch=55 vol=64
Time=402987  Note on, chan=1 pitch=53 vol=42
Time=403173  Note off, chan=1 pitch=65 vol=64
Time=403183  Note off, chan=1 pitch=53 vol=64
Time=403209  Note on, chan=1 pitch=64 vol=37
Time=403232  Note on, chan=1 pitch=52 vol=46
Time=403406  Note off, chan=1 pitch=64 vol=64
Time=403451  Note off, chan=1 pitch=52 vol=64
Time=403464  Note on, chan=1 pitch=67 vol=37
Time=403476  Note on, chan=1 pitch=55 vol=40
Time=403672  Note off, chan=1 pitch=67 vol=64
Time=403680  Note off, chan=1 pitch=55 vol=64
Time=403710  Note on, chan=1 pitch=53 vol=43
Time=403725  Note on, chan=1 pitch=65 vol=39
Time=403917  Note off, chan=1 pitch=65 vol=64
Time=403933  Note on, chan=1 pitch=57 vol=36
Time=403971  Note on, chan=1 pitch=69 vol=36
Time=404001  Note off, chan=1 pitch=53 vol=64
Time=404143  Note off, chan=1 pitch=69 vol=64
Time=404153  Note off, chan=1 pitch=57 vol=64
Time=404176  Note on, chan=1 pitch=55 vol=42
Time=404190  Note on, chan=1 pitch=67 vol=42
Time=404381  Note off, chan=1 pitch=55 vol=64
Time=404383  Note off, chan=1 pitch=67 vol=64
Time=404441  Note on, chan=1 pitch=71 vol=33
Time=404445  Note on, chan=1 pitch=59 vol=36
Time=404624  Note off, chan=1 pitch=71 vol=64
Time=404683  Note off, chan=1 pitch=59 vol=64
Time=404685  Note on, chan=1 pitch=57 vol=40
Time=404686  Note on, chan=1 pitch=69 vol=43
Time=404876  Note off, chan=1 pitch=57 vol=64
Time=404881  Note off, chan=1 pitch=69 vol=64
Time=404906  Note on, chan=1 pitch=55 vol=45
Time=404914  Note on, chan=1 pitch=67 vol=45
Time=405116  Note off, chan=1 pitch=67 vol=64
Time=405137  Note off, chan=1 pitch=55 vol=64
Time=405148  Note on, chan=1 pitch=65 vol=38
Time=405174  Note on, chan=1 pitch=53 vol=33
Time=405365  Note off, chan=1 pitch=65 vol=64
Time=405390  Note off, chan=1 pitch=53 vol=64
Time=405408  Note on, chan=1 pitch=69 vol=43
Time=405414  Note on, chan=1 pitch=57 vol=43
Time=405606  Note off, chan=1 pitch=69 vol=64
Time=405611  Note off, chan=1 pitch=57 vol=64
Time=405645  Note on, chan=1 pitch=55 vol=38
Time=405648  Note on, chan=1 pitch=67 vol=42
Time=405859  Note off, chan=1 pitch=67 vol=64
Time=405876  Note on, chan=1 pitch=59 vol=38
Time=405912  Note on, chan=1 pitch=71 vol=32
Time=405918  Note off, chan=1 pitch=55 vol=64
Time=406068  Note off, chan=1 pitch=71 vol=64
Time=406083  Note off, chan=1 pitch=59 vol=64
Time=406112  Note on, chan=1 pitch=57 vol=41
Time=406118  Note on, chan=1 pitch=69 vol=42
Time=406310  Note off, chan=1 pitch=57 vol=64
Time=406320  Note off, chan=1 pitch=69 vol=64
Time=406372  Note on, chan=1 pitch=72 vol=40
Time=406374  Note on, chan=1 pitch=60 vol=40
Time=406562  Note off, chan=1 pitch=72 vol=64
Time=406588  Note off, chan=1 pitch=60 vol=64
Time=406592  Note on, chan=1 pitch=59 vol=46
Time=406605  Note on, chan=1 pitch=71 vol=39
Time=406789  Note off, chan=1 pitch=59 vol=64
Time=406795  Note off, chan=1 pitch=71 vol=64
Time=406819  Note on, chan=1 pitch=57 vol=44
Time=406823  Note on, chan=1 pitch=69 vol=49
Time=407023  Note off, chan=1 pitch=69 vol=64
Time=407051  Note on, chan=1 pitch=67 vol=41
Time=407054  Note off, chan=1 pitch=57 vol=64
Time=407072  Note on, chan=1 pitch=55 vol=36
Time=407271  Note off, chan=1 pitch=67 vol=64
Time=407293  Note off, chan=1 pitch=55 vol=64
Time=407307  Note on, chan=1 pitch=71 vol=36
Time=407315  Note on, chan=1 pitch=59 vol=42
Time=407499  Note off, chan=1 pitch=71 vol=64
Time=407502  Note off, chan=1 pitch=59 vol=64
Time=407543  Note on, chan=1 pitch=57 vol=44
Time=407550  Note on, chan=1 pitch=69 vol=39
Time=407737  Note off, chan=1 pitch=69 vol=64
Time=407762  Note on, chan=1 pitch=60 vol=36
Time=407789  Note on, chan=1 pitch=72 vol=39
Time=407801  Note off, chan=1 pitch=57 vol=64
Time=407954  Note off, chan=1 pitch=72 vol=64
Time=407976  Note off, chan=1 pitch=60 vol=64
Time=408017  Note on, chan=1 pitch=71 vol=35
Time=408020  Note on, chan=1 pitch=59 vol=38
Time=408195  Note off, chan=1 pitch=59 vol=64
Time=408218  Note off, chan=1 pitch=71 vol=64
Time=408272  Note on, chan=1 pitch=62 vol=34
Time=408273  Note on, chan=1 pitch=74 vol=43
Time=408462  Note off, chan=1 pitch=74 vol=64
Time=408468  Note off, chan=1 pitch=62 vol=64
Time=408482  Note on, chan=1 pitch=60 vol=43
Time=408495  Note on, chan=1 pitch=72 vol=49
Time=408672  Note off, chan=1 pitch=60 vol=64
Time=408707  Note off, chan=1 pitch=72 vol=64
Time=408708  Note on, chan=1 pitch=59 vol=47
Time=408738  Note on, chan=1 pitch=71 vol=43
Time=408922  Note off, chan=1 pitch=71 vol=64
Time=408930  Note off, chan=1 pitch=59 vol=64
Time=408956  Note on, chan=1 pitch=69 vol=47
Time=408987  Note on, chan=1 pitch=57 vol=44
Time=409166  Note off, chan=1 pitch=69 vol=64
Time=409181  Note off, chan=1 pitch=57 vol=64
Time=409211  Note on, chan=1 pitch=60 vol=40
Time=409212  Note on, chan=1 pitch=72 vol=39
Time=409416  Note off, chan=1 pitch=72 vol=64
Time=409419  Note off, chan=1 pitch=60 vol=64
Time=409463  Note on, chan=1 pitch=59 vol=40
Time=409475  Note on, chan=1 pitch=71 vol=38
Time=409667  Note off, chan=1 pitch=71 vol=64
Time=409687  Note on, chan=1 pitch=62 vol=40
Time=409713  Note on, chan=1 pitch=74 vol=38
Time=409717  Note off, chan=1 pitch=59 vol=64
Time=409867  Note off, chan=1 pitch=74 vol=64
Time=409913  Note off, chan=1 pitch=62 vol=64
Time=409927  Note on, chan=1 pitch=60 vol=42
Time=409935  Note on, chan=1 pitch=72 vol=40
Time=410128  Note off, chan=1 pitch=60 vol=64
Time=410136  Note off, chan=1 pitch=72 vol=64
Time=410184  Note on, chan=1 pitch=76 vol=44
Time=410199  Note on, chan=1 pitch=64 vol=38
Time=410375  Note off, chan=1 pitch=76 vol=64
Time=410410  Note on, chan=1 pitch=74 vol=45
Time=410418  Note on, chan=1 pitch=62 vol=42
Time=410419  Note off, chan=1 pitch=64 vol=64
Time=410600  Note off, chan=1 pitch=74 vol=64
Time=410625  Note off, chan=1 pitch=62 vol=64
Time=410642  Note on, chan=1 pitch=72 vol=52
Time=410658  Note on, chan=1 pitch=60 vol=42
Time=410821  Note off, chan=1 pitch=72 vol=64
Time=410832  Note off, chan=1 pitch=60 vol=64
Time=410873  Note on, chan=1 pitch=71 vol=48
Time=410907  Note on, chan=1 pitch=59 vol=43
Time=411101  Note off, chan=1 pitch=71 vol=64
Time=411120  Note off, chan=1 pitch=59 vol=64
Time=411146  Note on, chan=1 pitch=62 vol=44
Time=411154  Note on, chan=1 pitch=74 vol=38
Time=411321  Note off, chan=1 pitch=62 vol=64
Time=411326  Note off, chan=1 pitch=74 vol=64
Time=411372  Note on, chan=1 pitch=60 vol=43
Time=411379  Note on, chan=1 pitch=72 vol=47
Time=411578  Note off, chan=1 pitch=72 vol=64
Time=411612  Note on, chan=1 pitch=64 vol=40
Time=411622  Note on, chan=1 pitch=76 vol=40
Time=411652  Note off, chan=1 pitch=60 vol=64
Time=411775  Note off, chan=1 pitch=76 vol=64
Time=411825  Note off, chan=1 pitch=64 vol=64
Time=411854  Note on, chan=1 pitch=74 vol=45
Time=411855  Note on, chan=1 pitch=62 vol=43
Time=412040  Note off, chan=1 pitch=74 vol=64
Time=412058  Note off, chan=1 pitch=62 vol=64
Time=412095  Note on, chan=1 pitch=77 vol=47
Time=412130  Note on, chan=1 pitch=65 vol=45
Time=412297  Note off, chan=1 pitch=77 vol=64
Time=412332  Note off, chan=1 pitch=65 vol=64
Time=412335  Note on, chan=1 pitch=76 vol=48
Time=412349  Note on, chan=1 pitch=64 vol=46
Time=412512  Note off, chan=1 pitch=76 vol=64
Time=412515  Note off, chan=1 pitch=64 vol=64
Time=412581  Note on, chan=1 pitch=74 vol=42
Time=412595  Note on, chan=1 pitch=62 vol=40
Time=412731  Note off, chan=1 pitch=62 vol=64
Time=412742  Note off, chan=1 pitch=74 vol=64
Time=412816  Note on, chan=1 pitch=77 vol=56
Time=412830  Note on, chan=1 pitch=65 vol=50
Time=413017  Note off, chan=1 pitch=65 vol=64
Time=413031  Note off, chan=1 pitch=77 vol=64
Time=413057  Note on, chan=1 pitch=74 vol=43
Time=413196  Note off, chan=1 pitch=74 vol=64
Time=418548  Note on, chan=1 pitch=71 vol=43
Time=418550  Note on, chan=1 pitch=59 vol=36
Time=418633  Note off, chan=1 pitch=71 vol=64
Time=418796  Note on, chan=1 pitch=74 vol=41
Time=418801  Note on, chan=1 pitch=62 vol=30
Time=418803  Note off, chan=1 pitch=59 vol=64
Time=418959  Note off, chan=1 pitch=74 vol=64
Time=419012  Note off, chan=1 pitch=62 vol=64
Time=419053  Note on, chan=1 pitch=72 vol=44
Time=419057  Note on, chan=1 pitch=60 vol=38
Time=419232  Note off, chan=1 pitch=72 vol=64
Time=419277  Note on, chan=1 pitch=64 vol=46
Time=419287  Note off, chan=1 pitch=60 vol=64
Time=419303  Note on, chan=1 pitch=76 vol=42
Time=419420  Note off, chan=1 pitch=76 vol=64
Time=419466  Note off, chan=1 pitch=64 vol=64
Time=419526  Note on, chan=1 pitch=74 vol=44
Time=419538  Note on, chan=1 pitch=62 vol=29
Time=419681  Note off, chan=1 pitch=62 vol=64
Time=419691  Note off, chan=1 pitch=74 vol=64
Time=419774  Note on, chan=1 pitch=77 vol=37
Time=419798  Note on, chan=1 pitch=65 vol=38
Time=419952  Note off, chan=1 pitch=77 vol=64
Time=419996  Note off, chan=1 pitch=65 vol=64
Time=420008  Note on, chan=1 pitch=64 vol=49
Time=420014  Note on, chan=1 pitch=76 vol=40
Time=420200  Note off, chan=1 pitch=64 vol=64
Time=420224  Note off, chan=1 pitch=76 vol=64
Time=420266  Note on, chan=1 pitch=62 vol=16
Time=420278  Note on, chan=1 pitch=74 vol=33
Time=420361  Note off, chan=1 pitch=74 vol=64
Time=420384  Note off, chan=1 pitch=62 vol=64
Time=420491  Note on, chan=1 pitch=79 vol=39
Time=420530  Note on, chan=1 pitch=67 vol=20
Time=420691  Note off, chan=1 pitch=79 vol=64
Time=420749  Note off, chan=1 pitch=67 vol=64
Time=420792  Note on, chan=1 pitch=76 vol=11
Time=420891  Note off, chan=1 pitch=76 vol=64
Time=422405  Note on, chan=1 pitch=79 vol=49
Time=422408  Note on, chan=1 pitch=67 vol=51
Time=422583  Note off, chan=1 pitch=79 vol=64
Time=422628  Note off, chan=1 pitch=67 vol=64
Time=422651  Note on, chan=1 pitch=64 vol=38
Time=422678  Note on, chan=1 pitch=76 vol=35
Time=422802  Note off, chan=1 pitch=76 vol=64
Time=422811  Note off, chan=1 pitch=64 vol=64
Time=422891  Note on, chan=1 pitch=77 vol=44
Time=422910  Note on, chan=1 pitch=65 vol=34
Time=423096  Note off, chan=1 pitch=77 vol=64
Time=423125  Note off, chan=1 pitch=65 vol=64
Time=423143  Note on, chan=1 pitch=74 vol=38
Time=423153  Note on, chan=1 pitch=62 vol=42
Time=423248  Note off, chan=1 pitch=62 vol=64
Time=423287  Note off, chan=1 pitch=74 vol=64
Time=423362  Note on, chan=1 pitch=64 vol=44
Time=423386  Note on, chan=1 pitch=76 vol=37
Time=423548  Note off, chan=1 pitch=64 vol=64
Time=423566  Note off, chan=1 pitch=76 vol=64
Time=423626  Note on, chan=1 pitch=71 vol=44
Time=423627  Note on, chan=1 pitch=59 vol=47
Time=423786  Note off, chan=1 pitch=59 vol=64
Time=423865  Note off, chan=1 pitch=71 vol=64
Time=426225  Note on, chan=1 pitch=67 vol=46
Time=426238  Note on, chan=1 pitch=79 vol=23
Time=426444  Note off, chan=1 pitch=79 vol=64
Time=426466  Note off, chan=1 pitch=67 vol=64
Time=426495  Note on, chan=1 pitch=64 vol=35
Time=426521  Note on, chan=1 pitch=76 vol=8
Time=426674  Note off, chan=1 pitch=64 vol=64
Time=426683  Note off, chan=1 pitch=76 vol=64
Time=426743  Note on, chan=1 pitch=77 vol=45
Time=426765  Note on, chan=1 pitch=65 vol=26
Time=426941  Note off, chan=1 pitch=65 vol=64
Time=426966  Note off, chan=1 pitch=77 vol=64
Time=426989  Note on, chan=1 pitch=62 vol=36
Time=427002  Note on, chan=1 pitch=74 vol=36
Time=427160  Note off, chan=1 pitch=62 vol=64
Time=427188  Note off, chan=1 pitch=74 vol=64
Time=427236  Note on, chan=1 pitch=64 vol=33
Time=427253  Note on, chan=1 pitch=76 vol=40
Time=427429  Note off, chan=1 pitch=76 vol=64
Time=427431  Note off, chan=1 pitch=64 vol=64
Time=427473  Note on, chan=1 pitch=60 vol=36
Time=427491  Note on, chan=1 pitch=72 vol=40
Time=427674  Note off, chan=1 pitch=72 vol=64
Time=427680  Note off, chan=1 pitch=60 vol=64
Time=427707  Note on, chan=1 pitch=62 vol=35
Time=427714  Note on, chan=1 pitch=74 vol=42
Time=427896  Note off, chan=1 pitch=62 vol=64
Time=427905  Note off, chan=1 pitch=74 vol=64
Time=427923  Note on, chan=1 pitch=64 vol=42
Time=427954  Note on, chan=1 pitch=76 vol=40
Time=428063  Note off, chan=1 pitch=64 vol=64
Time=428097  Note off, chan=1 pitch=76 vol=64
Time=428210  Note on, chan=1 pitch=67 vol=35
Time=428256  Note on, chan=1 pitch=79 vol=18
Time=428265  Note on, chan=1 pitch=77 vol=13
Time=428333  Note off, chan=1 pitch=79 vol=64
Time=428355  Note off, chan=1 pitch=77 vol=64
Time=428444  Note off, chan=1 pitch=67 vol=64
Time=431977  Note on, chan=1 pitch=79 vol=43
Time=432011  Note on, chan=1 pitch=67 vol=36
Time=432171  Note off, chan=1 pitch=79 vol=64
Time=432221  Note off, chan=1 pitch=67 vol=64
Time=432234  Note on, chan=1 pitch=62 vol=32
Time=432263  Note on, chan=1 pitch=76 vol=39
Time=432344  Note off, chan=1 pitch=62 vol=64
Time=432375  Note off, chan=1 pitch=76 vol=64
Time=433919  Note on, chan=1 pitch=79 vol=50
Time=433921  Note on, chan=1 pitch=67 vol=38
Time=434136  Note off, chan=1 pitch=79 vol=64
Time=434171  Note off, chan=1 pitch=67 vol=64
Time=434196  Note on, chan=1 pitch=64 vol=22
Time=434277  Note off, chan=1 pitch=64 vol=64
Time=439658  Note on, chan=1 pitch=79 vol=51
Time=439673  Note on, chan=1 pitch=67 vol=44
Time=439883  Note off, chan=1 pitch=79 vol=64
Time=439912  Note on, chan=1 pitch=64 vol=38
Time=439919  Note off, chan=1 pitch=67 vol=64
Time=439947  Note on, chan=1 pitch=76 vol=31
Time=440115  Note off, chan=1 pitch=76 vol=64
Time=440175  Note on, chan=1 pitch=77 vol=45
Time=440178  Note off, chan=1 pitch=64 vol=64
Time=440210  Note on, chan=1 pitch=65 vol=38
Time=440399  Note off, chan=1 pitch=77 vol=64
Time=440408  Note off, chan=1 pitch=65 vol=64
Time=440431  Note on, chan=1 pitch=74 vol=39
Time=440435  Note on, chan=1 pitch=62 vol=38
Time=440603  Note off, chan=1 pitch=74 vol=64
Time=440638  Note off, chan=1 pitch=62 vol=64
Time=440687  Note on, chan=1 pitch=76 vol=40
Time=440688  Note on, chan=1 pitch=64 vol=42
Time=440821  Note off, chan=1 pitch=64 vol=64
Time=440867  Note off, chan=1 pitch=76 vol=64
Time=440905  Note on, chan=1 pitch=60 vol=44
Time=440925  Note on, chan=1 pitch=72 vol=40
Time=441134  Note off, chan=1 pitch=60 vol=64
Time=441149  Note on, chan=1 pitch=62 vol=36
Time=441162  Note on, chan=1 pitch=74 vol=41
Time=441179  Note off, chan=1 pitch=72 vol=64
Time=441326  Note off, chan=1 pitch=74 vol=64
Time=441382  Note on, chan=1 pitch=64 vol=46
Time=441386  Note off, chan=1 pitch=62 vol=64
Time=441389  Note on, chan=1 pitch=76 vol=36
Time=441525  Note off, chan=1 pitch=64 vol=64
Time=441534  Note off, chan=1 pitch=76 vol=64
Time=441621  Note on, chan=1 pitch=77 vol=38
Time=441638  Note on, chan=1 pitch=65 vol=42
Time=441836  Note off, chan=1 pitch=65 vol=64
Time=441840  Note on, chan=1 pitch=62 vol=37
Time=441860  Note off, chan=1 pitch=77 vol=64
Time=441878  Note on, chan=1 pitch=74 vol=43
Time=442030  Note off, chan=1 pitch=62 vol=64
Time=442037  Note off, chan=1 pitch=74 vol=64
Time=442098  Note on, chan=1 pitch=64 vol=37
Time=442106  Note on, chan=1 pitch=76 vol=46
Time=442293  Note off, chan=1 pitch=76 vol=64
Time=442325  Note off, chan=1 pitch=64 vol=64
Time=442334  Note on, chan=1 pitch=60 vol=41
Time=442353  Note on, chan=1 pitch=72 vol=38
Time=442508  Note off, chan=1 pitch=72 vol=64
Time=442531  Note off, chan=1 pitch=60 vol=64
Time=442560  Note on, chan=1 pitch=62 vol=42
Time=442578  Note on, chan=1 pitch=74 vol=36
Time=442766  Note off, chan=1 pitch=74 vol=64
Time=442781  Note off, chan=1 pitch=62 vol=64
Time=442818  Note on, chan=1 pitch=71 vol=44
Time=442831  Note on, chan=1 pitch=59 vol=33
Time=442988  Note off, chan=1 pitch=59 vol=64
Time=443043  Note on, chan=1 pitch=60 vol=40
Time=443067  Note off, chan=1 pitch=71 vol=64
Time=443074  Note on, chan=1 pitch=72 vol=37
Time=443246  Note off, chan=1 pitch=72 vol=64
Time=443301  Note on, chan=1 pitch=62 vol=37
Time=443303  Note on, chan=1 pitch=74 vol=42
Time=443310  Note off, chan=1 pitch=60 vol=64
Time=443469  Note off, chan=1 pitch=62 vol=64
Time=443507  Note off, chan=1 pitch=74 vol=64
Time=443550  Note on, chan=1 pitch=64 vol=48
Time=443551  Note on, chan=1 pitch=76 vol=50
Time=443747  Note off, chan=1 pitch=64 vol=64
Time=443756  Note off, chan=1 pitch=76 vol=64
Time=443783  Note on, chan=1 pitch=60 vol=36
Time=443808  Note on, chan=1 pitch=72 vol=37
Time=443970  Note off, chan=1 pitch=72 vol=64
Time=444018  Note off, chan=1 pitch=60 vol=64
Time=444021  Note on, chan=1 pitch=74 vol=41
Time=444044  Note on, chan=1 pitch=62 vol=35
Time=444252  Note off, chan=1 pitch=62 vol=64
Time=444267  Note on, chan=1 pitch=59 vol=45
Time=444276  Note off, chan=1 pitch=74 vol=64
Time=444281  Note on, chan=1 pitch=71 vol=35
Time=444444  Note off, chan=1 pitch=59 vol=64
Time=444473  Note off, chan=1 pitch=71 vol=64
Time=444475  Note on, chan=1 pitch=60 vol=45
Time=444497  Note on, chan=1 pitch=72 vol=45
Time=444697  Note off, chan=1 pitch=72 vol=64
Time=444716  Note off, chan=1 pitch=60 vol=64
Time=444737  Note on, chan=1 pitch=69 vol=45
Time=444753  Note on, chan=1 pitch=57 vol=37
Time=444947  Note off, chan=1 pitch=57 vol=64
Time=444977  Note on, chan=1 pitch=59 vol=41
Time=444993  Note on, chan=1 pitch=71 vol=33
Time=445001  Note off, chan=1 pitch=69 vol=64
Time=445181  Note off, chan=1 pitch=71 vol=64
Time=445194  Note off, chan=1 pitch=59 vol=64
Time=445206  Note on, chan=1 pitch=60 vol=40
Time=445222  Note on, chan=1 pitch=72 vol=40
Time=445386  Note off, chan=1 pitch=60 vol=64
Time=445419  Note off, chan=1 pitch=72 vol=64
Time=445457  Note on, chan=1 pitch=62 vol=44
Time=445468  Note on, chan=1 pitch=74 vol=43
Time=445646  Note off, chan=1 pitch=74 vol=64
Time=445656  Note off, chan=1 pitch=62 vol=64
Time=445680  Note on, chan=1 pitch=59 vol=35
Time=445706  Note on, chan=1 pitch=71 vol=29
Time=445878  Note off, chan=1 pitch=71 vol=64
Time=445914  Note on, chan=1 pitch=72 vol=44
Time=445919  Note off, chan=1 pitch=59 vol=64
Time=445932  Note on, chan=1 pitch=60 vol=36
Time=446145  Note off, chan=1 pitch=72 vol=64
Time=446169  Note on, chan=1 pitch=69 vol=39
Time=446175  Note on, chan=1 pitch=57 vol=54
Time=446184  Note off, chan=1 pitch=60 vol=64
Time=446371  Note off, chan=1 pitch=57 vol=64
Time=446373  Note off, chan=1 pitch=69 vol=64
Time=446387  Note on, chan=1 pitch=59 vol=51
Time=446398  Note on, chan=1 pitch=71 vol=40
Time=446607  Note off, chan=1 pitch=71 vol=64
Time=446636  Note off, chan=1 pitch=59 vol=64
Time=446655  Note on, chan=1 pitch=67 vol=34
Time=446666  Note on, chan=1 pitch=55 vol=41
Time=446883  Note off, chan=1 pitch=55 vol=64
Time=446886  Note on, chan=1 pitch=57 vol=44
Time=446914  Note on, chan=1 pitch=69 vol=37
Time=446916  Note off, chan=1 pitch=67 vol=64
Time=447111  Note off, chan=1 pitch=69 vol=64
Time=447120  Note on, chan=1 pitch=59 vol=54
Time=447138  Note off, chan=1 pitch=57 vol=64
Time=447144  Note on, chan=1 pitch=71 vol=38
Time=447301  Note off, chan=1 pitch=59 vol=64
Time=447348  Note off, chan=1 pitch=71 vol=64
Time=447365  Note on, chan=1 pitch=60 vol=45
Time=447390  Note on, chan=1 pitch=72 vol=46
Time=447582  Note off, chan=1 pitch=60 vol=64
Time=447603  Note on, chan=1 pitch=57 vol=41
Time=447608  Note off, chan=1 pitch=72 vol=64
Time=447630  Note on, chan=1 pitch=69 vol=41
Time=447792  Note off, chan=1 pitch=69 vol=64
Time=447827  Note on, chan=1 pitch=71 vol=40
Time=447863  Note off, chan=1 pitch=57 vol=64
Time=447871  Note on, chan=1 pitch=59 vol=36
Time=448050  Note off, chan=1 pitch=71 vol=64
Time=448079  Note off, chan=1 pitch=59 vol=64
Time=448080  Note on, chan=1 pitch=67 vol=36
Time=448108  Note on, chan=1 pitch=55 vol=38
Time=448290  Note off, chan=1 pitch=67 vol=64
Time=448293  Note off, chan=1 pitch=55 vol=64
Time=448313  Note on, chan=1 pitch=57 vol=54
Time=448325  Note on, chan=1 pitch=69 vol=40
Time=448536  Note off, chan=1 pitch=69 vol=64
Time=448541  Note off, chan=1 pitch=57 vol=64
Time=448581  Note on, chan=1 pitch=53 vol=40
Time=448586  Note on, chan=1 pitch=65 vol=42
Time=448804  Note off, chan=1 pitch=53 vol=64
Time=448826  Note on, chan=1 pitch=55 vol=36
Time=448853  Note off, chan=1 pitch=65 vol=64
Time=448857  Note on, chan=1 pitch=67 vol=40
Time=449028  Note off, chan=1 pitch=67 vol=64
Time=449038  Note off, chan=1 pitch=55 vol=64
Time=449041  Note on, chan=1 pitch=57 vol=42
Time=449087  Note on, chan=1 pitch=69 vol=37
Time=449219  Note off, chan=1 pitch=57 vol=64
Time=449285  Note on, chan=1 pitch=59 vol=41
Time=449295  Note off, chan=1 pitch=69 vol=64
Time=449318  Note on, chan=1 pitch=71 vol=40
Time=449490  Note off, chan=1 pitch=59 vol=64
Time=449497  Note off, chan=1 pitch=71 vol=64
Time=449516  Note on, chan=1 pitch=55 vol=33
Time=449541  Note on, chan=1 pitch=67 vol=34
Time=449724  Note off, chan=1 pitch=67 vol=64
Time=449759  Note on, chan=1 pitch=69 vol=44
Time=449765  Note off, chan=1 pitch=55 vol=64
Time=449778  Note on, chan=1 pitch=57 vol=51
Time=449978  Note off, chan=1 pitch=57 vol=64
Time=449989  Note off, chan=1 pitch=69 vol=64
Time=450008  Note on, chan=1 pitch=65 vol=35
Time=450009  Note on, chan=1 pitch=53 vol=43
Time=450190  Note off, chan=1 pitch=53 vol=64
Time=450198  Note off, chan=1 pitch=65 vol=64
Time=450221  Note on, chan=1 pitch=55 vol=40
Time=450233  Note on, chan=1 pitch=67 vol=41
Time=450440  Note off, chan=1 pitch=55 vol=64
Time=450446  Note off, chan=1 pitch=67 vol=64
Time=450486  Note on, chan=1 pitch=52 vol=32
Time=450491  Note on, chan=1 pitch=64 vol=40
Time=450684  Note off, chan=1 pitch=52 vol=64
Time=450699  Note on, chan=1 pitch=53 vol=43
Time=450737  Note off, chan=1 pitch=64 vol=64
Time=450741  Note on, chan=1 pitch=65 vol=42
Time=450921  Note off, chan=1 pitch=65 vol=64
Time=450923  Note off, chan=1 pitch=53 vol=64
Time=450938  Note on, chan=1 pitch=55 vol=38
Time=450974  Note on, chan=1 pitch=67 vol=38
Time=451121  Note off, chan=1 pitch=55 vol=64
Time=451174  Note off, chan=1 pitch=67 vol=64
Time=451180  Note on, chan=1 pitch=57 vol=40
Time=451220  Note on, chan=1 pitch=69 vol=48
Time=451400  Note off, chan=1 pitch=69 vol=64
Time=451402  Note off, chan=1 pitch=57 vol=64
Time=451413  Note on, chan=1 pitch=53 vol=38
Time=451434  Note on, chan=1 pitch=65 vol=36
Time=451613  Note off, chan=1 pitch=65 vol=64
Time=451644  Note on, chan=1 pitch=67 vol=42
Time=451689  Note on, chan=1 pitch=55 vol=34
Time=451697  Note off, chan=1 pitch=53 vol=64
Time=451877  Note off, chan=1 pitch=67 vol=64
Time=451886  Note off, chan=1 pitch=55 vol=64
Time=451914  Note on, chan=1 pitch=64 vol=35
Time=451923  Note on, chan=1 pitch=52 vol=40
Time=452120  Note off, chan=1 pitch=52 vol=64
Time=452127  Note off, chan=1 pitch=64 vol=64
Time=452138  Note on, chan=1 pitch=53 vol=43
Time=452144  Note on, chan=1 pitch=65 vol=42
Time=452370  Note off, chan=1 pitch=53 vol=64
Time=452376  Note off, chan=1 pitch=65 vol=64
Time=452392  Note on, chan=1 pitch=50 vol=38
Time=452419  Note on, chan=1 pitch=62 vol=38
Time=452669  Note on, chan=1 pitch=52 vol=37
Time=452675  Note on, chan=1 pitch=64 vol=36
Time=452683  Note off, chan=1 pitch=50 vol=64
Time=452685  Note off, chan=1 pitch=62 vol=64
Time=452880  Note on, chan=1 pitch=53 vol=45
Time=452885  Note off, chan=1 pitch=64 vol=64
Time=452898  Note off, chan=1 pitch=52 vol=64
Time=452913  Note on, chan=1 pitch=65 vol=39
Time=453056  Note off, chan=1 pitch=53 vol=64
Time=453110  Note off, chan=1 pitch=65 vol=64
Time=453116  Note on, chan=1 pitch=55 vol=40
Time=453142  Note on, chan=1 pitch=67 vol=47
Time=453333  Note off, chan=1 pitch=67 vol=64
Time=453342  Note off, chan=1 pitch=55 vol=64
Time=453356  Note on, chan=1 pitch=52 vol=33
Time=453368  Note on, chan=1 pitch=64 vol=36
Time=453558  Note off, chan=1 pitch=64 vol=64
Time=453585  Note on, chan=1 pitch=65 vol=44
Time=453611  Note on, chan=1 pitch=53 vol=45
Time=453628  Note off, chan=1 pitch=52 vol=64
Time=453825  Note off, chan=1 pitch=65 vol=64
Time=453840  Note off, chan=1 pitch=53 vol=64
Time=453848  Note on, chan=1 pitch=62 vol=35
Time=453861  Note on, chan=1 pitch=50 vol=40
Time=454035  Note off, chan=1 pitch=50 vol=64
Time=454063  Note off, chan=1 pitch=62 vol=64
Time=454068  Note on, chan=1 pitch=52 vol=42
Time=454071  Note on, chan=1 pitch=64 vol=44
Time=454281  Note off, chan=1 pitch=64 vol=64
Time=454295  Note off, chan=1 pitch=52 vol=64
Time=454316  Note on, chan=1 pitch=48 vol=45
Time=454322  Note on, chan=1 pitch=60 vol=40
Time=454553  Note off, chan=1 pitch=48 vol=64
Time=454555  Note on, chan=1 pitch=50 vol=38
Time=454579  Note on, chan=1 pitch=62 vol=37
Time=454587  Note off, chan=1 pitch=60 vol=64
Time=454763  Note off, chan=1 pitch=62 vol=64
Time=454770  Note off, chan=1 pitch=50 vol=64
Time=454779  Note on, chan=1 pitch=52 vol=38
Time=454806  Note on, chan=1 pitch=64 vol=36
Time=454946  Note off, chan=1 pitch=52 vol=64
Time=455001  Note on, chan=1 pitch=53 vol=40
Time=455004  Note off, chan=1 pitch=64 vol=64
Time=455043  Note on, chan=1 pitch=65 vol=45
Time=455223  Note off, chan=1 pitch=53 vol=64
Time=455243  Note on, chan=1 pitch=50 vol=28
Time=455253  Note off, chan=1 pitch=65 vol=64
Time=455295  Note on, chan=1 pitch=62 vol=30
Time=455510  Note off, chan=1 pitch=62 vol=64
Time=455536  Note off, chan=1 pitch=50 vol=64
Time=455546  Note on, chan=1 pitch=64 vol=43
Time=455558  Note on, chan=1 pitch=52 vol=39
Time=455763  Note off, chan=1 pitch=52 vol=64
Time=455771  Note off, chan=1 pitch=64 vol=64
Time=455795  Note on, chan=1 pitch=48 vol=40
Time=455801  Note on, chan=1 pitch=60 vol=28
Time=455982  Note off, chan=1 pitch=48 vol=64
Time=455984  Note off, chan=1 pitch=60 vol=64
Time=456014  Note on, chan=1 pitch=50 vol=38
Time=456018  Note on, chan=1 pitch=62 vol=41
Time=456202  Note off, chan=1 pitch=62 vol=64
Time=456235  Note on, chan=1 pitch=59 vol=40
Time=456237  Note off, chan=1 pitch=50 vol=64
Time=456277  Note on, chan=1 pitch=47 vol=32
Time=456453  Note off, chan=1 pitch=47 vol=64
Time=456480  Note on, chan=1 pitch=48 vol=44
Time=456503  Note on, chan=1 pitch=60 vol=38
Time=456516  Note off, chan=1 pitch=59 vol=64
Time=456698  Note on, chan=1 pitch=50 vol=42
Time=456706  Note off, chan=1 pitch=48 vol=64
Time=456710  Note off, chan=1 pitch=60 vol=64
Time=456743  Note on, chan=1 pitch=62 vol=38
Time=456869  Note off, chan=1 pitch=50 vol=64
Time=456934  Note off, chan=1 pitch=62 vol=64
Time=456949  Note on, chan=1 pitch=52 vol=37
Time=456984  Note on, chan=1 pitch=64 vol=40
Time=457125  Note off, chan=1 pitch=52 vol=64
Time=457166  Note off, chan=1 pitch=64 vol=64
Time=457170  Note on, chan=1 pitch=48 vol=39
Time=457204  Note on, chan=1 pitch=60 vol=30
Time=457370  Note off, chan=1 pitch=60 vol=64
Time=457391  Note off, chan=1 pitch=48 vol=64
Time=457413  Note on, chan=1 pitch=62 vol=41
Time=457444  Note on, chan=1 pitch=50 vol=35
Time=457632  Note off, chan=1 pitch=50 vol=64
Time=457656  Note off, chan=1 pitch=62 vol=64
Time=457677  Note on, chan=1 pitch=47 vol=37
Time=457688  Note on, chan=1 pitch=59 vol=32
Time=457862  Note off, chan=1 pitch=47 vol=64
Time=457886  Note off, chan=1 pitch=59 vol=64
Time=457898  Note on, chan=1 pitch=48 vol=34
Time=457904  Note on, chan=1 pitch=60 vol=39
Time=458102  Note off, chan=1 pitch=48 vol=64
Time=458115  Note off, chan=1 pitch=60 vol=64
Time=458145  Note on, chan=1 pitch=45 vol=29
Time=458150  Note on, chan=1 pitch=57 vol=43
Time=458342  Note off, chan=1 pitch=45 vol=64
Time=458376  Note on, chan=1 pitch=47 vol=33
Time=458418  Note on, chan=1 pitch=59 vol=39
Time=458426  Note off, chan=1 pitch=57 vol=64
Time=458595  Note off, chan=1 pitch=47 vol=64
Time=458613  Note on, chan=1 pitch=48 vol=40
Time=458616  Note off, chan=1 pitch=59 vol=64
Time=458644  Note on, chan=1 pitch=60 vol=41
Time=458814  Note off, chan=1 pitch=48 vol=64
Time=458855  Note off, chan=1 pitch=60 vol=64
Time=458873  Note on, chan=1 pitch=50 vol=42
Time=458892  Note on, chan=1 pitch=62 vol=42
Time=459093  Note off, chan=1 pitch=50 vol=64
Time=459101  Note off, chan=1 pitch=62 vol=64
Time=459123  Note on, chan=1 pitch=47 vol=35
Time=459132  Note on, chan=1 pitch=59 vol=38
Time=459314  Note off, chan=1 pitch=59 vol=64
Time=459341  Note off, chan=1 pitch=47 vol=64
Time=459345  Note on, chan=1 pitch=60 vol=40
Time=459365  Note on, chan=1 pitch=48 vol=33
Time=459575  Note off, chan=1 pitch=60 vol=64
Time=459577  Note off, chan=1 pitch=48 vol=64
Time=459596  Note on, chan=1 pitch=45 vol=43
Time=459599  Note on, chan=1 pitch=57 vol=32
Time=459794  Note off, chan=1 pitch=57 vol=64
Time=459810  Note on, chan=1 pitch=59 vol=42
Time=459818  Note off, chan=1 pitch=45 vol=64
Time=459833  Note on, chan=1 pitch=47 vol=34
Time=460031  Note off, chan=1 pitch=47 vol=64
Time=460043  Note off, chan=1 pitch=59 vol=64
Time=460070  Note on, chan=1 pitch=43 vol=37
Time=460096  Note on, chan=1 pitch=55 vol=40
Time=460301  Note off, chan=1 pitch=43 vol=64
Time=460308  Note on, chan=1 pitch=45 vol=35
Time=460358  Note on, chan=1 pitch=57 vol=38
Time=460366  Note off, chan=1 pitch=55 vol=64
Time=460563  Note off, chan=1 pitch=57 vol=64
Time=460566  Note on, chan=1 pitch=47 vol=32
Time=460572  Note off, chan=1 pitch=45 vol=64
Time=460595  Note on, chan=1 pitch=59 vol=36
Time=460746  Note off, chan=1 pitch=47 vol=64
Time=460803  Note off, chan=1 pitch=59 vol=64
Time=460805  Note on, chan=1 pitch=48 vol=41
Time=460830  Note on, chan=1 pitch=60 vol=51
Time=461019  Note off, chan=1 pitch=48 vol=64
Time=461040  Note off, chan=1 pitch=60 vol=64
Time=461055  Note on, chan=1 pitch=45 vol=35
Time=461067  Note on, chan=1 pitch=57 vol=40
Time=461235  Note off, chan=1 pitch=57 vol=64
Time=461273  Note on, chan=1 pitch=59 vol=43
Time=461280  Note off, chan=1 pitch=45 vol=64
Time=461307  Note on, chan=1 pitch=47 vol=29
Time=461487  Note off, chan=1 pitch=47 vol=64
Time=461490  Note off, chan=1 pitch=59 vol=64
Time=461528  Note on, chan=1 pitch=55 vol=27
Time=461531  Note on, chan=1 pitch=43 vol=36
Time=461709  Note off, chan=1 pitch=43 vol=64
Time=461718  Note off, chan=1 pitch=55 vol=64
Time=461740  Note on, chan=1 pitch=57 vol=43
Time=461748  Note on, chan=1 pitch=45 vol=31
Time=461956  Note off, chan=1 pitch=57 vol=64
Time=461975  Note off, chan=1 pitch=45 vol=64
Time=462018  Note on, chan=1 pitch=53 vol=23
Time=462042  Note on, chan=1 pitch=41 vol=26
Time=462219  Note off, chan=1 pitch=41 vol=64
Time=462264  Note on, chan=1 pitch=43 vol=37
Time=462288  Note on, chan=1 pitch=55 vol=38
Time=462295  Note off, chan=1 pitch=53 vol=64
Time=462500  Note off, chan=1 pitch=43 vol=64
Time=462502  Note on, chan=1 pitch=45 vol=36
Time=462507  Note off, chan=1 pitch=55 vol=64
Time=462546  Note on, chan=1 pitch=57 vol=30
Time=462648  Note off, chan=1 pitch=45 vol=64
Time=462701  Note off, chan=1 pitch=57 vol=64
Time=462758  Note on, chan=1 pitch=47 vol=38
Time=462786  Note on, chan=1 pitch=59 vol=44
Time=462929  Note off, chan=1 pitch=59 vol=64
Time=462945  Note off, chan=1 pitch=47 vol=64
Time=463257  Note on, chan=1 pitch=59 vol=57
Time=463259  Note on, chan=1 pitch=47 vol=48
Time=463446  Note off, chan=1 pitch=59 vol=64
Time=463465  Note off, chan=1 pitch=47 vol=64
Time=464647  Note on, chan=1 pitch=59 vol=43
Time=464651  Note on, chan=1 pitch=47 vol=43
Time=464836  Note off, chan=1 pitch=59 vol=64
Time=464848  Note off, chan=1 pitch=47 vol=64
Time=464898  Note on, chan=1 pitch=43 vol=27
Time=464904  Note on, chan=1 pitch=55 vol=27
Time=465063  Note off, chan=1 pitch=55 vol=64
Time=465071  Note off, chan=1 pitch=43 vol=64
Time=465132  Note on, chan=1 pitch=57 vol=44
Time=465147  Note on, chan=1 pitch=45 vol=33
Time=465260  Note off, chan=1 pitch=45 vol=64
Time=465332  Note off, chan=1 pitch=57 vol=64
Time=465366  Note on, chan=1 pitch=53 vol=42
Time=465371  Note on, chan=1 pitch=41 vol=31
Time=465530  Note off, chan=1 pitch=41 vol=64
Time=465548  Note off, chan=1 pitch=53 vol=64
Time=465584  Note on, chan=1 pitch=55 vol=36
Time=465609  Note on, chan=1 pitch=43 vol=35
Time=465765  Note off, chan=1 pitch=55 vol=64
Time=465822  Note off, chan=1 pitch=43 vol=64
Time=465837  Note on, chan=1 pitch=52 vol=40
Time=465890  Note on, chan=1 pitch=40 vol=31
Time=466071  Note off, chan=1 pitch=40 vol=64
Time=466097  Note off, chan=1 pitch=52 vol=64
Time=466101  Note on, chan=1 pitch=41 vol=37
Time=466106  Note on, chan=1 pitch=53 vol=36
Time=466270  Note off, chan=1 pitch=53 vol=64
Time=466302  Note off, chan=1 pitch=41 vol=64
Time=466310  Note on, chan=1 pitch=43 vol=35
Time=466338  Note on, chan=1 pitch=55 vol=39
Time=466464  Note off, chan=1 pitch=43 vol=64
Time=466525  Note off, chan=1 pitch=55 vol=64
Time=466561  Note on, chan=1 pitch=45 vol=39
Time=466583  Note on, chan=1 pitch=57 vol=37
Time=466741  Note off, chan=1 pitch=57 vol=64
Time=466769  Note off, chan=1 pitch=45 vol=64
Time=466811  Note on, chan=1 pitch=41 vol=31
Time=466841  Note on, chan=1 pitch=53 vol=33
Time=466992  Note off, chan=1 pitch=53 vol=64
Time=467005  Note off, chan=1 pitch=41 vol=64
Time=467046  Note on, chan=1 pitch=55 vol=44
Time=467060  Note on, chan=1 pitch=43 vol=39
Time=467240  Note off, chan=1 pitch=55 vol=64
Time=467256  Note off, chan=1 pitch=43 vol=64
Time=467293  Note on, chan=1 pitch=40 vol=37
Time=467313  Note on, chan=1 pitch=52 vol=32
Time=467478  Note off, chan=1 pitch=52 vol=64
Time=467487  Note off, chan=1 pitch=40 vol=64
Time=467518  Note on, chan=1 pitch=53 vol=40
Time=467523  Note on, chan=1 pitch=41 vol=38
Time=467703  Note off, chan=1 pitch=53 vol=64
Time=467734  Note off, chan=1 pitch=41 vol=64
Time=467776  Note on, chan=1 pitch=50 vol=39
Time=467796  Note on, chan=1 pitch=38 vol=26
Time=467963  Note off, chan=1 pitch=38 vol=64
Time=468003  Note on, chan=1 pitch=40 vol=36
Time=468018  Note off, chan=1 pitch=50 vol=64
Time=468023  Note on, chan=1 pitch=52 vol=38
Time=468165  Note off, chan=1 pitch=52 vol=64
Time=468233  Note off, chan=1 pitch=40 vol=64
Time=468245  Note on, chan=1 pitch=41 vol=37
Time=468246  Note on, chan=1 pitch=53 vol=37
Time=468386  Note off, chan=1 pitch=41 vol=64
Time=468420  Note off, chan=1 pitch=53 vol=64
Time=468485  Note on, chan=1 pitch=43 vol=40
Time=468493  Note on, chan=1 pitch=55 vol=43
Time=468666  Note off, chan=1 pitch=43 vol=64
Time=468681  Note off, chan=1 pitch=55 vol=64
Time=468707  Note on, chan=1 pitch=40 vol=33
Time=468741  Note on, chan=1 pitch=52 vol=35
Time=468863  Note off, chan=1 pitch=40 vol=64
Time=468891  Note off, chan=1 pitch=52 vol=64
Time=468944  Note on, chan=1 pitch=53 vol=43
Time=468975  Note on, chan=1 pitch=41 vol=39
Time=469170  Note off, chan=1 pitch=53 vol=64
Time=469178  Note off, chan=1 pitch=41 vol=64
Time=469220  Note on, chan=1 pitch=50 vol=34
Time=469233  Note on, chan=1 pitch=38 vol=37
Time=469391  Note off, chan=1 pitch=50 vol=64
Time=469406  Note off, chan=1 pitch=38 vol=64
Time=469440  Note on, chan=1 pitch=52 vol=40
Time=469443  Note on, chan=1 pitch=40 vol=39
Time=469644  Note off, chan=1 pitch=52 vol=64
Time=469646  Note off, chan=1 pitch=40 vol=64
Time=469687  Note on, chan=1 pitch=48 vol=43
Time=469726  Note on, chan=1 pitch=36 vol=34
Time=472782  Note off, chan=1 pitch=48 vol=64
Time=473251  Note off, chan=1 pitch=36 vol=64
Time=474214  Note on, chan=1 pitch=36 vol=41
Time=474217  Note on, chan=1 pitch=48 vol=44
Time=474440  Note off, chan=1 pitch=36 vol=64
Time=474465  Note on, chan=1 pitch=40 vol=42
Time=474501  Note on, chan=1 pitch=52 vol=40
Time=474503  Note off, chan=1 pitch=48 vol=64
Time=474705  Note off, chan=1 pitch=52 vol=64
Time=474726  Note off, chan=1 pitch=40 vol=64
Time=474728  Note on, chan=1 pitch=55 vol=49
Time=474729  Note on, chan=1 pitch=43 vol=43
Time=474913  Note off, chan=1 pitch=55 vol=64
Time=474951  Note off, chan=1 pitch=43 vol=64
Time=474972  Note on, chan=1 pitch=45 vol=42
Time=474975  Note on, chan=1 pitch=57 vol=43
Time=475202  Note off, chan=1 pitch=57 vol=64
Time=475209  Note off, chan=1 pitch=45 vol=64
Time=475262  Note on, chan=1 pitch=41 vol=17
Time=475336  Note off, chan=1 pitch=41 vol=64
Time=478029  Note on, chan=1 pitch=36 vol=47
Time=478038  Note on, chan=1 pitch=48 vol=43
Time=478241  Note off, chan=1 pitch=36 vol=64
Time=478281  Note on, chan=1 pitch=40 vol=32
Time=478304  Note off, chan=1 pitch=48 vol=64
Time=478334  Note on, chan=1 pitch=52 vol=44
Time=478493  Note off, chan=1 pitch=52 vol=64
Time=478559  Note off, chan=1 pitch=40 vol=64
Time=478574  Note on, chan=1 pitch=55 vol=50
Time=478586  Note on, chan=1 pitch=43 vol=38
Time=478749  Note off, chan=1 pitch=55 vol=64
Time=478814  Note on, chan=1 pitch=57 vol=45
Time=478821  Note off, chan=1 pitch=43 vol=64
Time=478845  Note on, chan=1 pitch=45 vol=43
Time=478962  Note off, chan=1 pitch=45 vol=64
Time=479015  Note off, chan=1 pitch=57 vol=64
Time=479058  Note on, chan=1 pitch=41 vol=40
Time=479078  Note on, chan=1 pitch=53 vol=51
Time=479238  Note off, chan=1 pitch=53 vol=64
Time=479303  Note on, chan=1 pitch=55 vol=46
Time=479314  Note on, chan=1 pitch=43 vol=42
Time=479321  Note off, chan=1 pitch=41 vol=64
Time=479486  Note off, chan=1 pitch=55 vol=64
Time=479507  Note off, chan=1 pitch=43 vol=64
Time=479534  Note on, chan=1 pitch=40 vol=47
Time=479541  Note on, chan=1 pitch=52 vol=49
Time=479736  Note off, chan=1 pitch=52 vol=64
Time=479743  Note off, chan=1 pitch=40 vol=64
Time=479772  Note on, chan=1 pitch=53 vol=42
Time=479775  Note on, chan=1 pitch=41 vol=41
Time=479943  Note off, chan=1 pitch=53 vol=64
Time=479948  Note off, chan=1 pitch=41 vol=64
Time=480030  Note on, chan=1 pitch=38 vol=48
Time=480031  Note on, chan=1 pitch=50 vol=39
Time=480236  Note off, chan=1 pitch=38 vol=64
Time=480239  Note on, chan=1 pitch=41 vol=38
Time=480282  Note on, chan=1 pitch=53 vol=44
Time=480293  Note off, chan=1 pitch=50 vol=64
Time=480476  Note off, chan=1 pitch=53 vol=64
Time=480490  Note off, chan=1 pitch=41 vol=64
Time=480500  Note on, chan=1 pitch=45 vol=48
Time=480501  Note on, chan=1 pitch=57 vol=58
Time=480686  Note off, chan=1 pitch=57 vol=64
Time=480741  Note off, chan=1 pitch=45 vol=64
Time=480753  Note on, chan=1 pitch=47 vol=49
Time=480755  Note on, chan=1 pitch=59 vol=40
Time=480936  Note off, chan=1 pitch=47 vol=64
Time=480945  Note off, chan=1 pitch=59 vol=64
Time=480960  Note on, chan=1 pitch=43 vol=47
Time=480999  Note on, chan=1 pitch=55 vol=51
Time=481154  Note off, chan=1 pitch=55 vol=64
Time=481213  Note off, chan=1 pitch=43 vol=64
Time=481219  Note on, chan=1 pitch=57 vol=47
Time=481232  Note on, chan=1 pitch=45 vol=41
Time=481397  Note off, chan=1 pitch=57 vol=64
Time=481418  Note off, chan=1 pitch=45 vol=64
Time=481448  Note on, chan=1 pitch=53 vol=43
Time=481455  Note on, chan=1 pitch=41 vol=42
Time=481638  Note off, chan=1 pitch=53 vol=64
Time=481659  Note off, chan=1 pitch=41 vol=64
Time=481683  Note on, chan=1 pitch=55 vol=40
Time=481685  Note on, chan=1 pitch=43 vol=42
Time=482106  Note off, chan=1 pitch=43 vol=64
Time=482175  Note off, chan=1 pitch=55 vol=64
Time=486231  Note on, chan=1 pitch=36 vol=34
Time=486243  Note on, chan=1 pitch=48 vol=32
Time=486492  Note on, chan=1 pitch=40 vol=45
Time=486500  Note off, chan=1 pitch=36 vol=64
Time=486503  Note off, chan=1 pitch=48 vol=64
Time=486516  Note on, chan=1 pitch=52 vol=33
Time=486669  Note off, chan=1 pitch=52 vol=64
Time=486726  Note off, chan=1 pitch=40 vol=64
Time=486734  Note on, chan=1 pitch=55 vol=51
Time=486741  Note on, chan=1 pitch=43 vol=34
Time=486914  Note off, chan=1 pitch=55 vol=64
Time=486983  Note off, chan=1 pitch=43 vol=64
Time=486989  Note on, chan=1 pitch=57 vol=42
Time=487001  Note on, chan=1 pitch=45 vol=43
Time=487095  Note off, chan=1 pitch=45 vol=64
Time=487143  Note off, chan=1 pitch=57 vol=64
Time=487217  Note on, chan=1 pitch=53 vol=45
Time=487224  Note on, chan=1 pitch=41 vol=36
Time=487395  Note off, chan=1 pitch=53 vol=64
Time=487451  Note on, chan=1 pitch=55 vol=41
Time=487457  Note off, chan=1 pitch=41 vol=64
Time=487472  Note on, chan=1 pitch=43 vol=38
Time=487649  Note off, chan=1 pitch=55 vol=64
Time=487653  Note off, chan=1 pitch=43 vol=64
Time=487691  Note on, chan=1 pitch=52 vol=44
Time=487701  Note on, chan=1 pitch=40 vol=39
Time=487866  Note off, chan=1 pitch=40 vol=64
Time=487874  Note off, chan=1 pitch=52 vol=64
Time=487929  Note on, chan=1 pitch=41 vol=37
Time=487945  Note on, chan=1 pitch=53 vol=34
Time=488061  Note off, chan=1 pitch=41 vol=64
Time=488109  Note off, chan=1 pitch=53 vol=64
Time=488183  Note on, chan=1 pitch=38 vol=52
Time=488191  Note on, chan=1 pitch=50 vol=49
Time=488462  Note off, chan=1 pitch=38 vol=64
Time=488466  Note off, chan=1 pitch=50 vol=64
Time=489623  Note on, chan=1 pitch=36 vol=61
Time=489635  Note on, chan=1 pitch=48 vol=68
Time=489826  Note off, chan=1 pitch=48 vol=64
Time=489941  Note on, chan=1 pitch=40 vol=47
Time=489945  Note off, chan=1 pitch=36 vol=64
Time=489949  Note on, chan=1 pitch=52 vol=40
Time=490131  Note off, chan=1 pitch=52 vol=64
Time=490176  Note off, chan=1 pitch=40 vol=64
Time=491498  Note on, chan=1 pitch=48 vol=65
Time=491500  Note on, chan=1 pitch=36 vol=47
Time=491727  Note on, chan=1 pitch=40 vol=42
Time=491742  Note off, chan=1 pitch=36 vol=64
Time=491761  Note on, chan=1 pitch=52 vol=42
Time=491787  Note off, chan=1 pitch=48 vol=64
Time=491969  Note off, chan=1 pitch=52 vol=64
Time=492004  Note on, chan=1 pitch=55 vol=52
Time=492020  Note on, chan=1 pitch=43 vol=36
Time=492023  Note off, chan=1 pitch=40 vol=64
Time=492181  Note off, chan=1 pitch=55 vol=64
Time=492229  Note off, chan=1 pitch=43 vol=64
Time=492239  Note on, chan=1 pitch=57 vol=50
Time=492256  Note on, chan=1 pitch=45 vol=44
Time=492392  Note off, chan=1 pitch=45 vol=64
Time=492435  Note off, chan=1 pitch=57 vol=64
Time=492463  Note on, chan=1 pitch=41 vol=39
Time=492480  Note on, chan=1 pitch=53 vol=52
Time=492653  Note off, chan=1 pitch=53 vol=64
Time=492686  Note off, chan=1 pitch=41 vol=64
Time=492708  Note on, chan=1 pitch=55 vol=43
Time=492712  Note on, chan=1 pitch=43 vol=37
Time=492907  Note off, chan=1 pitch=55 vol=64
Time=492911  Note off, chan=1 pitch=43 vol=64
Time=492939  Note on, chan=1 pitch=40 vol=44
Time=492948  Note on, chan=1 pitch=52 vol=45
Time=493157  Note off, chan=1 pitch=52 vol=64
Time=493163  Note off, chan=1 pitch=40 vol=64
Time=493176  Note on, chan=1 pitch=53 vol=41
Time=493179  Note on, chan=1 pitch=41 vol=42
Time=493349  Note off, chan=1 pitch=41 vol=64
Time=493376  Note off, chan=1 pitch=53 vol=64
Time=493434  Note on, chan=1 pitch=50 vol=47
Time=493448  Note on, chan=1 pitch=38 vol=45
Time=493666  Note off, chan=1 pitch=50 vol=64
Time=493674  Note on, chan=1 pitch=41 vol=43
Time=493676  Note on, chan=1 pitch=53 vol=36
Time=493679  Note off, chan=1 pitch=38 vol=64
Time=493900  Note off, chan=1 pitch=53 vol=64
Time=493919  Note off, chan=1 pitch=41 vol=64
Time=493933  Note on, chan=1 pitch=45 vol=43
Time=493942  Note on, chan=1 pitch=57 vol=51
Time=494121  Note off, chan=1 pitch=57 vol=64
Time=494154  Note off, chan=1 pitch=45 vol=64
Time=494167  Note on, chan=1 pitch=59 vol=49
Time=494175  Note on, chan=1 pitch=47 vol=47
Time=494354  Note off, chan=1 pitch=47 vol=64
Time=494357  Note off, chan=1 pitch=59 vol=64
Time=494396  Note on, chan=1 pitch=43 vol=38
Time=494404  Note on, chan=1 pitch=55 vol=47
Time=494588  Note off, chan=1 pitch=55 vol=64
Time=494642  Note off, chan=1 pitch=43 vol=64
Time=494649  Note on, chan=1 pitch=57 vol=41
Time=494654  Note on, chan=1 pitch=45 vol=39
Time=494846  Note off, chan=1 pitch=45 vol=64
Time=494849  Note off, chan=1 pitch=57 vol=64
Time=494882  Note on, chan=1 pitch=53 vol=48
Time=494901  Note on, chan=1 pitch=41 vol=36
Time=495089  Note off, chan=1 pitch=41 vol=64
Time=495092  Note off, chan=1 pitch=53 vol=64
Time=495128  Note on, chan=1 pitch=43 vol=36
Time=495135  Note on, chan=1 pitch=55 vol=37
Time=495291  Note off, chan=1 pitch=43 vol=64
Time=495311  Note off, chan=1 pitch=55 vol=64
Time=495375  Note on, chan=1 pitch=40 vol=39
Time=495377  Note on, chan=1 pitch=52 vol=43
Time=495576  Note off, chan=1 pitch=52 vol=64
Time=495602  Note off, chan=1 pitch=40 vol=64
Time=495621  Note on, chan=1 pitch=43 vol=39
Time=495627  Note on, chan=1 pitch=55 vol=40
Time=495826  Note off, chan=1 pitch=55 vol=64
Time=495866  Note off, chan=1 pitch=43 vol=64
Time=495870  Note on, chan=1 pitch=59 vol=47
Time=495878  Note on, chan=1 pitch=47 vol=42
Time=496044  Note off, chan=1 pitch=59 vol=64
Time=496082  Note off, chan=1 pitch=47 vol=64
Time=496107  Note on, chan=1 pitch=60 vol=40
Time=496112  Note on, chan=1 pitch=48 vol=40
Time=496283  Note off, chan=1 pitch=60 vol=64
Time=496305  Note off, chan=1 pitch=48 vol=64
Time=496334  Note on, chan=1 pitch=57 vol=40
Time=496337  Note on, chan=1 pitch=45 vol=34
Time=496515  Note off, chan=1 pitch=57 vol=64
Time=496563  Note off, chan=1 pitch=45 vol=64
Time=496583  Note on, chan=1 pitch=59 vol=36
Time=496589  Note on, chan=1 pitch=47 vol=36
Time=496745  Note off, chan=1 pitch=47 vol=64
Time=496769  Note off, chan=1 pitch=59 vol=64
Time=496803  Note on, chan=1 pitch=43 vol=42
Time=496811  Note on, chan=1 pitch=55 vol=37
Time=496998  Note off, chan=1 pitch=43 vol=64
Time=497003  Note off, chan=1 pitch=55 vol=64
Time=497039  Note on, chan=1 pitch=45 vol=38
Time=497044  Note on, chan=1 pitch=57 vol=40
Time=497187  Note off, chan=1 pitch=45 vol=64
Time=497237  Note off, chan=1 pitch=57 vol=64
Time=497280  Note on, chan=1 pitch=41 vol=45
Time=497295  Note on, chan=1 pitch=53 vol=49
Time=497473  Note off, chan=1 pitch=53 vol=64
Time=497507  Note off, chan=1 pitch=41 vol=64
Time=497517  Note on, chan=1 pitch=45 vol=36
Time=497550  Note on, chan=1 pitch=57 vol=30
Time=497733  Note off, chan=1 pitch=57 vol=64
Time=497775  Note on, chan=1 pitch=60 vol=45
Time=497777  Note off, chan=1 pitch=45 vol=64
Time=497785  Note on, chan=1 pitch=48 vol=39
Time=497954  Note off, chan=1 pitch=60 vol=64
Time=497982  Note off, chan=1 pitch=48 vol=64
Time=498006  Note on, chan=1 pitch=62 vol=42
Time=498012  Note on, chan=1 pitch=50 vol=41
Time=498189  Note off, chan=1 pitch=62 vol=64
Time=498191  Note off, chan=1 pitch=50 vol=64
Time=498238  Note on, chan=1 pitch=59 vol=36
Time=498242  Note on, chan=1 pitch=47 vol=39
Time=498422  Note off, chan=1 pitch=59 vol=64
Time=498479  Note on, chan=1 pitch=60 vol=35
Time=498497  Note off, chan=1 pitch=47 vol=64
Time=498518  Note on, chan=1 pitch=48 vol=40
Time=498702  Note off, chan=1 pitch=48 vol=64
Time=498704  Note off, chan=1 pitch=60 vol=64
Time=498739  Note on, chan=1 pitch=57 vol=40
Time=498744  Note on, chan=1 pitch=45 vol=37
Time=498929  Note off, chan=1 pitch=45 vol=64
Time=498939  Note off, chan=1 pitch=57 vol=64
Time=498957  Note on, chan=1 pitch=47 vol=40
Time=498975  Note on, chan=1 pitch=59 vol=40
Time=499125  Note off, chan=1 pitch=47 vol=64
Time=499161  Note off, chan=1 pitch=59 vol=64
Time=499214  Note on, chan=1 pitch=43 vol=50
Time=499234  Note on, chan=1 pitch=55 vol=48
Time=499430  Note off, chan=1 pitch=55 vol=64
Time=499467  Note on, chan=1 pitch=47 vol=43
Time=499470  Note off, chan=1 pitch=43 vol=64
Time=499485  Note on, chan=1 pitch=59 vol=40
Time=499666  Note off, chan=1 pitch=59 vol=64
Time=499697  Note on, chan=1 pitch=50 vol=44
Time=499699  Note off, chan=1 pitch=47 vol=64
Time=499701  Note on, chan=1 pitch=62 vol=46
Time=499876  Note off, chan=1 pitch=62 vol=64
Time=499905  Note off, chan=1 pitch=50 vol=64
Time=499929  Note on, chan=1 pitch=64 vol=44
Time=499932  Note on, chan=1 pitch=52 vol=38
Time=500134  Note off, chan=1 pitch=64 vol=64
Time=500136  Note off, chan=1 pitch=52 vol=64
Time=500163  Note on, chan=1 pitch=48 vol=32
Time=500166  Note on, chan=1 pitch=60 vol=41
Time=500356  Note off, chan=1 pitch=60 vol=64
Time=500397  Note off, chan=1 pitch=48 vol=64
Time=500413  Note on, chan=1 pitch=62 vol=36
Time=500418  Note on, chan=1 pitch=50 vol=40
Time=500607  Note off, chan=1 pitch=62 vol=64
Time=500612  Note off, chan=1 pitch=50 vol=64
Time=500662  Note on, chan=1 pitch=47 vol=44
Time=500665  Note on, chan=1 pitch=59 vol=42
Time=500843  Note off, chan=1 pitch=47 vol=64
Time=500856  Note off, chan=1 pitch=59 vol=64
Time=500888  Note on, chan=1 pitch=48 vol=45
Time=500903  Note on, chan=1 pitch=60 vol=43
Time=501064  Note off, chan=1 pitch=48 vol=64
Time=501092  Note off, chan=1 pitch=60 vol=64
Time=501150  Note on, chan=1 pitch=57 vol=58
Time=501155  Note on, chan=1 pitch=45 vol=47
Time=501361  Note off, chan=1 pitch=57 vol=64
Time=501372  Note off, chan=1 pitch=45 vol=64
Time=501380  Note on, chan=1 pitch=48 vol=40
Time=501396  Note on, chan=1 pitch=60 vol=34
Time=501596  Note off, chan=1 pitch=60 vol=64
Time=501615  Note off, chan=1 pitch=48 vol=64
Time=501638  Note on, chan=1 pitch=52 vol=36
Time=501639  Note on, chan=1 pitch=64 vol=44
Time=501809  Note off, chan=1 pitch=64 vol=64
Time=501827  Note off, chan=1 pitch=52 vol=64
Time=501858  Note on, chan=1 pitch=53 vol=41
Time=501871  Note on, chan=1 pitch=65 vol=43
Time=501968  Note off, chan=1 pitch=65 vol=64
Time=502026  Note off, chan=1 pitch=53 vol=64
Time=502086  Note on, chan=1 pitch=50 vol=38
Time=502099  Note on, chan=1 pitch=62 vol=51
Time=502275  Note off, chan=1 pitch=62 vol=64
Time=502329  Note off, chan=1 pitch=50 vol=64
Time=502337  Note on, chan=1 pitch=52 vol=38
Time=502343  Note on, chan=1 pitch=64 vol=41
Time=502532  Note off, chan=1 pitch=64 vol=64
Time=502560  Note off, chan=1 pitch=52 vol=64
Time=502583  Note on, chan=1 pitch=60 vol=43
Time=502592  Note on, chan=1 pitch=48 vol=46
Time=502799  Note off, chan=1 pitch=60 vol=64
Time=502808  Note off, chan=1 pitch=48 vol=64
Time=502836  Note on, chan=1 pitch=62 vol=40
Time=502838  Note on, chan=1 pitch=50 vol=38
Time=502964  Note off, chan=1 pitch=50 vol=64
Time=503025  Note off, chan=1 pitch=62 vol=64
Time=503075  Note on, chan=1 pitch=47 vol=44
Time=503076  Note on, chan=1 pitch=59 vol=54
Time=503267  Note off, chan=1 pitch=59 vol=64
Time=503319  Note off, chan=1 pitch=47 vol=64
Time=503321  Note on, chan=1 pitch=50 vol=49
Time=503324  Note on, chan=1 pitch=62 vol=40
Time=503517  Note off, chan=1 pitch=62 vol=64
Time=503548  Note off, chan=1 pitch=50 vol=64
Time=503567  Note on, chan=1 pitch=65 vol=46
Time=503573  Note on, chan=1 pitch=52 vol=28
Time=503727  Note off, chan=1 pitch=65 vol=64
Time=503773  Note off, chan=1 pitch=52 vol=64
Time=503811  Note on, chan=1 pitch=67 vol=47
Time=503850  Note on, chan=1 pitch=53 vol=19
Time=503924  Note off, chan=1 pitch=67 vol=64
Time=503930  Note off, chan=1 pitch=53 vol=64
Time=504036  Note on, chan=1 pitch=64 vol=49
Time=504225  Note off, chan=1 pitch=64 vol=64
Time=504281  Note on, chan=1 pitch=65 vol=41
Time=504486  Note off, chan=1 pitch=65 vol=64
Time=504507  Note on, chan=1 pitch=62 vol=45
Time=504713  Note off, chan=1 pitch=62 vol=64
Time=504740  Note on, chan=1 pitch=64 vol=38
Time=504915  Note off, chan=1 pitch=64 vol=64
Time=504981  Note on, chan=1 pitch=60 vol=47
Time=504984  Note on, chan=1 pitch=48 vol=47
Time=505187  Note off, chan=1 pitch=60 vol=64
Time=505219  Note off, chan=1 pitch=48 vol=64
Time=505221  Note on, chan=1 pitch=64 vol=42
Time=505227  Note on, chan=1 pitch=52 vol=43
Time=505414  Note off, chan=1 pitch=64 vol=64
Time=505428  Note off, chan=1 pitch=52 vol=64
Time=505446  Note on, chan=1 pitch=55 vol=46
Time=505454  Note on, chan=1 pitch=67 vol=50
Time=505643  Note off, chan=1 pitch=67 vol=64
Time=505665  Note off, chan=1 pitch=55 vol=64
Time=505696  Note on, chan=1 pitch=57 vol=40
Time=505698  Note on, chan=1 pitch=69 vol=45
Time=505895  Note off, chan=1 pitch=57 vol=64
Time=505908  Note off, chan=1 pitch=69 vol=64
Time=505927  Note on, chan=1 pitch=53 vol=35
Time=505941  Note on, chan=1 pitch=65 vol=44
Time=506123  Note off, chan=1 pitch=65 vol=64
Time=506167  Note off, chan=1 pitch=53 vol=64
Time=506172  Note on, chan=1 pitch=67 vol=41
Time=506193  Note on, chan=1 pitch=55 vol=36
Time=506390  Note off, chan=1 pitch=55 vol=64
Time=506393  Note off, chan=1 pitch=67 vol=64
Time=506427  Note on, chan=1 pitch=64 vol=40
Time=506434  Note on, chan=1 pitch=52 vol=36
Time=506596  Note off, chan=1 pitch=52 vol=64
Time=506625  Note off, chan=1 pitch=64 vol=64
Time=506634  Note on, chan=1 pitch=53 vol=40
Time=506659  Note on, chan=1 pitch=65 vol=40
Time=506807  Note off, chan=1 pitch=53 vol=64
Time=506832  Note off, chan=1 pitch=65 vol=64
Time=506897  Note on, chan=1 pitch=62 vol=43
Time=506910  Note on, chan=1 pitch=50 vol=43
Time=507094  Note off, chan=1 pitch=62 vol=64
Time=507120  Note off, chan=1 pitch=50 vol=64
Time=507141  Note on, chan=1 pitch=53 vol=39
Time=507164  Note on, chan=1 pitch=65 vol=36
Time=507335  Note off, chan=1 pitch=65 vol=64
Time=507348  Note off, chan=1 pitch=53 vol=64
Time=507367  Note on, chan=1 pitch=57 vol=43
Time=507379  Note on, chan=1 pitch=69 vol=52
Time=507548  Note off, chan=1 pitch=69 vol=64
Time=507573  Note off, chan=1 pitch=57 vol=64
Time=507599  Note on, chan=1 pitch=59 vol=37
Time=507613  Note on, chan=1 pitch=71 vol=37
Time=507789  Note off, chan=1 pitch=71 vol=64
Time=507815  Note off, chan=1 pitch=59 vol=64
Time=507846  Note on, chan=1 pitch=67 vol=39
Time=507852  Note on, chan=1 pitch=55 vol=32
Time=508018  Note off, chan=1 pitch=67 vol=64
Time=508067  Note off, chan=1 pitch=55 vol=64
Time=508082  Note on, chan=1 pitch=57 vol=43
Time=508088  Note on, chan=1 pitch=69 vol=35
Time=508288  Note off, chan=1 pitch=57 vol=64
Time=508291  Note off, chan=1 pitch=69 vol=64
Time=508313  Note on, chan=1 pitch=65 vol=37
Time=508330  Note on, chan=1 pitch=53 vol=36
Time=508515  Note off, chan=1 pitch=65 vol=64
Time=508525  Note off, chan=1 pitch=53 vol=64
Time=508550  Note on, chan=1 pitch=67 vol=37
Time=508566  Note on, chan=1 pitch=55 vol=36
Time=508722  Note off, chan=1 pitch=55 vol=64
Time=508742  Note off, chan=1 pitch=67 vol=64
Time=508807  Note on, chan=1 pitch=64 vol=41
Time=508815  Note on, chan=1 pitch=52 vol=40
Time=509018  Note off, chan=1 pitch=64 vol=64
Time=509022  Note off, chan=1 pitch=52 vol=64
Time=509054  Note on, chan=1 pitch=55 vol=35
Time=509076  Note on, chan=1 pitch=67 vol=36
Time=509255  Note off, chan=1 pitch=67 vol=64
Time=509277  Note off, chan=1 pitch=55 vol=64
Time=509295  Note on, chan=1 pitch=71 vol=41
Time=509303  Note on, chan=1 pitch=59 vol=39
Time=509474  Note off, chan=1 pitch=71 vol=64
Time=509512  Note off, chan=1 pitch=59 vol=64
Time=509514  Note on, chan=1 pitch=60 vol=39
Time=509524  Note on, chan=1 pitch=72 vol=36
Time=509691  Note off, chan=1 pitch=72 vol=64
Time=509727  Note off, chan=1 pitch=60 vol=64
Time=509759  Note on, chan=1 pitch=69 vol=39
Time=509762  Note on, chan=1 pitch=57 vol=36
Time=509947  Note off, chan=1 pitch=69 vol=64
Time=510006  Note on, chan=1 pitch=71 vol=32
Time=510016  Note off, chan=1 pitch=57 vol=64
Time=510026  Note on, chan=1 pitch=59 vol=38
Time=510215  Note off, chan=1 pitch=59 vol=64
Time=510217  Note off, chan=1 pitch=71 vol=64
Time=510241  Note on, chan=1 pitch=67 vol=38
Time=510245  Note on, chan=1 pitch=55 vol=40
Time=510435  Note off, chan=1 pitch=55 vol=64
Time=510455  Note off, chan=1 pitch=67 vol=64
Time=510462  Note on, chan=1 pitch=57 vol=40
Time=510491  Note on, chan=1 pitch=69 vol=45
Time=510636  Note off, chan=1 pitch=57 vol=64
Time=510678  Note off, chan=1 pitch=69 vol=64
Time=510720  Note on, chan=1 pitch=53 vol=45
Time=510734  Note on, chan=1 pitch=65 vol=41
Time=510924  Note off, chan=1 pitch=65 vol=64
Time=510929  Note off, chan=1 pitch=53 vol=64
Time=510955  Note on, chan=1 pitch=57 vol=43
Time=510983  Note on, chan=1 pitch=69 vol=39
Time=511182  Note off, chan=1 pitch=69 vol=64
Time=511193  Note off, chan=1 pitch=57 vol=64
Time=511215  Note on, chan=1 pitch=72 vol=41
Time=511218  Note on, chan=1 pitch=60 vol=24
Time=511394  Note off, chan=1 pitch=72 vol=64
Time=511434  Note off, chan=1 pitch=60 vol=64
Time=511437  Note on, chan=1 pitch=62 vol=37
Time=511467  Note on, chan=1 pitch=74 vol=38
Time=511640  Note off, chan=1 pitch=74 vol=64
Time=511650  Note off, chan=1 pitch=62 vol=64
Time=511694  Note on, chan=1 pitch=71 vol=36
Time=511707  Note on, chan=1 pitch=59 vol=33
Time=511883  Note off, chan=1 pitch=71 vol=64
Time=511931  Note off, chan=1 pitch=59 vol=64
Time=511933  Note on, chan=1 pitch=60 vol=36
Time=511936  Note on, chan=1 pitch=72 vol=36
Time=512136  Note off, chan=1 pitch=60 vol=64
Time=512147  Note off, chan=1 pitch=72 vol=64
Time=512158  Note on, chan=1 pitch=57 vol=39
Time=512163  Note on, chan=1 pitch=69 vol=36
Time=512365  Note off, chan=1 pitch=57 vol=64
Time=512367  Note off, chan=1 pitch=69 vol=64
Time=512406  Note on, chan=1 pitch=59 vol=36
Time=512408  Note on, chan=1 pitch=71 vol=38
Time=512573  Note off, chan=1 pitch=59 vol=64
Time=512607  Note off, chan=1 pitch=71 vol=64
Time=512663  Note on, chan=1 pitch=67 vol=41
Time=512669  Note on, chan=1 pitch=55 vol=41
Time=512863  Note off, chan=1 pitch=67 vol=64
Time=512883  Note off, chan=1 pitch=55 vol=64
Time=512912  Note on, chan=1 pitch=59 vol=43
Time=512913  Note on, chan=1 pitch=71 vol=39
Time=513105  Note off, chan=1 pitch=71 vol=64
Time=513137  Note on, chan=1 pitch=74 vol=46
Time=513150  Note on, chan=1 pitch=62 vol=44
Time=513160  Note off, chan=1 pitch=59 vol=64
Time=513342  Note off, chan=1 pitch=74 vol=64
Time=513364  Note off, chan=1 pitch=62 vol=64
Time=513381  Note on, chan=1 pitch=64 vol=46
Time=513387  Note on, chan=1 pitch=76 vol=43
Time=513575  Note off, chan=1 pitch=76 vol=64
Time=513577  Note off, chan=1 pitch=64 vol=64
Time=513605  Note on, chan=1 pitch=60 vol=40
Time=513622  Note on, chan=1 pitch=72 vol=42
Time=513810  Note off, chan=1 pitch=72 vol=64
Time=513849  Note on, chan=1 pitch=74 vol=44
Time=513861  Note on, chan=1 pitch=62 vol=47
Time=513864  Note off, chan=1 pitch=60 vol=64
Time=514063  Note off, chan=1 pitch=74 vol=64
Time=514066  Note off, chan=1 pitch=62 vol=64
Time=514080  Note on, chan=1 pitch=71 vol=38
Time=514086  Note on, chan=1 pitch=59 vol=44
Time=514275  Note off, chan=1 pitch=59 vol=64
Time=514286  Note off, chan=1 pitch=71 vol=64
Time=514305  Note on, chan=1 pitch=72 vol=46
Time=514308  Note on, chan=1 pitch=60 vol=40
Time=514478  Note off, chan=1 pitch=60 vol=64
Time=514515  Note off, chan=1 pitch=72 vol=64
Time=514574  Note on, chan=1 pitch=57 vol=45
Time=514578  Note on, chan=1 pitch=69 vol=48
Time=514765  Note off, chan=1 pitch=69 vol=64
Time=514804  Note off, chan=1 pitch=57 vol=64
Time=514809  Note on, chan=1 pitch=60 vol=36
Time=514812  Note on, chan=1 pitch=72 vol=40
Time=515015  Note off, chan=1 pitch=72 vol=64
Time=515031  Note off, chan=1 pitch=60 vol=64
Time=515034  Note on, chan=1 pitch=64 vol=47
Time=515051  Note on, chan=1 pitch=76 vol=49
Time=515228  Note off, chan=1 pitch=76 vol=64
Time=515246  Note off, chan=1 pitch=64 vol=64
Time=515270  Note on, chan=1 pitch=77 vol=49
Time=515271  Note on, chan=1 pitch=65 vol=52
Time=515449  Note off, chan=1 pitch=77 vol=64
Time=515453  Note off, chan=1 pitch=65 vol=64
Time=515483  Note on, chan=1 pitch=62 vol=40
Time=515524  Note on, chan=1 pitch=74 vol=36
Time=515679  Note off, chan=1 pitch=74 vol=64
Time=515733  Note off, chan=1 pitch=62 vol=64
Time=515740  Note on, chan=1 pitch=76 vol=37
Time=515753  Note on, chan=1 pitch=64 vol=40
Time=515951  Note off, chan=1 pitch=76 vol=64
Time=515969  Note off, chan=1 pitch=64 vol=64
Time=515976  Note on, chan=1 pitch=72 vol=45
Time=515991  Note on, chan=1 pitch=60 vol=43
Time=516194  Note off, chan=1 pitch=72 vol=64
Time=516208  Note off, chan=1 pitch=60 vol=64
Time=516228  Note on, chan=1 pitch=74 vol=41
Time=516244  Note on, chan=1 pitch=62 vol=39
Time=516391  Note off, chan=1 pitch=62 vol=64
Time=516417  Note off, chan=1 pitch=74 vol=64
Time=516488  Note on, chan=1 pitch=71 vol=43
Time=516499  Note on, chan=1 pitch=59 vol=41
Time=516701  Note off, chan=1 pitch=59 vol=64
Time=516707  Note off, chan=1 pitch=71 vol=64
Time=516732  Note on, chan=1 pitch=62 vol=40
Time=516734  Note on, chan=1 pitch=74 vol=41
Time=516944  Note off, chan=1 pitch=74 vol=64
Time=516949  Note off, chan=1 pitch=62 vol=64
Time=516969  Note on, chan=1 pitch=77 vol=47
Time=516974  Note on, chan=1 pitch=65 vol=40
Time=517130  Note off, chan=1 pitch=77 vol=64
Time=517178  Note off, chan=1 pitch=65 vol=64
Time=517194  Note on, chan=1 pitch=79 vol=41
Time=517208  Note on, chan=1 pitch=67 vol=42
Time=517324  Note off, chan=1 pitch=67 vol=64
Time=517388  Note off, chan=1 pitch=79 vol=64
Time=517436  Note on, chan=1 pitch=64 vol=39
Time=517457  Note on, chan=1 pitch=76 vol=42
Time=517615  Note off, chan=1 pitch=76 vol=64
Time=517668  Note off, chan=1 pitch=64 vol=64
Time=517678  Note on, chan=1 pitch=65 vol=45
Time=517686  Note on, chan=1 pitch=77 vol=37
Time=517885  Note off, chan=1 pitch=77 vol=64
Time=517922  Note on, chan=1 pitch=74 vol=43
Time=517940  Note on, chan=1 pitch=62 vol=52
Time=517946  Note off, chan=1 pitch=65 vol=64
Time=518129  Note off, chan=1 pitch=62 vol=64
Time=518134  Note on, chan=1 pitch=64 vol=47
Time=518138  Note off, chan=1 pitch=74 vol=64
Time=518151  Note on, chan=1 pitch=76 vol=36
Time=518269  Note off, chan=1 pitch=64 vol=64
Time=518276  Note off, chan=1 pitch=76 vol=64
Time=518388  Note on, chan=1 pitch=79 vol=42
Time=518402  Note on, chan=1 pitch=67 vol=36
Time=518651  Note on, chan=1 pitch=64 vol=36
Time=518732  Note off, chan=1 pitch=64 vol=64
Time=518780  Note off, chan=1 pitch=79 vol=64
Time=518836  Note off, chan=1 pitch=67 vol=64
Time=520677  Note on, chan=1 pitch=67 vol=25
Time=520710  Note on, chan=1 pitch=79 vol=21
Time=520764  Note off, chan=1 pitch=67 vol=64
Time=520786  Note off, chan=1 pitch=79 vol=64
Time=522230  Note on, chan=1 pitch=67 vol=63
Time=522236  Note on, chan=1 pitch=79 vol=63
Time=522468  Note off, chan=1 pitch=79 vol=64
Time=522482  Note on, chan=1 pitch=76 vol=52
Time=522578  Note off, chan=1 pitch=67 vol=64
Time=522661  Note off, chan=1 pitch=76 vol=64
Time=522732  Note on, chan=1 pitch=72 vol=50
Time=522879  Note off, chan=1 pitch=72 vol=64
Time=537998  Meta event, end of track
Track end
